<?xml version="1.0" encoding="UTF-8"?>
<svg xmlns="http://www.w3.org/2000/svg" width="1080" height="520" viewBox="0 0 1080 520">
  <rect width="100%" height="100%" fill="#f7f9fc" />
  <text x="96" y="26" font-size="20" font-family="Arial, sans-serif" font-weight="700" fill="#18212f">All sectors comparison chart</text>
  <text x="96" y="48" font-size="12" font-family="Arial, sans-serif" fill="#445166">Cumulative NVDR NET by sector | 2026-01-01 to 2026-04-21</text>
  
      <line x1="96" y1="54.0" x2="890" y2="54.0" stroke="#d8dde6" stroke-width="1" />
      <text x="86" y="58.0" text-anchor="end" font-size="12" fill="#445166">47,599.76</text>
    
      <line x1="96" y1="136.0" x2="890" y2="136.0" stroke="#d8dde6" stroke-width="1" />
      <text x="86" y="140.0" text-anchor="end" font-size="12" fill="#445166">36,914.63</text>
    
      <line x1="96" y1="218.0" x2="890" y2="218.0" stroke="#d8dde6" stroke-width="1" />
      <text x="86" y="222.0" text-anchor="end" font-size="12" fill="#445166">26,229.50</text>
    
      <line x1="96" y1="300.0" x2="890" y2="300.0" stroke="#d8dde6" stroke-width="1" />
      <text x="86" y="304.0" text-anchor="end" font-size="12" fill="#445166">15,544.38</text>
    
      <line x1="96" y1="382.0" x2="890" y2="382.0" stroke="#d8dde6" stroke-width="1" />
      <text x="86" y="386.0" text-anchor="end" font-size="12" fill="#445166">4,859.25</text>
    
      <line x1="96" y1="464.0" x2="890" y2="464.0" stroke="#d8dde6" stroke-width="1" />
      <text x="86" y="468.0" text-anchor="end" font-size="12" fill="#445166">-5,825.88</text>
    
  <line x1="96" y1="419.3" x2="890" y2="419.3" stroke="#7a8799" stroke-width="1.4" stroke-dasharray="4 4" />
  <line x1="96" y1="54" x2="96" y2="464" stroke="#445166" stroke-width="1.2" />
  <line x1="96" y1="464" x2="890" y2="464" stroke="#445166" stroke-width="1.2" />
  
      <line x1="96.0" y1="464" x2="96.0" y2="470" stroke="#445166" stroke-width="1" />
      <text x="96.0" y="486" text-anchor="middle" font-size="12" fill="#445166">2026-01-05</text>
    
      <line x1="487.4" y1="464" x2="487.4" y2="470" stroke="#445166" stroke-width="1" />
      <text x="487.4" y="486" text-anchor="middle" font-size="12" fill="#445166">2026-02-23</text>
    
      <line x1="890.0" y1="464" x2="890.0" y2="470" stroke="#445166" stroke-width="1" />
      <text x="890.0" y="486" text-anchor="middle" font-size="12" fill="#445166">2026-04-21</text>
    
  <polyline fill="none" stroke="#0b84f3" stroke-width="2.2" points="96.0,415.4 107.2,407.4 118.4,405.0 129.5,405.7 140.7,401.3 151.9,397.4 163.1,394.3 174.3,385.9 185.5,378.7 196.6,370.9 207.8,368.7 219.0,366.4 230.2,354.3 241.4,343.5 252.6,335.2 263.7,327.1 274.9,316.7 286.1,308.6 297.3,311.2 308.5,308.7 319.7,299.5 330.8,295.9 342.0,282.6 353.2,266.3 364.4,252.5 375.6,234.6 386.8,221.0 397.9,214.0 409.1,182.2 420.3,173.0 431.5,169.5 442.7,160.8 453.9,160.3 465.0,138.3 476.2,136.5 487.4,138.9 498.6,121.9 509.8,122.8 521.0,130.9 532.1,125.7 543.3,145.2 554.5,139.5 565.7,140.1 576.9,144.6 588.1,151.8 599.2,159.8 610.4,156.4 621.6,151.8 632.8,149.7 644.0,160.9 655.2,151.7 666.3,156.8 677.5,147.6 688.7,142.2 699.9,141.4 711.1,140.7 722.3,134.5 733.4,120.9 744.6,107.2 755.8,109.0 767.0,109.6 778.2,104.9 789.4,98.1 800.5,104.2 811.7,90.7 822.9,84.1 834.1,78.3 845.3,77.4 856.5,71.9 867.6,62.1 878.8,54.4 890.0,54.0" /><circle cx="890.0" cy="54.0" r="3.5" fill="#0b84f3" /><polyline fill="none" stroke="#f39c12" stroke-width="2.2" points="96.0,418.3 107.2,418.3 118.4,418.4 129.5,418.6 140.7,418.2 151.9,419.2 163.1,419.7 174.3,420.2 185.5,420.0 196.6,419.5 207.8,418.9 219.0,416.2 230.2,413.7 241.4,412.0 252.6,412.1 263.7,412.0 274.9,410.0 286.1,408.6 297.3,408.3 308.5,407.1 319.7,407.9 330.8,407.6 342.0,407.2 353.2,405.8 364.4,405.4 375.6,397.9 386.8,396.4 397.9,394.8 409.1,392.2 420.3,389.7 431.5,390.7 442.7,390.4 453.9,386.8 465.0,385.2 476.2,384.3 487.4,384.2 498.6,383.5 509.8,382.2 521.0,381.9 532.1,379.6 543.3,376.2 554.5,375.9 565.7,376.8 576.9,379.1 588.1,379.3 599.2,382.4 610.4,384.9 621.6,387.3 632.8,389.7 644.0,389.5 655.2,390.2 666.3,390.5 677.5,392.1 688.7,391.4 699.9,392.0 711.1,392.7 722.3,392.0 733.4,390.9 744.6,390.3 755.8,389.7 767.0,389.2 778.2,388.3 789.4,388.3 800.5,387.9 811.7,387.4 822.9,385.4 834.1,387.6 845.3,387.6 856.5,385.8 867.6,386.2 878.8,385.8 890.0,384.9" /><circle cx="890.0" cy="384.9" r="3.5" fill="#f39c12" /><polyline fill="none" stroke="#27ae60" stroke-width="2.2" points="96.0,418.2 107.2,417.6 118.4,416.1 129.5,418.0 140.7,417.6 151.9,417.2 163.1,415.5 174.3,414.6 185.5,412.4 196.6,412.3 207.8,406.4 219.0,401.9 230.2,400.4 241.4,398.4 252.6,396.2 263.7,394.2 274.9,391.2 286.1,391.0 297.3,388.6 308.5,385.0 319.7,382.9 330.8,376.5 342.0,376.3 353.2,371.5 364.4,369.5 375.6,366.0 386.8,362.9 397.9,363.2 409.1,361.1 420.3,362.5 431.5,362.4 442.7,360.6 453.9,358.3 465.0,363.4 476.2,366.3 487.4,369.5 498.6,360.9 509.8,359.9 521.0,353.4 532.1,352.5 543.3,352.4 554.5,354.8 565.7,362.2 576.9,366.0 588.1,367.0 599.2,371.1 610.4,374.2 621.6,375.0 632.8,376.5 644.0,378.6 655.2,379.0 666.3,379.5 677.5,384.3 688.7,385.3 699.9,388.7 711.1,387.5 722.3,389.0 733.4,388.5 744.6,382.3 755.8,379.4 767.0,379.2 778.2,380.6 789.4,381.7 800.5,381.3 811.7,379.9 822.9,377.9 834.1,378.3 845.3,379.7 856.5,382.0 867.6,384.1 878.8,383.8 890.0,385.1" /><circle cx="890.0" cy="385.1" r="3.5" fill="#27ae60" /><polyline fill="none" stroke="#c0392b" stroke-width="2.2" points="96.0,419.9 107.2,419.6 118.4,418.7 129.5,419.0 140.7,418.4 151.9,419.2 163.1,419.0 174.3,418.0 185.5,416.8 196.6,415.9 207.8,414.7 219.0,414.4 230.2,413.7 241.4,414.8 252.6,415.5 263.7,415.7 274.9,415.6 286.1,416.5 297.3,416.9 308.5,417.2 319.7,417.6 330.8,416.8 342.0,417.6 353.2,417.0 364.4,416.3 375.6,413.6 386.8,413.5 397.9,412.3 409.1,410.4 420.3,409.5 431.5,409.7 442.7,407.8 453.9,407.0 465.0,406.6 476.2,407.7 487.4,406.9 498.6,405.6 509.8,403.4 521.0,400.6 532.1,400.8 543.3,399.6 554.5,400.9 565.7,404.5 576.9,405.1 588.1,404.0 599.2,404.8 610.4,406.7 621.6,406.3 632.8,407.0 644.0,406.8 655.2,405.2 666.3,403.5 677.5,406.2 688.7,404.7 699.9,407.6 711.1,409.0 722.3,406.9 733.4,405.0 744.6,400.1 755.8,399.0 767.0,397.1 778.2,396.2 789.4,393.4 800.5,393.7 811.7,392.1 822.9,391.6 834.1,391.3 845.3,389.9 856.5,390.5 867.6,391.5 878.8,390.6 890.0,390.4" /><circle cx="890.0" cy="390.4" r="3.5" fill="#c0392b" /><polyline fill="none" stroke="#8e44ad" stroke-width="2.2" points="96.0,418.8 107.2,419.0 118.4,414.4 129.5,414.7 140.7,415.0 151.9,415.1 163.1,414.9 174.3,414.0 185.5,413.1 196.6,413.8 207.8,413.6 219.0,412.9 230.2,411.3 241.4,410.0 252.6,410.0 263.7,409.0 274.9,408.4 286.1,407.1 297.3,406.5 308.5,406.0 319.7,405.4 330.8,405.8 342.0,403.4 353.2,403.9 364.4,403.6 375.6,402.8 386.8,402.0 397.9,402.4 409.1,400.8 420.3,401.4 431.5,402.2 442.7,403.0 453.9,404.1 465.0,404.3 476.2,405.2 487.4,404.7 498.6,403.9 509.8,403.1 521.0,404.1 532.1,403.3 543.3,402.3 554.5,404.2 565.7,405.6 576.9,404.2 588.1,405.5 599.2,407.2 610.4,407.5 621.6,407.2 632.8,409.4 644.0,409.1 655.2,407.2 666.3,409.0 677.5,410.5 688.7,410.2 699.9,410.9 711.1,410.8 722.3,406.9 733.4,407.1 744.6,404.9 755.8,402.4 767.0,400.6 778.2,394.3 789.4,394.7 800.5,394.7 811.7,392.0 822.9,391.4 834.1,390.2 845.3,391.3 856.5,390.9 867.6,392.9 878.8,394.8 890.0,394.0" /><circle cx="890.0" cy="394.0" r="3.5" fill="#8e44ad" /><polyline fill="none" stroke="#16a085" stroke-width="2.2" points="96.0,421.3 107.2,433.0 118.4,437.9 129.5,456.1 140.7,456.5 151.9,456.3 163.1,455.7 174.3,455.5 185.5,453.5 196.6,452.6 207.8,451.6 219.0,452.7 230.2,443.5 241.4,446.1 252.6,444.0 263.7,445.8 274.9,434.9 286.1,438.0 297.3,436.6 308.5,433.6 319.7,431.3 330.8,431.4 342.0,431.4 353.2,434.2 364.4,430.9 375.6,419.3 386.8,423.9 397.9,422.5 409.1,420.2 420.3,424.0 431.5,421.7 442.7,420.7 453.9,420.4 465.0,413.5 476.2,416.6 487.4,410.8 498.6,413.2 509.8,404.9 521.0,408.0 532.1,406.8 543.3,399.9 554.5,393.9 565.7,399.2 576.9,405.8 588.1,409.9 599.2,416.5 610.4,419.5 621.6,422.1 632.8,429.7 644.0,427.6 655.2,426.2 666.3,425.2 677.5,427.0 688.7,430.7 699.9,434.4 711.1,434.4 722.3,413.8 733.4,423.7 744.6,427.5 755.8,434.6 767.0,444.5 778.2,436.4 789.4,431.4 800.5,432.7 811.7,427.6 822.9,426.6 834.1,404.9 845.3,389.7 856.5,396.7 867.6,396.8 878.8,395.7 890.0,394.3" /><circle cx="890.0" cy="394.3" r="3.5" fill="#16a085" /><polyline fill="none" stroke="#2c3e50" stroke-width="2.2" points="96.0,417.8 107.2,417.5 118.4,416.4 129.5,417.3 140.7,417.9 151.9,418.1 163.1,417.7 174.3,417.1 185.5,417.6 196.6,418.8 207.8,419.5 219.0,420.4 230.2,420.1 241.4,419.4 252.6,419.6 263.7,419.3 274.9,419.6 286.1,420.1 297.3,422.0 308.5,422.4 319.7,422.6 330.8,422.9 342.0,422.4 353.2,422.6 364.4,418.3 375.6,418.2 386.8,416.9 397.9,416.0 409.1,415.1 420.3,415.5 431.5,416.8 442.7,417.0 453.9,416.8 465.0,415.6 476.2,416.3 487.4,415.8 498.6,413.1 509.8,408.6 521.0,410.7 532.1,408.0 543.3,409.3 554.5,410.4 565.7,411.9 576.9,411.8 588.1,411.9 599.2,413.4 610.4,414.2 621.6,415.2 632.8,415.9 644.0,416.0 655.2,414.0 666.3,415.0 677.5,415.9 688.7,415.9 699.9,416.4 711.1,416.9 722.3,415.1 733.4,415.3 744.6,415.1 755.8,414.5 767.0,415.5 778.2,414.0 789.4,413.6 800.5,412.7 811.7,411.9 822.9,411.0 834.1,411.2 845.3,411.0 856.5,400.7 867.6,398.2 878.8,396.0 890.0,396.6" /><circle cx="890.0" cy="396.6" r="3.5" fill="#2c3e50" /><polyline fill="none" stroke="#d35400" stroke-width="2.2" points="96.0,417.8 107.2,418.2 118.4,416.4 129.5,418.6 140.7,419.9 151.9,420.5 163.1,419.9 174.3,421.1 185.5,421.9 196.6,422.5 207.8,420.1 219.0,415.0 230.2,411.2 241.4,394.9 252.6,391.3 263.7,392.4 274.9,393.9 286.1,394.5 297.3,396.7 308.5,395.6 319.7,395.0 330.8,394.5 342.0,393.7 353.2,393.1 364.4,392.2 375.6,395.2 386.8,394.3 397.9,394.7 409.1,394.9 420.3,396.8 431.5,394.3 442.7,395.5 453.9,396.0 465.0,394.1 476.2,393.9 487.4,392.2 498.6,387.7 509.8,387.5 521.0,381.5 532.1,379.4 543.3,381.0 554.5,376.7 565.7,382.2 576.9,382.5 588.1,381.7 599.2,386.4 610.4,390.3 621.6,394.6 632.8,398.7 644.0,399.5 655.2,403.4 666.3,405.0 677.5,407.8 688.7,408.7 699.9,411.5 711.1,412.7 722.3,413.6 733.4,416.6 744.6,414.7 755.8,411.7 767.0,413.2 778.2,411.3 789.4,409.7 800.5,411.1 811.7,411.4 822.9,408.0 834.1,412.3 845.3,413.2 856.5,412.1 867.6,412.0 878.8,412.9 890.0,413.8" /><circle cx="890.0" cy="413.8" r="3.5" fill="#d35400" /><polyline fill="none" stroke="#7f8c8d" stroke-width="2.2" points="96.0,419.3 107.2,419.2 118.4,418.9 129.5,419.0 140.7,418.9 151.9,418.9 163.1,418.7 174.3,418.4 185.5,416.8 196.6,416.6 207.8,415.7 219.0,415.2 230.2,414.5 241.4,414.0 252.6,413.9 263.7,413.7 274.9,413.6 286.1,413.4 297.3,413.7 308.5,413.8 319.7,413.7 330.8,413.6 342.0,413.3 353.2,413.5 364.4,413.4 375.6,413.5 386.8,413.5 397.9,413.6 409.1,413.5 420.3,413.5 431.5,413.6 442.7,413.6 453.9,413.2 465.0,412.8 476.2,413.4 487.4,413.1 498.6,413.2 509.8,413.2 521.0,413.4 532.1,413.5 543.3,413.8 554.5,414.0 565.7,414.6 576.9,414.8 588.1,414.8 599.2,415.1 610.4,415.4 621.6,415.4 632.8,415.8 644.0,416.0 655.2,415.5 666.3,416.2 677.5,416.5 688.7,416.3 699.9,416.5 711.1,416.7 722.3,416.7 733.4,417.0 744.6,416.9 755.8,416.5 767.0,416.5 778.2,416.1 789.4,415.9 800.5,415.9 811.7,415.8 822.9,415.7 834.1,416.1 845.3,415.3 856.5,415.2 867.6,414.9 878.8,415.1 890.0,415.0" /><circle cx="890.0" cy="415.0" r="3.5" fill="#7f8c8d" /><polyline fill="none" stroke="#e84393" stroke-width="2.2" points="96.0,419.3 107.2,419.2 118.4,419.0 129.5,419.1 140.7,419.0 151.9,419.1 163.1,419.1 174.3,419.0 185.5,418.8 196.6,418.2 207.8,418.4 219.0,418.1 230.2,417.8 241.4,418.0 252.6,418.0 263.7,417.9 274.9,417.8 286.1,417.8 297.3,417.9 308.5,417.9 319.7,417.9 330.8,417.6 342.0,417.4 353.2,417.5 364.4,417.7 375.6,416.5 386.8,416.1 397.9,416.2 409.1,415.9 420.3,415.9 431.5,415.9 442.7,415.6 453.9,415.8 465.0,415.6 476.2,415.1 487.4,414.8 498.6,412.3 509.8,412.6 521.0,412.4 532.1,412.5 543.3,411.2 554.5,411.2 565.7,412.3 576.9,412.6 588.1,411.8 599.2,411.9 610.4,412.6 621.6,412.4 632.8,413.2 644.0,414.0 655.2,413.8 666.3,413.6 677.5,415.4 688.7,415.6 699.9,415.8 711.1,415.9 722.3,415.8 733.4,416.1 744.6,416.1 755.8,416.0 767.0,415.9 778.2,413.1 789.4,413.6 800.5,414.6 811.7,415.1 822.9,414.9 834.1,416.0 845.3,416.5 856.5,416.2 867.6,416.5 878.8,416.8 890.0,416.5" /><circle cx="890.0" cy="416.5" r="3.5" fill="#e84393" /><polyline fill="none" stroke="#6c5ce7" stroke-width="2.2" points="96.0,419.4 107.2,419.4 118.4,419.3 129.5,419.4 140.7,419.5 151.9,419.6 163.1,419.6 174.3,419.3 185.5,419.2 196.6,419.3 207.8,419.2 219.0,419.1 230.2,419.1 241.4,419.0 252.6,418.9 263.7,418.9 274.9,418.8 286.1,418.8 297.3,418.8 308.5,418.8 319.7,418.8 330.8,418.6 342.0,418.7 353.2,418.4 364.4,418.5 375.6,418.2 386.8,417.6 397.9,417.6 409.1,417.8 420.3,417.4 431.5,418.0 442.7,418.0 453.9,417.6 465.0,417.6 476.2,417.4 487.4,416.8 498.6,416.7 509.8,417.2 521.0,417.4 532.1,416.9 543.3,416.7 554.5,416.5 565.7,416.6 576.9,416.6 588.1,416.3 599.2,416.5 610.4,416.6 621.6,416.6 632.8,416.8 644.0,416.7 655.2,416.7 666.3,417.0 677.5,417.0 688.7,416.9 699.9,416.9 711.1,417.0 722.3,417.1 733.4,417.2 744.6,417.2 755.8,417.2 767.0,417.2 778.2,417.4 789.4,417.4 800.5,417.5 811.7,417.5 822.9,417.4 834.1,417.6 845.3,417.6 856.5,417.4 867.6,417.4 878.8,417.4 890.0,417.5" /><circle cx="890.0" cy="417.5" r="3.5" fill="#6c5ce7" /><polyline fill="none" stroke="#00b894" stroke-width="2.2" points="96.0,419.3 107.2,419.3 118.4,419.3 129.5,419.3 140.7,419.3 151.9,419.4 163.1,419.3 174.3,419.2 185.5,419.2 196.6,419.2 207.8,419.3 219.0,419.2 230.2,419.2 241.4,419.2 252.6,419.1 263.7,419.2 274.9,419.2 286.1,419.2 297.3,419.2 308.5,419.1 319.7,419.1 330.8,419.0 342.0,419.0 353.2,419.1 364.4,419.1 375.6,419.1 386.8,419.1 397.9,419.1 409.1,419.0 420.3,419.2 431.5,419.4 442.7,419.4 453.9,419.5 465.0,419.5 476.2,419.5 487.4,419.5 498.6,419.5 509.8,419.5 521.0,419.6 532.1,419.5 543.3,419.5 554.5,419.5 565.7,419.5 576.9,418.8 588.1,419.0 599.2,419.1 610.4,419.2 621.6,419.3 632.8,419.3 644.0,419.4 655.2,419.3 666.3,419.3 677.5,419.5 688.7,419.6 699.9,419.6 711.1,419.8 722.3,419.8 733.4,419.8 744.6,419.2 755.8,419.0 767.0,418.7 778.2,418.4 789.4,418.0 800.5,418.0 811.7,418.1 822.9,418.1 834.1,418.1 845.3,418.0 856.5,418.0 867.6,418.1 878.8,418.1 890.0,418.1" /><circle cx="890.0" cy="418.1" r="3.5" fill="#00b894" /><polyline fill="none" stroke="#0b84f3" stroke-width="2.2" points="96.0,419.3 107.2,419.3 118.4,419.3 129.5,419.3 140.7,419.3 151.9,419.3 163.1,419.3 174.3,419.3 185.5,419.3 196.6,419.3 207.8,419.3 219.0,419.3 230.2,419.3 241.4,419.3 252.6,419.3 263.7,419.3 274.9,419.3 286.1,419.3 297.3,419.3 308.5,419.3 319.7,419.3 330.8,419.3 342.0,419.3 353.2,419.3 364.4,419.3 375.6,419.2 386.8,419.1 397.9,419.1 409.1,419.1 420.3,419.1 431.5,419.1 442.7,419.0 453.9,419.0 465.0,418.8 476.2,418.9 487.4,418.9 498.6,418.8 509.8,418.6 521.0,418.7 532.1,418.7 543.3,418.8 554.5,418.8 565.7,418.8 576.9,418.8 588.1,418.9 599.2,418.9 610.4,418.9 621.6,418.9 632.8,418.9 644.0,418.9 655.2,419.0 666.3,419.0 677.5,419.1 688.7,419.1 699.9,419.2 711.1,419.2 722.3,419.2 733.4,419.3 744.6,419.3 755.8,419.3 767.0,419.3 778.2,419.3 789.4,419.3 800.5,419.3 811.7,419.3 822.9,419.3 834.1,419.4 845.3,419.3 856.5,419.3 867.6,419.3 878.8,419.3 890.0,419.3" /><circle cx="890.0" cy="419.3" r="3.5" fill="#0b84f3" /><polyline fill="none" stroke="#f39c12" stroke-width="2.2" points="96.0,419.1 107.2,418.9 118.4,418.8 129.5,418.7 140.7,418.7 151.9,418.7 163.1,418.8 174.3,418.7 185.5,418.7 196.6,418.7 207.8,418.7 219.0,418.5 230.2,418.4 241.4,418.3 252.6,418.6 263.7,418.8 274.9,418.8 286.1,419.0 297.3,419.1 308.5,419.3 319.7,419.4 330.8,419.4 342.0,419.4 353.2,419.3 364.4,419.3 375.6,419.2 386.8,419.2 397.9,419.2 409.1,419.3 420.3,419.5 431.5,419.0 442.7,419.3 453.9,419.2 465.0,419.5 476.2,419.8 487.4,419.9 498.6,419.7 509.8,419.8 521.0,420.0 532.1,420.2 543.3,420.1 554.5,419.9 565.7,419.9 576.9,418.9 588.1,420.0 599.2,419.6 610.4,419.8 621.6,419.4 632.8,419.3 644.0,419.4 655.2,419.7 666.3,419.5 677.5,419.6 688.7,419.9 699.9,420.0 711.1,419.9 722.3,419.8 733.4,419.9 744.6,419.5 755.8,419.7 767.0,419.5 778.2,418.8 789.4,419.0 800.5,419.0 811.7,419.2 822.9,419.2 834.1,419.3 845.3,419.4 856.5,419.6 867.6,419.7 878.8,419.6 890.0,419.7" /><circle cx="890.0" cy="419.7" r="3.5" fill="#f39c12" /><polyline fill="none" stroke="#27ae60" stroke-width="2.2" points="96.0,419.3 107.2,419.3 118.4,419.2 129.5,419.3 140.7,419.3 151.9,419.3 163.1,419.3 174.3,419.3 185.5,419.2 196.6,419.2 207.8,419.1 219.0,419.1 230.2,419.1 241.4,419.1 252.6,419.1 263.7,419.1 274.9,419.0 286.1,419.1 297.3,419.0 308.5,419.0 319.7,419.0 330.8,418.9 342.0,419.0 353.2,419.0 364.4,419.0 375.6,418.9 386.8,419.0 397.9,419.1 409.1,419.1 420.3,419.2 431.5,419.2 442.7,419.1 453.9,419.1 465.0,419.1 476.2,419.3 487.4,419.3 498.6,419.4 509.8,419.6 521.0,419.7 532.1,419.7 543.3,419.8 554.5,419.8 565.7,419.9 576.9,419.9 588.1,419.9 599.2,420.0 610.4,420.0 621.6,420.0 632.8,420.0 644.0,420.0 655.2,420.0 666.3,420.0 677.5,420.0 688.7,420.0 699.9,420.0 711.1,420.0 722.3,420.0 733.4,420.0 744.6,420.0 755.8,420.0 767.0,420.0 778.2,420.0 789.4,420.0 800.5,420.0 811.7,420.0 822.9,419.9 834.1,420.0 845.3,420.0 856.5,420.0 867.6,420.0 878.8,420.0 890.0,420.0" /><circle cx="890.0" cy="420.0" r="3.5" fill="#27ae60" /><polyline fill="none" stroke="#c0392b" stroke-width="2.2" points="96.0,419.7 107.2,419.9 118.4,420.0 129.5,419.9 140.7,419.8 151.9,420.2 163.1,419.9 174.3,419.9 185.5,420.0 196.6,420.2 207.8,420.4 219.0,420.7 230.2,420.9 241.4,421.0 252.6,420.9 263.7,420.4 274.9,420.2 286.1,420.1 297.3,420.2 308.5,419.8 319.7,420.1 330.8,420.0 342.0,419.1 353.2,419.0 364.4,418.9 375.6,417.9 386.8,417.4 397.9,417.1 409.1,416.8 420.3,416.6 431.5,416.7 442.7,416.5 453.9,416.5 465.0,416.4 476.2,416.3 487.4,416.3 498.6,416.2 509.8,416.3 521.0,416.1 532.1,416.6 543.3,416.6 554.5,416.8 565.7,417.7 576.9,418.1 588.1,418.5 599.2,418.9 610.4,419.2 621.6,419.5 632.8,419.9 644.0,420.0 655.2,420.3 666.3,420.5 677.5,420.9 688.7,420.9 699.9,421.3 711.1,421.3 722.3,421.2 733.4,421.2 744.6,420.8 755.8,420.9 767.0,420.6 778.2,420.5 789.4,420.5 800.5,420.5 811.7,420.2 822.9,419.9 834.1,420.2 845.3,420.1 856.5,420.1 867.6,420.4 878.8,420.4 890.0,420.2" /><circle cx="890.0" cy="420.2" r="3.5" fill="#c0392b" /><polyline fill="none" stroke="#8e44ad" stroke-width="2.2" points="96.0,418.9 107.2,418.6 118.4,417.6 129.5,416.9 140.7,416.7 151.9,416.3 163.1,415.6 174.3,413.8 185.5,410.7 196.6,409.6 207.8,409.5 219.0,409.2 230.2,409.7 241.4,410.1 252.6,410.1 263.7,409.8 274.9,408.8 286.1,408.9 297.3,409.1 308.5,409.1 319.7,408.1 330.8,405.4 342.0,404.6 353.2,403.4 364.4,403.3 375.6,403.2 386.8,403.1 397.9,403.3 409.1,403.2 420.3,403.5 431.5,403.9 442.7,404.4 453.9,404.1 465.0,404.1 476.2,403.2 487.4,402.8 498.6,402.3 509.8,400.8 521.0,400.7 532.1,401.0 543.3,401.8 554.5,401.9 565.7,404.9 576.9,405.5 588.1,405.0 599.2,407.2 610.4,409.2 621.6,411.6 632.8,411.9 644.0,413.2 655.2,416.1 666.3,417.3 677.5,418.2 688.7,419.6 699.9,420.3 711.1,420.7 722.3,421.4 733.4,422.5 744.6,423.0 755.8,423.0 767.0,423.7 778.2,423.3 789.4,423.1 800.5,423.5 811.7,422.3 822.9,421.0 834.1,422.3 845.3,422.3 856.5,421.1 867.6,421.2 878.8,421.1 890.0,422.0" /><circle cx="890.0" cy="422.0" r="3.5" fill="#8e44ad" /><polyline fill="none" stroke="#16a085" stroke-width="2.2" points="96.0,417.6 107.2,422.2 118.4,420.6 129.5,419.7 140.7,419.2 151.9,420.3 163.1,419.8 174.3,419.0 185.5,419.1 196.6,420.5 207.8,421.5 219.0,420.6 230.2,421.3 241.4,422.0 252.6,421.3 263.7,419.9 274.9,417.1 286.1,416.6 297.3,416.9 308.5,419.3 319.7,417.7 330.8,415.3 342.0,416.2 353.2,416.7 364.4,413.9 375.6,401.7 386.8,401.4 397.9,400.5 409.1,400.2 420.3,401.0 431.5,402.0 442.7,403.2 453.9,403.0 465.0,405.4 476.2,406.1 487.4,404.9 498.6,400.5 509.8,401.3 521.0,400.9 532.1,402.4 543.3,403.6 554.5,403.0 565.7,409.4 576.9,416.6 588.1,416.5 599.2,421.5 610.4,425.6 621.6,429.2 632.8,433.0 644.0,433.1 655.2,432.5 666.3,431.8 677.5,435.4 688.7,434.9 699.9,438.5 711.1,437.5 722.3,435.0 733.4,436.5 744.6,435.8 755.8,437.2 767.0,435.2 778.2,433.8 789.4,433.4 800.5,434.5 811.7,434.2 822.9,432.4 834.1,432.3 845.3,431.3 856.5,428.2 867.6,428.0 878.8,427.8 890.0,428.3" /><circle cx="890.0" cy="428.3" r="3.5" fill="#16a085" /><polyline fill="none" stroke="#2c3e50" stroke-width="2.2" points="96.0,416.1 107.2,422.6 118.4,430.6 129.5,422.9 140.7,428.1 151.9,426.5 163.1,430.3 174.3,432.9 185.5,427.7 196.6,418.1 207.8,423.6 219.0,414.7 230.2,435.0 241.4,435.3 252.6,442.4 263.7,443.3 274.9,435.8 286.1,442.6 297.3,451.3 308.5,455.3 319.7,459.4 330.8,461.8 342.0,457.3 353.2,454.9 364.4,464.0 375.6,437.8 386.8,437.8 397.9,440.7 409.1,431.6 420.3,437.3 431.5,426.0 442.7,411.5 453.9,403.8 465.0,407.4 476.2,384.7 487.4,380.9 498.6,384.1 509.8,402.4 521.0,393.2 532.1,375.6 543.3,373.9 554.5,382.2 565.7,380.4 576.9,396.8 588.1,408.6 599.2,414.3 610.4,419.1 621.6,427.4 632.8,428.3 644.0,442.6 655.2,442.9 666.3,441.1 677.5,441.4 688.7,441.9 699.9,456.8 711.1,441.3 722.3,439.0 733.4,426.7 744.6,427.6 755.8,432.0 767.0,433.7 778.2,424.8 789.4,418.6 800.5,424.0 811.7,428.0 822.9,424.9 834.1,436.2 845.3,439.5 856.5,447.8 867.6,453.7 878.8,455.8 890.0,438.1" /><circle cx="890.0" cy="438.1" r="3.5" fill="#2c3e50" /><polyline fill="none" stroke="#d35400" stroke-width="2.2" points="96.0,419.5 107.2,419.0 118.4,418.7 129.5,420.5 140.7,420.1 151.9,420.0 163.1,416.8 174.3,415.4 185.5,413.8 196.6,414.4 207.8,414.7 219.0,415.6 230.2,415.9 241.4,416.2 252.6,415.3 263.7,413.9 274.9,412.4 286.1,413.2 297.3,412.8 308.5,410.5 319.7,409.3 330.8,407.9 342.0,409.3 353.2,408.5 364.4,410.6 375.6,406.8 386.8,408.7 397.9,409.9 409.1,408.3 420.3,409.2 431.5,407.1 442.7,404.4 453.9,404.6 465.0,407.4 476.2,408.6 487.4,409.7 498.6,408.7 509.8,410.2 521.0,410.8 532.1,410.6 543.3,409.9 554.5,412.3 565.7,416.8 576.9,417.7 588.1,416.5 599.2,419.2 610.4,420.2 621.6,422.7 632.8,424.9 644.0,425.8 655.2,427.1 666.3,428.2 677.5,429.0 688.7,430.8 699.9,431.2 711.1,431.5 722.3,434.6 733.4,437.4 744.6,437.6 755.8,436.2 767.0,437.2 778.2,437.4 789.4,439.0 800.5,439.5 811.7,438.5 822.9,436.3 834.1,439.3 845.3,439.6 856.5,439.9 867.6,441.3 878.8,439.8 890.0,440.7" /><circle cx="890.0" cy="440.7" r="3.5" fill="#d35400" /><polyline fill="none" stroke="#7f8c8d" stroke-width="2.2" points="96.0,415.5 107.2,419.4 118.4,420.7 129.5,420.2 140.7,421.7 151.9,422.0 163.1,421.1 174.3,423.5 185.5,423.7 196.6,424.5 207.8,423.8 219.0,422.4 230.2,425.9 241.4,448.7 252.6,453.4 263.7,459.9 274.9,455.5 286.1,453.2 297.3,446.5 308.5,444.4 319.7,441.5 330.8,439.8 342.0,430.1 353.2,425.0 364.4,423.1 375.6,416.8 386.8,419.0 397.9,417.2 409.1,416.3 420.3,417.3 431.5,419.1 442.7,419.6 453.9,418.1 465.0,421.1 476.2,420.5 487.4,410.7 498.6,404.0 509.8,402.9 521.0,397.6 532.1,392.2 543.3,384.3 554.5,371.9 565.7,378.6 576.9,383.9 588.1,382.4 599.2,389.4 610.4,393.3 621.6,391.6 632.8,395.9 644.0,393.5 655.2,395.7 666.3,400.0 677.5,403.2 688.7,421.7 699.9,427.4 711.1,433.1 722.3,434.9 733.4,438.7 744.6,442.8 755.8,439.3 767.0,434.9 778.2,443.2 789.4,442.4 800.5,440.5 811.7,440.7 822.9,440.4 834.1,435.0 845.3,436.1 856.5,438.8 867.6,449.7 878.8,447.2 890.0,448.2" /><circle cx="890.0" cy="448.2" r="3.5" fill="#7f8c8d" />
  
      <line x1="900" y1="70" x2="920" y2="70" stroke="#0b84f3" stroke-width="3" />
      <text x="928" y="74" font-size="12" fill="#18212f">Energy</text>
    
      <line x1="900" y1="92" x2="920" y2="92" stroke="#f39c12" stroke-width="3" />
      <text x="928" y="96" font-size="12" fill="#18212f">Property</text>
    
      <line x1="900" y1="114" x2="920" y2="114" stroke="#27ae60" stroke-width="3" />
      <text x="928" y="118" font-size="12" fill="#18212f">Commerce</text>
    
      <line x1="900" y1="136" x2="920" y2="136" stroke="#c0392b" stroke-width="3" />
      <text x="928" y="140" font-size="12" fill="#18212f">Food</text>
    
      <line x1="900" y1="158" x2="920" y2="158" stroke="#8e44ad" stroke-width="3" />
      <text x="928" y="162" font-size="12" fill="#18212f">Petro</text>
    
      <line x1="900" y1="180" x2="920" y2="180" stroke="#16a085" stroke-width="3" />
      <text x="928" y="184" font-size="12" fill="#18212f">Etron</text>
    
      <line x1="900" y1="202" x2="920" y2="202" stroke="#2c3e50" stroke-width="3" />
      <text x="928" y="206" font-size="12" fill="#18212f">Conmat</text>
    
      <line x1="900" y1="224" x2="920" y2="224" stroke="#d35400" stroke-width="3" />
      <text x="928" y="228" font-size="12" fill="#18212f">Helth</text>
    
      <line x1="900" y1="246" x2="920" y2="246" stroke="#7f8c8d" stroke-width="3" />
      <text x="928" y="250" font-size="12" fill="#18212f">Packaging</text>
    
      <line x1="900" y1="268" x2="920" y2="268" stroke="#e84393" stroke-width="3" />
      <text x="928" y="272" font-size="12" fill="#18212f">Cons</text>
    
      <line x1="900" y1="290" x2="920" y2="290" stroke="#6c5ce7" stroke-width="3" />
      <text x="928" y="294" font-size="12" fill="#18212f">Media</text>
    
      <line x1="900" y1="312" x2="920" y2="312" stroke="#00b894" stroke-width="3" />
      <text x="928" y="316" font-size="12" fill="#18212f">Person</text>
    
      <line x1="900" y1="334" x2="920" y2="334" stroke="#0b84f3" stroke-width="3" />
      <text x="928" y="338" font-size="12" fill="#18212f">Fashion</text>
    
      <line x1="900" y1="356" x2="920" y2="356" stroke="#f39c12" stroke-width="3" />
      <text x="928" y="360" font-size="12" fill="#18212f">Agri</text>
    
      <line x1="900" y1="378" x2="920" y2="378" stroke="#27ae60" stroke-width="3" />
      <text x="928" y="382" font-size="12" fill="#18212f">Professional</text>
    
      <line x1="900" y1="400" x2="920" y2="400" stroke="#c0392b" stroke-width="3" />
      <text x="928" y="404" font-size="12" fill="#18212f">Insurance</text>
    
      <line x1="900" y1="422" x2="920" y2="422" stroke="#8e44ad" stroke-width="3" />
      <text x="928" y="426" font-size="12" fill="#18212f">Tourism</text>
    
      <line x1="900" y1="444" x2="920" y2="444" stroke="#16a085" stroke-width="3" />
      <text x="928" y="448" font-size="12" fill="#18212f">Trans</text>
    
      <line x1="900" y1="466" x2="920" y2="466" stroke="#2c3e50" stroke-width="3" />
      <text x="928" y="470" font-size="12" fill="#18212f">Banking</text>
    
      <line x1="900" y1="488" x2="920" y2="488" stroke="#d35400" stroke-width="3" />
      <text x="928" y="492" font-size="12" fill="#18212f">Finance</text>
    
      <line x1="900" y1="510" x2="920" y2="510" stroke="#7f8c8d" stroke-width="3" />
      <text x="928" y="514" font-size="12" fill="#18212f">ICT</text>
    
</svg>
