<?xml version="1.0" encoding="UTF-8"?>
<svg xmlns="http://www.w3.org/2000/svg" width="960" height="420" viewBox="0 0 960 420">
  <rect width="100%" height="100%" fill="#f7f9fc" />
  <text x="88" y="24" font-size="20" font-family="Arial, sans-serif" font-weight="700" fill="#18212f">AMATA cumulative NVDR NET (2026-01-01 to 2026-04-21)</text>
  <text x="88" y="46" font-size="12" font-family="Arial, sans-serif" fill="#445166">Unit: million baht, based on NVDR Turnover (Net) from value view</text>
  
      <line x1="88" y1="36.0" x2="936" y2="36.0" stroke="#d8dde6" stroke-width="1" />
      <text x="78" y="40.0" text-anchor="end" font-size="12" fill="#445166">217.99</text>
    
      <line x1="88" y1="101.6" x2="936" y2="101.6" stroke="#d8dde6" stroke-width="1" />
      <text x="78" y="105.6" text-anchor="end" font-size="12" fill="#445166">112.38</text>
    
      <line x1="88" y1="167.2" x2="936" y2="167.2" stroke="#d8dde6" stroke-width="1" />
      <text x="78" y="171.2" text-anchor="end" font-size="12" fill="#445166">6.77</text>
    
      <line x1="88" y1="232.8" x2="936" y2="232.8" stroke="#d8dde6" stroke-width="1" />
      <text x="78" y="236.8" text-anchor="end" font-size="12" fill="#445166">-98.83</text>
    
      <line x1="88" y1="298.4" x2="936" y2="298.4" stroke="#d8dde6" stroke-width="1" />
      <text x="78" y="302.4" text-anchor="end" font-size="12" fill="#445166">-204.44</text>
    
      <line x1="88" y1="364.0" x2="936" y2="364.0" stroke="#d8dde6" stroke-width="1" />
      <text x="78" y="368.0" text-anchor="end" font-size="12" fill="#445166">-310.05</text>
    
  <line x1="88" y1="171.4" x2="936" y2="171.4" stroke="#7a8799" stroke-width="1.4" stroke-dasharray="4 4" />
  <line x1="88" y1="36" x2="88" y2="364" stroke="#445166" stroke-width="1.2" />
  <line x1="88" y1="364" x2="936" y2="364" stroke="#445166" stroke-width="1.2" />
  
      <line x1="88.0" y1="364" x2="88.0" y2="370" stroke="#445166" stroke-width="1" />
      <text x="88.0" y="386" text-anchor="middle" font-size="12" fill="#445166">2026-01-05</text>
    
      <line x1="506.0" y1="364" x2="506.0" y2="370" stroke="#445166" stroke-width="1" />
      <text x="506.0" y="386" text-anchor="middle" font-size="12" fill="#445166">2026-02-23</text>
    
      <line x1="936.0" y1="364" x2="936.0" y2="370" stroke="#445166" stroke-width="1" />
      <text x="936.0" y="386" text-anchor="middle" font-size="12" fill="#445166">2026-04-21</text>
    
  <polyline fill="none" stroke="#0b84f3" stroke-width="3" points="88.0,208.2 99.9,213.4 111.9,227.1 123.8,248.1 135.8,248.0 147.7,278.2 159.7,284.3 171.6,307.2 183.5,311.2 195.5,311.7 207.4,315.2 219.4,305.7 231.3,291.8 243.3,300.3 255.2,314.3 267.2,308.1 279.1,307.7 291.0,309.9 303.0,317.8 314.9,319.8 326.9,336.7 338.8,349.9 350.8,349.9 362.7,344.4 374.6,364.0 386.6,217.9 398.5,169.9 410.5,126.2 422.4,145.5 434.4,162.2 446.3,202.6 458.3,203.1 470.2,192.2 482.1,178.9 494.1,236.0 506.0,309.8 518.0,344.7 529.9,362.9 541.9,324.7 553.8,283.2 565.7,202.7 577.7,174.1 589.6,116.3 601.6,127.9 613.5,124.4 625.5,130.3 637.4,113.5 649.4,132.1 661.3,154.0 673.2,146.0 685.2,111.0 697.1,114.9 709.1,151.8 721.0,165.8 733.0,186.1 744.9,199.8 756.8,205.1 768.8,196.5 780.7,186.4 792.7,193.9 804.6,192.0 816.6,160.9 828.5,161.2 840.5,158.0 852.4,131.6 864.3,58.2 876.3,81.4 888.2,78.5 900.2,55.9 912.1,70.0 924.1,64.8 936.0,36.0" />
  <circle cx="936.0" cy="36.0" r="4.5" fill="#0b84f3" />
  <text x="932.0" y="48.0" font-size="12" fill="#18212f">217.99</text>
</svg>
