<?xml version="1.0" encoding="UTF-8"?>
<svg xmlns="http://www.w3.org/2000/svg" width="960" height="420" viewBox="0 0 960 420">
  <rect width="100%" height="100%" fill="#f7f9fc" />
  <text x="88" y="24" font-size="20" font-family="Arial, sans-serif" font-weight="700" fill="#18212f">AOT cumulative NVDR NET (2026-01-01 to 2026-04-21)</text>
  <text x="88" y="46" font-size="12" font-family="Arial, sans-serif" fill="#445166">Unit: million baht, based on NVDR Turnover (Net) from value view</text>
  
      <line x1="88" y1="36.0" x2="936" y2="36.0" stroke="#d8dde6" stroke-width="1" />
      <text x="78" y="40.0" text-anchor="end" font-size="12" fill="#445166">1709.30</text>
    
      <line x1="88" y1="101.6" x2="936" y2="101.6" stroke="#d8dde6" stroke-width="1" />
      <text x="78" y="105.6" text-anchor="end" font-size="12" fill="#445166">846.66</text>
    
      <line x1="88" y1="167.2" x2="936" y2="167.2" stroke="#d8dde6" stroke-width="1" />
      <text x="78" y="171.2" text-anchor="end" font-size="12" fill="#445166">-15.98</text>
    
      <line x1="88" y1="232.8" x2="936" y2="232.8" stroke="#d8dde6" stroke-width="1" />
      <text x="78" y="236.8" text-anchor="end" font-size="12" fill="#445166">-878.63</text>
    
      <line x1="88" y1="298.4" x2="936" y2="298.4" stroke="#d8dde6" stroke-width="1" />
      <text x="78" y="302.4" text-anchor="end" font-size="12" fill="#445166">-1741.27</text>
    
      <line x1="88" y1="364.0" x2="936" y2="364.0" stroke="#d8dde6" stroke-width="1" />
      <text x="78" y="368.0" text-anchor="end" font-size="12" fill="#445166">-2603.91</text>
    
  <line x1="88" y1="166.0" x2="936" y2="166.0" stroke="#7a8799" stroke-width="1.4" stroke-dasharray="4 4" />
  <line x1="88" y1="36" x2="88" y2="364" stroke="#445166" stroke-width="1.2" />
  <line x1="88" y1="364" x2="936" y2="364" stroke="#445166" stroke-width="1.2" />
  
      <line x1="88.0" y1="364" x2="88.0" y2="370" stroke="#445166" stroke-width="1" />
      <text x="88.0" y="386" text-anchor="middle" font-size="12" fill="#445166">2026-01-05</text>
    
      <line x1="506.0" y1="364" x2="506.0" y2="370" stroke="#445166" stroke-width="1" />
      <text x="506.0" y="386" text-anchor="middle" font-size="12" fill="#445166">2026-02-23</text>
    
      <line x1="936.0" y1="364" x2="936.0" y2="370" stroke="#445166" stroke-width="1" />
      <text x="936.0" y="386" text-anchor="middle" font-size="12" fill="#445166">2026-04-21</text>
    
  <polyline fill="none" stroke="#0b84f3" stroke-width="3" points="88.0,154.4 99.9,198.1 111.9,186.8 123.8,178.8 135.8,173.9 147.7,181.1 159.7,174.6 171.6,163.8 183.5,172.6 195.5,189.3 207.4,199.8 219.4,193.4 231.3,208.9 243.3,211.6 255.2,204.3 267.2,189.2 279.1,163.2 291.0,153.9 303.0,156.6 314.9,175.9 326.9,160.7 338.8,143.4 350.8,145.2 362.7,159.4 374.6,125.5 386.6,40.2 398.5,46.3 410.5,41.5 422.4,45.0 434.4,48.0 446.3,51.4 458.3,59.6 470.2,52.7 482.1,71.3 494.1,76.0 506.0,74.9 518.0,36.0 529.9,42.6 541.9,43.0 553.8,60.7 565.7,65.3 577.7,57.2 589.6,115.1 601.6,176.9 613.5,176.9 625.5,213.1 637.4,247.3 649.4,278.3 661.3,308.3 673.2,305.0 685.2,314.3 697.1,314.5 709.1,335.1 721.0,336.2 733.0,362.7 744.9,354.8 756.8,336.8 768.8,351.5 780.7,350.3 792.7,364.0 804.6,351.6 816.6,339.1 828.5,337.2 840.5,341.9 852.4,336.8 864.3,329.8 876.3,327.8 888.2,331.7 900.2,305.6 912.1,300.7 924.1,295.1 936.0,299.1" />
  <circle cx="936.0" cy="299.1" r="4.5" fill="#0b84f3" />
  <text x="932.0" y="289.1" font-size="12" fill="#18212f">-1750.57</text>
</svg>
