<?xml version="1.0" encoding="UTF-8"?>
<svg xmlns="http://www.w3.org/2000/svg" width="960" height="420" viewBox="0 0 960 420">
  <rect width="100%" height="100%" fill="#f7f9fc" />
  <text x="88" y="24" font-size="20" font-family="Arial, sans-serif" font-weight="700" fill="#18212f">AWC cumulative NVDR NET (2026-01-01 to 2026-04-21)</text>
  <text x="88" y="46" font-size="12" font-family="Arial, sans-serif" fill="#445166">Unit: million baht, based on NVDR Turnover (Net) from value view</text>
  
      <line x1="88" y1="36.0" x2="936" y2="36.0" stroke="#d8dde6" stroke-width="1" />
      <text x="78" y="40.0" text-anchor="end" font-size="12" fill="#445166">324.76</text>
    
      <line x1="88" y1="101.6" x2="936" y2="101.6" stroke="#d8dde6" stroke-width="1" />
      <text x="78" y="105.6" text-anchor="end" font-size="12" fill="#445166">249.06</text>
    
      <line x1="88" y1="167.2" x2="936" y2="167.2" stroke="#d8dde6" stroke-width="1" />
      <text x="78" y="171.2" text-anchor="end" font-size="12" fill="#445166">173.35</text>
    
      <line x1="88" y1="232.8" x2="936" y2="232.8" stroke="#d8dde6" stroke-width="1" />
      <text x="78" y="236.8" text-anchor="end" font-size="12" fill="#445166">97.65</text>
    
      <line x1="88" y1="298.4" x2="936" y2="298.4" stroke="#d8dde6" stroke-width="1" />
      <text x="78" y="302.4" text-anchor="end" font-size="12" fill="#445166">21.94</text>
    
      <line x1="88" y1="364.0" x2="936" y2="364.0" stroke="#d8dde6" stroke-width="1" />
      <text x="78" y="368.0" text-anchor="end" font-size="12" fill="#445166">-53.76</text>
    
  <line x1="88" y1="317.4" x2="936" y2="317.4" stroke="#7a8799" stroke-width="1.4" stroke-dasharray="4 4" />
  <line x1="88" y1="36" x2="88" y2="364" stroke="#445166" stroke-width="1.2" />
  <line x1="88" y1="364" x2="936" y2="364" stroke="#445166" stroke-width="1.2" />
  
      <line x1="88.0" y1="364" x2="88.0" y2="370" stroke="#445166" stroke-width="1" />
      <text x="88.0" y="386" text-anchor="middle" font-size="12" fill="#445166">2026-01-05</text>
    
      <line x1="506.0" y1="364" x2="506.0" y2="370" stroke="#445166" stroke-width="1" />
      <text x="506.0" y="386" text-anchor="middle" font-size="12" fill="#445166">2026-02-23</text>
    
      <line x1="936.0" y1="364" x2="936.0" y2="370" stroke="#445166" stroke-width="1" />
      <text x="936.0" y="386" text-anchor="middle" font-size="12" fill="#445166">2026-04-21</text>
    
  <polyline fill="none" stroke="#0b84f3" stroke-width="3" points="88.0,326.7 99.9,334.7 111.9,334.1 123.8,344.9 135.8,351.2 147.7,357.1 159.7,360.0 171.6,364.0 183.5,354.2 195.5,346.6 207.4,340.0 219.4,316.0 231.3,309.5 243.3,302.4 255.2,302.9 267.2,310.8 279.1,261.9 291.0,260.6 303.0,256.4 314.9,247.5 326.9,237.9 338.8,222.7 350.8,222.2 362.7,207.5 374.6,198.9 386.6,153.9 398.5,138.3 410.5,143.2 422.4,93.5 434.4,63.7 446.3,97.7 458.3,104.0 470.2,103.6 482.1,111.2 494.1,104.3 506.0,70.2 518.0,89.8 529.9,87.5 541.9,91.6 553.8,87.7 565.7,36.0 577.7,45.0 589.6,76.6 601.6,86.3 613.5,71.8 625.5,89.3 637.4,110.5 649.4,131.1 661.3,153.4 673.2,138.6 685.2,145.2 697.1,163.4 709.1,206.5 721.0,208.7 733.0,243.7 744.9,244.8 756.8,237.3 768.8,254.5 780.7,241.6 792.7,241.0 804.6,233.7 816.6,241.3 828.5,229.4 840.5,242.7 852.4,226.4 864.3,219.1 876.3,233.2 888.2,232.7 900.2,229.9 912.1,206.0 924.1,212.0 936.0,219.1" />
  <circle cx="936.0" cy="219.1" r="4.5" fill="#0b84f3" />
  <text x="932.0" y="209.1" font-size="12" fill="#18212f">113.45</text>
</svg>
