<?xml version="1.0" encoding="UTF-8"?>
<svg xmlns="http://www.w3.org/2000/svg" width="960" height="420" viewBox="0 0 960 420">
  <rect width="100%" height="100%" fill="#f7f9fc" />
  <text x="88" y="24" font-size="20" font-family="Arial, sans-serif" font-weight="700" fill="#18212f">BA cumulative NVDR NET (2026-01-01 to 2026-04-21)</text>
  <text x="88" y="46" font-size="12" font-family="Arial, sans-serif" fill="#445166">Unit: million baht, based on NVDR Turnover (Net) from value view</text>
  
      <line x1="88" y1="36.0" x2="936" y2="36.0" stroke="#d8dde6" stroke-width="1" />
      <text x="78" y="40.0" text-anchor="end" font-size="12" fill="#445166">89.04</text>
    
      <line x1="88" y1="101.6" x2="936" y2="101.6" stroke="#d8dde6" stroke-width="1" />
      <text x="78" y="105.6" text-anchor="end" font-size="12" fill="#445166">29.14</text>
    
      <line x1="88" y1="167.2" x2="936" y2="167.2" stroke="#d8dde6" stroke-width="1" />
      <text x="78" y="171.2" text-anchor="end" font-size="12" fill="#445166">-30.76</text>
    
      <line x1="88" y1="232.8" x2="936" y2="232.8" stroke="#d8dde6" stroke-width="1" />
      <text x="78" y="236.8" text-anchor="end" font-size="12" fill="#445166">-90.67</text>
    
      <line x1="88" y1="298.4" x2="936" y2="298.4" stroke="#d8dde6" stroke-width="1" />
      <text x="78" y="302.4" text-anchor="end" font-size="12" fill="#445166">-150.57</text>
    
      <line x1="88" y1="364.0" x2="936" y2="364.0" stroke="#d8dde6" stroke-width="1" />
      <text x="78" y="368.0" text-anchor="end" font-size="12" fill="#445166">-210.47</text>
    
  <line x1="88" y1="133.5" x2="936" y2="133.5" stroke="#7a8799" stroke-width="1.4" stroke-dasharray="4 4" />
  <line x1="88" y1="36" x2="88" y2="364" stroke="#445166" stroke-width="1.2" />
  <line x1="88" y1="364" x2="936" y2="364" stroke="#445166" stroke-width="1.2" />
  
      <line x1="88.0" y1="364" x2="88.0" y2="370" stroke="#445166" stroke-width="1" />
      <text x="88.0" y="386" text-anchor="middle" font-size="12" fill="#445166">2026-01-05</text>
    
      <line x1="506.0" y1="364" x2="506.0" y2="370" stroke="#445166" stroke-width="1" />
      <text x="506.0" y="386" text-anchor="middle" font-size="12" fill="#445166">2026-02-23</text>
    
      <line x1="936.0" y1="364" x2="936.0" y2="370" stroke="#445166" stroke-width="1" />
      <text x="936.0" y="386" text-anchor="middle" font-size="12" fill="#445166">2026-04-21</text>
    
  <polyline fill="none" stroke="#0b84f3" stroke-width="3" points="88.0,116.3 99.9,134.1 111.9,110.6 123.8,93.4 135.8,96.0 147.7,119.5 159.7,123.6 171.6,160.0 183.5,137.7 195.5,153.1 207.4,148.5 219.4,143.7 231.3,123.6 243.3,142.2 255.2,141.4 267.2,142.2 279.1,148.9 291.0,161.2 303.0,166.3 314.9,169.5 326.9,174.1 338.8,125.4 350.8,149.7 362.7,136.6 374.6,157.7 386.6,107.0 398.5,89.6 410.5,99.0 422.4,101.0 434.4,101.0 446.3,118.0 458.3,116.1 470.2,132.1 482.1,156.7 494.1,135.4 506.0,93.9 518.0,83.3 529.9,99.5 541.9,94.1 553.8,86.8 565.7,58.4 577.7,36.0 589.6,58.2 601.6,85.5 613.5,73.7 625.5,141.2 637.4,218.9 649.4,271.3 661.3,286.5 673.2,293.5 685.2,283.0 697.1,303.6 709.1,314.8 721.0,312.0 733.0,327.2 744.9,325.4 756.8,319.0 768.8,323.0 780.7,324.7 792.7,316.1 804.6,324.3 816.6,334.8 828.5,333.7 840.5,336.6 852.4,360.0 864.3,335.6 876.3,357.6 888.2,359.7 900.2,355.4 912.1,362.0 924.1,364.0 936.0,357.6" />
  <circle cx="936.0" cy="357.6" r="4.5" fill="#0b84f3" />
  <text x="932.0" y="347.6" font-size="12" fill="#18212f">-204.66</text>
</svg>
