<?xml version="1.0" encoding="UTF-8"?>
<svg xmlns="http://www.w3.org/2000/svg" width="960" height="420" viewBox="0 0 960 420">
  <rect width="100%" height="100%" fill="#f7f9fc" />
  <text x="88" y="24" font-size="20" font-family="Arial, sans-serif" font-weight="700" fill="#18212f">BANPU cumulative NVDR NET (2026-01-01 to 2026-04-21)</text>
  <text x="88" y="46" font-size="12" font-family="Arial, sans-serif" fill="#445166">Unit: million baht, based on NVDR Turnover (Net) from value view</text>
  
      <line x1="88" y1="36.0" x2="936" y2="36.0" stroke="#d8dde6" stroke-width="1" />
      <text x="78" y="40.0" text-anchor="end" font-size="12" fill="#445166">762.40</text>
    
      <line x1="88" y1="101.6" x2="936" y2="101.6" stroke="#d8dde6" stroke-width="1" />
      <text x="78" y="105.6" text-anchor="end" font-size="12" fill="#445166">609.92</text>
    
      <line x1="88" y1="167.2" x2="936" y2="167.2" stroke="#d8dde6" stroke-width="1" />
      <text x="78" y="171.2" text-anchor="end" font-size="12" fill="#445166">457.44</text>
    
      <line x1="88" y1="232.8" x2="936" y2="232.8" stroke="#d8dde6" stroke-width="1" />
      <text x="78" y="236.8" text-anchor="end" font-size="12" fill="#445166">304.96</text>
    
      <line x1="88" y1="298.4" x2="936" y2="298.4" stroke="#d8dde6" stroke-width="1" />
      <text x="78" y="302.4" text-anchor="end" font-size="12" fill="#445166">152.48</text>
    
      <line x1="88" y1="364.0" x2="936" y2="364.0" stroke="#d8dde6" stroke-width="1" />
      <text x="78" y="368.0" text-anchor="end" font-size="12" fill="#445166">0.00</text>
    
  <line x1="88" y1="364.0" x2="936" y2="364.0" stroke="#7a8799" stroke-width="1.4" stroke-dasharray="4 4" />
  <line x1="88" y1="36" x2="88" y2="364" stroke="#445166" stroke-width="1.2" />
  <line x1="88" y1="364" x2="936" y2="364" stroke="#445166" stroke-width="1.2" />
  
      <line x1="88.0" y1="364" x2="88.0" y2="370" stroke="#445166" stroke-width="1" />
      <text x="88.0" y="386" text-anchor="middle" font-size="12" fill="#445166">2026-01-05</text>
    
      <line x1="506.0" y1="364" x2="506.0" y2="370" stroke="#445166" stroke-width="1" />
      <text x="506.0" y="386" text-anchor="middle" font-size="12" fill="#445166">2026-02-23</text>
    
      <line x1="936.0" y1="364" x2="936.0" y2="370" stroke="#445166" stroke-width="1" />
      <text x="936.0" y="386" text-anchor="middle" font-size="12" fill="#445166">2026-04-21</text>
    
  <polyline fill="none" stroke="#0b84f3" stroke-width="3" points="88.0,342.0 99.9,346.3 111.9,279.2 123.8,293.3 135.8,281.8 147.7,269.8 159.7,202.1 171.6,185.8 183.5,181.2 195.5,170.8 207.4,174.7 219.4,152.8 231.3,115.3 243.3,72.0 255.2,52.2 267.2,48.9 279.1,49.1 291.0,36.0 303.0,46.4 314.9,68.8 326.9,69.8 338.8,86.0 350.8,67.4 362.7,82.0 374.6,87.5 386.6,70.6 398.5,49.0 410.5,52.5 422.4,59.7 434.4,79.5 446.3,102.1 458.3,116.2 470.2,123.8 482.1,157.3 494.1,181.3 506.0,175.5 518.0,172.3 529.9,182.6 541.9,202.9 553.8,208.5 565.7,231.1 577.7,247.2 589.6,131.1 601.6,162.4 613.5,222.6 625.5,219.8 637.4,222.0 649.4,221.0 661.3,158.6 673.2,220.1 685.2,219.5 697.1,240.8 709.1,218.9 721.0,239.3 733.0,143.7 744.9,198.9 756.8,181.5 768.8,213.3 780.7,161.1 792.7,112.5 804.6,129.8 816.6,134.2 828.5,139.2 840.5,158.2 852.4,155.9 864.3,160.2 876.3,151.3 888.2,166.6 900.2,106.9 912.1,174.5 924.1,181.5 936.0,188.6" />
  <circle cx="936.0" cy="188.6" r="4.5" fill="#0b84f3" />
  <text x="932.0" y="178.6" font-size="12" fill="#18212f">407.68</text>
</svg>
