<?xml version="1.0" encoding="UTF-8"?>
<svg xmlns="http://www.w3.org/2000/svg" width="960" height="420" viewBox="0 0 960 420">
  <rect width="100%" height="100%" fill="#f7f9fc" />
  <text x="88" y="24" font-size="20" font-family="Arial, sans-serif" font-weight="700" fill="#18212f">BBL cumulative NVDR NET (2026-01-01 to 2026-04-21)</text>
  <text x="88" y="46" font-size="12" font-family="Arial, sans-serif" fill="#445166">Unit: million baht, based on NVDR Turnover (Net) from value view</text>
  
      <line x1="88" y1="36.0" x2="936" y2="36.0" stroke="#d8dde6" stroke-width="1" />
      <text x="78" y="40.0" text-anchor="end" font-size="12" fill="#445166">5480.28</text>
    
      <line x1="88" y1="101.6" x2="936" y2="101.6" stroke="#d8dde6" stroke-width="1" />
      <text x="78" y="105.6" text-anchor="end" font-size="12" fill="#445166">3957.43</text>
    
      <line x1="88" y1="167.2" x2="936" y2="167.2" stroke="#d8dde6" stroke-width="1" />
      <text x="78" y="171.2" text-anchor="end" font-size="12" fill="#445166">2434.58</text>
    
      <line x1="88" y1="232.8" x2="936" y2="232.8" stroke="#d8dde6" stroke-width="1" />
      <text x="78" y="236.8" text-anchor="end" font-size="12" fill="#445166">911.74</text>
    
      <line x1="88" y1="298.4" x2="936" y2="298.4" stroke="#d8dde6" stroke-width="1" />
      <text x="78" y="302.4" text-anchor="end" font-size="12" fill="#445166">-611.11</text>
    
      <line x1="88" y1="364.0" x2="936" y2="364.0" stroke="#d8dde6" stroke-width="1" />
      <text x="78" y="368.0" text-anchor="end" font-size="12" fill="#445166">-2133.96</text>
    
  <line x1="88" y1="272.1" x2="936" y2="272.1" stroke="#7a8799" stroke-width="1.4" stroke-dasharray="4 4" />
  <line x1="88" y1="36" x2="88" y2="364" stroke="#445166" stroke-width="1.2" />
  <line x1="88" y1="364" x2="936" y2="364" stroke="#445166" stroke-width="1.2" />
  
      <line x1="88.0" y1="364" x2="88.0" y2="370" stroke="#445166" stroke-width="1" />
      <text x="88.0" y="386" text-anchor="middle" font-size="12" fill="#445166">2026-01-05</text>
    
      <line x1="506.0" y1="364" x2="506.0" y2="370" stroke="#445166" stroke-width="1" />
      <text x="506.0" y="386" text-anchor="middle" font-size="12" fill="#445166">2026-02-23</text>
    
      <line x1="936.0" y1="364" x2="936.0" y2="370" stroke="#445166" stroke-width="1" />
      <text x="936.0" y="386" text-anchor="middle" font-size="12" fill="#445166">2026-04-21</text>
    
  <polyline fill="none" stroke="#0b84f3" stroke-width="3" points="88.0,272.5 99.9,277.0 111.9,286.5 123.8,271.7 135.8,271.6 147.7,262.5 159.7,262.4 171.6,261.7 183.5,254.2 195.5,242.3 207.4,242.2 219.4,231.1 231.3,280.5 243.3,285.5 255.2,291.9 267.2,295.0 279.1,307.4 291.0,327.9 303.0,331.4 314.9,354.5 326.9,352.2 338.8,353.4 350.8,354.9 362.7,357.1 374.6,364.0 386.6,321.6 398.5,329.5 410.5,329.8 422.4,304.8 434.4,318.1 446.3,308.8 458.3,288.8 470.2,295.8 482.1,301.8 494.1,220.1 506.0,193.9 518.0,200.1 529.9,217.1 541.9,209.3 553.8,178.1 565.7,162.7 577.7,150.8 589.6,95.6 601.6,100.4 613.5,102.0 625.5,106.0 637.4,95.8 649.4,101.8 661.3,101.7 673.2,112.7 685.2,105.1 697.1,98.7 709.1,86.3 721.0,85.2 733.0,97.1 744.9,73.7 756.8,65.0 768.8,49.0 780.7,55.5 792.7,57.6 804.6,54.1 816.6,47.5 828.5,36.0 840.5,48.5 852.4,51.1 864.3,50.4 876.3,56.5 888.2,55.0 900.2,61.4 912.1,73.0 924.1,69.8 936.0,70.0" />
  <circle cx="936.0" cy="70.0" r="4.5" fill="#0b84f3" />
  <text x="932.0" y="60.0" font-size="12" fill="#18212f">4691.30</text>
</svg>
