<?xml version="1.0" encoding="UTF-8"?>
<svg xmlns="http://www.w3.org/2000/svg" width="960" height="420" viewBox="0 0 960 420">
  <rect width="100%" height="100%" fill="#f7f9fc" />
  <text x="88" y="24" font-size="20" font-family="Arial, sans-serif" font-weight="700" fill="#18212f">BCP cumulative NVDR NET (2026-01-01 to 2026-04-21)</text>
  <text x="88" y="46" font-size="12" font-family="Arial, sans-serif" fill="#445166">Unit: million baht, based on NVDR Turnover (Net) from value view</text>
  
      <line x1="88" y1="36.0" x2="936" y2="36.0" stroke="#d8dde6" stroke-width="1" />
      <text x="78" y="40.0" text-anchor="end" font-size="12" fill="#445166">3503.51</text>
    
      <line x1="88" y1="101.6" x2="936" y2="101.6" stroke="#d8dde6" stroke-width="1" />
      <text x="78" y="105.6" text-anchor="end" font-size="12" fill="#445166">2802.81</text>
    
      <line x1="88" y1="167.2" x2="936" y2="167.2" stroke="#d8dde6" stroke-width="1" />
      <text x="78" y="171.2" text-anchor="end" font-size="12" fill="#445166">2102.11</text>
    
      <line x1="88" y1="232.8" x2="936" y2="232.8" stroke="#d8dde6" stroke-width="1" />
      <text x="78" y="236.8" text-anchor="end" font-size="12" fill="#445166">1401.40</text>
    
      <line x1="88" y1="298.4" x2="936" y2="298.4" stroke="#d8dde6" stroke-width="1" />
      <text x="78" y="302.4" text-anchor="end" font-size="12" fill="#445166">700.70</text>
    
      <line x1="88" y1="364.0" x2="936" y2="364.0" stroke="#d8dde6" stroke-width="1" />
      <text x="78" y="368.0" text-anchor="end" font-size="12" fill="#445166">-0.00</text>
    
  <line x1="88" y1="364.0" x2="936" y2="364.0" stroke="#7a8799" stroke-width="1.4" stroke-dasharray="4 4" />
  <line x1="88" y1="36" x2="88" y2="364" stroke="#445166" stroke-width="1.2" />
  <line x1="88" y1="364" x2="936" y2="364" stroke="#445166" stroke-width="1.2" />
  
      <line x1="88.0" y1="364" x2="88.0" y2="370" stroke="#445166" stroke-width="1" />
      <text x="88.0" y="386" text-anchor="middle" font-size="12" fill="#445166">2026-01-05</text>
    
      <line x1="506.0" y1="364" x2="506.0" y2="370" stroke="#445166" stroke-width="1" />
      <text x="506.0" y="386" text-anchor="middle" font-size="12" fill="#445166">2026-02-23</text>
    
      <line x1="936.0" y1="364" x2="936.0" y2="370" stroke="#445166" stroke-width="1" />
      <text x="936.0" y="386" text-anchor="middle" font-size="12" fill="#445166">2026-04-21</text>
    
  <polyline fill="none" stroke="#0b84f3" stroke-width="3" points="88.0,361.5 99.9,345.5 111.9,343.4 123.8,344.4 135.8,341.9 147.7,339.1 159.7,341.5 171.6,347.6 183.5,345.2 195.5,349.8 207.4,348.7 219.4,349.6 231.3,350.7 243.3,350.0 255.2,349.3 267.2,348.1 279.1,351.2 291.0,344.3 303.0,337.4 314.9,340.6 326.9,333.9 338.8,326.6 350.8,313.9 362.7,303.0 374.6,285.5 386.6,273.1 398.5,254.9 410.5,235.7 422.4,201.0 434.4,175.0 446.3,150.4 458.3,131.6 470.2,123.1 482.1,114.6 494.1,112.4 506.0,113.7 518.0,100.2 529.9,94.0 541.9,96.8 553.8,85.1 565.7,91.0 577.7,95.7 589.6,98.5 601.6,102.5 613.5,109.6 625.5,109.1 637.4,103.5 649.4,91.6 661.3,93.0 673.2,92.2 685.2,83.5 697.1,77.8 709.1,71.0 721.0,65.9 733.0,64.1 744.9,61.3 756.8,59.7 768.8,56.4 780.7,56.6 792.7,56.1 804.6,60.5 816.6,55.1 828.5,46.1 840.5,46.8 852.4,36.0 864.3,40.0 876.3,41.8 888.2,41.4 900.2,38.2 912.1,38.1 924.1,39.3 936.0,38.6" />
  <circle cx="936.0" cy="38.6" r="4.5" fill="#0b84f3" />
  <text x="932.0" y="48.0" font-size="12" fill="#18212f">3476.25</text>
</svg>
