<?xml version="1.0" encoding="UTF-8"?>
<svg xmlns="http://www.w3.org/2000/svg" width="960" height="420" viewBox="0 0 960 420">
  <rect width="100%" height="100%" fill="#f7f9fc" />
  <text x="88" y="24" font-size="20" font-family="Arial, sans-serif" font-weight="700" fill="#18212f">BCPG cumulative NVDR NET (2026-01-01 to 2026-04-21)</text>
  <text x="88" y="46" font-size="12" font-family="Arial, sans-serif" fill="#445166">Unit: million baht, based on NVDR Turnover (Net) from value view</text>
  
      <line x1="88" y1="36.0" x2="936" y2="36.0" stroke="#d8dde6" stroke-width="1" />
      <text x="78" y="40.0" text-anchor="end" font-size="12" fill="#445166">360.84</text>
    
      <line x1="88" y1="101.6" x2="936" y2="101.6" stroke="#d8dde6" stroke-width="1" />
      <text x="78" y="105.6" text-anchor="end" font-size="12" fill="#445166">287.20</text>
    
      <line x1="88" y1="167.2" x2="936" y2="167.2" stroke="#d8dde6" stroke-width="1" />
      <text x="78" y="171.2" text-anchor="end" font-size="12" fill="#445166">213.56</text>
    
      <line x1="88" y1="232.8" x2="936" y2="232.8" stroke="#d8dde6" stroke-width="1" />
      <text x="78" y="236.8" text-anchor="end" font-size="12" fill="#445166">139.93</text>
    
      <line x1="88" y1="298.4" x2="936" y2="298.4" stroke="#d8dde6" stroke-width="1" />
      <text x="78" y="302.4" text-anchor="end" font-size="12" fill="#445166">66.29</text>
    
      <line x1="88" y1="364.0" x2="936" y2="364.0" stroke="#d8dde6" stroke-width="1" />
      <text x="78" y="368.0" text-anchor="end" font-size="12" fill="#445166">-7.35</text>
    
  <line x1="88" y1="357.5" x2="936" y2="357.5" stroke="#7a8799" stroke-width="1.4" stroke-dasharray="4 4" />
  <line x1="88" y1="36" x2="88" y2="364" stroke="#445166" stroke-width="1.2" />
  <line x1="88" y1="364" x2="936" y2="364" stroke="#445166" stroke-width="1.2" />
  
      <line x1="88.0" y1="364" x2="88.0" y2="370" stroke="#445166" stroke-width="1" />
      <text x="88.0" y="386" text-anchor="middle" font-size="12" fill="#445166">2026-01-05</text>
    
      <line x1="506.0" y1="364" x2="506.0" y2="370" stroke="#445166" stroke-width="1" />
      <text x="506.0" y="386" text-anchor="middle" font-size="12" fill="#445166">2026-02-23</text>
    
      <line x1="936.0" y1="364" x2="936.0" y2="370" stroke="#445166" stroke-width="1" />
      <text x="936.0" y="386" text-anchor="middle" font-size="12" fill="#445166">2026-04-21</text>
    
  <polyline fill="none" stroke="#0b84f3" stroke-width="3" points="88.0,356.7 99.9,361.9 111.9,360.0 123.8,364.0 135.8,360.0 147.7,361.7 159.7,363.6 171.6,362.1 183.5,360.4 195.5,360.3 207.4,355.5 219.4,349.7 231.3,344.0 243.3,347.4 255.2,348.9 267.2,349.2 279.1,353.3 291.0,345.2 303.0,348.3 314.9,352.7 326.9,357.8 338.8,324.6 350.8,327.5 362.7,343.5 374.6,348.0 386.6,358.0 398.5,346.8 410.5,325.9 422.4,304.5 434.4,282.7 446.3,270.6 458.3,271.0 470.2,263.2 482.1,259.0 494.1,259.2 506.0,248.2 518.0,229.4 529.9,247.5 541.9,252.5 553.8,247.5 565.7,208.8 577.7,196.8 589.6,211.7 601.6,210.8 613.5,52.0 625.5,36.0 637.4,71.4 649.4,101.1 661.3,138.9 673.2,157.2 685.2,152.1 697.1,162.3 709.1,198.5 721.0,163.1 733.0,179.9 744.9,194.9 756.8,190.5 768.8,198.3 780.7,186.7 792.7,192.5 804.6,206.5 816.6,197.3 828.5,203.5 840.5,205.9 852.4,207.2 864.3,211.5 876.3,217.8 888.2,219.1 900.2,215.2 912.1,210.9 924.1,210.3 936.0,215.2" />
  <circle cx="936.0" cy="215.2" r="4.5" fill="#0b84f3" />
  <text x="932.0" y="205.2" font-size="12" fill="#18212f">159.67</text>
</svg>
