<?xml version="1.0" encoding="UTF-8"?>
<svg xmlns="http://www.w3.org/2000/svg" width="960" height="420" viewBox="0 0 960 420">
  <rect width="100%" height="100%" fill="#f7f9fc" />
  <text x="88" y="24" font-size="20" font-family="Arial, sans-serif" font-weight="700" fill="#18212f">BDMS cumulative NVDR NET (2026-01-01 to 2026-04-21)</text>
  <text x="88" y="46" font-size="12" font-family="Arial, sans-serif" fill="#445166">Unit: million baht, based on NVDR Turnover (Net) from value view</text>
  
      <line x1="88" y1="36.0" x2="936" y2="36.0" stroke="#d8dde6" stroke-width="1" />
      <text x="78" y="40.0" text-anchor="end" font-size="12" fill="#445166">2807.11</text>
    
      <line x1="88" y1="101.6" x2="936" y2="101.6" stroke="#d8dde6" stroke-width="1" />
      <text x="78" y="105.6" text-anchor="end" font-size="12" fill="#445166">2148.58</text>
    
      <line x1="88" y1="167.2" x2="936" y2="167.2" stroke="#d8dde6" stroke-width="1" />
      <text x="78" y="171.2" text-anchor="end" font-size="12" fill="#445166">1490.05</text>
    
      <line x1="88" y1="232.8" x2="936" y2="232.8" stroke="#d8dde6" stroke-width="1" />
      <text x="78" y="236.8" text-anchor="end" font-size="12" fill="#445166">831.53</text>
    
      <line x1="88" y1="298.4" x2="936" y2="298.4" stroke="#d8dde6" stroke-width="1" />
      <text x="78" y="302.4" text-anchor="end" font-size="12" fill="#445166">173.00</text>
    
      <line x1="88" y1="364.0" x2="936" y2="364.0" stroke="#d8dde6" stroke-width="1" />
      <text x="78" y="368.0" text-anchor="end" font-size="12" fill="#445166">-485.53</text>
    
  <line x1="88" y1="315.6" x2="936" y2="315.6" stroke="#7a8799" stroke-width="1.4" stroke-dasharray="4 4" />
  <line x1="88" y1="36" x2="88" y2="364" stroke="#445166" stroke-width="1.2" />
  <line x1="88" y1="364" x2="936" y2="364" stroke="#445166" stroke-width="1.2" />
  
      <line x1="88.0" y1="364" x2="88.0" y2="370" stroke="#445166" stroke-width="1" />
      <text x="88.0" y="386" text-anchor="middle" font-size="12" fill="#445166">2026-01-05</text>
    
      <line x1="506.0" y1="364" x2="506.0" y2="370" stroke="#445166" stroke-width="1" />
      <text x="506.0" y="386" text-anchor="middle" font-size="12" fill="#445166">2026-02-23</text>
    
      <line x1="936.0" y1="364" x2="936.0" y2="370" stroke="#445166" stroke-width="1" />
      <text x="936.0" y="386" text-anchor="middle" font-size="12" fill="#445166">2026-04-21</text>
    
  <polyline fill="none" stroke="#0b84f3" stroke-width="3" points="88.0,303.2 99.9,308.3 111.9,308.5 123.8,336.3 135.8,354.8 147.7,357.8 159.7,347.9 171.6,356.8 183.5,359.1 195.5,364.0 207.4,345.3 219.4,282.8 231.3,255.4 243.3,68.7 255.2,36.0 267.2,48.5 279.1,66.4 291.0,79.1 303.0,115.6 314.9,118.5 326.9,119.4 338.8,115.1 350.8,106.4 362.7,108.2 374.6,112.1 386.6,136.5 398.5,136.9 410.5,139.3 422.4,141.9 434.4,177.5 446.3,151.4 458.3,166.0 470.2,172.8 482.1,174.3 494.1,178.3 506.0,161.9 518.0,121.8 529.9,137.3 541.9,103.6 553.8,78.3 565.7,69.2 577.7,37.2 589.6,67.2 601.6,68.1 613.5,72.9 625.5,102.9 637.4,126.6 649.4,172.4 661.3,201.9 673.2,200.1 685.2,216.2 697.1,218.4 709.1,233.9 721.0,223.1 733.0,247.1 744.9,258.4 756.8,261.8 768.8,285.5 780.7,274.9 792.7,256.2 804.6,255.7 816.6,253.3 828.5,243.4 840.5,240.1 852.4,242.0 864.3,222.7 876.3,255.6 888.2,267.0 900.2,255.7 912.1,258.0 924.1,259.4 936.0,265.6" />
  <circle cx="936.0" cy="265.6" r="4.5" fill="#0b84f3" />
  <text x="932.0" y="255.6" font-size="12" fill="#18212f">502.01</text>
</svg>
