<?xml version="1.0" encoding="UTF-8"?>
<svg xmlns="http://www.w3.org/2000/svg" width="960" height="420" viewBox="0 0 960 420">
  <rect width="100%" height="100%" fill="#f7f9fc" />
  <text x="88" y="24" font-size="20" font-family="Arial, sans-serif" font-weight="700" fill="#18212f">BEM cumulative NVDR NET (2026-01-01 to 2026-04-21)</text>
  <text x="88" y="46" font-size="12" font-family="Arial, sans-serif" fill="#445166">Unit: million baht, based on NVDR Turnover (Net) from value view</text>
  
      <line x1="88" y1="36.0" x2="936" y2="36.0" stroke="#d8dde6" stroke-width="1" />
      <text x="78" y="40.0" text-anchor="end" font-size="12" fill="#445166">530.24</text>
    
      <line x1="88" y1="101.6" x2="936" y2="101.6" stroke="#d8dde6" stroke-width="1" />
      <text x="78" y="105.6" text-anchor="end" font-size="12" fill="#445166">421.95</text>
    
      <line x1="88" y1="167.2" x2="936" y2="167.2" stroke="#d8dde6" stroke-width="1" />
      <text x="78" y="171.2" text-anchor="end" font-size="12" fill="#445166">313.66</text>
    
      <line x1="88" y1="232.8" x2="936" y2="232.8" stroke="#d8dde6" stroke-width="1" />
      <text x="78" y="236.8" text-anchor="end" font-size="12" fill="#445166">205.37</text>
    
      <line x1="88" y1="298.4" x2="936" y2="298.4" stroke="#d8dde6" stroke-width="1" />
      <text x="78" y="302.4" text-anchor="end" font-size="12" fill="#445166">97.08</text>
    
      <line x1="88" y1="364.0" x2="936" y2="364.0" stroke="#d8dde6" stroke-width="1" />
      <text x="78" y="368.0" text-anchor="end" font-size="12" fill="#445166">-11.21</text>
    
  <line x1="88" y1="357.2" x2="936" y2="357.2" stroke="#7a8799" stroke-width="1.4" stroke-dasharray="4 4" />
  <line x1="88" y1="36" x2="88" y2="364" stroke="#445166" stroke-width="1.2" />
  <line x1="88" y1="364" x2="936" y2="364" stroke="#445166" stroke-width="1.2" />
  
      <line x1="88.0" y1="364" x2="88.0" y2="370" stroke="#445166" stroke-width="1" />
      <text x="88.0" y="386" text-anchor="middle" font-size="12" fill="#445166">2026-01-05</text>
    
      <line x1="506.0" y1="364" x2="506.0" y2="370" stroke="#445166" stroke-width="1" />
      <text x="506.0" y="386" text-anchor="middle" font-size="12" fill="#445166">2026-02-23</text>
    
      <line x1="936.0" y1="364" x2="936.0" y2="370" stroke="#445166" stroke-width="1" />
      <text x="936.0" y="386" text-anchor="middle" font-size="12" fill="#445166">2026-04-21</text>
    
  <polyline fill="none" stroke="#0b84f3" stroke-width="3" points="88.0,355.8 99.9,355.6 111.9,354.7 123.8,357.5 135.8,363.3 147.7,364.0 159.7,357.6 171.6,357.8 183.5,349.7 195.5,334.2 207.4,325.9 219.4,312.8 231.3,305.0 243.3,294.5 255.2,295.4 267.2,292.9 279.1,283.3 291.0,286.6 303.0,282.0 314.9,291.1 326.9,282.7 338.8,271.3 350.8,276.5 362.7,271.4 374.6,267.7 386.6,138.0 398.5,134.3 410.5,91.5 422.4,73.2 434.4,55.6 446.3,36.0 458.3,80.3 470.2,134.7 482.1,193.6 494.1,199.4 506.0,189.0 518.0,159.2 529.9,156.2 541.9,113.4 553.8,90.6 565.7,122.3 577.7,127.4 589.6,160.9 601.6,182.0 613.5,194.5 625.5,223.6 637.4,242.5 649.4,256.4 661.3,281.5 673.2,292.0 685.2,275.6 697.1,292.8 709.1,310.5 721.0,294.0 733.0,327.3 744.9,322.7 756.8,312.7 768.8,317.9 780.7,311.9 792.7,306.6 804.6,297.2 816.6,297.6 828.5,292.8 840.5,301.4 852.4,296.9 864.3,265.1 876.3,275.9 888.2,280.8 900.2,284.3 912.1,295.7 924.1,301.5 936.0,297.7" />
  <circle cx="936.0" cy="297.7" r="4.5" fill="#0b84f3" />
  <text x="932.0" y="287.7" font-size="12" fill="#18212f">98.20</text>
</svg>
