<?xml version="1.0" encoding="UTF-8"?>
<svg xmlns="http://www.w3.org/2000/svg" width="960" height="420" viewBox="0 0 960 420">
  <rect width="100%" height="100%" fill="#f7f9fc" />
  <text x="88" y="24" font-size="20" font-family="Arial, sans-serif" font-weight="700" fill="#18212f">BGRIM cumulative NVDR NET (2026-01-01 to 2026-04-21)</text>
  <text x="88" y="46" font-size="12" font-family="Arial, sans-serif" fill="#445166">Unit: million baht, based on NVDR Turnover (Net) from value view</text>
  
      <line x1="88" y1="36.0" x2="936" y2="36.0" stroke="#d8dde6" stroke-width="1" />
      <text x="78" y="40.0" text-anchor="end" font-size="12" fill="#445166">430.62</text>
    
      <line x1="88" y1="101.6" x2="936" y2="101.6" stroke="#d8dde6" stroke-width="1" />
      <text x="78" y="105.6" text-anchor="end" font-size="12" fill="#445166">320.30</text>
    
      <line x1="88" y1="167.2" x2="936" y2="167.2" stroke="#d8dde6" stroke-width="1" />
      <text x="78" y="171.2" text-anchor="end" font-size="12" fill="#445166">209.98</text>
    
      <line x1="88" y1="232.8" x2="936" y2="232.8" stroke="#d8dde6" stroke-width="1" />
      <text x="78" y="236.8" text-anchor="end" font-size="12" fill="#445166">99.65</text>
    
      <line x1="88" y1="298.4" x2="936" y2="298.4" stroke="#d8dde6" stroke-width="1" />
      <text x="78" y="302.4" text-anchor="end" font-size="12" fill="#445166">-10.67</text>
    
      <line x1="88" y1="364.0" x2="936" y2="364.0" stroke="#d8dde6" stroke-width="1" />
      <text x="78" y="368.0" text-anchor="end" font-size="12" fill="#445166">-120.99</text>
    
  <line x1="88" y1="292.1" x2="936" y2="292.1" stroke="#7a8799" stroke-width="1.4" stroke-dasharray="4 4" />
  <line x1="88" y1="36" x2="88" y2="364" stroke="#445166" stroke-width="1.2" />
  <line x1="88" y1="364" x2="936" y2="364" stroke="#445166" stroke-width="1.2" />
  
      <line x1="88.0" y1="364" x2="88.0" y2="370" stroke="#445166" stroke-width="1" />
      <text x="88.0" y="386" text-anchor="middle" font-size="12" fill="#445166">2026-01-05</text>
    
      <line x1="506.0" y1="364" x2="506.0" y2="370" stroke="#445166" stroke-width="1" />
      <text x="506.0" y="386" text-anchor="middle" font-size="12" fill="#445166">2026-02-23</text>
    
      <line x1="936.0" y1="364" x2="936.0" y2="370" stroke="#445166" stroke-width="1" />
      <text x="936.0" y="386" text-anchor="middle" font-size="12" fill="#445166">2026-04-21</text>
    
  <polyline fill="none" stroke="#0b84f3" stroke-width="3" points="88.0,291.9 99.9,273.1 111.9,251.6 123.8,259.0 135.8,267.3 147.7,279.5 159.7,291.6 171.6,291.4 183.5,287.6 195.5,308.1 207.4,307.6 219.4,294.4 231.3,319.1 243.3,335.0 255.2,340.0 267.2,339.6 279.1,343.1 291.0,346.7 303.0,359.3 314.9,361.8 326.9,364.0 338.8,292.0 350.8,304.7 362.7,314.6 374.6,324.8 386.6,292.6 398.5,294.9 410.5,279.2 422.4,248.0 434.4,182.6 446.3,202.3 458.3,156.8 470.2,127.9 482.1,128.9 494.1,149.7 506.0,115.9 518.0,56.5 529.9,65.2 541.9,55.7 553.8,36.0 565.7,104.9 577.7,134.8 589.6,201.0 601.6,208.3 613.5,223.3 625.5,253.3 637.4,255.5 649.4,239.0 661.3,268.3 673.2,271.4 685.2,244.8 697.1,263.3 709.1,295.2 721.0,280.3 733.0,259.6 744.9,247.0 756.8,255.6 768.8,250.4 780.7,252.6 792.7,239.0 804.6,230.5 816.6,261.0 828.5,266.0 840.5,268.0 852.4,258.4 864.3,201.6 876.3,248.7 888.2,260.7 900.2,245.0 912.1,234.4 924.1,203.4 936.0,214.3" />
  <circle cx="936.0" cy="214.3" r="4.5" fill="#0b84f3" />
  <text x="932.0" y="204.3" font-size="12" fill="#18212f">130.72</text>
</svg>
