<?xml version="1.0" encoding="UTF-8"?>
<svg xmlns="http://www.w3.org/2000/svg" width="960" height="420" viewBox="0 0 960 420">
  <rect width="100%" height="100%" fill="#f7f9fc" />
  <text x="88" y="24" font-size="20" font-family="Arial, sans-serif" font-weight="700" fill="#18212f">BH cumulative NVDR NET (2026-01-01 to 2026-04-21)</text>
  <text x="88" y="46" font-size="12" font-family="Arial, sans-serif" fill="#445166">Unit: million baht, based on NVDR Turnover (Net) from value view</text>
  
      <line x1="88" y1="36.0" x2="936" y2="36.0" stroke="#d8dde6" stroke-width="1" />
      <text x="78" y="40.0" text-anchor="end" font-size="12" fill="#445166">2880.06</text>
    
      <line x1="88" y1="101.6" x2="936" y2="101.6" stroke="#d8dde6" stroke-width="1" />
      <text x="78" y="105.6" text-anchor="end" font-size="12" fill="#445166">2304.05</text>
    
      <line x1="88" y1="167.2" x2="936" y2="167.2" stroke="#d8dde6" stroke-width="1" />
      <text x="78" y="171.2" text-anchor="end" font-size="12" fill="#445166">1728.04</text>
    
      <line x1="88" y1="232.8" x2="936" y2="232.8" stroke="#d8dde6" stroke-width="1" />
      <text x="78" y="236.8" text-anchor="end" font-size="12" fill="#445166">1152.02</text>
    
      <line x1="88" y1="298.4" x2="936" y2="298.4" stroke="#d8dde6" stroke-width="1" />
      <text x="78" y="302.4" text-anchor="end" font-size="12" fill="#445166">576.01</text>
    
      <line x1="88" y1="364.0" x2="936" y2="364.0" stroke="#d8dde6" stroke-width="1" />
      <text x="78" y="368.0" text-anchor="end" font-size="12" fill="#445166">0.00</text>
    
  <line x1="88" y1="364.0" x2="936" y2="364.0" stroke="#7a8799" stroke-width="1.4" stroke-dasharray="4 4" />
  <line x1="88" y1="36" x2="88" y2="364" stroke="#445166" stroke-width="1.2" />
  <line x1="88" y1="364" x2="936" y2="364" stroke="#445166" stroke-width="1.2" />
  
      <line x1="88.0" y1="364" x2="88.0" y2="370" stroke="#445166" stroke-width="1" />
      <text x="88.0" y="386" text-anchor="middle" font-size="12" fill="#445166">2026-01-05</text>
    
      <line x1="506.0" y1="364" x2="506.0" y2="370" stroke="#445166" stroke-width="1" />
      <text x="506.0" y="386" text-anchor="middle" font-size="12" fill="#445166">2026-02-23</text>
    
      <line x1="936.0" y1="364" x2="936.0" y2="370" stroke="#445166" stroke-width="1" />
      <text x="936.0" y="386" text-anchor="middle" font-size="12" fill="#445166">2026-04-21</text>
    
  <polyline fill="none" stroke="#0b84f3" stroke-width="3" points="88.0,356.3 99.9,354.4 111.9,333.7 123.8,326.4 135.8,320.4 147.7,319.0 159.7,322.6 171.6,327.5 183.5,339.1 195.5,342.1 207.4,332.2 219.4,332.6 231.3,309.4 243.3,283.4 255.2,274.6 267.2,277.1 279.1,277.2 291.0,272.1 303.0,263.8 314.9,243.1 326.9,229.0 338.8,229.2 350.8,225.2 362.7,214.9 374.6,203.2 386.6,219.2 398.5,205.9 410.5,207.3 422.4,210.2 434.4,202.5 446.3,195.3 458.3,195.8 470.2,187.6 482.1,155.7 494.1,142.7 506.0,140.3 518.0,118.8 529.9,94.5 541.9,44.7 553.8,36.0 565.7,68.0 577.7,42.8 589.6,85.9 601.6,89.0 613.5,75.7 625.5,111.5 637.4,135.5 649.4,147.5 661.3,174.7 673.2,188.9 685.2,225.8 697.1,246.0 709.1,268.8 721.0,295.3 733.0,305.6 744.9,310.9 756.8,324.0 768.8,338.7 780.7,325.5 792.7,306.4 804.6,333.2 816.6,311.2 828.5,306.0 840.5,326.8 852.4,327.0 864.3,305.1 876.3,326.8 888.2,325.9 900.2,324.2 912.1,316.8 924.1,322.9 936.0,327.6" />
  <circle cx="936.0" cy="327.6" r="4.5" fill="#0b84f3" />
  <text x="932.0" y="317.6" font-size="12" fill="#18212f">320.00</text>
</svg>
