<?xml version="1.0" encoding="UTF-8"?>
<svg xmlns="http://www.w3.org/2000/svg" width="960" height="420" viewBox="0 0 960 420">
  <rect width="100%" height="100%" fill="#f7f9fc" />
  <text x="88" y="24" font-size="20" font-family="Arial, sans-serif" font-weight="700" fill="#18212f">BJC cumulative NVDR NET (2026-01-01 to 2026-04-21)</text>
  <text x="88" y="46" font-size="12" font-family="Arial, sans-serif" fill="#445166">Unit: million baht, based on NVDR Turnover (Net) from value view</text>
  
      <line x1="88" y1="36.0" x2="936" y2="36.0" stroke="#d8dde6" stroke-width="1" />
      <text x="78" y="40.0" text-anchor="end" font-size="12" fill="#445166">284.89</text>
    
      <line x1="88" y1="101.6" x2="936" y2="101.6" stroke="#d8dde6" stroke-width="1" />
      <text x="78" y="105.6" text-anchor="end" font-size="12" fill="#445166">218.70</text>
    
      <line x1="88" y1="167.2" x2="936" y2="167.2" stroke="#d8dde6" stroke-width="1" />
      <text x="78" y="171.2" text-anchor="end" font-size="12" fill="#445166">152.52</text>
    
      <line x1="88" y1="232.8" x2="936" y2="232.8" stroke="#d8dde6" stroke-width="1" />
      <text x="78" y="236.8" text-anchor="end" font-size="12" fill="#445166">86.33</text>
    
      <line x1="88" y1="298.4" x2="936" y2="298.4" stroke="#d8dde6" stroke-width="1" />
      <text x="78" y="302.4" text-anchor="end" font-size="12" fill="#445166">20.15</text>
    
      <line x1="88" y1="364.0" x2="936" y2="364.0" stroke="#d8dde6" stroke-width="1" />
      <text x="78" y="368.0" text-anchor="end" font-size="12" fill="#445166">-46.04</text>
    
  <line x1="88" y1="318.4" x2="936" y2="318.4" stroke="#7a8799" stroke-width="1.4" stroke-dasharray="4 4" />
  <line x1="88" y1="36" x2="88" y2="364" stroke="#445166" stroke-width="1.2" />
  <line x1="88" y1="364" x2="936" y2="364" stroke="#445166" stroke-width="1.2" />
  
      <line x1="88.0" y1="364" x2="88.0" y2="370" stroke="#445166" stroke-width="1" />
      <text x="88.0" y="386" text-anchor="middle" font-size="12" fill="#445166">2026-01-05</text>
    
      <line x1="506.0" y1="364" x2="506.0" y2="370" stroke="#445166" stroke-width="1" />
      <text x="506.0" y="386" text-anchor="middle" font-size="12" fill="#445166">2026-02-23</text>
    
      <line x1="936.0" y1="364" x2="936.0" y2="370" stroke="#445166" stroke-width="1" />
      <text x="936.0" y="386" text-anchor="middle" font-size="12" fill="#445166">2026-04-21</text>
    
  <polyline fill="none" stroke="#0b84f3" stroke-width="3" points="88.0,339.8 99.9,348.2 111.9,320.6 123.8,347.9 135.8,351.0 147.7,362.8 159.7,364.0 171.6,361.2 183.5,312.1 195.5,313.7 207.4,296.9 219.4,302.4 231.3,299.4 243.3,290.8 255.2,287.8 267.2,268.1 279.1,215.7 291.0,239.7 303.0,242.0 314.9,243.7 326.9,243.0 338.8,207.7 350.8,213.3 362.7,151.7 374.6,185.2 386.6,114.5 398.5,75.6 410.5,96.4 422.4,99.6 434.4,99.1 446.3,63.9 458.3,36.0 470.2,58.6 482.1,62.4 494.1,84.0 506.0,59.8 518.0,50.8 529.9,59.3 541.9,53.9 553.8,77.1 565.7,87.7 577.7,132.8 589.6,163.6 601.6,176.0 613.5,189.2 625.5,218.7 637.4,237.4 649.4,209.4 661.3,220.1 673.2,218.1 685.2,212.7 697.1,237.1 709.1,272.3 721.0,274.6 733.0,292.6 744.9,298.4 756.8,290.9 768.8,300.6 780.7,273.2 792.7,240.8 804.6,268.8 816.6,265.6 828.5,265.1 840.5,266.8 852.4,260.8 864.3,243.7 876.3,241.2 888.2,243.6 900.2,237.6 912.1,249.6 924.1,253.2 936.0,254.6" />
  <circle cx="936.0" cy="254.6" r="4.5" fill="#0b84f3" />
  <text x="932.0" y="244.6" font-size="12" fill="#18212f">64.30</text>
</svg>
