<?xml version="1.0" encoding="UTF-8"?>
<svg xmlns="http://www.w3.org/2000/svg" width="960" height="420" viewBox="0 0 960 420">
  <rect width="100%" height="100%" fill="#f7f9fc" />
  <text x="88" y="24" font-size="20" font-family="Arial, sans-serif" font-weight="700" fill="#18212f">BTG cumulative NVDR NET (2026-01-01 to 2026-04-21)</text>
  <text x="88" y="46" font-size="12" font-family="Arial, sans-serif" fill="#445166">Unit: million baht, based on NVDR Turnover (Net) from value view</text>
  
      <line x1="88" y1="36.0" x2="936" y2="36.0" stroke="#d8dde6" stroke-width="1" />
      <text x="78" y="40.0" text-anchor="end" font-size="12" fill="#445166">1196.96</text>
    
      <line x1="88" y1="101.6" x2="936" y2="101.6" stroke="#d8dde6" stroke-width="1" />
      <text x="78" y="105.6" text-anchor="end" font-size="12" fill="#445166">947.82</text>
    
      <line x1="88" y1="167.2" x2="936" y2="167.2" stroke="#d8dde6" stroke-width="1" />
      <text x="78" y="171.2" text-anchor="end" font-size="12" fill="#445166">698.68</text>
    
      <line x1="88" y1="232.8" x2="936" y2="232.8" stroke="#d8dde6" stroke-width="1" />
      <text x="78" y="236.8" text-anchor="end" font-size="12" fill="#445166">449.53</text>
    
      <line x1="88" y1="298.4" x2="936" y2="298.4" stroke="#d8dde6" stroke-width="1" />
      <text x="78" y="302.4" text-anchor="end" font-size="12" fill="#445166">200.39</text>
    
      <line x1="88" y1="364.0" x2="936" y2="364.0" stroke="#d8dde6" stroke-width="1" />
      <text x="78" y="368.0" text-anchor="end" font-size="12" fill="#445166">-48.75</text>
    
  <line x1="88" y1="351.2" x2="936" y2="351.2" stroke="#7a8799" stroke-width="1.4" stroke-dasharray="4 4" />
  <line x1="88" y1="36" x2="88" y2="364" stroke="#445166" stroke-width="1.2" />
  <line x1="88" y1="364" x2="936" y2="364" stroke="#445166" stroke-width="1.2" />
  
      <line x1="88.0" y1="364" x2="88.0" y2="370" stroke="#445166" stroke-width="1" />
      <text x="88.0" y="386" text-anchor="middle" font-size="12" fill="#445166">2026-01-05</text>
    
      <line x1="506.0" y1="364" x2="506.0" y2="370" stroke="#445166" stroke-width="1" />
      <text x="506.0" y="386" text-anchor="middle" font-size="12" fill="#445166">2026-02-23</text>
    
      <line x1="936.0" y1="364" x2="936.0" y2="370" stroke="#445166" stroke-width="1" />
      <text x="936.0" y="386" text-anchor="middle" font-size="12" fill="#445166">2026-04-21</text>
    
  <polyline fill="none" stroke="#0b84f3" stroke-width="3" points="88.0,350.6 99.9,352.0 111.9,349.6 123.8,354.4 135.8,347.9 147.7,353.9 159.7,356.5 171.6,350.4 183.5,343.7 195.5,341.8 207.4,339.4 219.4,339.2 231.3,337.4 243.3,341.2 255.2,350.3 267.2,353.0 279.1,354.8 291.0,359.0 303.0,358.2 314.9,358.9 326.9,360.0 338.8,362.0 350.8,363.5 362.7,363.6 374.6,364.0 386.6,361.0 398.5,357.0 410.5,357.0 422.4,353.1 434.4,350.9 446.3,350.8 458.3,344.8 470.2,334.1 482.1,332.7 494.1,330.6 506.0,324.9 518.0,301.7 529.9,243.2 541.9,216.5 553.8,205.3 565.7,192.6 577.7,190.3 589.6,193.0 601.6,190.8 613.5,188.8 625.5,183.8 637.4,192.3 649.4,190.9 661.3,197.2 673.2,197.4 685.2,189.0 697.1,183.9 709.1,202.4 721.0,206.0 733.0,206.2 744.9,199.8 756.8,184.2 768.8,180.2 780.7,117.8 792.7,107.6 804.6,85.4 816.6,74.9 828.5,60.5 840.5,63.5 852.4,59.5 864.3,66.3 876.3,63.6 888.2,54.8 900.2,36.0 912.1,40.2 924.1,40.0 936.0,44.7" />
  <circle cx="936.0" cy="44.7" r="4.5" fill="#0b84f3" />
  <text x="932.0" y="48.0" font-size="12" fill="#18212f">1163.92</text>
</svg>
