<?xml version="1.0" encoding="UTF-8"?>
<svg xmlns="http://www.w3.org/2000/svg" width="960" height="420" viewBox="0 0 960 420">
  <rect width="100%" height="100%" fill="#f7f9fc" />
  <text x="88" y="24" font-size="20" font-family="Arial, sans-serif" font-weight="700" fill="#18212f">CBG cumulative NVDR NET (2026-01-01 to 2026-04-21)</text>
  <text x="88" y="46" font-size="12" font-family="Arial, sans-serif" fill="#445166">Unit: million baht, based on NVDR Turnover (Net) from value view</text>
  
      <line x1="88" y1="36.0" x2="936" y2="36.0" stroke="#d8dde6" stroke-width="1" />
      <text x="78" y="40.0" text-anchor="end" font-size="12" fill="#445166">328.91</text>
    
      <line x1="88" y1="101.6" x2="936" y2="101.6" stroke="#d8dde6" stroke-width="1" />
      <text x="78" y="105.6" text-anchor="end" font-size="12" fill="#445166">234.32</text>
    
      <line x1="88" y1="167.2" x2="936" y2="167.2" stroke="#d8dde6" stroke-width="1" />
      <text x="78" y="171.2" text-anchor="end" font-size="12" fill="#445166">139.73</text>
    
      <line x1="88" y1="232.8" x2="936" y2="232.8" stroke="#d8dde6" stroke-width="1" />
      <text x="78" y="236.8" text-anchor="end" font-size="12" fill="#445166">45.14</text>
    
      <line x1="88" y1="298.4" x2="936" y2="298.4" stroke="#d8dde6" stroke-width="1" />
      <text x="78" y="302.4" text-anchor="end" font-size="12" fill="#445166">-49.45</text>
    
      <line x1="88" y1="364.0" x2="936" y2="364.0" stroke="#d8dde6" stroke-width="1" />
      <text x="78" y="368.0" text-anchor="end" font-size="12" fill="#445166">-144.04</text>
    
  <line x1="88" y1="264.1" x2="936" y2="264.1" stroke="#7a8799" stroke-width="1.4" stroke-dasharray="4 4" />
  <line x1="88" y1="36" x2="88" y2="364" stroke="#445166" stroke-width="1.2" />
  <line x1="88" y1="364" x2="936" y2="364" stroke="#445166" stroke-width="1.2" />
  
      <line x1="88.0" y1="364" x2="88.0" y2="370" stroke="#445166" stroke-width="1" />
      <text x="88.0" y="386" text-anchor="middle" font-size="12" fill="#445166">2026-01-05</text>
    
      <line x1="506.0" y1="364" x2="506.0" y2="370" stroke="#445166" stroke-width="1" />
      <text x="506.0" y="386" text-anchor="middle" font-size="12" fill="#445166">2026-02-23</text>
    
      <line x1="936.0" y1="364" x2="936.0" y2="370" stroke="#445166" stroke-width="1" />
      <text x="936.0" y="386" text-anchor="middle" font-size="12" fill="#445166">2026-04-21</text>
    
  <polyline fill="none" stroke="#0b84f3" stroke-width="3" points="88.0,263.9 99.9,268.0 111.9,230.4 123.8,260.7 135.8,250.5 147.7,265.3 159.7,255.6 171.6,239.9 183.5,230.3 195.5,178.1 207.4,161.3 219.4,117.2 231.3,113.1 243.3,117.4 255.2,127.2 267.2,127.0 279.1,127.0 291.0,133.3 303.0,131.2 314.9,131.7 326.9,144.7 338.8,128.4 350.8,164.0 362.7,149.8 374.6,164.4 386.6,36.0 398.5,59.3 410.5,99.5 422.4,80.2 434.4,119.8 446.3,124.1 458.3,129.8 470.2,123.3 482.1,138.9 494.1,156.3 506.0,182.0 518.0,172.7 529.9,171.5 541.9,155.0 553.8,165.2 565.7,178.1 577.7,212.9 589.6,246.4 601.6,253.1 613.5,249.4 625.5,278.4 637.4,289.4 649.4,301.0 661.3,334.2 673.2,340.4 685.2,339.9 697.1,342.0 709.1,361.8 721.0,351.8 733.0,364.0 744.9,357.0 756.8,341.0 768.8,344.4 780.7,345.9 792.7,321.2 804.6,308.0 816.6,312.5 828.5,311.5 840.5,297.1 852.4,291.7 864.3,279.2 876.3,293.1 888.2,292.1 900.2,275.9 912.1,288.9 924.1,290.3 936.0,291.6" />
  <circle cx="936.0" cy="291.6" r="4.5" fill="#0b84f3" />
  <text x="932.0" y="281.6" font-size="12" fill="#18212f">-39.62</text>
</svg>
