<?xml version="1.0" encoding="UTF-8"?>
<svg xmlns="http://www.w3.org/2000/svg" width="960" height="420" viewBox="0 0 960 420">
  <rect width="100%" height="100%" fill="#f7f9fc" />
  <text x="88" y="24" font-size="20" font-family="Arial, sans-serif" font-weight="700" fill="#18212f">CCET cumulative NVDR NET (2026-01-01 to 2026-04-21)</text>
  <text x="88" y="46" font-size="12" font-family="Arial, sans-serif" fill="#445166">Unit: million baht, based on NVDR Turnover (Net) from value view</text>
  
      <line x1="88" y1="36.0" x2="936" y2="36.0" stroke="#d8dde6" stroke-width="1" />
      <text x="78" y="40.0" text-anchor="end" font-size="12" fill="#445166">288.16</text>
    
      <line x1="88" y1="101.6" x2="936" y2="101.6" stroke="#d8dde6" stroke-width="1" />
      <text x="78" y="105.6" text-anchor="end" font-size="12" fill="#445166">216.39</text>
    
      <line x1="88" y1="167.2" x2="936" y2="167.2" stroke="#d8dde6" stroke-width="1" />
      <text x="78" y="171.2" text-anchor="end" font-size="12" fill="#445166">144.62</text>
    
      <line x1="88" y1="232.8" x2="936" y2="232.8" stroke="#d8dde6" stroke-width="1" />
      <text x="78" y="236.8" text-anchor="end" font-size="12" fill="#445166">72.84</text>
    
      <line x1="88" y1="298.4" x2="936" y2="298.4" stroke="#d8dde6" stroke-width="1" />
      <text x="78" y="302.4" text-anchor="end" font-size="12" fill="#445166">1.07</text>
    
      <line x1="88" y1="364.0" x2="936" y2="364.0" stroke="#d8dde6" stroke-width="1" />
      <text x="78" y="368.0" text-anchor="end" font-size="12" fill="#445166">-70.70</text>
    
  <line x1="88" y1="299.4" x2="936" y2="299.4" stroke="#7a8799" stroke-width="1.4" stroke-dasharray="4 4" />
  <line x1="88" y1="36" x2="88" y2="364" stroke="#445166" stroke-width="1.2" />
  <line x1="88" y1="364" x2="936" y2="364" stroke="#445166" stroke-width="1.2" />
  
      <line x1="88.0" y1="364" x2="88.0" y2="370" stroke="#445166" stroke-width="1" />
      <text x="88.0" y="386" text-anchor="middle" font-size="12" fill="#445166">2026-01-05</text>
    
      <line x1="506.0" y1="364" x2="506.0" y2="370" stroke="#445166" stroke-width="1" />
      <text x="506.0" y="386" text-anchor="middle" font-size="12" fill="#445166">2026-02-23</text>
    
      <line x1="936.0" y1="364" x2="936.0" y2="370" stroke="#445166" stroke-width="1" />
      <text x="936.0" y="386" text-anchor="middle" font-size="12" fill="#445166">2026-04-21</text>
    
  <polyline fill="none" stroke="#0b84f3" stroke-width="3" points="88.0,290.5 99.9,303.1 111.9,297.5 123.8,306.2 135.8,311.1 147.7,310.4 159.7,301.5 171.6,273.6 183.5,251.6 195.5,262.4 207.4,232.4 219.4,230.7 231.3,199.1 243.3,192.9 255.2,157.8 267.2,165.1 279.1,162.9 291.0,195.6 303.0,203.0 314.9,235.0 326.9,235.9 338.8,238.3 350.8,234.9 362.7,218.2 374.6,226.2 386.6,174.9 398.5,177.3 410.5,174.7 422.4,148.7 434.4,149.0 446.3,154.0 458.3,153.9 470.2,135.3 482.1,116.9 494.1,156.5 506.0,157.0 518.0,157.2 529.9,36.0 541.9,97.9 553.8,139.9 565.7,150.6 577.7,198.2 589.6,216.6 601.6,213.3 613.5,247.3 625.5,210.0 637.4,254.3 649.4,265.0 661.3,307.4 673.2,313.2 685.2,296.2 697.1,300.6 709.1,331.5 721.0,344.9 733.0,357.9 744.9,364.0 756.8,319.0 768.8,331.9 780.7,339.5 792.7,336.4 804.6,337.0 816.6,309.8 828.5,327.6 840.5,341.4 852.4,344.1 864.3,324.7 876.3,328.4 888.2,321.4 900.2,317.1 912.1,312.4 924.1,314.8 936.0,287.2" />
  <circle cx="936.0" cy="287.2" r="4.5" fill="#0b84f3" />
  <text x="932.0" y="277.2" font-size="12" fill="#18212f">13.36</text>
</svg>
