<?xml version="1.0" encoding="UTF-8"?>
<svg xmlns="http://www.w3.org/2000/svg" width="960" height="420" viewBox="0 0 960 420">
  <rect width="100%" height="100%" fill="#f7f9fc" />
  <text x="88" y="24" font-size="20" font-family="Arial, sans-serif" font-weight="700" fill="#18212f">CENTEL cumulative NVDR NET (2026-01-01 to 2026-04-21)</text>
  <text x="88" y="46" font-size="12" font-family="Arial, sans-serif" fill="#445166">Unit: million baht, based on NVDR Turnover (Net) from value view</text>
  
      <line x1="88" y1="36.0" x2="936" y2="36.0" stroke="#d8dde6" stroke-width="1" />
      <text x="78" y="40.0" text-anchor="end" font-size="12" fill="#445166">455.68</text>
    
      <line x1="88" y1="101.6" x2="936" y2="101.6" stroke="#d8dde6" stroke-width="1" />
      <text x="78" y="105.6" text-anchor="end" font-size="12" fill="#445166">356.65</text>
    
      <line x1="88" y1="167.2" x2="936" y2="167.2" stroke="#d8dde6" stroke-width="1" />
      <text x="78" y="171.2" text-anchor="end" font-size="12" fill="#445166">257.62</text>
    
      <line x1="88" y1="232.8" x2="936" y2="232.8" stroke="#d8dde6" stroke-width="1" />
      <text x="78" y="236.8" text-anchor="end" font-size="12" fill="#445166">158.59</text>
    
      <line x1="88" y1="298.4" x2="936" y2="298.4" stroke="#d8dde6" stroke-width="1" />
      <text x="78" y="302.4" text-anchor="end" font-size="12" fill="#445166">59.56</text>
    
      <line x1="88" y1="364.0" x2="936" y2="364.0" stroke="#d8dde6" stroke-width="1" />
      <text x="78" y="368.0" text-anchor="end" font-size="12" fill="#445166">-39.47</text>
    
  <line x1="88" y1="337.9" x2="936" y2="337.9" stroke="#7a8799" stroke-width="1.4" stroke-dasharray="4 4" />
  <line x1="88" y1="36" x2="88" y2="364" stroke="#445166" stroke-width="1.2" />
  <line x1="88" y1="364" x2="936" y2="364" stroke="#445166" stroke-width="1.2" />
  
      <line x1="88.0" y1="364" x2="88.0" y2="370" stroke="#445166" stroke-width="1" />
      <text x="88.0" y="386" text-anchor="middle" font-size="12" fill="#445166">2026-01-05</text>
    
      <line x1="506.0" y1="364" x2="506.0" y2="370" stroke="#445166" stroke-width="1" />
      <text x="506.0" y="386" text-anchor="middle" font-size="12" fill="#445166">2026-02-23</text>
    
      <line x1="936.0" y1="364" x2="936.0" y2="370" stroke="#445166" stroke-width="1" />
      <text x="936.0" y="386" text-anchor="middle" font-size="12" fill="#445166">2026-04-21</text>
    
  <polyline fill="none" stroke="#0b84f3" stroke-width="3" points="88.0,347.2 99.9,348.7 111.9,359.3 123.8,364.0 135.8,362.1 147.7,356.2 159.7,346.5 171.6,345.1 183.5,337.0 195.5,341.7 207.4,335.2 219.4,278.7 231.3,277.7 243.3,279.1 255.2,284.3 267.2,275.1 279.1,256.8 291.0,253.9 303.0,260.6 314.9,262.6 326.9,262.0 338.8,257.8 350.8,240.9 362.7,216.8 374.6,217.2 386.6,187.3 398.5,184.4 410.5,187.5 422.4,176.3 434.4,176.9 446.3,178.1 458.3,189.2 470.2,186.2 482.1,192.5 494.1,199.7 506.0,203.4 518.0,210.7 529.9,95.5 541.9,88.0 553.8,86.4 565.7,91.2 577.7,86.9 589.6,118.3 601.6,90.0 613.5,54.2 625.5,76.5 637.4,73.7 649.4,72.0 661.3,79.4 673.2,63.6 685.2,96.3 697.1,103.6 709.1,126.4 721.0,131.8 733.0,98.1 744.9,89.9 756.8,98.4 768.8,123.4 780.7,128.2 792.7,117.7 804.6,113.3 816.6,107.7 828.5,103.4 840.5,112.3 852.4,105.7 864.3,95.7 876.3,120.2 888.2,117.0 900.2,90.5 912.1,83.7 924.1,42.0 936.0,36.0" />
  <circle cx="936.0" cy="36.0" r="4.5" fill="#0b84f3" />
  <text x="932.0" y="48.0" font-size="12" fill="#18212f">455.68</text>
</svg>
