<?xml version="1.0" encoding="UTF-8"?>
<svg xmlns="http://www.w3.org/2000/svg" width="960" height="420" viewBox="0 0 960 420">
  <rect width="100%" height="100%" fill="#f7f9fc" />
  <text x="88" y="24" font-size="20" font-family="Arial, sans-serif" font-weight="700" fill="#18212f">COM7 cumulative NVDR NET (2026-01-01 to 2026-04-21)</text>
  <text x="88" y="46" font-size="12" font-family="Arial, sans-serif" fill="#445166">Unit: million baht, based on NVDR Turnover (Net) from value view</text>
  
      <line x1="88" y1="36.0" x2="936" y2="36.0" stroke="#d8dde6" stroke-width="1" />
      <text x="78" y="40.0" text-anchor="end" font-size="12" fill="#445166">383.02</text>
    
      <line x1="88" y1="101.6" x2="936" y2="101.6" stroke="#d8dde6" stroke-width="1" />
      <text x="78" y="105.6" text-anchor="end" font-size="12" fill="#445166">127.02</text>
    
      <line x1="88" y1="167.2" x2="936" y2="167.2" stroke="#d8dde6" stroke-width="1" />
      <text x="78" y="171.2" text-anchor="end" font-size="12" fill="#445166">-128.98</text>
    
      <line x1="88" y1="232.8" x2="936" y2="232.8" stroke="#d8dde6" stroke-width="1" />
      <text x="78" y="236.8" text-anchor="end" font-size="12" fill="#445166">-384.99</text>
    
      <line x1="88" y1="298.4" x2="936" y2="298.4" stroke="#d8dde6" stroke-width="1" />
      <text x="78" y="302.4" text-anchor="end" font-size="12" fill="#445166">-640.99</text>
    
      <line x1="88" y1="364.0" x2="936" y2="364.0" stroke="#d8dde6" stroke-width="1" />
      <text x="78" y="368.0" text-anchor="end" font-size="12" fill="#445166">-896.99</text>
    
  <line x1="88" y1="134.1" x2="936" y2="134.1" stroke="#7a8799" stroke-width="1.4" stroke-dasharray="4 4" />
  <line x1="88" y1="36" x2="88" y2="364" stroke="#445166" stroke-width="1.2" />
  <line x1="88" y1="364" x2="936" y2="364" stroke="#445166" stroke-width="1.2" />
  
      <line x1="88.0" y1="364" x2="88.0" y2="370" stroke="#445166" stroke-width="1" />
      <text x="88.0" y="386" text-anchor="middle" font-size="12" fill="#445166">2026-01-05</text>
    
      <line x1="506.0" y1="364" x2="506.0" y2="370" stroke="#445166" stroke-width="1" />
      <text x="506.0" y="386" text-anchor="middle" font-size="12" fill="#445166">2026-02-23</text>
    
      <line x1="936.0" y1="364" x2="936.0" y2="370" stroke="#445166" stroke-width="1" />
      <text x="936.0" y="386" text-anchor="middle" font-size="12" fill="#445166">2026-04-21</text>
    
  <polyline fill="none" stroke="#0b84f3" stroke-width="3" points="88.0,111.5 99.9,118.1 111.9,121.1 123.8,142.3 135.8,150.7 147.7,139.4 159.7,143.8 171.6,137.6 183.5,138.7 195.5,157.3 207.4,161.1 219.4,156.7 231.3,157.9 243.3,161.6 255.2,154.7 267.2,153.6 279.1,155.0 291.0,163.1 303.0,153.1 314.9,155.3 326.9,133.6 338.8,101.4 350.8,109.2 362.7,82.5 374.6,80.4 386.6,95.5 398.5,104.8 410.5,92.2 422.4,90.2 434.4,84.2 446.3,74.8 458.3,60.1 470.2,57.6 482.1,65.1 494.1,58.8 506.0,61.4 518.0,58.5 529.9,60.8 541.9,39.9 553.8,47.6 565.7,43.8 577.7,36.0 589.6,61.9 601.6,69.6 613.5,69.1 625.5,82.7 637.4,98.6 649.4,109.1 661.3,120.9 673.2,128.8 685.2,158.0 697.1,170.6 709.1,187.6 721.0,222.3 733.0,229.7 744.9,231.2 756.8,243.1 768.8,264.5 780.7,257.3 792.7,256.5 804.6,256.9 816.6,252.8 828.5,267.2 840.5,270.6 852.4,270.0 864.3,265.6 876.3,279.7 888.2,275.5 900.2,286.9 912.1,326.1 924.1,348.7 936.0,364.0" />
  <circle cx="936.0" cy="364.0" r="4.5" fill="#0b84f3" />
  <text x="932.0" y="354.0" font-size="12" fill="#18212f">-896.99</text>
</svg>
