<?xml version="1.0" encoding="UTF-8"?>
<svg xmlns="http://www.w3.org/2000/svg" width="960" height="420" viewBox="0 0 960 420">
  <rect width="100%" height="100%" fill="#f7f9fc" />
  <text x="88" y="24" font-size="20" font-family="Arial, sans-serif" font-weight="700" fill="#18212f">CRC cumulative NVDR NET (2026-01-01 to 2026-04-21)</text>
  <text x="88" y="46" font-size="12" font-family="Arial, sans-serif" fill="#445166">Unit: million baht, based on NVDR Turnover (Net) from value view</text>
  
      <line x1="88" y1="36.0" x2="936" y2="36.0" stroke="#d8dde6" stroke-width="1" />
      <text x="78" y="40.0" text-anchor="end" font-size="12" fill="#445166">842.87</text>
    
      <line x1="88" y1="101.6" x2="936" y2="101.6" stroke="#d8dde6" stroke-width="1" />
      <text x="78" y="105.6" text-anchor="end" font-size="12" fill="#445166">671.82</text>
    
      <line x1="88" y1="167.2" x2="936" y2="167.2" stroke="#d8dde6" stroke-width="1" />
      <text x="78" y="171.2" text-anchor="end" font-size="12" fill="#445166">500.76</text>
    
      <line x1="88" y1="232.8" x2="936" y2="232.8" stroke="#d8dde6" stroke-width="1" />
      <text x="78" y="236.8" text-anchor="end" font-size="12" fill="#445166">329.71</text>
    
      <line x1="88" y1="298.4" x2="936" y2="298.4" stroke="#d8dde6" stroke-width="1" />
      <text x="78" y="302.4" text-anchor="end" font-size="12" fill="#445166">158.65</text>
    
      <line x1="88" y1="364.0" x2="936" y2="364.0" stroke="#d8dde6" stroke-width="1" />
      <text x="78" y="368.0" text-anchor="end" font-size="12" fill="#445166">-12.40</text>
    
  <line x1="88" y1="359.2" x2="936" y2="359.2" stroke="#7a8799" stroke-width="1.4" stroke-dasharray="4 4" />
  <line x1="88" y1="36" x2="88" y2="364" stroke="#445166" stroke-width="1.2" />
  <line x1="88" y1="364" x2="936" y2="364" stroke="#445166" stroke-width="1.2" />
  
      <line x1="88.0" y1="364" x2="88.0" y2="370" stroke="#445166" stroke-width="1" />
      <text x="88.0" y="386" text-anchor="middle" font-size="12" fill="#445166">2026-01-05</text>
    
      <line x1="506.0" y1="364" x2="506.0" y2="370" stroke="#445166" stroke-width="1" />
      <text x="506.0" y="386" text-anchor="middle" font-size="12" fill="#445166">2026-02-23</text>
    
      <line x1="936.0" y1="364" x2="936.0" y2="370" stroke="#445166" stroke-width="1" />
      <text x="936.0" y="386" text-anchor="middle" font-size="12" fill="#445166">2026-04-21</text>
    
  <polyline fill="none" stroke="#0b84f3" stroke-width="3" points="88.0,360.1 99.9,360.1 111.9,339.7 123.8,359.4 135.8,364.0 147.7,362.5 159.7,360.0 171.6,348.9 183.5,306.5 195.5,306.1 207.4,288.0 219.4,211.5 231.3,195.4 243.3,178.8 255.2,158.4 267.2,143.0 279.1,128.1 291.0,139.6 303.0,136.1 314.9,138.0 326.9,118.0 338.8,116.0 350.8,130.2 362.7,116.9 374.6,109.9 386.6,54.3 398.5,73.7 410.5,86.2 422.4,36.0 434.4,44.4 446.3,55.7 458.3,53.8 470.2,37.3 482.1,53.1 494.1,91.2 506.0,100.9 518.0,77.7 529.9,67.1 541.9,51.9 553.8,40.0 565.7,59.6 577.7,96.6 589.6,119.2 601.6,128.2 613.5,117.1 625.5,153.2 637.4,160.0 649.4,152.3 661.3,143.8 673.2,149.9 685.2,157.9 697.1,180.9 709.1,217.9 721.0,223.9 733.0,214.3 744.9,210.8 756.8,223.3 768.8,218.6 780.7,194.7 792.7,154.3 804.6,130.1 816.6,155.4 828.5,152.2 840.5,150.3 852.4,133.8 864.3,119.8 876.3,129.5 888.2,127.0 900.2,121.0 912.1,131.4 924.1,137.6 936.0,119.8" />
  <circle cx="936.0" cy="119.8" r="4.5" fill="#0b84f3" />
  <text x="932.0" y="109.8" font-size="12" fill="#18212f">624.36</text>
</svg>
