<?xml version="1.0" encoding="UTF-8"?>
<svg xmlns="http://www.w3.org/2000/svg" width="960" height="420" viewBox="0 0 960 420">
  <rect width="100%" height="100%" fill="#f7f9fc" />
  <text x="88" y="24" font-size="20" font-family="Arial, sans-serif" font-weight="700" fill="#18212f">DELTA cumulative NVDR NET (2026-01-01 to 2026-04-21)</text>
  <text x="88" y="46" font-size="12" font-family="Arial, sans-serif" fill="#445166">Unit: million baht, based on NVDR Turnover (Net) from value view</text>
  
      <line x1="88" y1="36.0" x2="936" y2="36.0" stroke="#d8dde6" stroke-width="1" />
      <text x="78" y="40.0" text-anchor="end" font-size="12" fill="#445166">3494.72</text>
    
      <line x1="88" y1="101.6" x2="936" y2="101.6" stroke="#d8dde6" stroke-width="1" />
      <text x="78" y="105.6" text-anchor="end" font-size="12" fill="#445166">1826.54</text>
    
      <line x1="88" y1="167.2" x2="936" y2="167.2" stroke="#d8dde6" stroke-width="1" />
      <text x="78" y="171.2" text-anchor="end" font-size="12" fill="#445166">158.35</text>
    
      <line x1="88" y1="232.8" x2="936" y2="232.8" stroke="#d8dde6" stroke-width="1" />
      <text x="78" y="236.8" text-anchor="end" font-size="12" fill="#445166">-1509.83</text>
    
      <line x1="88" y1="298.4" x2="936" y2="298.4" stroke="#d8dde6" stroke-width="1" />
      <text x="78" y="302.4" text-anchor="end" font-size="12" fill="#445166">-3178.02</text>
    
      <line x1="88" y1="364.0" x2="936" y2="364.0" stroke="#d8dde6" stroke-width="1" />
      <text x="78" y="368.0" text-anchor="end" font-size="12" fill="#445166">-4846.20</text>
    
  <line x1="88" y1="173.4" x2="936" y2="173.4" stroke="#7a8799" stroke-width="1.4" stroke-dasharray="4 4" />
  <line x1="88" y1="36" x2="88" y2="364" stroke="#445166" stroke-width="1.2" />
  <line x1="88" y1="364" x2="936" y2="364" stroke="#445166" stroke-width="1.2" />
  
      <line x1="88.0" y1="364" x2="88.0" y2="370" stroke="#445166" stroke-width="1" />
      <text x="88.0" y="386" text-anchor="middle" font-size="12" fill="#445166">2026-01-05</text>
    
      <line x1="506.0" y1="364" x2="506.0" y2="370" stroke="#445166" stroke-width="1" />
      <text x="506.0" y="386" text-anchor="middle" font-size="12" fill="#445166">2026-02-23</text>
    
      <line x1="936.0" y1="364" x2="936.0" y2="370" stroke="#445166" stroke-width="1" />
      <text x="936.0" y="386" text-anchor="middle" font-size="12" fill="#445166">2026-04-21</text>
    
  <polyline fill="none" stroke="#0b84f3" stroke-width="3" points="88.0,185.0 99.9,244.5 111.9,273.5 123.8,363.0 135.8,364.0 147.7,362.8 159.7,360.0 171.6,361.0 183.5,352.3 195.5,346.9 207.4,346.0 219.4,351.0 231.3,306.7 243.3,316.0 255.2,308.1 267.2,316.4 279.1,261.9 291.0,274.1 303.0,263.8 314.9,246.5 326.9,231.8 338.8,234.7 350.8,233.7 362.7,246.7 374.6,229.2 386.6,176.1 398.5,199.1 410.5,186.3 422.4,176.8 434.4,194.4 446.3,182.6 458.3,183.0 470.2,179.6 482.1,149.1 494.1,150.0 506.0,117.4 518.0,129.5 529.9,90.4 541.9,101.2 553.8,98.7 565.7,76.0 577.7,36.0 589.6,71.7 601.6,97.5 613.5,111.0 625.5,147.8 637.4,169.1 649.4,187.0 661.3,223.4 673.2,217.4 685.2,210.9 697.1,210.8 709.1,235.6 721.0,254.6 733.0,271.2 744.9,270.6 756.8,182.0 768.8,226.0 780.7,241.4 792.7,270.0 804.6,310.6 816.6,279.3 828.5,259.3 840.5,259.9 852.4,234.2 864.3,227.3 876.3,120.6 888.2,62.3 900.2,93.8 912.1,90.5 924.1,82.2 936.0,76.1" />
  <circle cx="936.0" cy="76.1" r="4.5" fill="#0b84f3" />
  <text x="932.0" y="66.1" font-size="12" fill="#18212f">2475.75</text>
</svg>
