<?xml version="1.0" encoding="UTF-8"?>
<svg xmlns="http://www.w3.org/2000/svg" width="960" height="420" viewBox="0 0 960 420">
  <rect width="100%" height="100%" fill="#f7f9fc" />
  <text x="88" y="24" font-size="20" font-family="Arial, sans-serif" font-weight="700" fill="#18212f">DOHOME cumulative NVDR NET (2026-01-01 to 2026-04-21)</text>
  <text x="88" y="46" font-size="12" font-family="Arial, sans-serif" fill="#445166">Unit: million baht, based on NVDR Turnover (Net) from value view</text>
  
      <line x1="88" y1="36.0" x2="936" y2="36.0" stroke="#d8dde6" stroke-width="1" />
      <text x="78" y="40.0" text-anchor="end" font-size="12" fill="#445166">137.81</text>
    
      <line x1="88" y1="101.6" x2="936" y2="101.6" stroke="#d8dde6" stroke-width="1" />
      <text x="78" y="105.6" text-anchor="end" font-size="12" fill="#445166">105.86</text>
    
      <line x1="88" y1="167.2" x2="936" y2="167.2" stroke="#d8dde6" stroke-width="1" />
      <text x="78" y="171.2" text-anchor="end" font-size="12" fill="#445166">73.91</text>
    
      <line x1="88" y1="232.8" x2="936" y2="232.8" stroke="#d8dde6" stroke-width="1" />
      <text x="78" y="236.8" text-anchor="end" font-size="12" fill="#445166">41.95</text>
    
      <line x1="88" y1="298.4" x2="936" y2="298.4" stroke="#d8dde6" stroke-width="1" />
      <text x="78" y="302.4" text-anchor="end" font-size="12" fill="#445166">10.00</text>
    
      <line x1="88" y1="364.0" x2="936" y2="364.0" stroke="#d8dde6" stroke-width="1" />
      <text x="78" y="368.0" text-anchor="end" font-size="12" fill="#445166">-21.95</text>
    
  <line x1="88" y1="318.9" x2="936" y2="318.9" stroke="#7a8799" stroke-width="1.4" stroke-dasharray="4 4" />
  <line x1="88" y1="36" x2="88" y2="364" stroke="#445166" stroke-width="1.2" />
  <line x1="88" y1="364" x2="936" y2="364" stroke="#445166" stroke-width="1.2" />
  
      <line x1="88.0" y1="364" x2="88.0" y2="370" stroke="#445166" stroke-width="1" />
      <text x="88.0" y="386" text-anchor="middle" font-size="12" fill="#445166">2026-01-05</text>
    
      <line x1="506.0" y1="364" x2="506.0" y2="370" stroke="#445166" stroke-width="1" />
      <text x="506.0" y="386" text-anchor="middle" font-size="12" fill="#445166">2026-02-23</text>
    
      <line x1="936.0" y1="364" x2="936.0" y2="370" stroke="#445166" stroke-width="1" />
      <text x="936.0" y="386" text-anchor="middle" font-size="12" fill="#445166">2026-04-21</text>
    
  <polyline fill="none" stroke="#0b84f3" stroke-width="3" points="88.0,321.6 99.9,315.1 111.9,241.9 123.8,267.2 135.8,275.6 147.7,292.2 159.7,300.8 171.6,309.9 183.5,309.9 195.5,319.0 207.4,297.2 219.4,224.2 231.3,192.2 243.3,226.0 255.2,259.0 267.2,266.3 279.1,220.0 291.0,228.6 303.0,238.7 314.9,254.0 326.9,277.7 338.8,180.3 350.8,184.0 362.7,174.8 374.6,194.6 386.6,132.4 398.5,137.8 410.5,143.0 422.4,122.8 434.4,130.2 446.3,153.1 458.3,107.6 470.2,71.6 482.1,36.0 494.1,71.3 506.0,163.3 518.0,185.9 529.9,190.7 541.9,198.3 553.8,223.7 565.7,256.8 577.7,263.5 589.6,300.1 601.6,315.1 613.5,314.5 625.5,332.1 637.4,340.2 649.4,338.7 661.3,352.6 673.2,348.1 685.2,348.0 697.1,355.2 709.1,359.5 721.0,362.4 733.0,362.2 744.9,363.1 756.8,360.9 768.8,364.0 780.7,353.1 792.7,346.2 804.6,347.7 816.6,339.9 828.5,346.1 840.5,346.3 852.4,330.4 864.3,323.1 876.3,329.7 888.2,332.5 900.2,329.5 912.1,323.6 924.1,327.5 936.0,327.2" />
  <circle cx="936.0" cy="327.2" r="4.5" fill="#0b84f3" />
  <text x="932.0" y="317.2" font-size="12" fill="#18212f">-4.05</text>
</svg>
