<?xml version="1.0" encoding="UTF-8"?>
<svg xmlns="http://www.w3.org/2000/svg" width="960" height="420" viewBox="0 0 960 420">
  <rect width="100%" height="100%" fill="#f7f9fc" />
  <text x="88" y="24" font-size="20" font-family="Arial, sans-serif" font-weight="700" fill="#18212f">EA cumulative NVDR NET (2026-01-01 to 2026-04-21)</text>
  <text x="88" y="46" font-size="12" font-family="Arial, sans-serif" fill="#445166">Unit: million baht, based on NVDR Turnover (Net) from value view</text>
  
      <line x1="88" y1="36.0" x2="936" y2="36.0" stroke="#d8dde6" stroke-width="1" />
      <text x="78" y="40.0" text-anchor="end" font-size="12" fill="#445166">636.15</text>
    
      <line x1="88" y1="101.6" x2="936" y2="101.6" stroke="#d8dde6" stroke-width="1" />
      <text x="78" y="105.6" text-anchor="end" font-size="12" fill="#445166">508.92</text>
    
      <line x1="88" y1="167.2" x2="936" y2="167.2" stroke="#d8dde6" stroke-width="1" />
      <text x="78" y="171.2" text-anchor="end" font-size="12" fill="#445166">381.69</text>
    
      <line x1="88" y1="232.8" x2="936" y2="232.8" stroke="#d8dde6" stroke-width="1" />
      <text x="78" y="236.8" text-anchor="end" font-size="12" fill="#445166">254.46</text>
    
      <line x1="88" y1="298.4" x2="936" y2="298.4" stroke="#d8dde6" stroke-width="1" />
      <text x="78" y="302.4" text-anchor="end" font-size="12" fill="#445166">127.23</text>
    
      <line x1="88" y1="364.0" x2="936" y2="364.0" stroke="#d8dde6" stroke-width="1" />
      <text x="78" y="368.0" text-anchor="end" font-size="12" fill="#445166">0.00</text>
    
  <line x1="88" y1="364.0" x2="936" y2="364.0" stroke="#7a8799" stroke-width="1.4" stroke-dasharray="4 4" />
  <line x1="88" y1="36" x2="88" y2="364" stroke="#445166" stroke-width="1.2" />
  <line x1="88" y1="364" x2="936" y2="364" stroke="#445166" stroke-width="1.2" />
  
      <line x1="88.0" y1="364" x2="88.0" y2="370" stroke="#445166" stroke-width="1" />
      <text x="88.0" y="386" text-anchor="middle" font-size="12" fill="#445166">2026-01-05</text>
    
      <line x1="506.0" y1="364" x2="506.0" y2="370" stroke="#445166" stroke-width="1" />
      <text x="506.0" y="386" text-anchor="middle" font-size="12" fill="#445166">2026-02-23</text>
    
      <line x1="936.0" y1="364" x2="936.0" y2="370" stroke="#445166" stroke-width="1" />
      <text x="936.0" y="386" text-anchor="middle" font-size="12" fill="#445166">2026-04-21</text>
    
  <polyline fill="none" stroke="#0b84f3" stroke-width="3" points="88.0,361.3 99.9,362.3 111.9,353.4 123.8,358.9 135.8,359.0 147.7,356.1 159.7,349.4 171.6,342.2 183.5,338.5 195.5,306.7 207.4,299.3 219.4,293.5 231.3,270.6 243.3,266.0 255.2,269.6 267.2,273.8 279.1,276.6 291.0,278.6 303.0,278.9 314.9,278.2 326.9,278.4 338.8,275.1 350.8,272.6 362.7,272.4 374.6,268.7 386.6,246.7 398.5,203.4 410.5,178.1 422.4,130.5 434.4,121.5 446.3,121.6 458.3,90.7 470.2,61.9 482.1,36.0 494.1,84.3 506.0,82.6 518.0,94.9 529.9,111.4 541.9,124.5 553.8,125.5 565.7,179.1 577.7,189.6 589.6,195.9 601.6,196.6 613.5,189.3 625.5,200.2 637.4,205.9 649.4,208.6 661.3,214.0 673.2,217.4 685.2,216.2 697.1,229.4 709.1,233.0 721.0,231.1 733.0,234.2 744.9,235.5 756.8,232.4 768.8,233.9 780.7,234.3 792.7,224.7 804.6,217.1 816.6,215.5 828.5,219.4 840.5,220.3 852.4,223.3 864.3,221.1 876.3,224.2 888.2,226.1 900.2,221.7 912.1,221.9 924.1,221.3 936.0,224.3" />
  <circle cx="936.0" cy="224.3" r="4.5" fill="#0b84f3" />
  <text x="932.0" y="214.3" font-size="12" fill="#18212f">270.91</text>
</svg>
