<?xml version="1.0" encoding="UTF-8"?>
<svg xmlns="http://www.w3.org/2000/svg" width="960" height="420" viewBox="0 0 960 420">
  <rect width="100%" height="100%" fill="#f7f9fc" />
  <text x="88" y="24" font-size="20" font-family="Arial, sans-serif" font-weight="700" fill="#18212f">ERW cumulative NVDR NET (2026-01-01 to 2026-04-21)</text>
  <text x="88" y="46" font-size="12" font-family="Arial, sans-serif" fill="#445166">Unit: million baht, based on NVDR Turnover (Net) from value view</text>
  
      <line x1="88" y1="36.0" x2="936" y2="36.0" stroke="#d8dde6" stroke-width="1" />
      <text x="78" y="40.0" text-anchor="end" font-size="12" fill="#445166">303.55</text>
    
      <line x1="88" y1="101.6" x2="936" y2="101.6" stroke="#d8dde6" stroke-width="1" />
      <text x="78" y="105.6" text-anchor="end" font-size="12" fill="#445166">240.70</text>
    
      <line x1="88" y1="167.2" x2="936" y2="167.2" stroke="#d8dde6" stroke-width="1" />
      <text x="78" y="171.2" text-anchor="end" font-size="12" fill="#445166">177.85</text>
    
      <line x1="88" y1="232.8" x2="936" y2="232.8" stroke="#d8dde6" stroke-width="1" />
      <text x="78" y="236.8" text-anchor="end" font-size="12" fill="#445166">115.00</text>
    
      <line x1="88" y1="298.4" x2="936" y2="298.4" stroke="#d8dde6" stroke-width="1" />
      <text x="78" y="302.4" text-anchor="end" font-size="12" fill="#445166">52.15</text>
    
      <line x1="88" y1="364.0" x2="936" y2="364.0" stroke="#d8dde6" stroke-width="1" />
      <text x="78" y="368.0" text-anchor="end" font-size="12" fill="#445166">-10.70</text>
    
  <line x1="88" y1="352.8" x2="936" y2="352.8" stroke="#7a8799" stroke-width="1.4" stroke-dasharray="4 4" />
  <line x1="88" y1="36" x2="88" y2="364" stroke="#445166" stroke-width="1.2" />
  <line x1="88" y1="364" x2="936" y2="364" stroke="#445166" stroke-width="1.2" />
  
      <line x1="88.0" y1="364" x2="88.0" y2="370" stroke="#445166" stroke-width="1" />
      <text x="88.0" y="386" text-anchor="middle" font-size="12" fill="#445166">2026-01-05</text>
    
      <line x1="506.0" y1="364" x2="506.0" y2="370" stroke="#445166" stroke-width="1" />
      <text x="506.0" y="386" text-anchor="middle" font-size="12" fill="#445166">2026-02-23</text>
    
      <line x1="936.0" y1="364" x2="936.0" y2="370" stroke="#445166" stroke-width="1" />
      <text x="936.0" y="386" text-anchor="middle" font-size="12" fill="#445166">2026-04-21</text>
    
  <polyline fill="none" stroke="#0b84f3" stroke-width="3" points="88.0,364.0 99.9,363.0 111.9,360.1 123.8,359.2 135.8,354.1 147.7,357.6 159.7,361.1 171.6,359.9 183.5,358.3 195.5,360.5 207.4,361.0 219.4,361.1 231.3,358.0 243.3,357.9 255.2,359.1 267.2,351.1 279.1,259.3 291.0,272.0 303.0,274.7 314.9,273.6 326.9,273.4 338.8,269.0 350.8,270.9 362.7,266.8 374.6,272.9 386.6,287.2 398.5,250.5 410.5,243.2 422.4,212.4 434.4,201.1 446.3,219.7 458.3,202.5 470.2,163.7 482.1,155.0 494.1,112.1 506.0,100.3 518.0,81.4 529.9,89.1 541.9,102.4 553.8,97.5 565.7,92.6 577.7,80.3 589.6,73.7 601.6,60.1 613.5,36.0 625.5,63.4 637.4,85.3 649.4,89.9 661.3,96.8 673.2,99.9 685.2,143.4 697.1,158.1 709.1,179.3 721.0,179.2 733.0,167.3 744.9,185.1 756.8,192.4 768.8,210.0 780.7,215.5 792.7,208.7 804.6,222.9 816.6,224.6 828.5,230.9 840.5,245.6 852.4,252.3 864.3,238.7 876.3,258.2 888.2,268.8 900.2,264.2 912.1,265.7 924.1,273.5 936.0,279.9" />
  <circle cx="936.0" cy="279.9" r="4.5" fill="#0b84f3" />
  <text x="932.0" y="269.9" font-size="12" fill="#18212f">69.87</text>
</svg>
