<?xml version="1.0" encoding="UTF-8"?>
<svg xmlns="http://www.w3.org/2000/svg" width="960" height="420" viewBox="0 0 960 420">
  <rect width="100%" height="100%" fill="#f7f9fc" />
  <text x="88" y="24" font-size="20" font-family="Arial, sans-serif" font-weight="700" fill="#18212f">GLOBAL cumulative NVDR NET (2026-01-01 to 2026-04-21)</text>
  <text x="88" y="46" font-size="12" font-family="Arial, sans-serif" fill="#445166">Unit: million baht, based on NVDR Turnover (Net) from value view</text>
  
      <line x1="88" y1="36.0" x2="936" y2="36.0" stroke="#d8dde6" stroke-width="1" />
      <text x="78" y="40.0" text-anchor="end" font-size="12" fill="#445166">3.57</text>
    
      <line x1="88" y1="101.6" x2="936" y2="101.6" stroke="#d8dde6" stroke-width="1" />
      <text x="78" y="105.6" text-anchor="end" font-size="12" fill="#445166">-21.96</text>
    
      <line x1="88" y1="167.2" x2="936" y2="167.2" stroke="#d8dde6" stroke-width="1" />
      <text x="78" y="171.2" text-anchor="end" font-size="12" fill="#445166">-47.48</text>
    
      <line x1="88" y1="232.8" x2="936" y2="232.8" stroke="#d8dde6" stroke-width="1" />
      <text x="78" y="236.8" text-anchor="end" font-size="12" fill="#445166">-73.01</text>
    
      <line x1="88" y1="298.4" x2="936" y2="298.4" stroke="#d8dde6" stroke-width="1" />
      <text x="78" y="302.4" text-anchor="end" font-size="12" fill="#445166">-98.53</text>
    
      <line x1="88" y1="364.0" x2="936" y2="364.0" stroke="#d8dde6" stroke-width="1" />
      <text x="78" y="368.0" text-anchor="end" font-size="12" fill="#445166">-124.06</text>
    
  <line x1="88" y1="45.2" x2="936" y2="45.2" stroke="#7a8799" stroke-width="1.4" stroke-dasharray="4 4" />
  <line x1="88" y1="36" x2="88" y2="364" stroke="#445166" stroke-width="1.2" />
  <line x1="88" y1="364" x2="936" y2="364" stroke="#445166" stroke-width="1.2" />
  
      <line x1="88.0" y1="364" x2="88.0" y2="370" stroke="#445166" stroke-width="1" />
      <text x="88.0" y="386" text-anchor="middle" font-size="12" fill="#445166">2026-01-05</text>
    
      <line x1="506.0" y1="364" x2="506.0" y2="370" stroke="#445166" stroke-width="1" />
      <text x="506.0" y="386" text-anchor="middle" font-size="12" fill="#445166">2026-02-23</text>
    
      <line x1="936.0" y1="364" x2="936.0" y2="370" stroke="#445166" stroke-width="1" />
      <text x="936.0" y="386" text-anchor="middle" font-size="12" fill="#445166">2026-04-21</text>
    
  <polyline fill="none" stroke="#0b84f3" stroke-width="3" points="88.0,63.1 99.9,62.8 111.9,36.0 123.8,90.4 135.8,127.1 147.7,113.3 159.7,138.6 171.6,141.3 183.5,148.8 195.5,154.4 207.4,154.8 219.4,108.6 231.3,54.2 243.3,79.7 255.2,83.2 267.2,80.3 279.1,86.6 291.0,94.1 303.0,100.4 314.9,111.2 326.9,120.8 338.8,101.7 350.8,119.8 362.7,127.7 374.6,127.6 386.6,128.3 398.5,207.4 410.5,246.7 422.4,227.6 434.4,202.5 446.3,187.3 458.3,204.8 470.2,161.1 482.1,184.2 494.1,217.6 506.0,240.4 518.0,245.6 529.9,254.7 541.9,288.8 553.8,299.1 565.7,283.1 577.7,305.7 589.6,321.1 601.6,337.4 613.5,325.5 625.5,335.1 637.4,334.0 649.4,336.7 661.3,359.5 673.2,364.0 685.2,353.3 697.1,351.0 709.1,362.0 721.0,359.0 733.0,308.4 744.9,289.3 756.8,264.7 768.8,259.4 780.7,229.6 792.7,163.1 804.6,155.3 816.6,174.0 828.5,193.1 840.5,233.1 852.4,235.7 864.3,216.5 876.3,234.1 888.2,225.2 900.2,208.8 912.1,204.0 924.1,210.9 936.0,199.9" />
  <circle cx="936.0" cy="199.9" r="4.5" fill="#0b84f3" />
  <text x="932.0" y="189.9" font-size="12" fill="#18212f">-60.22</text>
</svg>
