<?xml version="1.0" encoding="UTF-8"?>
<svg xmlns="http://www.w3.org/2000/svg" width="960" height="420" viewBox="0 0 960 420">
  <rect width="100%" height="100%" fill="#f7f9fc" />
  <text x="88" y="24" font-size="20" font-family="Arial, sans-serif" font-weight="700" fill="#18212f">GPSC cumulative NVDR NET (2026-01-01 to 2026-04-21)</text>
  <text x="88" y="46" font-size="12" font-family="Arial, sans-serif" fill="#445166">Unit: million baht, based on NVDR Turnover (Net) from value view</text>
  
      <line x1="88" y1="36.0" x2="936" y2="36.0" stroke="#d8dde6" stroke-width="1" />
      <text x="78" y="40.0" text-anchor="end" font-size="12" fill="#445166">637.94</text>
    
      <line x1="88" y1="101.6" x2="936" y2="101.6" stroke="#d8dde6" stroke-width="1" />
      <text x="78" y="105.6" text-anchor="end" font-size="12" fill="#445166">461.34</text>
    
      <line x1="88" y1="167.2" x2="936" y2="167.2" stroke="#d8dde6" stroke-width="1" />
      <text x="78" y="171.2" text-anchor="end" font-size="12" fill="#445166">284.74</text>
    
      <line x1="88" y1="232.8" x2="936" y2="232.8" stroke="#d8dde6" stroke-width="1" />
      <text x="78" y="236.8" text-anchor="end" font-size="12" fill="#445166">108.13</text>
    
      <line x1="88" y1="298.4" x2="936" y2="298.4" stroke="#d8dde6" stroke-width="1" />
      <text x="78" y="302.4" text-anchor="end" font-size="12" fill="#445166">-68.47</text>
    
      <line x1="88" y1="364.0" x2="936" y2="364.0" stroke="#d8dde6" stroke-width="1" />
      <text x="78" y="368.0" text-anchor="end" font-size="12" fill="#445166">-245.07</text>
    
  <line x1="88" y1="273.0" x2="936" y2="273.0" stroke="#7a8799" stroke-width="1.4" stroke-dasharray="4 4" />
  <line x1="88" y1="36" x2="88" y2="364" stroke="#445166" stroke-width="1.2" />
  <line x1="88" y1="364" x2="936" y2="364" stroke="#445166" stroke-width="1.2" />
  
      <line x1="88.0" y1="364" x2="88.0" y2="370" stroke="#445166" stroke-width="1" />
      <text x="88.0" y="386" text-anchor="middle" font-size="12" fill="#445166">2026-01-05</text>
    
      <line x1="506.0" y1="364" x2="506.0" y2="370" stroke="#445166" stroke-width="1" />
      <text x="506.0" y="386" text-anchor="middle" font-size="12" fill="#445166">2026-02-23</text>
    
      <line x1="936.0" y1="364" x2="936.0" y2="370" stroke="#445166" stroke-width="1" />
      <text x="936.0" y="386" text-anchor="middle" font-size="12" fill="#445166">2026-04-21</text>
    
  <polyline fill="none" stroke="#0b84f3" stroke-width="3" points="88.0,266.0 99.9,245.7 111.9,244.3 123.8,242.1 135.8,251.9 147.7,252.3 159.7,260.5 171.6,263.5 183.5,251.0 195.5,238.9 207.4,250.3 219.4,250.4 231.3,248.4 243.3,256.3 255.2,255.9 267.2,250.0 279.1,250.8 291.0,262.1 303.0,274.2 314.9,277.9 326.9,292.0 338.8,309.9 350.8,334.0 362.7,339.1 374.6,321.9 386.6,267.5 398.5,253.6 410.5,235.1 422.4,196.0 434.4,145.7 446.3,118.8 458.3,90.4 470.2,81.6 482.1,74.7 494.1,65.7 506.0,62.4 518.0,36.0 529.9,58.5 541.9,53.1 553.8,49.8 565.7,55.2 577.7,45.2 589.6,81.0 601.6,134.6 613.5,139.1 625.5,193.6 637.4,221.6 649.4,228.8 661.3,247.9 673.2,256.4 685.2,235.6 697.1,244.5 709.1,270.0 721.0,245.6 733.0,208.4 744.9,206.8 756.8,215.8 768.8,220.2 780.7,220.2 792.7,221.1 804.6,244.0 816.6,271.5 828.5,292.6 840.5,295.0 852.4,290.2 864.3,290.1 876.3,322.9 888.2,330.9 900.2,337.5 912.1,352.7 924.1,348.6 936.0,364.0" />
  <circle cx="936.0" cy="364.0" r="4.5" fill="#0b84f3" />
  <text x="932.0" y="354.0" font-size="12" fill="#18212f">-245.07</text>
</svg>
