<?xml version="1.0" encoding="UTF-8"?>
<svg xmlns="http://www.w3.org/2000/svg" width="960" height="420" viewBox="0 0 960 420">
  <rect width="100%" height="100%" fill="#f7f9fc" />
  <text x="88" y="24" font-size="20" font-family="Arial, sans-serif" font-weight="700" fill="#18212f">GULF cumulative NVDR NET (2026-01-01 to 2026-04-21)</text>
  <text x="88" y="46" font-size="12" font-family="Arial, sans-serif" fill="#445166">Unit: million baht, based on NVDR Turnover (Net) from value view</text>
  
      <line x1="88" y1="36.0" x2="936" y2="36.0" stroke="#d8dde6" stroke-width="1" />
      <text x="78" y="40.0" text-anchor="end" font-size="12" fill="#445166">4613.13</text>
    
      <line x1="88" y1="101.6" x2="936" y2="101.6" stroke="#d8dde6" stroke-width="1" />
      <text x="78" y="105.6" text-anchor="end" font-size="12" fill="#445166">3690.50</text>
    
      <line x1="88" y1="167.2" x2="936" y2="167.2" stroke="#d8dde6" stroke-width="1" />
      <text x="78" y="171.2" text-anchor="end" font-size="12" fill="#445166">2767.88</text>
    
      <line x1="88" y1="232.8" x2="936" y2="232.8" stroke="#d8dde6" stroke-width="1" />
      <text x="78" y="236.8" text-anchor="end" font-size="12" fill="#445166">1845.25</text>
    
      <line x1="88" y1="298.4" x2="936" y2="298.4" stroke="#d8dde6" stroke-width="1" />
      <text x="78" y="302.4" text-anchor="end" font-size="12" fill="#445166">922.63</text>
    
      <line x1="88" y1="364.0" x2="936" y2="364.0" stroke="#d8dde6" stroke-width="1" />
      <text x="78" y="368.0" text-anchor="end" font-size="12" fill="#445166">0.00</text>
    
  <line x1="88" y1="364.0" x2="936" y2="364.0" stroke="#7a8799" stroke-width="1.4" stroke-dasharray="4 4" />
  <line x1="88" y1="36" x2="88" y2="364" stroke="#445166" stroke-width="1.2" />
  <line x1="88" y1="364" x2="936" y2="364" stroke="#445166" stroke-width="1.2" />
  
      <line x1="88.0" y1="364" x2="88.0" y2="370" stroke="#445166" stroke-width="1" />
      <text x="88.0" y="386" text-anchor="middle" font-size="12" fill="#445166">2026-01-05</text>
    
      <line x1="506.0" y1="364" x2="506.0" y2="370" stroke="#445166" stroke-width="1" />
      <text x="506.0" y="386" text-anchor="middle" font-size="12" fill="#445166">2026-02-23</text>
    
      <line x1="936.0" y1="364" x2="936.0" y2="370" stroke="#445166" stroke-width="1" />
      <text x="936.0" y="386" text-anchor="middle" font-size="12" fill="#445166">2026-04-21</text>
    
  <polyline fill="none" stroke="#0b84f3" stroke-width="3" points="88.0,358.7 99.9,343.7 111.9,346.6 123.8,349.0 135.8,339.6 147.7,344.6 159.7,345.3 171.6,344.1 183.5,351.1 195.5,333.1 207.4,339.0 219.4,350.5 231.3,353.5 243.3,329.5 255.2,309.6 267.2,283.1 279.1,275.5 291.0,268.0 303.0,255.8 314.9,256.2 326.9,227.8 338.8,228.6 350.8,213.7 362.7,200.6 374.6,186.4 386.6,135.1 398.5,111.8 410.5,115.3 422.4,105.3 434.4,94.6 446.3,118.6 458.3,118.7 470.2,132.6 482.1,121.1 494.1,94.1 506.0,86.4 518.0,36.0 529.9,52.8 541.9,67.6 553.8,93.1 565.7,99.0 577.7,38.8 589.6,57.0 601.6,68.1 613.5,92.2 625.5,117.7 637.4,145.3 649.4,141.1 661.3,165.2 673.2,181.0 685.2,211.4 697.1,238.3 709.1,276.2 721.0,270.0 733.0,310.2 744.9,331.1 756.8,311.0 768.8,312.5 780.7,287.2 792.7,318.5 804.6,342.4 816.6,342.1 828.5,354.7 840.5,362.1 852.4,351.9 864.3,339.2 876.3,349.7 888.2,346.0 900.2,342.8 912.1,338.8 924.1,328.5 936.0,323.0" />
  <circle cx="936.0" cy="323.0" r="4.5" fill="#0b84f3" />
  <text x="932.0" y="313.0" font-size="12" fill="#18212f">577.17</text>
</svg>
