<?xml version="1.0" encoding="UTF-8"?>
<svg xmlns="http://www.w3.org/2000/svg" width="960" height="420" viewBox="0 0 960 420">
  <rect width="100%" height="100%" fill="#f7f9fc" />
  <text x="88" y="24" font-size="20" font-family="Arial, sans-serif" font-weight="700" fill="#18212f">GUNKUL cumulative NVDR NET (2026-01-01 to 2026-04-21)</text>
  <text x="88" y="46" font-size="12" font-family="Arial, sans-serif" fill="#445166">Unit: million baht, based on NVDR Turnover (Net) from value view</text>
  
      <line x1="88" y1="36.0" x2="936" y2="36.0" stroke="#d8dde6" stroke-width="1" />
      <text x="78" y="40.0" text-anchor="end" font-size="12" fill="#445166">260.13</text>
    
      <line x1="88" y1="101.6" x2="936" y2="101.6" stroke="#d8dde6" stroke-width="1" />
      <text x="78" y="105.6" text-anchor="end" font-size="12" fill="#445166">208.10</text>
    
      <line x1="88" y1="167.2" x2="936" y2="167.2" stroke="#d8dde6" stroke-width="1" />
      <text x="78" y="171.2" text-anchor="end" font-size="12" fill="#445166">156.08</text>
    
      <line x1="88" y1="232.8" x2="936" y2="232.8" stroke="#d8dde6" stroke-width="1" />
      <text x="78" y="236.8" text-anchor="end" font-size="12" fill="#445166">104.05</text>
    
      <line x1="88" y1="298.4" x2="936" y2="298.4" stroke="#d8dde6" stroke-width="1" />
      <text x="78" y="302.4" text-anchor="end" font-size="12" fill="#445166">52.03</text>
    
      <line x1="88" y1="364.0" x2="936" y2="364.0" stroke="#d8dde6" stroke-width="1" />
      <text x="78" y="368.0" text-anchor="end" font-size="12" fill="#445166">0.00</text>
    
  <line x1="88" y1="364.0" x2="936" y2="364.0" stroke="#7a8799" stroke-width="1.4" stroke-dasharray="4 4" />
  <line x1="88" y1="36" x2="88" y2="364" stroke="#445166" stroke-width="1.2" />
  <line x1="88" y1="364" x2="936" y2="364" stroke="#445166" stroke-width="1.2" />
  
      <line x1="88.0" y1="364" x2="88.0" y2="370" stroke="#445166" stroke-width="1" />
      <text x="88.0" y="386" text-anchor="middle" font-size="12" fill="#445166">2026-01-05</text>
    
      <line x1="506.0" y1="364" x2="506.0" y2="370" stroke="#445166" stroke-width="1" />
      <text x="506.0" y="386" text-anchor="middle" font-size="12" fill="#445166">2026-02-23</text>
    
      <line x1="936.0" y1="364" x2="936.0" y2="370" stroke="#445166" stroke-width="1" />
      <text x="936.0" y="386" text-anchor="middle" font-size="12" fill="#445166">2026-04-21</text>
    
  <polyline fill="none" stroke="#0b84f3" stroke-width="3" points="88.0,361.3 99.9,360.2 111.9,349.5 123.8,354.7 135.8,353.7 147.7,357.6 159.7,356.4 171.6,356.7 183.5,353.7 195.5,351.2 207.4,346.0 219.4,342.6 231.3,334.1 243.3,337.2 255.2,342.1 267.2,345.0 279.1,344.0 291.0,342.5 303.0,341.3 314.9,342.2 326.9,325.6 338.8,310.4 350.8,314.8 362.7,313.1 374.6,312.8 386.6,277.6 398.5,266.9 410.5,238.6 422.4,198.9 434.4,184.5 446.3,188.2 458.3,195.8 470.2,173.3 482.1,168.1 494.1,140.7 506.0,137.1 518.0,129.3 529.9,167.0 541.9,158.9 553.8,156.6 565.7,102.5 577.7,70.0 589.6,95.8 601.6,95.1 613.5,125.1 625.5,134.7 637.4,114.4 649.4,97.0 661.3,111.8 673.2,111.1 685.2,114.4 697.1,108.2 709.1,108.0 721.0,36.0 733.0,67.7 744.9,85.0 756.8,78.0 768.8,97.9 780.7,111.3 792.7,94.6 804.6,156.6 816.6,154.6 828.5,169.1 840.5,190.9 852.4,199.2 864.3,214.5 876.3,245.0 888.2,240.0 900.2,248.9 912.1,269.2 924.1,269.6 936.0,275.4" />
  <circle cx="936.0" cy="275.4" r="4.5" fill="#0b84f3" />
  <text x="932.0" y="265.4" font-size="12" fill="#18212f">70.26</text>
</svg>
