<?xml version="1.0" encoding="UTF-8"?>
<svg xmlns="http://www.w3.org/2000/svg" width="960" height="420" viewBox="0 0 960 420">
  <rect width="100%" height="100%" fill="#f7f9fc" />
  <text x="88" y="24" font-size="20" font-family="Arial, sans-serif" font-weight="700" fill="#18212f">HANA cumulative NVDR NET (2026-01-01 to 2026-04-21)</text>
  <text x="88" y="46" font-size="12" font-family="Arial, sans-serif" fill="#445166">Unit: million baht, based on NVDR Turnover (Net) from value view</text>
  
      <line x1="88" y1="36.0" x2="936" y2="36.0" stroke="#d8dde6" stroke-width="1" />
      <text x="78" y="40.0" text-anchor="end" font-size="12" fill="#445166">811.55</text>
    
      <line x1="88" y1="101.6" x2="936" y2="101.6" stroke="#d8dde6" stroke-width="1" />
      <text x="78" y="105.6" text-anchor="end" font-size="12" fill="#445166">556.40</text>
    
      <line x1="88" y1="167.2" x2="936" y2="167.2" stroke="#d8dde6" stroke-width="1" />
      <text x="78" y="171.2" text-anchor="end" font-size="12" fill="#445166">301.25</text>
    
      <line x1="88" y1="232.8" x2="936" y2="232.8" stroke="#d8dde6" stroke-width="1" />
      <text x="78" y="236.8" text-anchor="end" font-size="12" fill="#445166">46.09</text>
    
      <line x1="88" y1="298.4" x2="936" y2="298.4" stroke="#d8dde6" stroke-width="1" />
      <text x="78" y="302.4" text-anchor="end" font-size="12" fill="#445166">-209.06</text>
    
      <line x1="88" y1="364.0" x2="936" y2="364.0" stroke="#d8dde6" stroke-width="1" />
      <text x="78" y="368.0" text-anchor="end" font-size="12" fill="#445166">-464.21</text>
    
  <line x1="88" y1="244.7" x2="936" y2="244.7" stroke="#7a8799" stroke-width="1.4" stroke-dasharray="4 4" />
  <line x1="88" y1="36" x2="88" y2="364" stroke="#445166" stroke-width="1.2" />
  <line x1="88" y1="364" x2="936" y2="364" stroke="#445166" stroke-width="1.2" />
  
      <line x1="88.0" y1="364" x2="88.0" y2="370" stroke="#445166" stroke-width="1" />
      <text x="88.0" y="386" text-anchor="middle" font-size="12" fill="#445166">2026-01-05</text>
    
      <line x1="506.0" y1="364" x2="506.0" y2="370" stroke="#445166" stroke-width="1" />
      <text x="506.0" y="386" text-anchor="middle" font-size="12" fill="#445166">2026-02-23</text>
    
      <line x1="936.0" y1="364" x2="936.0" y2="370" stroke="#445166" stroke-width="1" />
      <text x="936.0" y="386" text-anchor="middle" font-size="12" fill="#445166">2026-04-21</text>
    
  <polyline fill="none" stroke="#0b84f3" stroke-width="3" points="88.0,241.9 99.9,246.9 111.9,248.5 123.8,255.7 135.8,261.2 147.7,264.1 159.7,265.9 171.6,264.4 183.5,260.0 195.5,254.1 207.4,240.8 219.4,237.3 231.3,236.7 243.3,247.1 255.2,243.1 267.2,248.9 279.1,249.6 291.0,259.5 303.0,271.3 314.9,276.0 326.9,286.0 338.8,289.1 350.8,293.0 362.7,306.4 374.6,306.4 386.6,296.1 398.5,292.8 410.5,304.7 422.4,297.4 434.4,304.6 446.3,295.4 458.3,280.6 470.2,292.3 482.1,271.1 494.1,330.4 506.0,341.9 518.0,340.2 529.9,351.1 541.9,364.0 553.8,324.9 565.7,242.3 577.7,276.0 589.6,220.9 601.6,260.3 613.5,299.7 625.5,282.5 637.4,241.9 649.4,218.4 661.3,210.0 673.2,206.7 685.2,194.8 697.1,195.9 709.1,101.1 721.0,102.9 733.0,111.7 744.9,114.7 756.8,36.0 768.8,60.5 780.7,89.3 792.7,134.0 804.6,180.2 816.6,126.3 828.5,70.7 840.5,99.2 852.4,100.8 864.3,114.1 876.3,137.6 888.2,167.2 900.2,161.4 912.1,180.7 924.1,193.7 936.0,213.7" />
  <circle cx="936.0" cy="213.7" r="4.5" fill="#0b84f3" />
  <text x="932.0" y="203.7" font-size="12" fill="#18212f">120.45</text>
</svg>
