<?xml version="1.0" encoding="UTF-8"?>
<svg xmlns="http://www.w3.org/2000/svg" width="960" height="420" viewBox="0 0 960 420">
  <rect width="100%" height="100%" fill="#f7f9fc" />
  <text x="88" y="24" font-size="20" font-family="Arial, sans-serif" font-weight="700" fill="#18212f">HMPRO cumulative NVDR NET (2026-01-01 to 2026-04-21)</text>
  <text x="88" y="46" font-size="12" font-family="Arial, sans-serif" fill="#445166">Unit: million baht, based on NVDR Turnover (Net) from value view</text>
  
      <line x1="88" y1="36.0" x2="936" y2="36.0" stroke="#d8dde6" stroke-width="1" />
      <text x="78" y="40.0" text-anchor="end" font-size="12" fill="#445166">781.74</text>
    
      <line x1="88" y1="101.6" x2="936" y2="101.6" stroke="#d8dde6" stroke-width="1" />
      <text x="78" y="105.6" text-anchor="end" font-size="12" fill="#445166">616.48</text>
    
      <line x1="88" y1="167.2" x2="936" y2="167.2" stroke="#d8dde6" stroke-width="1" />
      <text x="78" y="171.2" text-anchor="end" font-size="12" fill="#445166">451.22</text>
    
      <line x1="88" y1="232.8" x2="936" y2="232.8" stroke="#d8dde6" stroke-width="1" />
      <text x="78" y="236.8" text-anchor="end" font-size="12" fill="#445166">285.97</text>
    
      <line x1="88" y1="298.4" x2="936" y2="298.4" stroke="#d8dde6" stroke-width="1" />
      <text x="78" y="302.4" text-anchor="end" font-size="12" fill="#445166">120.71</text>
    
      <line x1="88" y1="364.0" x2="936" y2="364.0" stroke="#d8dde6" stroke-width="1" />
      <text x="78" y="368.0" text-anchor="end" font-size="12" fill="#445166">-44.55</text>
    
  <line x1="88" y1="346.3" x2="936" y2="346.3" stroke="#7a8799" stroke-width="1.4" stroke-dasharray="4 4" />
  <line x1="88" y1="36" x2="88" y2="364" stroke="#445166" stroke-width="1.2" />
  <line x1="88" y1="364" x2="936" y2="364" stroke="#445166" stroke-width="1.2" />
  
      <line x1="88.0" y1="364" x2="88.0" y2="370" stroke="#445166" stroke-width="1" />
      <text x="88.0" y="386" text-anchor="middle" font-size="12" fill="#445166">2026-01-05</text>
    
      <line x1="506.0" y1="364" x2="506.0" y2="370" stroke="#445166" stroke-width="1" />
      <text x="506.0" y="386" text-anchor="middle" font-size="12" fill="#445166">2026-02-23</text>
    
      <line x1="936.0" y1="364" x2="936.0" y2="370" stroke="#445166" stroke-width="1" />
      <text x="936.0" y="386" text-anchor="middle" font-size="12" fill="#445166">2026-04-21</text>
    
  <polyline fill="none" stroke="#0b84f3" stroke-width="3" points="88.0,356.7 99.9,364.0 111.9,356.4 123.8,361.4 135.8,356.0 147.7,348.2 159.7,343.8 171.6,347.4 183.5,333.0 195.5,341.7 207.4,324.0 219.4,307.4 231.3,302.7 243.3,300.7 255.2,287.4 267.2,273.1 279.1,261.5 291.0,267.8 303.0,267.4 314.9,201.0 326.9,227.2 338.8,235.1 350.8,228.7 362.7,207.9 374.6,210.3 386.6,139.3 398.5,109.7 410.5,127.3 422.4,36.0 434.4,55.0 446.3,76.5 458.3,69.1 470.2,48.2 482.1,64.9 494.1,81.6 506.0,108.7 518.0,121.7 529.9,113.3 541.9,98.1 553.8,101.0 565.7,139.4 577.7,158.7 589.6,201.9 601.6,236.4 613.5,241.6 625.5,280.9 637.4,279.9 649.4,292.8 661.3,303.7 673.2,306.9 685.2,307.1 697.1,300.2 709.1,325.2 721.0,325.6 733.0,330.9 744.9,324.1 756.8,324.5 768.8,332.2 780.7,311.3 792.7,289.2 804.6,271.6 816.6,266.9 828.5,265.2 840.5,266.4 852.4,256.2 864.3,228.8 876.3,241.3 888.2,244.0 900.2,229.4 912.1,237.6 924.1,228.5 936.0,220.1" />
  <circle cx="936.0" cy="220.1" r="4.5" fill="#0b84f3" />
  <text x="932.0" y="210.1" font-size="12" fill="#18212f">317.99</text>
</svg>
