<?xml version="1.0" encoding="UTF-8"?>
<svg xmlns="http://www.w3.org/2000/svg" width="960" height="420" viewBox="0 0 960 420">
  <rect width="100%" height="100%" fill="#f7f9fc" />
  <text x="88" y="24" font-size="20" font-family="Arial, sans-serif" font-weight="700" fill="#18212f">ICHI cumulative NVDR NET (2026-01-01 to 2026-04-21)</text>
  <text x="88" y="46" font-size="12" font-family="Arial, sans-serif" fill="#445166">Unit: million baht, based on NVDR Turnover (Net) from value view</text>
  
      <line x1="88" y1="36.0" x2="936" y2="36.0" stroke="#d8dde6" stroke-width="1" />
      <text x="78" y="40.0" text-anchor="end" font-size="12" fill="#445166">5.82</text>
    
      <line x1="88" y1="101.6" x2="936" y2="101.6" stroke="#d8dde6" stroke-width="1" />
      <text x="78" y="105.6" text-anchor="end" font-size="12" fill="#445166">-30.09</text>
    
      <line x1="88" y1="167.2" x2="936" y2="167.2" stroke="#d8dde6" stroke-width="1" />
      <text x="78" y="171.2" text-anchor="end" font-size="12" fill="#445166">-66.00</text>
    
      <line x1="88" y1="232.8" x2="936" y2="232.8" stroke="#d8dde6" stroke-width="1" />
      <text x="78" y="236.8" text-anchor="end" font-size="12" fill="#445166">-101.91</text>
    
      <line x1="88" y1="298.4" x2="936" y2="298.4" stroke="#d8dde6" stroke-width="1" />
      <text x="78" y="302.4" text-anchor="end" font-size="12" fill="#445166">-137.82</text>
    
      <line x1="88" y1="364.0" x2="936" y2="364.0" stroke="#d8dde6" stroke-width="1" />
      <text x="78" y="368.0" text-anchor="end" font-size="12" fill="#445166">-173.73</text>
    
  <line x1="88" y1="46.6" x2="936" y2="46.6" stroke="#7a8799" stroke-width="1.4" stroke-dasharray="4 4" />
  <line x1="88" y1="36" x2="88" y2="364" stroke="#445166" stroke-width="1.2" />
  <line x1="88" y1="364" x2="936" y2="364" stroke="#445166" stroke-width="1.2" />
  
      <line x1="88.0" y1="364" x2="88.0" y2="370" stroke="#445166" stroke-width="1" />
      <text x="88.0" y="386" text-anchor="middle" font-size="12" fill="#445166">2026-01-05</text>
    
      <line x1="506.0" y1="364" x2="506.0" y2="370" stroke="#445166" stroke-width="1" />
      <text x="506.0" y="386" text-anchor="middle" font-size="12" fill="#445166">2026-02-23</text>
    
      <line x1="936.0" y1="364" x2="936.0" y2="370" stroke="#445166" stroke-width="1" />
      <text x="936.0" y="386" text-anchor="middle" font-size="12" fill="#445166">2026-04-21</text>
    
  <polyline fill="none" stroke="#0b84f3" stroke-width="3" points="88.0,72.2 99.9,54.6 111.9,63.3 123.8,84.3 135.8,91.8 147.7,96.3 159.7,83.6 171.6,64.2 183.5,53.6 195.5,56.3 207.4,55.4 219.4,36.0 231.3,57.7 243.3,97.9 255.2,111.2 267.2,116.7 279.1,127.0 291.0,133.9 303.0,152.2 314.9,160.4 326.9,164.2 338.8,134.2 350.8,159.1 362.7,168.6 374.6,173.9 386.6,148.0 398.5,94.4 410.5,105.5 422.4,64.0 434.4,82.7 446.3,79.6 458.3,56.0 470.2,62.2 482.1,60.3 494.1,95.8 506.0,139.3 518.0,159.8 529.9,220.6 541.9,251.6 553.8,250.2 565.7,253.0 577.7,244.8 589.6,288.9 601.6,270.6 613.5,251.7 625.5,278.2 637.4,279.7 649.4,280.9 661.3,299.8 673.2,326.1 685.2,336.0 697.1,345.9 709.1,348.4 721.0,307.7 733.0,322.6 744.9,332.6 756.8,314.4 768.8,299.8 780.7,283.4 792.7,289.4 804.6,295.6 816.6,350.7 828.5,346.5 840.5,322.5 852.4,335.8 864.3,346.5 876.3,364.0 888.2,356.5 900.2,342.7 912.1,339.0 924.1,322.9 936.0,316.6" />
  <circle cx="936.0" cy="316.6" r="4.5" fill="#0b84f3" />
  <text x="932.0" y="306.6" font-size="12" fill="#18212f">-147.77</text>
</svg>
