<?xml version="1.0" encoding="UTF-8"?>
<svg xmlns="http://www.w3.org/2000/svg" width="960" height="420" viewBox="0 0 960 420">
  <rect width="100%" height="100%" fill="#f7f9fc" />
  <text x="88" y="24" font-size="20" font-family="Arial, sans-serif" font-weight="700" fill="#18212f">IVL cumulative NVDR NET (2026-01-01 to 2026-04-21)</text>
  <text x="88" y="46" font-size="12" font-family="Arial, sans-serif" fill="#445166">Unit: million baht, based on NVDR Turnover (Net) from value view</text>
  
      <line x1="88" y1="36.0" x2="936" y2="36.0" stroke="#d8dde6" stroke-width="1" />
      <text x="78" y="40.0" text-anchor="end" font-size="12" fill="#445166">1494.91</text>
    
      <line x1="88" y1="101.6" x2="936" y2="101.6" stroke="#d8dde6" stroke-width="1" />
      <text x="78" y="105.6" text-anchor="end" font-size="12" fill="#445166">1195.93</text>
    
      <line x1="88" y1="167.2" x2="936" y2="167.2" stroke="#d8dde6" stroke-width="1" />
      <text x="78" y="171.2" text-anchor="end" font-size="12" fill="#445166">896.95</text>
    
      <line x1="88" y1="232.8" x2="936" y2="232.8" stroke="#d8dde6" stroke-width="1" />
      <text x="78" y="236.8" text-anchor="end" font-size="12" fill="#445166">597.96</text>
    
      <line x1="88" y1="298.4" x2="936" y2="298.4" stroke="#d8dde6" stroke-width="1" />
      <text x="78" y="302.4" text-anchor="end" font-size="12" fill="#445166">298.98</text>
    
      <line x1="88" y1="364.0" x2="936" y2="364.0" stroke="#d8dde6" stroke-width="1" />
      <text x="78" y="368.0" text-anchor="end" font-size="12" fill="#445166">0.00</text>
    
  <line x1="88" y1="364.0" x2="936" y2="364.0" stroke="#7a8799" stroke-width="1.4" stroke-dasharray="4 4" />
  <line x1="88" y1="36" x2="88" y2="364" stroke="#445166" stroke-width="1.2" />
  <line x1="88" y1="364" x2="936" y2="364" stroke="#445166" stroke-width="1.2" />
  
      <line x1="88.0" y1="364" x2="88.0" y2="370" stroke="#445166" stroke-width="1" />
      <text x="88.0" y="386" text-anchor="middle" font-size="12" fill="#445166">2026-01-05</text>
    
      <line x1="506.0" y1="364" x2="506.0" y2="370" stroke="#445166" stroke-width="1" />
      <text x="506.0" y="386" text-anchor="middle" font-size="12" fill="#445166">2026-02-23</text>
    
      <line x1="936.0" y1="364" x2="936.0" y2="370" stroke="#445166" stroke-width="1" />
      <text x="936.0" y="386" text-anchor="middle" font-size="12" fill="#445166">2026-04-21</text>
    
  <polyline fill="none" stroke="#0b84f3" stroke-width="3" points="88.0,355.6 99.9,352.0 111.9,306.0 123.8,311.6 135.8,318.0 147.7,318.8 159.7,309.8 171.6,303.2 183.5,286.2 195.5,303.9 207.4,284.2 219.4,258.5 231.3,234.9 243.3,219.7 255.2,210.3 267.2,199.6 279.1,191.1 291.0,165.1 303.0,166.5 314.9,156.5 326.9,147.4 338.8,157.7 350.8,138.9 362.7,148.2 374.6,141.1 386.6,127.8 398.5,113.2 410.5,132.1 422.4,119.3 434.4,119.4 446.3,115.9 458.3,120.0 470.2,129.3 482.1,131.1 494.1,132.4 506.0,123.4 518.0,112.4 529.9,103.9 541.9,108.2 553.8,75.1 565.7,66.0 577.7,80.3 589.6,97.1 601.6,97.3 613.5,95.0 625.5,115.6 637.4,117.9 649.4,123.3 661.3,148.3 673.2,150.1 685.2,130.7 697.1,186.4 709.1,218.3 721.0,235.9 733.0,244.7 744.9,244.8 756.8,224.5 768.8,241.0 780.7,211.6 792.7,131.0 804.6,127.7 816.6,58.1 828.5,59.4 840.5,57.4 852.4,36.0 864.3,38.6 876.3,52.6 888.2,45.3 900.2,51.9 912.1,64.1 924.1,100.2 936.0,119.1" />
  <circle cx="936.0" cy="119.1" r="4.5" fill="#0b84f3" />
  <text x="932.0" y="109.1" font-size="12" fill="#18212f">1115.97</text>
</svg>
