<?xml version="1.0" encoding="UTF-8"?>
<svg xmlns="http://www.w3.org/2000/svg" width="960" height="420" viewBox="0 0 960 420">
  <rect width="100%" height="100%" fill="#f7f9fc" />
  <text x="88" y="24" font-size="20" font-family="Arial, sans-serif" font-weight="700" fill="#18212f">JAS cumulative NVDR NET (2026-01-01 to 2026-04-21)</text>
  <text x="88" y="46" font-size="12" font-family="Arial, sans-serif" fill="#445166">Unit: million baht, based on NVDR Turnover (Net) from value view</text>
  
      <line x1="88" y1="36.0" x2="936" y2="36.0" stroke="#d8dde6" stroke-width="1" />
      <text x="78" y="40.0" text-anchor="end" font-size="12" fill="#445166">41.29</text>
    
      <line x1="88" y1="101.6" x2="936" y2="101.6" stroke="#d8dde6" stroke-width="1" />
      <text x="78" y="105.6" text-anchor="end" font-size="12" fill="#445166">31.99</text>
    
      <line x1="88" y1="167.2" x2="936" y2="167.2" stroke="#d8dde6" stroke-width="1" />
      <text x="78" y="171.2" text-anchor="end" font-size="12" fill="#445166">22.69</text>
    
      <line x1="88" y1="232.8" x2="936" y2="232.8" stroke="#d8dde6" stroke-width="1" />
      <text x="78" y="236.8" text-anchor="end" font-size="12" fill="#445166">13.40</text>
    
      <line x1="88" y1="298.4" x2="936" y2="298.4" stroke="#d8dde6" stroke-width="1" />
      <text x="78" y="302.4" text-anchor="end" font-size="12" fill="#445166">4.10</text>
    
      <line x1="88" y1="364.0" x2="936" y2="364.0" stroke="#d8dde6" stroke-width="1" />
      <text x="78" y="368.0" text-anchor="end" font-size="12" fill="#445166">-5.20</text>
    
  <line x1="88" y1="327.3" x2="936" y2="327.3" stroke="#7a8799" stroke-width="1.4" stroke-dasharray="4 4" />
  <line x1="88" y1="36" x2="88" y2="364" stroke="#445166" stroke-width="1.2" />
  <line x1="88" y1="364" x2="936" y2="364" stroke="#445166" stroke-width="1.2" />
  
      <line x1="88.0" y1="364" x2="88.0" y2="370" stroke="#445166" stroke-width="1" />
      <text x="88.0" y="386" text-anchor="middle" font-size="12" fill="#445166">2026-01-05</text>
    
      <line x1="506.0" y1="364" x2="506.0" y2="370" stroke="#445166" stroke-width="1" />
      <text x="506.0" y="386" text-anchor="middle" font-size="12" fill="#445166">2026-02-23</text>
    
      <line x1="936.0" y1="364" x2="936.0" y2="370" stroke="#445166" stroke-width="1" />
      <text x="936.0" y="386" text-anchor="middle" font-size="12" fill="#445166">2026-04-21</text>
    
  <polyline fill="none" stroke="#0b84f3" stroke-width="3" points="88.0,319.8 99.9,343.0 111.9,332.7 123.8,352.2 135.8,355.2 147.7,333.6 159.7,334.4 171.6,340.8 183.5,364.0 195.5,357.5 207.4,340.9 219.4,341.1 231.3,323.9 243.3,331.2 255.2,338.9 267.2,333.3 279.1,336.7 291.0,333.8 303.0,330.6 314.9,329.9 326.9,350.8 338.8,359.6 350.8,361.8 362.7,357.6 374.6,352.0 386.6,363.6 398.5,304.0 410.5,309.5 422.4,196.2 434.4,115.2 446.3,263.9 458.3,182.1 470.2,166.4 482.1,98.9 494.1,146.1 506.0,67.2 518.0,36.0 529.9,81.9 541.9,127.9 553.8,164.3 565.7,145.5 577.7,136.7 589.6,138.9 601.6,158.3 613.5,140.2 625.5,134.8 637.4,149.9 649.4,150.9 661.3,186.2 673.2,186.9 685.2,189.2 697.1,198.8 709.1,186.7 721.0,190.8 733.0,206.7 744.9,226.4 756.8,242.3 768.8,246.2 780.7,245.7 792.7,206.4 804.6,199.9 816.6,236.8 828.5,261.1 840.5,264.7 852.4,270.7 864.3,243.1 876.3,268.3 888.2,273.3 900.2,270.8 912.1,265.6 924.1,281.0 936.0,265.4" />
  <circle cx="936.0" cy="265.4" r="4.5" fill="#0b84f3" />
  <text x="932.0" y="255.4" font-size="12" fill="#18212f">8.78</text>
</svg>
