<?xml version="1.0" encoding="UTF-8"?>
<svg xmlns="http://www.w3.org/2000/svg" width="960" height="420" viewBox="0 0 960 420">
  <rect width="100%" height="100%" fill="#f7f9fc" />
  <text x="88" y="24" font-size="20" font-family="Arial, sans-serif" font-weight="700" fill="#18212f">JMART cumulative NVDR NET (2026-01-01 to 2026-04-21)</text>
  <text x="88" y="46" font-size="12" font-family="Arial, sans-serif" fill="#445166">Unit: million baht, based on NVDR Turnover (Net) from value view</text>
  
      <line x1="88" y1="36.0" x2="936" y2="36.0" stroke="#d8dde6" stroke-width="1" />
      <text x="78" y="40.0" text-anchor="end" font-size="12" fill="#445166">76.73</text>
    
      <line x1="88" y1="101.6" x2="936" y2="101.6" stroke="#d8dde6" stroke-width="1" />
      <text x="78" y="105.6" text-anchor="end" font-size="12" fill="#445166">45.28</text>
    
      <line x1="88" y1="167.2" x2="936" y2="167.2" stroke="#d8dde6" stroke-width="1" />
      <text x="78" y="171.2" text-anchor="end" font-size="12" fill="#445166">13.82</text>
    
      <line x1="88" y1="232.8" x2="936" y2="232.8" stroke="#d8dde6" stroke-width="1" />
      <text x="78" y="236.8" text-anchor="end" font-size="12" fill="#445166">-17.63</text>
    
      <line x1="88" y1="298.4" x2="936" y2="298.4" stroke="#d8dde6" stroke-width="1" />
      <text x="78" y="302.4" text-anchor="end" font-size="12" fill="#445166">-49.09</text>
    
      <line x1="88" y1="364.0" x2="936" y2="364.0" stroke="#d8dde6" stroke-width="1" />
      <text x="78" y="368.0" text-anchor="end" font-size="12" fill="#445166">-80.54</text>
    
  <line x1="88" y1="196.0" x2="936" y2="196.0" stroke="#7a8799" stroke-width="1.4" stroke-dasharray="4 4" />
  <line x1="88" y1="36" x2="88" y2="364" stroke="#445166" stroke-width="1.2" />
  <line x1="88" y1="364" x2="936" y2="364" stroke="#445166" stroke-width="1.2" />
  
      <line x1="88.0" y1="364" x2="88.0" y2="370" stroke="#445166" stroke-width="1" />
      <text x="88.0" y="386" text-anchor="middle" font-size="12" fill="#445166">2026-01-05</text>
    
      <line x1="506.0" y1="364" x2="506.0" y2="370" stroke="#445166" stroke-width="1" />
      <text x="506.0" y="386" text-anchor="middle" font-size="12" fill="#445166">2026-02-23</text>
    
      <line x1="936.0" y1="364" x2="936.0" y2="370" stroke="#445166" stroke-width="1" />
      <text x="936.0" y="386" text-anchor="middle" font-size="12" fill="#445166">2026-04-21</text>
    
  <polyline fill="none" stroke="#0b84f3" stroke-width="3" points="88.0,186.5 99.9,183.2 111.9,144.3 123.8,180.5 135.8,202.8 147.7,213.7 159.7,216.7 171.6,220.2 183.5,228.8 195.5,186.1 207.4,149.8 219.4,107.7 231.3,89.9 243.3,97.8 255.2,107.2 267.2,105.0 279.1,110.7 291.0,134.1 303.0,135.6 314.9,139.0 326.9,131.6 338.8,108.3 350.8,126.8 362.7,139.6 374.6,152.9 386.6,36.0 398.5,89.0 410.5,102.5 422.4,93.9 434.4,124.4 446.3,166.2 458.3,186.7 470.2,199.2 482.1,238.4 494.1,251.6 506.0,277.2 518.0,273.3 529.9,265.2 541.9,280.7 553.8,303.4 565.7,319.8 577.7,316.1 589.6,331.1 601.6,342.9 613.5,324.2 625.5,306.2 637.4,311.3 649.4,318.2 661.3,348.8 673.2,345.0 685.2,350.7 697.1,351.6 709.1,359.7 721.0,356.3 733.0,361.0 744.9,364.0 756.8,362.3 768.8,362.3 780.7,362.8 792.7,356.5 804.6,363.0 816.6,358.2 828.5,359.7 840.5,359.9 852.4,362.0 864.3,344.2 876.3,358.9 888.2,359.0 900.2,325.5 912.1,335.2 924.1,322.5 936.0,310.8" />
  <circle cx="936.0" cy="310.8" r="4.5" fill="#0b84f3" />
  <text x="932.0" y="300.8" font-size="12" fill="#18212f">-55.01</text>
</svg>
