<?xml version="1.0" encoding="UTF-8"?>
<svg xmlns="http://www.w3.org/2000/svg" width="960" height="420" viewBox="0 0 960 420">
  <rect width="100%" height="100%" fill="#f7f9fc" />
  <text x="88" y="24" font-size="20" font-family="Arial, sans-serif" font-weight="700" fill="#18212f">JMT cumulative NVDR NET (2026-01-01 to 2026-04-21)</text>
  <text x="88" y="46" font-size="12" font-family="Arial, sans-serif" fill="#445166">Unit: million baht, based on NVDR Turnover (Net) from value view</text>
  
      <line x1="88" y1="36.0" x2="936" y2="36.0" stroke="#d8dde6" stroke-width="1" />
      <text x="78" y="40.0" text-anchor="end" font-size="12" fill="#445166">178.54</text>
    
      <line x1="88" y1="101.6" x2="936" y2="101.6" stroke="#d8dde6" stroke-width="1" />
      <text x="78" y="105.6" text-anchor="end" font-size="12" fill="#445166">121.74</text>
    
      <line x1="88" y1="167.2" x2="936" y2="167.2" stroke="#d8dde6" stroke-width="1" />
      <text x="78" y="171.2" text-anchor="end" font-size="12" fill="#445166">64.93</text>
    
      <line x1="88" y1="232.8" x2="936" y2="232.8" stroke="#d8dde6" stroke-width="1" />
      <text x="78" y="236.8" text-anchor="end" font-size="12" fill="#445166">8.13</text>
    
      <line x1="88" y1="298.4" x2="936" y2="298.4" stroke="#d8dde6" stroke-width="1" />
      <text x="78" y="302.4" text-anchor="end" font-size="12" fill="#445166">-48.68</text>
    
      <line x1="88" y1="364.0" x2="936" y2="364.0" stroke="#d8dde6" stroke-width="1" />
      <text x="78" y="368.0" text-anchor="end" font-size="12" fill="#445166">-105.48</text>
    
  <line x1="88" y1="242.2" x2="936" y2="242.2" stroke="#7a8799" stroke-width="1.4" stroke-dasharray="4 4" />
  <line x1="88" y1="36" x2="88" y2="364" stroke="#445166" stroke-width="1.2" />
  <line x1="88" y1="364" x2="936" y2="364" stroke="#445166" stroke-width="1.2" />
  
      <line x1="88.0" y1="364" x2="88.0" y2="370" stroke="#445166" stroke-width="1" />
      <text x="88.0" y="386" text-anchor="middle" font-size="12" fill="#445166">2026-01-05</text>
    
      <line x1="506.0" y1="364" x2="506.0" y2="370" stroke="#445166" stroke-width="1" />
      <text x="506.0" y="386" text-anchor="middle" font-size="12" fill="#445166">2026-02-23</text>
    
      <line x1="936.0" y1="364" x2="936.0" y2="370" stroke="#445166" stroke-width="1" />
      <text x="936.0" y="386" text-anchor="middle" font-size="12" fill="#445166">2026-04-21</text>
    
  <polyline fill="none" stroke="#0b84f3" stroke-width="3" points="88.0,239.5 99.9,241.6 111.9,224.8 123.8,245.8 135.8,250.0 147.7,251.9 159.7,253.6 171.6,247.4 183.5,228.2 195.5,240.0 207.4,212.1 219.4,188.1 231.3,178.0 243.3,169.1 255.2,166.9 267.2,153.4 279.1,137.3 291.0,151.9 303.0,156.1 314.9,169.8 326.9,153.7 338.8,142.5 350.8,167.3 362.7,149.0 374.6,177.2 386.6,47.7 398.5,97.0 410.5,128.7 422.4,36.0 434.4,65.4 446.3,83.8 458.3,87.3 470.2,97.7 482.1,127.2 494.1,138.8 506.0,139.4 518.0,151.2 529.9,212.4 541.9,247.6 553.8,194.6 565.7,176.6 577.7,180.9 589.6,209.7 601.6,211.1 613.5,165.6 625.5,187.0 637.4,197.4 649.4,188.0 661.3,222.6 673.2,222.3 685.2,219.7 697.1,282.3 709.1,290.0 721.0,299.0 733.0,303.9 744.9,307.5 756.8,311.5 768.8,334.8 780.7,336.0 792.7,313.2 804.6,321.3 816.6,319.3 828.5,328.8 840.5,350.4 852.4,351.4 864.3,339.9 876.3,362.0 888.2,364.0 900.2,347.2 912.1,351.8 924.1,340.0 936.0,313.5" />
  <circle cx="936.0" cy="313.5" r="4.5" fill="#0b84f3" />
  <text x="932.0" y="303.5" font-size="12" fill="#18212f">-61.79</text>
</svg>
