<?xml version="1.0" encoding="UTF-8"?>
<svg xmlns="http://www.w3.org/2000/svg" width="960" height="420" viewBox="0 0 960 420">
  <rect width="100%" height="100%" fill="#f7f9fc" />
  <text x="88" y="24" font-size="20" font-family="Arial, sans-serif" font-weight="700" fill="#18212f">JTS cumulative NVDR NET (2026-01-01 to 2026-04-21)</text>
  <text x="88" y="46" font-size="12" font-family="Arial, sans-serif" fill="#445166">Unit: million baht, based on NVDR Turnover (Net) from value view</text>
  
      <line x1="88" y1="36.0" x2="936" y2="36.0" stroke="#d8dde6" stroke-width="1" />
      <text x="78" y="40.0" text-anchor="end" font-size="12" fill="#445166">75.61</text>
    
      <line x1="88" y1="101.6" x2="936" y2="101.6" stroke="#d8dde6" stroke-width="1" />
      <text x="78" y="105.6" text-anchor="end" font-size="12" fill="#445166">33.30</text>
    
      <line x1="88" y1="167.2" x2="936" y2="167.2" stroke="#d8dde6" stroke-width="1" />
      <text x="78" y="171.2" text-anchor="end" font-size="12" fill="#445166">-9.01</text>
    
      <line x1="88" y1="232.8" x2="936" y2="232.8" stroke="#d8dde6" stroke-width="1" />
      <text x="78" y="236.8" text-anchor="end" font-size="12" fill="#445166">-51.31</text>
    
      <line x1="88" y1="298.4" x2="936" y2="298.4" stroke="#d8dde6" stroke-width="1" />
      <text x="78" y="302.4" text-anchor="end" font-size="12" fill="#445166">-93.62</text>
    
      <line x1="88" y1="364.0" x2="936" y2="364.0" stroke="#d8dde6" stroke-width="1" />
      <text x="78" y="368.0" text-anchor="end" font-size="12" fill="#445166">-135.93</text>
    
  <line x1="88" y1="153.2" x2="936" y2="153.2" stroke="#7a8799" stroke-width="1.4" stroke-dasharray="4 4" />
  <line x1="88" y1="36" x2="88" y2="364" stroke="#445166" stroke-width="1.2" />
  <line x1="88" y1="364" x2="936" y2="364" stroke="#445166" stroke-width="1.2" />
  
      <line x1="88.0" y1="364" x2="88.0" y2="370" stroke="#445166" stroke-width="1" />
      <text x="88.0" y="386" text-anchor="middle" font-size="12" fill="#445166">2026-01-05</text>
    
      <line x1="506.0" y1="364" x2="506.0" y2="370" stroke="#445166" stroke-width="1" />
      <text x="506.0" y="386" text-anchor="middle" font-size="12" fill="#445166">2026-02-23</text>
    
      <line x1="936.0" y1="364" x2="936.0" y2="370" stroke="#445166" stroke-width="1" />
      <text x="936.0" y="386" text-anchor="middle" font-size="12" fill="#445166">2026-04-21</text>
    
  <polyline fill="none" stroke="#0b84f3" stroke-width="3" points="88.0,162.3 99.9,173.6 111.9,166.9 123.8,167.9 135.8,170.1 147.7,166.1 159.7,171.2 171.6,181.5 183.5,157.1 195.5,162.4 207.4,149.5 219.4,161.9 231.3,171.7 243.3,184.3 255.2,194.0 267.2,190.2 279.1,198.1 291.0,209.4 303.0,209.2 314.9,205.8 326.9,201.1 338.8,189.1 350.8,173.9 362.7,182.0 374.6,180.0 386.6,168.8 398.5,136.3 410.5,130.2 422.4,141.1 434.4,142.5 446.3,149.4 458.3,153.4 470.2,146.4 482.1,145.4 494.1,146.3 506.0,151.2 518.0,153.9 529.9,127.7 541.9,36.0 553.8,134.5 565.7,226.3 577.7,237.5 589.6,262.7 601.6,300.8 613.5,315.9 625.5,319.1 637.4,324.5 649.4,319.0 661.3,345.6 673.2,346.4 685.2,339.5 697.1,346.3 709.1,348.9 721.0,354.4 733.0,354.6 744.9,345.5 756.8,355.5 768.8,351.7 780.7,360.2 792.7,359.7 804.6,348.4 816.6,344.2 828.5,359.0 840.5,360.6 852.4,348.0 864.3,333.3 876.3,357.3 888.2,361.4 900.2,360.7 912.1,361.2 924.1,364.0 936.0,363.0" />
  <circle cx="936.0" cy="363.0" r="4.5" fill="#0b84f3" />
  <text x="932.0" y="353.0" font-size="12" fill="#18212f">-135.29</text>
</svg>
