<?xml version="1.0" encoding="UTF-8"?>
<svg xmlns="http://www.w3.org/2000/svg" width="960" height="420" viewBox="0 0 960 420">
  <rect width="100%" height="100%" fill="#f7f9fc" />
  <text x="88" y="24" font-size="20" font-family="Arial, sans-serif" font-weight="700" fill="#18212f">KCE cumulative NVDR NET (2026-01-01 to 2026-04-21)</text>
  <text x="88" y="46" font-size="12" font-family="Arial, sans-serif" fill="#445166">Unit: million baht, based on NVDR Turnover (Net) from value view</text>
  
      <line x1="88" y1="36.0" x2="936" y2="36.0" stroke="#d8dde6" stroke-width="1" />
      <text x="78" y="40.0" text-anchor="end" font-size="12" fill="#445166">755.67</text>
    
      <line x1="88" y1="101.6" x2="936" y2="101.6" stroke="#d8dde6" stroke-width="1" />
      <text x="78" y="105.6" text-anchor="end" font-size="12" fill="#445166">557.64</text>
    
      <line x1="88" y1="167.2" x2="936" y2="167.2" stroke="#d8dde6" stroke-width="1" />
      <text x="78" y="171.2" text-anchor="end" font-size="12" fill="#445166">359.61</text>
    
      <line x1="88" y1="232.8" x2="936" y2="232.8" stroke="#d8dde6" stroke-width="1" />
      <text x="78" y="236.8" text-anchor="end" font-size="12" fill="#445166">161.58</text>
    
      <line x1="88" y1="298.4" x2="936" y2="298.4" stroke="#d8dde6" stroke-width="1" />
      <text x="78" y="302.4" text-anchor="end" font-size="12" fill="#445166">-36.45</text>
    
      <line x1="88" y1="364.0" x2="936" y2="364.0" stroke="#d8dde6" stroke-width="1" />
      <text x="78" y="368.0" text-anchor="end" font-size="12" fill="#445166">-234.48</text>
    
  <line x1="88" y1="286.3" x2="936" y2="286.3" stroke="#7a8799" stroke-width="1.4" stroke-dasharray="4 4" />
  <line x1="88" y1="36" x2="88" y2="364" stroke="#445166" stroke-width="1.2" />
  <line x1="88" y1="364" x2="936" y2="364" stroke="#445166" stroke-width="1.2" />
  
      <line x1="88.0" y1="364" x2="88.0" y2="370" stroke="#445166" stroke-width="1" />
      <text x="88.0" y="386" text-anchor="middle" font-size="12" fill="#445166">2026-01-05</text>
    
      <line x1="506.0" y1="364" x2="506.0" y2="370" stroke="#445166" stroke-width="1" />
      <text x="506.0" y="386" text-anchor="middle" font-size="12" fill="#445166">2026-02-23</text>
    
      <line x1="936.0" y1="364" x2="936.0" y2="370" stroke="#445166" stroke-width="1" />
      <text x="936.0" y="386" text-anchor="middle" font-size="12" fill="#445166">2026-04-21</text>
    
  <polyline fill="none" stroke="#0b84f3" stroke-width="3" points="88.0,281.2 99.9,275.6 111.9,244.0 123.8,262.1 135.8,263.2 147.7,260.1 159.7,256.6 171.6,253.6 183.5,254.8 195.5,265.8 207.4,257.6 219.4,269.0 231.3,256.9 243.3,276.6 255.2,271.4 267.2,269.8 279.1,259.5 291.0,264.0 303.0,270.9 314.9,272.9 326.9,284.4 338.8,256.9 350.8,263.6 362.7,263.2 374.6,263.3 386.6,241.6 398.5,251.3 410.5,282.8 422.4,285.3 434.4,288.7 446.3,299.4 458.3,274.4 470.2,277.8 482.1,272.9 494.1,309.6 506.0,317.5 518.0,320.6 529.9,321.7 541.9,326.5 553.8,332.4 565.7,328.4 577.7,342.1 589.6,335.1 601.6,353.8 613.5,354.1 625.5,364.0 637.4,351.8 649.4,340.9 661.3,357.5 673.2,319.7 685.2,335.6 697.1,288.2 709.1,267.0 721.0,260.4 733.0,267.0 744.9,263.6 756.8,237.5 768.8,260.1 780.7,253.1 792.7,261.6 804.6,288.7 816.6,280.6 828.5,300.7 840.5,307.7 852.4,302.1 864.3,305.8 876.3,237.7 888.2,36.0 900.2,83.7 912.1,92.1 924.1,98.0 936.0,73.1" />
  <circle cx="936.0" cy="73.1" r="4.5" fill="#0b84f3" />
  <text x="932.0" y="63.1" font-size="12" fill="#18212f">643.72</text>
</svg>
