<?xml version="1.0" encoding="UTF-8"?>
<svg xmlns="http://www.w3.org/2000/svg" width="960" height="420" viewBox="0 0 960 420">
  <rect width="100%" height="100%" fill="#f7f9fc" />
  <text x="88" y="24" font-size="20" font-family="Arial, sans-serif" font-weight="700" fill="#18212f">KKP cumulative NVDR NET (2026-01-01 to 2026-04-21)</text>
  <text x="88" y="46" font-size="12" font-family="Arial, sans-serif" fill="#445166">Unit: million baht, based on NVDR Turnover (Net) from value view</text>
  
      <line x1="88" y1="36.0" x2="936" y2="36.0" stroke="#d8dde6" stroke-width="1" />
      <text x="78" y="40.0" text-anchor="end" font-size="12" fill="#445166">3024.54</text>
    
      <line x1="88" y1="101.6" x2="936" y2="101.6" stroke="#d8dde6" stroke-width="1" />
      <text x="78" y="105.6" text-anchor="end" font-size="12" fill="#445166">2383.65</text>
    
      <line x1="88" y1="167.2" x2="936" y2="167.2" stroke="#d8dde6" stroke-width="1" />
      <text x="78" y="171.2" text-anchor="end" font-size="12" fill="#445166">1742.76</text>
    
      <line x1="88" y1="232.8" x2="936" y2="232.8" stroke="#d8dde6" stroke-width="1" />
      <text x="78" y="236.8" text-anchor="end" font-size="12" fill="#445166">1101.86</text>
    
      <line x1="88" y1="298.4" x2="936" y2="298.4" stroke="#d8dde6" stroke-width="1" />
      <text x="78" y="302.4" text-anchor="end" font-size="12" fill="#445166">460.97</text>
    
      <line x1="88" y1="364.0" x2="936" y2="364.0" stroke="#d8dde6" stroke-width="1" />
      <text x="78" y="368.0" text-anchor="end" font-size="12" fill="#445166">-179.92</text>
    
  <line x1="88" y1="345.6" x2="936" y2="345.6" stroke="#7a8799" stroke-width="1.4" stroke-dasharray="4 4" />
  <line x1="88" y1="36" x2="88" y2="364" stroke="#445166" stroke-width="1.2" />
  <line x1="88" y1="364" x2="936" y2="364" stroke="#445166" stroke-width="1.2" />
  
      <line x1="88.0" y1="364" x2="88.0" y2="370" stroke="#445166" stroke-width="1" />
      <text x="88.0" y="386" text-anchor="middle" font-size="12" fill="#445166">2026-01-05</text>
    
      <line x1="506.0" y1="364" x2="506.0" y2="370" stroke="#445166" stroke-width="1" />
      <text x="506.0" y="386" text-anchor="middle" font-size="12" fill="#445166">2026-02-23</text>
    
      <line x1="936.0" y1="364" x2="936.0" y2="370" stroke="#445166" stroke-width="1" />
      <text x="936.0" y="386" text-anchor="middle" font-size="12" fill="#445166">2026-04-21</text>
    
  <polyline fill="none" stroke="#0b84f3" stroke-width="3" points="88.0,343.8 99.9,355.7 111.9,358.9 123.8,354.5 135.8,359.2 147.7,360.2 159.7,363.9 171.6,364.0 183.5,363.6 195.5,360.1 207.4,361.5 219.4,327.9 231.3,321.9 243.3,301.2 255.2,299.2 267.2,284.0 279.1,266.0 291.0,264.0 303.0,238.9 314.9,211.3 326.9,209.2 338.8,206.3 350.8,192.7 362.7,181.2 374.6,175.5 386.6,149.2 398.5,145.2 410.5,145.7 422.4,142.1 434.4,142.8 446.3,146.7 458.3,146.9 470.2,138.2 482.1,143.0 494.1,122.2 506.0,120.6 518.0,106.9 529.9,119.6 541.9,111.1 553.8,110.3 565.7,111.1 577.7,118.6 589.6,122.2 601.6,130.2 613.5,132.3 625.5,136.4 637.4,133.6 649.4,131.4 661.3,130.1 673.2,131.9 685.2,132.5 697.1,132.3 709.1,137.9 721.0,142.0 733.0,142.1 744.9,125.9 756.8,126.0 768.8,122.4 780.7,120.6 792.7,118.9 804.6,116.9 816.6,72.4 828.5,70.7 840.5,63.5 852.4,63.4 864.3,52.3 876.3,51.4 888.2,49.3 900.2,57.9 912.1,68.0 924.1,43.9 936.0,36.0" />
  <circle cx="936.0" cy="36.0" r="4.5" fill="#0b84f3" />
  <text x="932.0" y="48.0" font-size="12" fill="#18212f">3024.54</text>
</svg>
