<?xml version="1.0" encoding="UTF-8"?>
<svg xmlns="http://www.w3.org/2000/svg" width="960" height="420" viewBox="0 0 960 420">
  <rect width="100%" height="100%" fill="#f7f9fc" />
  <text x="88" y="24" font-size="20" font-family="Arial, sans-serif" font-weight="700" fill="#18212f">KTB cumulative NVDR NET (2026-01-01 to 2026-04-21)</text>
  <text x="88" y="46" font-size="12" font-family="Arial, sans-serif" fill="#445166">Unit: million baht, based on NVDR Turnover (Net) from value view</text>
  
      <line x1="88" y1="36.0" x2="936" y2="36.0" stroke="#d8dde6" stroke-width="1" />
      <text x="78" y="40.0" text-anchor="end" font-size="12" fill="#445166">2457.14</text>
    
      <line x1="88" y1="101.6" x2="936" y2="101.6" stroke="#d8dde6" stroke-width="1" />
      <text x="78" y="105.6" text-anchor="end" font-size="12" fill="#445166">1341.29</text>
    
      <line x1="88" y1="167.2" x2="936" y2="167.2" stroke="#d8dde6" stroke-width="1" />
      <text x="78" y="171.2" text-anchor="end" font-size="12" fill="#445166">225.45</text>
    
      <line x1="88" y1="232.8" x2="936" y2="232.8" stroke="#d8dde6" stroke-width="1" />
      <text x="78" y="236.8" text-anchor="end" font-size="12" fill="#445166">-890.40</text>
    
      <line x1="88" y1="298.4" x2="936" y2="298.4" stroke="#d8dde6" stroke-width="1" />
      <text x="78" y="302.4" text-anchor="end" font-size="12" fill="#445166">-2006.24</text>
    
      <line x1="88" y1="364.0" x2="936" y2="364.0" stroke="#d8dde6" stroke-width="1" />
      <text x="78" y="368.0" text-anchor="end" font-size="12" fill="#445166">-3122.09</text>
    
  <line x1="88" y1="180.5" x2="936" y2="180.5" stroke="#7a8799" stroke-width="1.4" stroke-dasharray="4 4" />
  <line x1="88" y1="36" x2="88" y2="364" stroke="#445166" stroke-width="1.2" />
  <line x1="88" y1="364" x2="936" y2="364" stroke="#445166" stroke-width="1.2" />
  
      <line x1="88.0" y1="364" x2="88.0" y2="370" stroke="#445166" stroke-width="1" />
      <text x="88.0" y="386" text-anchor="middle" font-size="12" fill="#445166">2026-01-05</text>
    
      <line x1="506.0" y1="364" x2="506.0" y2="370" stroke="#445166" stroke-width="1" />
      <text x="506.0" y="386" text-anchor="middle" font-size="12" fill="#445166">2026-02-23</text>
    
      <line x1="936.0" y1="364" x2="936.0" y2="370" stroke="#445166" stroke-width="1" />
      <text x="936.0" y="386" text-anchor="middle" font-size="12" fill="#445166">2026-04-21</text>
    
  <polyline fill="none" stroke="#0b84f3" stroke-width="3" points="88.0,173.6 99.9,178.7 111.9,187.0 123.8,178.2 135.8,179.9 147.7,178.1 159.7,174.8 171.6,176.2 183.5,175.6 195.5,168.2 207.4,173.5 219.4,166.9 231.3,181.5 243.3,131.1 255.2,123.7 267.2,124.2 279.1,111.3 291.0,104.7 303.0,112.2 314.9,112.3 326.9,113.9 338.8,113.1 350.8,110.6 362.7,103.8 374.6,103.9 386.6,52.1 398.5,50.7 410.5,51.3 422.4,53.8 434.4,61.2 446.3,37.3 458.3,36.6 470.2,36.0 482.1,44.3 494.1,71.1 506.0,84.6 518.0,94.9 529.9,125.5 541.9,112.5 553.8,75.3 565.7,82.0 577.7,124.3 589.6,155.1 601.6,188.6 613.5,210.4 625.5,217.9 637.4,236.8 649.4,256.6 661.3,274.6 673.2,304.0 685.2,311.1 697.1,325.0 709.1,338.2 721.0,342.3 733.0,364.0 744.9,334.7 756.8,345.1 768.8,341.7 780.7,346.4 792.7,355.5 804.6,346.9 816.6,326.6 828.5,316.9 840.5,322.1 852.4,324.5 864.3,332.9 876.3,358.0 888.2,347.6 900.2,344.0 912.1,293.6 924.1,272.6 936.0,270.9" />
  <circle cx="936.0" cy="270.9" r="4.5" fill="#0b84f3" />
  <text x="932.0" y="260.9" font-size="12" fill="#18212f">-1537.81</text>
</svg>
