<?xml version="1.0" encoding="UTF-8"?>
<svg xmlns="http://www.w3.org/2000/svg" width="960" height="420" viewBox="0 0 960 420">
  <rect width="100%" height="100%" fill="#f7f9fc" />
  <text x="88" y="24" font-size="20" font-family="Arial, sans-serif" font-weight="700" fill="#18212f">KTC cumulative NVDR NET (2026-01-01 to 2026-04-21)</text>
  <text x="88" y="46" font-size="12" font-family="Arial, sans-serif" fill="#445166">Unit: million baht, based on NVDR Turnover (Net) from value view</text>
  
      <line x1="88" y1="36.0" x2="936" y2="36.0" stroke="#d8dde6" stroke-width="1" />
      <text x="78" y="40.0" text-anchor="end" font-size="12" fill="#445166">1734.48</text>
    
      <line x1="88" y1="101.6" x2="936" y2="101.6" stroke="#d8dde6" stroke-width="1" />
      <text x="78" y="105.6" text-anchor="end" font-size="12" fill="#445166">1293.37</text>
    
      <line x1="88" y1="167.2" x2="936" y2="167.2" stroke="#d8dde6" stroke-width="1" />
      <text x="78" y="171.2" text-anchor="end" font-size="12" fill="#445166">852.27</text>
    
      <line x1="88" y1="232.8" x2="936" y2="232.8" stroke="#d8dde6" stroke-width="1" />
      <text x="78" y="236.8" text-anchor="end" font-size="12" fill="#445166">411.16</text>
    
      <line x1="88" y1="298.4" x2="936" y2="298.4" stroke="#d8dde6" stroke-width="1" />
      <text x="78" y="302.4" text-anchor="end" font-size="12" fill="#445166">-29.94</text>
    
      <line x1="88" y1="364.0" x2="936" y2="364.0" stroke="#d8dde6" stroke-width="1" />
      <text x="78" y="368.0" text-anchor="end" font-size="12" fill="#445166">-471.05</text>
    
  <line x1="88" y1="293.9" x2="936" y2="293.9" stroke="#7a8799" stroke-width="1.4" stroke-dasharray="4 4" />
  <line x1="88" y1="36" x2="88" y2="364" stroke="#445166" stroke-width="1.2" />
  <line x1="88" y1="364" x2="936" y2="364" stroke="#445166" stroke-width="1.2" />
  
      <line x1="88.0" y1="364" x2="88.0" y2="370" stroke="#445166" stroke-width="1" />
      <text x="88.0" y="386" text-anchor="middle" font-size="12" fill="#445166">2026-01-05</text>
    
      <line x1="506.0" y1="364" x2="506.0" y2="370" stroke="#445166" stroke-width="1" />
      <text x="506.0" y="386" text-anchor="middle" font-size="12" fill="#445166">2026-02-23</text>
    
      <line x1="936.0" y1="364" x2="936.0" y2="370" stroke="#445166" stroke-width="1" />
      <text x="936.0" y="386" text-anchor="middle" font-size="12" fill="#445166">2026-04-21</text>
    
  <polyline fill="none" stroke="#0b84f3" stroke-width="3" points="88.0,297.2 99.9,300.2 111.9,303.1 123.8,317.7 135.8,320.1 147.7,325.7 159.7,329.7 171.6,327.5 183.5,291.9 195.5,279.2 207.4,265.6 219.4,261.8 231.3,249.1 243.3,231.4 255.2,217.6 267.2,202.6 279.1,181.8 291.0,180.2 303.0,171.8 314.9,137.9 326.9,143.7 338.8,134.0 350.8,142.5 362.7,140.7 374.6,147.8 386.6,120.0 398.5,125.1 410.5,132.2 422.4,110.9 434.4,119.7 446.3,70.6 458.3,36.0 470.2,62.6 482.1,81.6 494.1,74.4 506.0,84.8 518.0,67.7 529.9,79.8 541.9,74.9 553.8,66.1 565.7,51.1 577.7,82.2 589.6,129.0 601.6,144.8 613.5,145.4 625.5,176.3 637.4,184.2 649.4,225.1 661.3,240.1 673.2,256.7 685.2,259.8 697.1,275.0 709.1,290.8 721.0,295.8 733.0,307.8 744.9,313.5 756.8,315.3 768.8,322.0 780.7,315.8 792.7,306.9 804.6,310.2 816.6,304.1 828.5,315.4 840.5,323.0 852.4,320.3 864.3,327.3 876.3,350.1 888.2,355.6 900.2,347.5 912.1,364.0 924.1,340.5 936.0,348.2" />
  <circle cx="936.0" cy="348.2" r="4.5" fill="#0b84f3" />
  <text x="932.0" y="338.2" font-size="12" fill="#18212f">-364.89</text>
</svg>
