<?xml version="1.0" encoding="UTF-8"?>
<svg xmlns="http://www.w3.org/2000/svg" width="960" height="420" viewBox="0 0 960 420">
  <rect width="100%" height="100%" fill="#f7f9fc" />
  <text x="88" y="24" font-size="20" font-family="Arial, sans-serif" font-weight="700" fill="#18212f">LH cumulative NVDR NET (2026-01-01 to 2026-04-21)</text>
  <text x="88" y="46" font-size="12" font-family="Arial, sans-serif" fill="#445166">Unit: million baht, based on NVDR Turnover (Net) from value view</text>
  
      <line x1="88" y1="36.0" x2="936" y2="36.0" stroke="#d8dde6" stroke-width="1" />
      <text x="78" y="40.0" text-anchor="end" font-size="12" fill="#445166">311.21</text>
    
      <line x1="88" y1="101.6" x2="936" y2="101.6" stroke="#d8dde6" stroke-width="1" />
      <text x="78" y="105.6" text-anchor="end" font-size="12" fill="#445166">233.07</text>
    
      <line x1="88" y1="167.2" x2="936" y2="167.2" stroke="#d8dde6" stroke-width="1" />
      <text x="78" y="171.2" text-anchor="end" font-size="12" fill="#445166">154.93</text>
    
      <line x1="88" y1="232.8" x2="936" y2="232.8" stroke="#d8dde6" stroke-width="1" />
      <text x="78" y="236.8" text-anchor="end" font-size="12" fill="#445166">76.80</text>
    
      <line x1="88" y1="298.4" x2="936" y2="298.4" stroke="#d8dde6" stroke-width="1" />
      <text x="78" y="302.4" text-anchor="end" font-size="12" fill="#445166">-1.34</text>
    
      <line x1="88" y1="364.0" x2="936" y2="364.0" stroke="#d8dde6" stroke-width="1" />
      <text x="78" y="368.0" text-anchor="end" font-size="12" fill="#445166">-79.48</text>
    
  <line x1="88" y1="297.3" x2="936" y2="297.3" stroke="#7a8799" stroke-width="1.4" stroke-dasharray="4 4" />
  <line x1="88" y1="36" x2="88" y2="364" stroke="#445166" stroke-width="1.2" />
  <line x1="88" y1="364" x2="936" y2="364" stroke="#445166" stroke-width="1.2" />
  
      <line x1="88.0" y1="364" x2="88.0" y2="370" stroke="#445166" stroke-width="1" />
      <text x="88.0" y="386" text-anchor="middle" font-size="12" fill="#445166">2026-01-05</text>
    
      <line x1="506.0" y1="364" x2="506.0" y2="370" stroke="#445166" stroke-width="1" />
      <text x="506.0" y="386" text-anchor="middle" font-size="12" fill="#445166">2026-02-23</text>
    
      <line x1="936.0" y1="364" x2="936.0" y2="370" stroke="#445166" stroke-width="1" />
      <text x="936.0" y="386" text-anchor="middle" font-size="12" fill="#445166">2026-04-21</text>
    
  <polyline fill="none" stroke="#0b84f3" stroke-width="3" points="88.0,276.1 99.9,288.2 111.9,286.3 123.8,300.8 135.8,312.9 147.7,317.1 159.7,320.0 171.6,317.1 183.5,323.4 195.5,328.3 207.4,324.4 219.4,322.6 231.3,313.0 243.3,296.2 255.2,307.5 267.2,291.9 279.1,281.5 291.0,277.7 303.0,277.6 314.9,268.6 326.9,276.2 338.8,267.6 350.8,253.5 362.7,235.6 374.6,233.3 386.6,143.6 398.5,136.8 410.5,142.0 422.4,105.4 434.4,43.5 446.3,58.5 458.3,85.6 470.2,69.5 482.1,37.5 494.1,61.8 506.0,92.7 518.0,70.5 529.9,36.0 541.9,40.2 553.8,47.7 565.7,129.9 577.7,169.4 589.6,206.7 601.6,244.6 613.5,235.4 625.5,251.6 637.4,258.4 649.4,267.1 661.3,271.0 673.2,273.1 685.2,272.8 697.1,288.5 709.1,318.9 721.0,319.7 733.0,353.5 744.9,364.0 756.8,356.2 768.8,362.2 780.7,356.5 792.7,349.3 804.6,329.6 816.6,320.4 828.5,308.0 840.5,304.6 852.4,303.1 864.3,271.9 876.3,277.6 888.2,277.4 900.2,278.0 912.1,273.8 924.1,270.5 936.0,255.0" />
  <circle cx="936.0" cy="255.0" r="4.5" fill="#0b84f3" />
  <text x="932.0" y="245.0" font-size="12" fill="#18212f">50.39</text>
</svg>
