<?xml version="1.0" encoding="UTF-8"?>
<svg xmlns="http://www.w3.org/2000/svg" width="960" height="420" viewBox="0 0 960 420">
  <rect width="100%" height="100%" fill="#f7f9fc" />
  <text x="88" y="24" font-size="20" font-family="Arial, sans-serif" font-weight="700" fill="#18212f">M cumulative NVDR NET (2026-01-01 to 2026-04-21)</text>
  <text x="88" y="46" font-size="12" font-family="Arial, sans-serif" fill="#445166">Unit: million baht, based on NVDR Turnover (Net) from value view</text>
  
      <line x1="88" y1="36.0" x2="936" y2="36.0" stroke="#d8dde6" stroke-width="1" />
      <text x="78" y="40.0" text-anchor="end" font-size="12" fill="#445166">1.79</text>
    
      <line x1="88" y1="101.6" x2="936" y2="101.6" stroke="#d8dde6" stroke-width="1" />
      <text x="78" y="105.6" text-anchor="end" font-size="12" fill="#445166">-55.86</text>
    
      <line x1="88" y1="167.2" x2="936" y2="167.2" stroke="#d8dde6" stroke-width="1" />
      <text x="78" y="171.2" text-anchor="end" font-size="12" fill="#445166">-113.51</text>
    
      <line x1="88" y1="232.8" x2="936" y2="232.8" stroke="#d8dde6" stroke-width="1" />
      <text x="78" y="236.8" text-anchor="end" font-size="12" fill="#445166">-171.15</text>
    
      <line x1="88" y1="298.4" x2="936" y2="298.4" stroke="#d8dde6" stroke-width="1" />
      <text x="78" y="302.4" text-anchor="end" font-size="12" fill="#445166">-228.80</text>
    
      <line x1="88" y1="364.0" x2="936" y2="364.0" stroke="#d8dde6" stroke-width="1" />
      <text x="78" y="368.0" text-anchor="end" font-size="12" fill="#445166">-286.45</text>
    
  <line x1="88" y1="38.0" x2="936" y2="38.0" stroke="#7a8799" stroke-width="1.4" stroke-dasharray="4 4" />
  <line x1="88" y1="36" x2="88" y2="364" stroke="#445166" stroke-width="1.2" />
  <line x1="88" y1="364" x2="936" y2="364" stroke="#445166" stroke-width="1.2" />
  
      <line x1="88.0" y1="364" x2="88.0" y2="370" stroke="#445166" stroke-width="1" />
      <text x="88.0" y="386" text-anchor="middle" font-size="12" fill="#445166">2026-01-05</text>
    
      <line x1="506.0" y1="364" x2="506.0" y2="370" stroke="#445166" stroke-width="1" />
      <text x="506.0" y="386" text-anchor="middle" font-size="12" fill="#445166">2026-02-23</text>
    
      <line x1="936.0" y1="364" x2="936.0" y2="370" stroke="#445166" stroke-width="1" />
      <text x="936.0" y="386" text-anchor="middle" font-size="12" fill="#445166">2026-04-21</text>
    
  <polyline fill="none" stroke="#0b84f3" stroke-width="3" points="88.0,41.4 99.9,56.1 111.9,36.0 123.8,74.4 135.8,94.3 147.7,106.7 159.7,112.2 171.6,102.3 183.5,79.4 195.5,87.0 207.4,95.7 219.4,123.7 231.3,107.7 243.3,124.4 255.2,127.4 267.2,127.1 279.1,128.6 291.0,144.8 303.0,146.1 314.9,149.8 326.9,158.9 338.8,115.1 350.8,156.9 362.7,193.7 374.6,214.7 386.6,238.0 398.5,251.8 410.5,256.6 422.4,235.2 434.4,268.0 446.3,273.5 458.3,250.8 470.2,256.7 482.1,306.2 494.1,324.4 506.0,323.5 518.0,344.0 529.9,334.8 541.9,333.9 553.8,280.0 565.7,261.0 577.7,273.3 589.6,275.8 601.6,275.0 613.5,270.8 625.5,276.1 637.4,277.1 649.4,286.8 661.3,304.2 673.2,312.5 685.2,310.3 697.1,306.5 709.1,315.5 721.0,315.2 733.0,316.1 744.9,317.3 756.8,319.8 768.8,333.1 780.7,333.7 792.7,332.3 804.6,334.0 816.6,333.1 828.5,337.7 840.5,363.4 852.4,364.0 864.3,323.0 876.3,347.1 888.2,353.2 900.2,326.2 912.1,346.5 924.1,355.2 936.0,356.0" />
  <circle cx="936.0" cy="356.0" r="4.5" fill="#0b84f3" />
  <text x="932.0" y="346.0" font-size="12" fill="#18212f">-279.44</text>
</svg>
