<?xml version="1.0" encoding="UTF-8"?>
<svg xmlns="http://www.w3.org/2000/svg" width="960" height="420" viewBox="0 0 960 420">
  <rect width="100%" height="100%" fill="#f7f9fc" />
  <text x="88" y="24" font-size="20" font-family="Arial, sans-serif" font-weight="700" fill="#18212f">MINT cumulative NVDR NET (2026-01-01 to 2026-04-21)</text>
  <text x="88" y="46" font-size="12" font-family="Arial, sans-serif" fill="#445166">Unit: million baht, based on NVDR Turnover (Net) from value view</text>
  
      <line x1="88" y1="36.0" x2="936" y2="36.0" stroke="#d8dde6" stroke-width="1" />
      <text x="78" y="40.0" text-anchor="end" font-size="12" fill="#445166">1822.57</text>
    
      <line x1="88" y1="101.6" x2="936" y2="101.6" stroke="#d8dde6" stroke-width="1" />
      <text x="78" y="105.6" text-anchor="end" font-size="12" fill="#445166">1250.43</text>
    
      <line x1="88" y1="167.2" x2="936" y2="167.2" stroke="#d8dde6" stroke-width="1" />
      <text x="78" y="171.2" text-anchor="end" font-size="12" fill="#445166">678.29</text>
    
      <line x1="88" y1="232.8" x2="936" y2="232.8" stroke="#d8dde6" stroke-width="1" />
      <text x="78" y="236.8" text-anchor="end" font-size="12" fill="#445166">106.15</text>
    
      <line x1="88" y1="298.4" x2="936" y2="298.4" stroke="#d8dde6" stroke-width="1" />
      <text x="78" y="302.4" text-anchor="end" font-size="12" fill="#445166">-465.99</text>
    
      <line x1="88" y1="364.0" x2="936" y2="364.0" stroke="#d8dde6" stroke-width="1" />
      <text x="78" y="368.0" text-anchor="end" font-size="12" fill="#445166">-1038.13</text>
    
  <line x1="88" y1="245.0" x2="936" y2="245.0" stroke="#7a8799" stroke-width="1.4" stroke-dasharray="4 4" />
  <line x1="88" y1="36" x2="88" y2="364" stroke="#445166" stroke-width="1.2" />
  <line x1="88" y1="364" x2="936" y2="364" stroke="#445166" stroke-width="1.2" />
  
      <line x1="88.0" y1="364" x2="88.0" y2="370" stroke="#445166" stroke-width="1" />
      <text x="88.0" y="386" text-anchor="middle" font-size="12" fill="#445166">2026-01-05</text>
    
      <line x1="506.0" y1="364" x2="506.0" y2="370" stroke="#445166" stroke-width="1" />
      <text x="506.0" y="386" text-anchor="middle" font-size="12" fill="#445166">2026-02-23</text>
    
      <line x1="936.0" y1="364" x2="936.0" y2="370" stroke="#445166" stroke-width="1" />
      <text x="936.0" y="386" text-anchor="middle" font-size="12" fill="#445166">2026-04-21</text>
    
  <polyline fill="none" stroke="#0b84f3" stroke-width="3" points="88.0,236.4 99.9,231.1 111.9,214.5 123.8,204.4 135.8,202.3 147.7,196.3 159.7,186.9 171.6,161.0 183.5,116.4 195.5,98.5 207.4,98.8 219.4,104.2 231.3,112.0 243.3,117.9 255.2,116.9 267.2,114.8 279.1,113.1 291.0,113.0 303.0,114.7 314.9,114.4 326.9,99.2 338.8,61.0 350.8,51.6 362.7,38.7 374.6,36.0 386.6,38.1 398.5,40.5 410.5,44.7 422.4,47.6 434.4,53.6 446.3,57.4 458.3,64.2 470.2,64.4 482.1,64.9 494.1,54.7 506.0,49.3 518.0,43.2 529.9,39.0 541.9,38.4 553.8,44.0 565.7,55.7 577.7,59.1 589.6,99.1 601.6,113.9 613.5,114.6 625.5,141.5 637.4,169.5 649.4,205.2 661.3,208.1 673.2,229.1 685.2,262.3 697.1,276.7 709.1,283.7 721.0,305.0 733.0,322.5 744.9,327.4 756.8,335.7 768.8,345.1 780.7,351.4 792.7,354.7 804.6,364.0 816.6,359.3 828.5,355.3 840.5,358.4 852.4,341.7 864.3,325.5 876.3,338.3 888.2,337.8 900.2,325.3 912.1,327.6 924.1,331.7 936.0,346.2" />
  <circle cx="936.0" cy="346.2" r="4.5" fill="#0b84f3" />
  <text x="932.0" y="336.2" font-size="12" fill="#18212f">-883.32</text>
</svg>
