<?xml version="1.0" encoding="UTF-8"?>
<svg xmlns="http://www.w3.org/2000/svg" width="960" height="420" viewBox="0 0 960 420">
  <rect width="100%" height="100%" fill="#f7f9fc" />
  <text x="88" y="24" font-size="20" font-family="Arial, sans-serif" font-weight="700" fill="#18212f">OR cumulative NVDR NET (2026-01-01 to 2026-04-21)</text>
  <text x="88" y="46" font-size="12" font-family="Arial, sans-serif" fill="#445166">Unit: million baht, based on NVDR Turnover (Net) from value view</text>
  
      <line x1="88" y1="36.0" x2="936" y2="36.0" stroke="#d8dde6" stroke-width="1" />
      <text x="78" y="40.0" text-anchor="end" font-size="12" fill="#445166">926.98</text>
    
      <line x1="88" y1="101.6" x2="936" y2="101.6" stroke="#d8dde6" stroke-width="1" />
      <text x="78" y="105.6" text-anchor="end" font-size="12" fill="#445166">558.95</text>
    
      <line x1="88" y1="167.2" x2="936" y2="167.2" stroke="#d8dde6" stroke-width="1" />
      <text x="78" y="171.2" text-anchor="end" font-size="12" fill="#445166">190.93</text>
    
      <line x1="88" y1="232.8" x2="936" y2="232.8" stroke="#d8dde6" stroke-width="1" />
      <text x="78" y="236.8" text-anchor="end" font-size="12" fill="#445166">-177.10</text>
    
      <line x1="88" y1="298.4" x2="936" y2="298.4" stroke="#d8dde6" stroke-width="1" />
      <text x="78" y="302.4" text-anchor="end" font-size="12" fill="#445166">-545.12</text>
    
      <line x1="88" y1="364.0" x2="936" y2="364.0" stroke="#d8dde6" stroke-width="1" />
      <text x="78" y="368.0" text-anchor="end" font-size="12" fill="#445166">-913.15</text>
    
  <line x1="88" y1="201.2" x2="936" y2="201.2" stroke="#7a8799" stroke-width="1.4" stroke-dasharray="4 4" />
  <line x1="88" y1="36" x2="88" y2="364" stroke="#445166" stroke-width="1.2" />
  <line x1="88" y1="364" x2="936" y2="364" stroke="#445166" stroke-width="1.2" />
  
      <line x1="88.0" y1="364" x2="88.0" y2="370" stroke="#445166" stroke-width="1" />
      <text x="88.0" y="386" text-anchor="middle" font-size="12" fill="#445166">2026-01-05</text>
    
      <line x1="506.0" y1="364" x2="506.0" y2="370" stroke="#445166" stroke-width="1" />
      <text x="506.0" y="386" text-anchor="middle" font-size="12" fill="#445166">2026-02-23</text>
    
      <line x1="936.0" y1="364" x2="936.0" y2="370" stroke="#445166" stroke-width="1" />
      <text x="936.0" y="386" text-anchor="middle" font-size="12" fill="#445166">2026-04-21</text>
    
  <polyline fill="none" stroke="#0b84f3" stroke-width="3" points="88.0,196.7 99.9,200.3 111.9,181.7 123.8,180.8 135.8,180.0 147.7,172.6 159.7,175.8 171.6,180.9 183.5,173.6 195.5,141.7 207.4,142.3 219.4,136.5 231.3,76.8 243.3,65.2 255.2,61.3 267.2,36.0 279.1,52.3 291.0,73.0 303.0,101.1 314.9,108.6 326.9,117.2 338.8,126.9 350.8,135.2 362.7,148.3 374.6,146.0 386.6,133.9 398.5,151.6 410.5,154.7 422.4,137.6 434.4,147.9 446.3,153.6 458.3,148.9 470.2,145.2 482.1,170.6 494.1,190.9 506.0,198.0 518.0,204.1 529.9,215.1 541.9,220.8 553.8,251.5 565.7,251.6 577.7,239.5 589.6,271.1 601.6,291.4 613.5,278.6 625.5,293.3 637.4,301.3 649.4,300.9 661.3,306.1 673.2,301.0 685.2,294.3 697.1,313.9 709.1,324.7 721.0,320.0 733.0,324.4 744.9,327.5 756.8,330.0 768.8,348.8 780.7,351.9 792.7,354.3 804.6,346.2 816.6,343.9 828.5,353.1 840.5,351.8 852.4,348.1 864.3,343.5 876.3,348.7 888.2,346.5 900.2,361.5 912.1,364.0 924.1,353.0 936.0,360.7" />
  <circle cx="936.0" cy="360.7" r="4.5" fill="#0b84f3" />
  <text x="932.0" y="350.7" font-size="12" fill="#18212f">-894.77</text>
</svg>
