<?xml version="1.0" encoding="UTF-8"?>
<svg xmlns="http://www.w3.org/2000/svg" width="960" height="420" viewBox="0 0 960 420">
  <rect width="100%" height="100%" fill="#f7f9fc" />
  <text x="88" y="24" font-size="20" font-family="Arial, sans-serif" font-weight="700" fill="#18212f">PLANB cumulative NVDR NET (2026-01-01 to 2026-04-21)</text>
  <text x="88" y="46" font-size="12" font-family="Arial, sans-serif" fill="#445166">Unit: million baht, based on NVDR Turnover (Net) from value view</text>
  
      <line x1="88" y1="36.0" x2="936" y2="36.0" stroke="#d8dde6" stroke-width="1" />
      <text x="78" y="40.0" text-anchor="end" font-size="12" fill="#445166">385.30</text>
    
      <line x1="88" y1="101.6" x2="936" y2="101.6" stroke="#d8dde6" stroke-width="1" />
      <text x="78" y="105.6" text-anchor="end" font-size="12" fill="#445166">306.24</text>
    
      <line x1="88" y1="167.2" x2="936" y2="167.2" stroke="#d8dde6" stroke-width="1" />
      <text x="78" y="171.2" text-anchor="end" font-size="12" fill="#445166">227.17</text>
    
      <line x1="88" y1="232.8" x2="936" y2="232.8" stroke="#d8dde6" stroke-width="1" />
      <text x="78" y="236.8" text-anchor="end" font-size="12" fill="#445166">148.11</text>
    
      <line x1="88" y1="298.4" x2="936" y2="298.4" stroke="#d8dde6" stroke-width="1" />
      <text x="78" y="302.4" text-anchor="end" font-size="12" fill="#445166">69.04</text>
    
      <line x1="88" y1="364.0" x2="936" y2="364.0" stroke="#d8dde6" stroke-width="1" />
      <text x="78" y="368.0" text-anchor="end" font-size="12" fill="#445166">-10.02</text>
    
  <line x1="88" y1="355.7" x2="936" y2="355.7" stroke="#7a8799" stroke-width="1.4" stroke-dasharray="4 4" />
  <line x1="88" y1="36" x2="88" y2="364" stroke="#445166" stroke-width="1.2" />
  <line x1="88" y1="364" x2="936" y2="364" stroke="#445166" stroke-width="1.2" />
  
      <line x1="88.0" y1="364" x2="88.0" y2="370" stroke="#445166" stroke-width="1" />
      <text x="88.0" y="386" text-anchor="middle" font-size="12" fill="#445166">2026-01-05</text>
    
      <line x1="506.0" y1="364" x2="506.0" y2="370" stroke="#445166" stroke-width="1" />
      <text x="506.0" y="386" text-anchor="middle" font-size="12" fill="#445166">2026-02-23</text>
    
      <line x1="936.0" y1="364" x2="936.0" y2="370" stroke="#445166" stroke-width="1" />
      <text x="936.0" y="386" text-anchor="middle" font-size="12" fill="#445166">2026-04-21</text>
    
  <polyline fill="none" stroke="#0b84f3" stroke-width="3" points="88.0,355.7 99.9,358.3 111.9,360.3 123.8,364.0 135.8,363.0 147.7,360.4 159.7,351.3 171.6,321.8 183.5,318.6 195.5,321.9 207.4,326.3 219.4,318.9 231.3,313.5 243.3,311.7 255.2,312.6 267.2,312.5 279.1,304.1 291.0,308.7 303.0,317.3 314.9,314.1 326.9,316.0 338.8,296.7 350.8,307.9 362.7,282.5 374.6,290.5 386.6,264.2 398.5,228.0 410.5,226.3 422.4,233.3 434.4,197.9 446.3,195.3 458.3,191.3 470.2,143.8 482.1,146.4 494.1,114.7 506.0,81.6 518.0,61.8 529.9,102.4 541.9,123.9 553.8,74.2 565.7,62.4 577.7,49.5 589.6,45.1 601.6,48.5 613.5,36.0 625.5,46.8 637.4,46.9 649.4,49.3 661.3,65.2 673.2,60.2 685.2,53.9 697.1,92.3 709.1,88.1 721.0,72.9 733.0,75.9 744.9,79.7 756.8,92.6 768.8,91.4 780.7,90.5 792.7,88.3 804.6,90.9 816.6,101.1 828.5,103.7 840.5,110.9 852.4,112.0 864.3,115.1 876.3,127.4 888.2,128.4 900.2,122.5 912.1,126.6 924.1,129.4 936.0,129.4" />
  <circle cx="936.0" cy="129.4" r="4.5" fill="#0b84f3" />
  <text x="932.0" y="119.4" font-size="12" fill="#18212f">272.74</text>
</svg>
