<?xml version="1.0" encoding="UTF-8"?>
<svg xmlns="http://www.w3.org/2000/svg" width="960" height="420" viewBox="0 0 960 420">
  <rect width="100%" height="100%" fill="#f7f9fc" />
  <text x="88" y="24" font-size="20" font-family="Arial, sans-serif" font-weight="700" fill="#18212f">PR9 cumulative NVDR NET (2026-01-01 to 2026-04-21)</text>
  <text x="88" y="46" font-size="12" font-family="Arial, sans-serif" fill="#445166">Unit: million baht, based on NVDR Turnover (Net) from value view</text>
  
      <line x1="88" y1="36.0" x2="936" y2="36.0" stroke="#d8dde6" stroke-width="1" />
      <text x="78" y="40.0" text-anchor="end" font-size="12" fill="#445166">10.49</text>
    
      <line x1="88" y1="101.6" x2="936" y2="101.6" stroke="#d8dde6" stroke-width="1" />
      <text x="78" y="105.6" text-anchor="end" font-size="12" fill="#445166">-18.34</text>
    
      <line x1="88" y1="167.2" x2="936" y2="167.2" stroke="#d8dde6" stroke-width="1" />
      <text x="78" y="171.2" text-anchor="end" font-size="12" fill="#445166">-47.16</text>
    
      <line x1="88" y1="232.8" x2="936" y2="232.8" stroke="#d8dde6" stroke-width="1" />
      <text x="78" y="236.8" text-anchor="end" font-size="12" fill="#445166">-75.99</text>
    
      <line x1="88" y1="298.4" x2="936" y2="298.4" stroke="#d8dde6" stroke-width="1" />
      <text x="78" y="302.4" text-anchor="end" font-size="12" fill="#445166">-104.81</text>
    
      <line x1="88" y1="364.0" x2="936" y2="364.0" stroke="#d8dde6" stroke-width="1" />
      <text x="78" y="368.0" text-anchor="end" font-size="12" fill="#445166">-133.64</text>
    
  <line x1="88" y1="59.9" x2="936" y2="59.9" stroke="#7a8799" stroke-width="1.4" stroke-dasharray="4 4" />
  <line x1="88" y1="36" x2="88" y2="364" stroke="#445166" stroke-width="1.2" />
  <line x1="88" y1="364" x2="936" y2="364" stroke="#445166" stroke-width="1.2" />
  
      <line x1="88.0" y1="364" x2="88.0" y2="370" stroke="#445166" stroke-width="1" />
      <text x="88.0" y="386" text-anchor="middle" font-size="12" fill="#445166">2026-01-05</text>
    
      <line x1="506.0" y1="364" x2="506.0" y2="370" stroke="#445166" stroke-width="1" />
      <text x="506.0" y="386" text-anchor="middle" font-size="12" fill="#445166">2026-02-23</text>
    
      <line x1="936.0" y1="364" x2="936.0" y2="370" stroke="#445166" stroke-width="1" />
      <text x="936.0" y="386" text-anchor="middle" font-size="12" fill="#445166">2026-04-21</text>
    
  <polyline fill="none" stroke="#0b84f3" stroke-width="3" points="88.0,61.1 99.9,70.2 111.9,36.0 123.8,73.3 135.8,84.8 147.7,136.6 159.7,94.3 171.6,104.2 183.5,116.0 195.5,118.7 207.4,125.6 219.4,163.5 231.3,156.0 243.3,136.8 255.2,133.6 267.2,150.2 279.1,176.4 291.0,188.4 303.0,188.5 314.9,183.0 326.9,191.2 338.8,160.0 350.8,158.9 362.7,152.4 374.6,120.2 386.6,162.5 398.5,126.6 410.5,137.9 422.4,75.5 434.4,52.5 446.3,58.6 458.3,110.9 470.2,168.8 482.1,177.5 494.1,190.3 506.0,172.6 518.0,138.6 529.9,217.4 541.9,184.9 553.8,235.6 565.7,234.5 577.7,156.4 589.6,230.0 601.6,226.3 613.5,181.1 625.5,170.4 637.4,259.2 649.4,266.3 661.3,288.1 673.2,283.2 685.2,314.7 697.1,344.3 709.1,364.0 721.0,351.1 733.0,357.8 744.9,362.2 756.8,332.1 768.8,352.2 780.7,348.2 792.7,358.2 804.6,336.1 816.6,286.7 828.5,310.2 840.5,324.6 852.4,331.6 864.3,274.1 876.3,322.0 888.2,320.7 900.2,290.2 912.1,309.9 924.1,363.5 936.0,349.8" />
  <circle cx="936.0" cy="349.8" r="4.5" fill="#0b84f3" />
  <text x="932.0" y="339.8" font-size="12" fill="#18212f">-127.41</text>
</svg>
