<?xml version="1.0" encoding="UTF-8"?>
<svg xmlns="http://www.w3.org/2000/svg" width="960" height="420" viewBox="0 0 960 420">
  <rect width="100%" height="100%" fill="#f7f9fc" />
  <text x="88" y="24" font-size="20" font-family="Arial, sans-serif" font-weight="700" fill="#18212f">PRM cumulative NVDR NET (2026-01-01 to 2026-04-21)</text>
  <text x="88" y="46" font-size="12" font-family="Arial, sans-serif" fill="#445166">Unit: million baht, based on NVDR Turnover (Net) from value view</text>
  
      <line x1="88" y1="36.0" x2="936" y2="36.0" stroke="#d8dde6" stroke-width="1" />
      <text x="78" y="40.0" text-anchor="end" font-size="12" fill="#445166">546.53</text>
    
      <line x1="88" y1="101.6" x2="936" y2="101.6" stroke="#d8dde6" stroke-width="1" />
      <text x="78" y="105.6" text-anchor="end" font-size="12" fill="#445166">437.22</text>
    
      <line x1="88" y1="167.2" x2="936" y2="167.2" stroke="#d8dde6" stroke-width="1" />
      <text x="78" y="171.2" text-anchor="end" font-size="12" fill="#445166">327.92</text>
    
      <line x1="88" y1="232.8" x2="936" y2="232.8" stroke="#d8dde6" stroke-width="1" />
      <text x="78" y="236.8" text-anchor="end" font-size="12" fill="#445166">218.61</text>
    
      <line x1="88" y1="298.4" x2="936" y2="298.4" stroke="#d8dde6" stroke-width="1" />
      <text x="78" y="302.4" text-anchor="end" font-size="12" fill="#445166">109.31</text>
    
      <line x1="88" y1="364.0" x2="936" y2="364.0" stroke="#d8dde6" stroke-width="1" />
      <text x="78" y="368.0" text-anchor="end" font-size="12" fill="#445166">0.00</text>
    
  <line x1="88" y1="364.0" x2="936" y2="364.0" stroke="#7a8799" stroke-width="1.4" stroke-dasharray="4 4" />
  <line x1="88" y1="36" x2="88" y2="364" stroke="#445166" stroke-width="1.2" />
  <line x1="88" y1="364" x2="936" y2="364" stroke="#445166" stroke-width="1.2" />
  
      <line x1="88.0" y1="364" x2="88.0" y2="370" stroke="#445166" stroke-width="1" />
      <text x="88.0" y="386" text-anchor="middle" font-size="12" fill="#445166">2026-01-05</text>
    
      <line x1="506.0" y1="364" x2="506.0" y2="370" stroke="#445166" stroke-width="1" />
      <text x="506.0" y="386" text-anchor="middle" font-size="12" fill="#445166">2026-02-23</text>
    
      <line x1="936.0" y1="364" x2="936.0" y2="370" stroke="#445166" stroke-width="1" />
      <text x="936.0" y="386" text-anchor="middle" font-size="12" fill="#445166">2026-04-21</text>
    
  <polyline fill="none" stroke="#0b84f3" stroke-width="3" points="88.0,352.7 99.9,346.9 111.9,346.2 123.8,335.3 135.8,328.1 147.7,325.0 159.7,323.2 171.6,318.7 183.5,314.9 195.5,311.8 207.4,304.2 219.4,302.6 231.3,305.0 243.3,316.8 255.2,311.7 267.2,313.0 279.1,313.9 291.0,314.3 303.0,313.1 314.9,314.9 326.9,313.1 338.8,319.0 350.8,327.8 362.7,334.6 374.6,340.0 386.6,331.5 398.5,327.2 410.5,328.0 422.4,324.7 434.4,320.0 446.3,320.6 458.3,316.2 470.2,314.6 482.1,300.5 494.1,293.2 506.0,287.7 518.0,281.9 529.9,282.8 541.9,280.0 553.8,268.4 565.7,269.3 577.7,248.8 589.6,245.3 601.6,254.4 613.5,246.8 625.5,242.0 637.4,231.5 649.4,226.2 661.3,225.6 673.2,228.7 685.2,219.8 697.1,223.2 709.1,228.1 721.0,214.7 733.0,211.4 744.9,211.8 756.8,203.3 768.8,198.5 780.7,189.3 792.7,182.9 804.6,184.6 816.6,177.9 828.5,177.4 840.5,173.7 852.4,169.7 864.3,163.2 876.3,162.7 888.2,43.7 900.2,43.4 912.1,36.0 924.1,37.5 936.0,38.4" />
  <circle cx="936.0" cy="38.4" r="4.5" fill="#0b84f3" />
  <text x="932.0" y="48.0" font-size="12" fill="#18212f">542.48</text>
</svg>
