<?xml version="1.0" encoding="UTF-8"?>
<svg xmlns="http://www.w3.org/2000/svg" width="960" height="420" viewBox="0 0 960 420">
  <rect width="100%" height="100%" fill="#f7f9fc" />
  <text x="88" y="24" font-size="20" font-family="Arial, sans-serif" font-weight="700" fill="#18212f">PTG cumulative NVDR NET (2026-01-01 to 2026-04-21)</text>
  <text x="88" y="46" font-size="12" font-family="Arial, sans-serif" fill="#445166">Unit: million baht, based on NVDR Turnover (Net) from value view</text>
  
      <line x1="88" y1="36.0" x2="936" y2="36.0" stroke="#d8dde6" stroke-width="1" />
      <text x="78" y="40.0" text-anchor="end" font-size="12" fill="#445166">382.25</text>
    
      <line x1="88" y1="101.6" x2="936" y2="101.6" stroke="#d8dde6" stroke-width="1" />
      <text x="78" y="105.6" text-anchor="end" font-size="12" fill="#445166">290.73</text>
    
      <line x1="88" y1="167.2" x2="936" y2="167.2" stroke="#d8dde6" stroke-width="1" />
      <text x="78" y="171.2" text-anchor="end" font-size="12" fill="#445166">199.20</text>
    
      <line x1="88" y1="232.8" x2="936" y2="232.8" stroke="#d8dde6" stroke-width="1" />
      <text x="78" y="236.8" text-anchor="end" font-size="12" fill="#445166">107.68</text>
    
      <line x1="88" y1="298.4" x2="936" y2="298.4" stroke="#d8dde6" stroke-width="1" />
      <text x="78" y="302.4" text-anchor="end" font-size="12" fill="#445166">16.15</text>
    
      <line x1="88" y1="364.0" x2="936" y2="364.0" stroke="#d8dde6" stroke-width="1" />
      <text x="78" y="368.0" text-anchor="end" font-size="12" fill="#445166">-75.37</text>
    
  <line x1="88" y1="310.0" x2="936" y2="310.0" stroke="#7a8799" stroke-width="1.4" stroke-dasharray="4 4" />
  <line x1="88" y1="36" x2="88" y2="364" stroke="#445166" stroke-width="1.2" />
  <line x1="88" y1="364" x2="936" y2="364" stroke="#445166" stroke-width="1.2" />
  
      <line x1="88.0" y1="364" x2="88.0" y2="370" stroke="#445166" stroke-width="1" />
      <text x="88.0" y="386" text-anchor="middle" font-size="12" fill="#445166">2026-01-05</text>
    
      <line x1="506.0" y1="364" x2="506.0" y2="370" stroke="#445166" stroke-width="1" />
      <text x="506.0" y="386" text-anchor="middle" font-size="12" fill="#445166">2026-02-23</text>
    
      <line x1="936.0" y1="364" x2="936.0" y2="370" stroke="#445166" stroke-width="1" />
      <text x="936.0" y="386" text-anchor="middle" font-size="12" fill="#445166">2026-04-21</text>
    
  <polyline fill="none" stroke="#0b84f3" stroke-width="3" points="88.0,314.5 99.9,317.4 111.9,327.0 123.8,342.2 135.8,339.9 147.7,336.5 159.7,339.2 171.6,340.2 183.5,339.4 195.5,341.3 207.4,342.5 219.4,343.0 231.3,329.7 243.3,340.6 255.2,345.6 267.2,347.1 279.1,351.7 291.0,355.2 303.0,364.0 314.9,361.8 326.9,357.2 338.8,351.8 350.8,352.2 362.7,344.2 374.6,340.1 386.6,308.1 398.5,308.0 410.5,315.8 422.4,270.5 434.4,241.8 446.3,249.2 458.3,236.2 470.2,225.8 482.1,236.5 494.1,240.1 506.0,224.8 518.0,214.3 529.9,194.0 541.9,171.2 553.8,131.4 565.7,80.2 577.7,36.0 589.6,42.2 601.6,45.7 613.5,42.3 625.5,64.9 637.4,75.3 649.4,82.0 661.3,102.0 673.2,102.6 685.2,96.7 697.1,106.4 709.1,109.7 721.0,104.1 733.0,96.3 744.9,94.5 756.8,98.1 768.8,102.0 780.7,125.8 792.7,109.2 804.6,91.0 816.6,92.9 828.5,88.9 840.5,87.8 852.4,55.3 864.3,47.8 876.3,54.4 888.2,56.4 900.2,58.7 912.1,65.5 924.1,67.0 936.0,64.9" />
  <circle cx="936.0" cy="64.9" r="4.5" fill="#0b84f3" />
  <text x="932.0" y="54.9" font-size="12" fill="#18212f">341.91</text>
</svg>
