<?xml version="1.0" encoding="UTF-8"?>
<svg xmlns="http://www.w3.org/2000/svg" width="960" height="420" viewBox="0 0 960 420">
  <rect width="100%" height="100%" fill="#f7f9fc" />
  <text x="88" y="24" font-size="20" font-family="Arial, sans-serif" font-weight="700" fill="#18212f">PTT cumulative NVDR NET (2026-01-01 to 2026-04-21)</text>
  <text x="88" y="46" font-size="12" font-family="Arial, sans-serif" fill="#445166">Unit: million baht, based on NVDR Turnover (Net) from value view</text>
  
      <line x1="88" y1="36.0" x2="936" y2="36.0" stroke="#d8dde6" stroke-width="1" />
      <text x="78" y="40.0" text-anchor="end" font-size="12" fill="#445166">15016.52</text>
    
      <line x1="88" y1="101.6" x2="936" y2="101.6" stroke="#d8dde6" stroke-width="1" />
      <text x="78" y="105.6" text-anchor="end" font-size="12" fill="#445166">12013.22</text>
    
      <line x1="88" y1="167.2" x2="936" y2="167.2" stroke="#d8dde6" stroke-width="1" />
      <text x="78" y="171.2" text-anchor="end" font-size="12" fill="#445166">9009.91</text>
    
      <line x1="88" y1="232.8" x2="936" y2="232.8" stroke="#d8dde6" stroke-width="1" />
      <text x="78" y="236.8" text-anchor="end" font-size="12" fill="#445166">6006.61</text>
    
      <line x1="88" y1="298.4" x2="936" y2="298.4" stroke="#d8dde6" stroke-width="1" />
      <text x="78" y="302.4" text-anchor="end" font-size="12" fill="#445166">3003.30</text>
    
      <line x1="88" y1="364.0" x2="936" y2="364.0" stroke="#d8dde6" stroke-width="1" />
      <text x="78" y="368.0" text-anchor="end" font-size="12" fill="#445166">0.00</text>
    
  <line x1="88" y1="364.0" x2="936" y2="364.0" stroke="#7a8799" stroke-width="1.4" stroke-dasharray="4 4" />
  <line x1="88" y1="36" x2="88" y2="364" stroke="#445166" stroke-width="1.2" />
  <line x1="88" y1="364" x2="936" y2="364" stroke="#445166" stroke-width="1.2" />
  
      <line x1="88.0" y1="364" x2="88.0" y2="370" stroke="#445166" stroke-width="1" />
      <text x="88.0" y="386" text-anchor="middle" font-size="12" fill="#445166">2026-01-05</text>
    
      <line x1="506.0" y1="364" x2="506.0" y2="370" stroke="#445166" stroke-width="1" />
      <text x="506.0" y="386" text-anchor="middle" font-size="12" fill="#445166">2026-02-23</text>
    
      <line x1="936.0" y1="364" x2="936.0" y2="370" stroke="#445166" stroke-width="1" />
      <text x="936.0" y="386" text-anchor="middle" font-size="12" fill="#445166">2026-04-21</text>
    
  <polyline fill="none" stroke="#0b84f3" stroke-width="3" points="88.0,363.0 99.9,362.4 111.9,359.5 123.8,357.8 135.8,353.1 147.7,348.4 159.7,342.1 171.6,323.3 183.5,318.7 195.5,307.9 207.4,306.5 219.4,301.0 231.3,292.2 243.3,282.5 255.2,272.9 267.2,264.0 279.1,237.6 291.0,227.9 303.0,232.5 314.9,223.4 326.9,214.9 338.8,206.6 350.8,195.0 362.7,160.0 374.6,157.3 386.6,142.0 398.5,136.2 410.5,130.4 422.4,99.7 434.4,96.9 446.3,86.4 458.3,82.1 470.2,77.8 482.1,49.4 494.1,47.6 506.0,58.3 518.0,49.8 529.9,36.0 541.9,54.3 553.8,54.8 565.7,77.1 577.7,78.7 589.6,78.3 601.6,72.1 613.5,72.7 625.5,83.2 637.4,82.5 649.4,85.1 661.3,92.1 673.2,102.9 685.2,94.1 697.1,91.7 709.1,87.0 721.0,93.6 733.0,93.9 744.9,94.7 756.8,93.8 768.8,82.3 780.7,75.2 792.7,75.9 804.6,79.4 816.6,73.5 828.5,58.9 840.5,62.1 852.4,53.6 864.3,51.4 876.3,50.1 888.2,56.8 900.2,64.6 912.1,60.1 924.1,53.9 936.0,58.2" />
  <circle cx="936.0" cy="58.2" r="4.5" fill="#0b84f3" />
  <text x="932.0" y="48.2" font-size="12" fill="#18212f">14001.96</text>
</svg>
