<?xml version="1.0" encoding="UTF-8"?>
<svg xmlns="http://www.w3.org/2000/svg" width="960" height="420" viewBox="0 0 960 420">
  <rect width="100%" height="100%" fill="#f7f9fc" />
  <text x="88" y="24" font-size="20" font-family="Arial, sans-serif" font-weight="700" fill="#18212f">QH cumulative NVDR NET (2026-01-01 to 2026-04-21)</text>
  <text x="88" y="46" font-size="12" font-family="Arial, sans-serif" fill="#445166">Unit: million baht, based on NVDR Turnover (Net) from value view</text>
  
      <line x1="88" y1="36.0" x2="936" y2="36.0" stroke="#d8dde6" stroke-width="1" />
      <text x="78" y="40.0" text-anchor="end" font-size="12" fill="#445166">33.55</text>
    
      <line x1="88" y1="101.6" x2="936" y2="101.6" stroke="#d8dde6" stroke-width="1" />
      <text x="78" y="105.6" text-anchor="end" font-size="12" fill="#445166">18.68</text>
    
      <line x1="88" y1="167.2" x2="936" y2="167.2" stroke="#d8dde6" stroke-width="1" />
      <text x="78" y="171.2" text-anchor="end" font-size="12" fill="#445166">3.82</text>
    
      <line x1="88" y1="232.8" x2="936" y2="232.8" stroke="#d8dde6" stroke-width="1" />
      <text x="78" y="236.8" text-anchor="end" font-size="12" fill="#445166">-11.05</text>
    
      <line x1="88" y1="298.4" x2="936" y2="298.4" stroke="#d8dde6" stroke-width="1" />
      <text x="78" y="302.4" text-anchor="end" font-size="12" fill="#445166">-25.91</text>
    
      <line x1="88" y1="364.0" x2="936" y2="364.0" stroke="#d8dde6" stroke-width="1" />
      <text x="78" y="368.0" text-anchor="end" font-size="12" fill="#445166">-40.78</text>
    
  <line x1="88" y1="184.0" x2="936" y2="184.0" stroke="#7a8799" stroke-width="1.4" stroke-dasharray="4 4" />
  <line x1="88" y1="36" x2="88" y2="364" stroke="#445166" stroke-width="1.2" />
  <line x1="88" y1="364" x2="936" y2="364" stroke="#445166" stroke-width="1.2" />
  
      <line x1="88.0" y1="364" x2="88.0" y2="370" stroke="#445166" stroke-width="1" />
      <text x="88.0" y="386" text-anchor="middle" font-size="12" fill="#445166">2026-01-05</text>
    
      <line x1="506.0" y1="364" x2="506.0" y2="370" stroke="#445166" stroke-width="1" />
      <text x="506.0" y="386" text-anchor="middle" font-size="12" fill="#445166">2026-02-23</text>
    
      <line x1="936.0" y1="364" x2="936.0" y2="370" stroke="#445166" stroke-width="1" />
      <text x="936.0" y="386" text-anchor="middle" font-size="12" fill="#445166">2026-04-21</text>
    
  <polyline fill="none" stroke="#0b84f3" stroke-width="3" points="88.0,134.8 99.9,126.5 111.9,129.4 123.8,131.0 135.8,144.3 147.7,190.7 159.7,239.2 171.6,262.7 183.5,270.3 195.5,273.1 207.4,268.8 219.4,259.6 231.3,257.2 243.3,268.4 255.2,280.6 267.2,300.5 279.1,295.1 291.0,299.6 303.0,309.4 314.9,312.6 326.9,346.4 338.8,348.1 350.8,357.6 362.7,352.4 374.6,364.0 386.6,308.9 398.5,295.7 410.5,311.2 422.4,337.6 434.4,245.8 446.3,236.4 458.3,229.2 470.2,218.8 482.1,171.3 494.1,195.3 506.0,211.7 518.0,193.2 529.9,106.0 541.9,84.5 553.8,73.7 565.7,36.0 577.7,45.7 589.6,66.4 601.6,84.5 613.5,75.3 625.5,94.5 637.4,93.3 649.4,108.6 661.3,118.5 673.2,126.5 685.2,141.4 697.1,152.2 709.1,175.2 721.0,172.7 733.0,194.6 744.9,234.3 756.8,237.8 768.8,246.8 780.7,245.8 792.7,247.3 804.6,256.4 816.6,241.1 828.5,243.2 840.5,247.1 852.4,258.2 864.3,250.3 876.3,268.3 888.2,276.3 900.2,275.5 912.1,311.5 924.1,334.6 936.0,325.1" />
  <circle cx="936.0" cy="325.1" r="4.5" fill="#0b84f3" />
  <text x="932.0" y="315.1" font-size="12" fill="#18212f">-31.97</text>
</svg>
