<?xml version="1.0" encoding="UTF-8"?>
<svg xmlns="http://www.w3.org/2000/svg" width="960" height="420" viewBox="0 0 960 420">
  <rect width="100%" height="100%" fill="#f7f9fc" />
  <text x="88" y="24" font-size="20" font-family="Arial, sans-serif" font-weight="700" fill="#18212f">RATCH cumulative NVDR NET (2026-01-01 to 2026-04-21)</text>
  <text x="88" y="46" font-size="12" font-family="Arial, sans-serif" fill="#445166">Unit: million baht, based on NVDR Turnover (Net) from value view</text>
  
      <line x1="88" y1="36.0" x2="936" y2="36.0" stroke="#d8dde6" stroke-width="1" />
      <text x="78" y="40.0" text-anchor="end" font-size="12" fill="#445166">630.00</text>
    
      <line x1="88" y1="101.6" x2="936" y2="101.6" stroke="#d8dde6" stroke-width="1" />
      <text x="78" y="105.6" text-anchor="end" font-size="12" fill="#445166">504.00</text>
    
      <line x1="88" y1="167.2" x2="936" y2="167.2" stroke="#d8dde6" stroke-width="1" />
      <text x="78" y="171.2" text-anchor="end" font-size="12" fill="#445166">378.00</text>
    
      <line x1="88" y1="232.8" x2="936" y2="232.8" stroke="#d8dde6" stroke-width="1" />
      <text x="78" y="236.8" text-anchor="end" font-size="12" fill="#445166">252.00</text>
    
      <line x1="88" y1="298.4" x2="936" y2="298.4" stroke="#d8dde6" stroke-width="1" />
      <text x="78" y="302.4" text-anchor="end" font-size="12" fill="#445166">126.00</text>
    
      <line x1="88" y1="364.0" x2="936" y2="364.0" stroke="#d8dde6" stroke-width="1" />
      <text x="78" y="368.0" text-anchor="end" font-size="12" fill="#445166">0.00</text>
    
  <line x1="88" y1="364.0" x2="936" y2="364.0" stroke="#7a8799" stroke-width="1.4" stroke-dasharray="4 4" />
  <line x1="88" y1="36" x2="88" y2="364" stroke="#445166" stroke-width="1.2" />
  <line x1="88" y1="364" x2="936" y2="364" stroke="#445166" stroke-width="1.2" />
  
      <line x1="88.0" y1="364" x2="88.0" y2="370" stroke="#445166" stroke-width="1" />
      <text x="88.0" y="386" text-anchor="middle" font-size="12" fill="#445166">2026-01-05</text>
    
      <line x1="506.0" y1="364" x2="506.0" y2="370" stroke="#445166" stroke-width="1" />
      <text x="506.0" y="386" text-anchor="middle" font-size="12" fill="#445166">2026-02-23</text>
    
      <line x1="936.0" y1="364" x2="936.0" y2="370" stroke="#445166" stroke-width="1" />
      <text x="936.0" y="386" text-anchor="middle" font-size="12" fill="#445166">2026-04-21</text>
    
  <polyline fill="none" stroke="#0b84f3" stroke-width="3" points="88.0,359.7 99.9,358.2 111.9,356.5 123.8,353.4 135.8,354.0 147.7,354.2 159.7,349.6 171.6,352.3 183.5,340.1 195.5,326.2 207.4,312.7 219.4,298.7 231.3,292.2 243.3,278.7 255.2,269.9 267.2,261.0 279.1,240.6 291.0,232.8 303.0,233.6 314.9,217.7 326.9,216.9 338.8,214.0 350.8,209.3 362.7,200.9 374.6,188.3 386.6,147.5 398.5,112.1 410.5,114.5 422.4,104.5 434.4,96.4 446.3,93.0 458.3,80.8 470.2,71.5 482.1,67.0 494.1,64.4 506.0,69.6 518.0,36.2 529.9,44.1 541.9,36.0 553.8,54.1 565.7,46.6 577.7,73.5 589.6,76.7 601.6,88.6 613.5,90.6 625.5,99.8 637.4,100.7 649.4,84.8 661.3,101.1 673.2,98.5 685.2,90.7 697.1,96.1 709.1,109.4 721.0,105.7 733.0,120.3 744.9,117.8 756.8,93.2 768.8,86.0 780.7,79.3 792.7,75.7 804.6,68.3 816.6,59.8 828.5,58.1 840.5,62.1 852.4,54.7 864.3,47.2 876.3,53.8 888.2,50.7 900.2,48.0 912.1,50.8 924.1,52.6 936.0,51.4" />
  <circle cx="936.0" cy="51.4" r="4.5" fill="#0b84f3" />
  <text x="932.0" y="48.0" font-size="12" fill="#18212f">600.37</text>
</svg>
