<?xml version="1.0" encoding="UTF-8"?>
<svg xmlns="http://www.w3.org/2000/svg" width="960" height="420" viewBox="0 0 960 420">
  <rect width="100%" height="100%" fill="#f7f9fc" />
  <text x="88" y="24" font-size="20" font-family="Arial, sans-serif" font-weight="700" fill="#18212f">SAWAD cumulative NVDR NET (2026-01-01 to 2026-04-21)</text>
  <text x="88" y="46" font-size="12" font-family="Arial, sans-serif" fill="#445166">Unit: million baht, based on NVDR Turnover (Net) from value view</text>
  
      <line x1="88" y1="36.0" x2="936" y2="36.0" stroke="#d8dde6" stroke-width="1" />
      <text x="78" y="40.0" text-anchor="end" font-size="12" fill="#445166">194.75</text>
    
      <line x1="88" y1="101.6" x2="936" y2="101.6" stroke="#d8dde6" stroke-width="1" />
      <text x="78" y="105.6" text-anchor="end" font-size="12" fill="#445166">79.06</text>
    
      <line x1="88" y1="167.2" x2="936" y2="167.2" stroke="#d8dde6" stroke-width="1" />
      <text x="78" y="171.2" text-anchor="end" font-size="12" fill="#445166">-36.63</text>
    
      <line x1="88" y1="232.8" x2="936" y2="232.8" stroke="#d8dde6" stroke-width="1" />
      <text x="78" y="236.8" text-anchor="end" font-size="12" fill="#445166">-152.33</text>
    
      <line x1="88" y1="298.4" x2="936" y2="298.4" stroke="#d8dde6" stroke-width="1" />
      <text x="78" y="302.4" text-anchor="end" font-size="12" fill="#445166">-268.02</text>
    
      <line x1="88" y1="364.0" x2="936" y2="364.0" stroke="#d8dde6" stroke-width="1" />
      <text x="78" y="368.0" text-anchor="end" font-size="12" fill="#445166">-383.71</text>
    
  <line x1="88" y1="146.4" x2="936" y2="146.4" stroke="#7a8799" stroke-width="1.4" stroke-dasharray="4 4" />
  <line x1="88" y1="36" x2="88" y2="364" stroke="#445166" stroke-width="1.2" />
  <line x1="88" y1="364" x2="936" y2="364" stroke="#445166" stroke-width="1.2" />
  
      <line x1="88.0" y1="364" x2="88.0" y2="370" stroke="#445166" stroke-width="1" />
      <text x="88.0" y="386" text-anchor="middle" font-size="12" fill="#445166">2026-01-05</text>
    
      <line x1="506.0" y1="364" x2="506.0" y2="370" stroke="#445166" stroke-width="1" />
      <text x="506.0" y="386" text-anchor="middle" font-size="12" fill="#445166">2026-02-23</text>
    
      <line x1="936.0" y1="364" x2="936.0" y2="370" stroke="#445166" stroke-width="1" />
      <text x="936.0" y="386" text-anchor="middle" font-size="12" fill="#445166">2026-04-21</text>
    
  <polyline fill="none" stroke="#0b84f3" stroke-width="3" points="88.0,142.7 99.9,149.8 111.9,147.3 123.8,204.2 135.8,151.5 147.7,148.4 159.7,65.6 171.6,36.0 183.5,60.7 195.5,116.9 207.4,146.8 219.4,169.1 231.3,192.9 243.3,226.5 255.2,248.2 267.2,223.5 279.1,244.9 291.0,264.1 303.0,259.0 314.9,212.4 326.9,177.0 338.8,153.2 350.8,153.8 362.7,134.5 374.6,169.9 386.6,112.3 398.5,162.6 410.5,203.3 422.4,208.3 434.4,219.5 446.3,237.1 458.3,242.7 470.2,218.2 482.1,275.8 494.1,296.4 506.0,284.0 518.0,252.8 529.9,286.1 541.9,290.1 553.8,295.1 565.7,308.9 577.7,296.6 589.6,301.5 601.6,307.3 613.5,287.7 625.5,305.0 637.4,311.6 649.4,300.5 661.3,340.3 673.2,346.0 685.2,364.0 697.1,352.1 709.1,341.9 721.0,328.3 733.0,299.6 744.9,281.9 756.8,307.5 768.8,320.6 780.7,299.8 792.7,264.0 804.6,297.1 816.6,311.4 828.5,341.1 840.5,336.5 852.4,320.8 864.3,300.7 876.3,348.0 888.2,354.2 900.2,358.3 912.1,356.9 924.1,345.7 936.0,352.6" />
  <circle cx="936.0" cy="352.6" r="4.5" fill="#0b84f3" />
  <text x="932.0" y="342.6" font-size="12" fill="#18212f">-363.54</text>
</svg>
