<?xml version="1.0" encoding="UTF-8"?>
<svg xmlns="http://www.w3.org/2000/svg" width="960" height="420" viewBox="0 0 960 420">
  <rect width="100%" height="100%" fill="#f7f9fc" />
  <text x="88" y="24" font-size="20" font-family="Arial, sans-serif" font-weight="700" fill="#18212f">SCC cumulative NVDR NET (2026-01-01 to 2026-04-21)</text>
  <text x="88" y="46" font-size="12" font-family="Arial, sans-serif" fill="#445166">Unit: million baht, based on NVDR Turnover (Net) from value view</text>
  
      <line x1="88" y1="36.0" x2="936" y2="36.0" stroke="#d8dde6" stroke-width="1" />
      <text x="78" y="40.0" text-anchor="end" font-size="12" fill="#445166">2876.61</text>
    
      <line x1="88" y1="101.6" x2="936" y2="101.6" stroke="#d8dde6" stroke-width="1" />
      <text x="78" y="105.6" text-anchor="end" font-size="12" fill="#445166">2202.08</text>
    
      <line x1="88" y1="167.2" x2="936" y2="167.2" stroke="#d8dde6" stroke-width="1" />
      <text x="78" y="171.2" text-anchor="end" font-size="12" fill="#445166">1527.55</text>
    
      <line x1="88" y1="232.8" x2="936" y2="232.8" stroke="#d8dde6" stroke-width="1" />
      <text x="78" y="236.8" text-anchor="end" font-size="12" fill="#445166">853.02</text>
    
      <line x1="88" y1="298.4" x2="936" y2="298.4" stroke="#d8dde6" stroke-width="1" />
      <text x="78" y="302.4" text-anchor="end" font-size="12" fill="#445166">178.49</text>
    
      <line x1="88" y1="364.0" x2="936" y2="364.0" stroke="#d8dde6" stroke-width="1" />
      <text x="78" y="368.0" text-anchor="end" font-size="12" fill="#445166">-496.04</text>
    
  <line x1="88" y1="315.8" x2="936" y2="315.8" stroke="#7a8799" stroke-width="1.4" stroke-dasharray="4 4" />
  <line x1="88" y1="36" x2="88" y2="364" stroke="#445166" stroke-width="1.2" />
  <line x1="88" y1="364" x2="936" y2="364" stroke="#445166" stroke-width="1.2" />
  
      <line x1="88.0" y1="364" x2="88.0" y2="370" stroke="#445166" stroke-width="1" />
      <text x="88.0" y="386" text-anchor="middle" font-size="12" fill="#445166">2026-01-05</text>
    
      <line x1="506.0" y1="364" x2="506.0" y2="370" stroke="#445166" stroke-width="1" />
      <text x="506.0" y="386" text-anchor="middle" font-size="12" fill="#445166">2026-02-23</text>
    
      <line x1="936.0" y1="364" x2="936.0" y2="370" stroke="#445166" stroke-width="1" />
      <text x="936.0" y="386" text-anchor="middle" font-size="12" fill="#445166">2026-04-21</text>
    
  <polyline fill="none" stroke="#0b84f3" stroke-width="3" points="88.0,308.9 99.9,306.9 111.9,291.9 123.8,299.3 135.8,304.5 147.7,306.1 159.7,299.9 171.6,292.0 183.5,297.6 195.5,312.2 207.4,321.8 219.4,333.1 231.3,329.7 243.3,321.7 255.2,323.7 267.2,319.5 279.1,324.1 291.0,330.3 303.0,354.3 314.9,359.9 326.9,360.0 338.8,364.0 350.8,357.7 362.7,361.3 374.6,305.6 386.6,307.2 398.5,291.3 410.5,280.3 422.4,270.3 434.4,273.7 446.3,289.3 458.3,292.2 470.2,291.6 482.1,277.9 494.1,284.1 506.0,277.7 518.0,243.7 529.9,187.0 541.9,212.7 553.8,177.7 565.7,198.6 577.7,212.4 589.6,230.3 601.6,231.5 613.5,234.2 625.5,250.9 637.4,260.5 649.4,272.8 661.3,281.2 673.2,282.4 685.2,256.6 697.1,270.8 709.1,281.0 721.0,280.4 733.0,285.6 744.9,292.5 756.8,269.2 768.8,270.4 780.7,268.9 792.7,262.4 804.6,276.4 816.6,259.6 828.5,254.7 840.5,243.0 852.4,233.4 864.3,223.6 876.3,228.6 888.2,225.8 900.2,95.1 912.1,64.5 924.1,36.0 936.0,44.1" />
  <circle cx="936.0" cy="44.1" r="4.5" fill="#0b84f3" />
  <text x="932.0" y="48.0" font-size="12" fill="#18212f">2793.30</text>
</svg>
