<?xml version="1.0" encoding="UTF-8"?>
<svg xmlns="http://www.w3.org/2000/svg" width="960" height="420" viewBox="0 0 960 420">
  <rect width="100%" height="100%" fill="#f7f9fc" />
  <text x="88" y="24" font-size="20" font-family="Arial, sans-serif" font-weight="700" fill="#18212f">Conmat sector cumulative NVDR NET (2026-01-01 to 2026-04-21)</text>
  <text x="88" y="46" font-size="12" font-family="Arial, sans-serif" fill="#445166">Unit: million baht, based on NVDR Turnover (Net) from value view</text>
  
      <line x1="88" y1="36.0" x2="936" y2="36.0" stroke="#d8dde6" stroke-width="1" />
      <text x="78" y="40.0" text-anchor="end" font-size="12" fill="#445166">3038.88</text>
    
      <line x1="88" y1="101.6" x2="936" y2="101.6" stroke="#d8dde6" stroke-width="1" />
      <text x="78" y="105.6" text-anchor="end" font-size="12" fill="#445166">2336.82</text>
    
      <line x1="88" y1="167.2" x2="936" y2="167.2" stroke="#d8dde6" stroke-width="1" />
      <text x="78" y="171.2" text-anchor="end" font-size="12" fill="#445166">1634.77</text>
    
      <line x1="88" y1="232.8" x2="936" y2="232.8" stroke="#d8dde6" stroke-width="1" />
      <text x="78" y="236.8" text-anchor="end" font-size="12" fill="#445166">932.71</text>
    
      <line x1="88" y1="298.4" x2="936" y2="298.4" stroke="#d8dde6" stroke-width="1" />
      <text x="78" y="302.4" text-anchor="end" font-size="12" fill="#445166">230.66</text>
    
      <line x1="88" y1="364.0" x2="936" y2="364.0" stroke="#d8dde6" stroke-width="1" />
      <text x="78" y="368.0" text-anchor="end" font-size="12" fill="#445166">-471.40</text>
    
  <line x1="88" y1="320.0" x2="936" y2="320.0" stroke="#7a8799" stroke-width="1.4" stroke-dasharray="4 4" />
  <line x1="88" y1="36" x2="88" y2="364" stroke="#445166" stroke-width="1.2" />
  <line x1="88" y1="364" x2="936" y2="364" stroke="#445166" stroke-width="1.2" />
  
      <line x1="88.0" y1="364" x2="88.0" y2="370" stroke="#445166" stroke-width="1" />
      <text x="88.0" y="386" text-anchor="middle" font-size="12" fill="#445166">2026-01-05</text>
    
      <line x1="506.0" y1="364" x2="506.0" y2="370" stroke="#445166" stroke-width="1" />
      <text x="506.0" y="386" text-anchor="middle" font-size="12" fill="#445166">2026-02-23</text>
    
      <line x1="936.0" y1="364" x2="936.0" y2="370" stroke="#445166" stroke-width="1" />
      <text x="936.0" y="386" text-anchor="middle" font-size="12" fill="#445166">2026-04-21</text>
    
  <polyline fill="none" stroke="#0b84f3" stroke-width="3" points="88.0,302.1 99.9,298.2 111.9,284.6 123.8,295.8 135.8,302.4 147.7,305.0 159.7,301.0 171.6,293.7 183.5,299.6 195.5,313.9 207.4,322.8 219.4,333.8 231.3,329.5 243.3,321.8 255.2,323.5 267.2,319.5 279.1,323.8 291.0,330.1 303.0,352.8 314.9,358.4 326.9,360.2 338.8,364.0 350.8,357.4 362.7,360.3 374.6,307.7 386.6,306.1 398.5,290.5 410.5,280.1 422.4,269.5 434.4,273.6 446.3,289.8 458.3,292.2 470.2,290.0 482.1,274.6 494.1,283.4 506.0,277.4 518.0,244.0 529.9,189.4 541.9,215.7 553.8,182.6 565.7,198.1 577.7,212.1 589.6,229.5 601.6,229.2 613.5,230.2 625.5,248.4 637.4,258.4 649.4,270.1 661.3,279.1 673.2,279.8 685.2,255.0 697.1,267.5 709.1,278.9 721.0,278.8 733.0,284.6 744.9,291.1 756.8,269.3 768.8,271.1 780.7,268.4 792.7,261.2 804.6,274.3 816.6,255.9 828.5,250.8 840.5,239.3 852.4,230.1 864.3,219.0 876.3,221.9 888.2,219.2 900.2,93.5 912.1,63.7 924.1,36.0 936.0,43.4" />
  <circle cx="936.0" cy="43.4" r="4.5" fill="#0b84f3" />
  <text x="932.0" y="48.0" font-size="12" fill="#18212f">2960.13</text>
</svg>
