<?xml version="1.0" encoding="UTF-8"?>
<svg xmlns="http://www.w3.org/2000/svg" width="960" height="420" viewBox="0 0 960 420">
  <rect width="100%" height="100%" fill="#f7f9fc" />
  <text x="88" y="24" font-size="20" font-family="Arial, sans-serif" font-weight="700" fill="#18212f">Petro sector cumulative NVDR NET (2026-01-01 to 2026-04-21)</text>
  <text x="88" y="46" font-size="12" font-family="Arial, sans-serif" fill="#445166">Unit: million baht, based on NVDR Turnover (Net) from value view</text>
  
      <line x1="88" y1="36.0" x2="936" y2="36.0" stroke="#d8dde6" stroke-width="1" />
      <text x="78" y="40.0" text-anchor="end" font-size="12" fill="#445166">3784.56</text>
    
      <line x1="88" y1="101.6" x2="936" y2="101.6" stroke="#d8dde6" stroke-width="1" />
      <text x="78" y="105.6" text-anchor="end" font-size="12" fill="#445166">3027.65</text>
    
      <line x1="88" y1="167.2" x2="936" y2="167.2" stroke="#d8dde6" stroke-width="1" />
      <text x="78" y="171.2" text-anchor="end" font-size="12" fill="#445166">2270.74</text>
    
      <line x1="88" y1="232.8" x2="936" y2="232.8" stroke="#d8dde6" stroke-width="1" />
      <text x="78" y="236.8" text-anchor="end" font-size="12" fill="#445166">1513.82</text>
    
      <line x1="88" y1="298.4" x2="936" y2="298.4" stroke="#d8dde6" stroke-width="1" />
      <text x="78" y="302.4" text-anchor="end" font-size="12" fill="#445166">756.91</text>
    
      <line x1="88" y1="364.0" x2="936" y2="364.0" stroke="#d8dde6" stroke-width="1" />
      <text x="78" y="368.0" text-anchor="end" font-size="12" fill="#445166">0.00</text>
    
  <line x1="88" y1="364.0" x2="936" y2="364.0" stroke="#7a8799" stroke-width="1.4" stroke-dasharray="4 4" />
  <line x1="88" y1="36" x2="88" y2="364" stroke="#445166" stroke-width="1.2" />
  <line x1="88" y1="364" x2="936" y2="364" stroke="#445166" stroke-width="1.2" />
  
      <line x1="88.0" y1="364" x2="88.0" y2="370" stroke="#445166" stroke-width="1" />
      <text x="88.0" y="386" text-anchor="middle" font-size="12" fill="#445166">2026-01-05</text>
    
      <line x1="506.0" y1="364" x2="506.0" y2="370" stroke="#445166" stroke-width="1" />
      <text x="506.0" y="386" text-anchor="middle" font-size="12" fill="#445166">2026-02-23</text>
    
      <line x1="936.0" y1="364" x2="936.0" y2="370" stroke="#445166" stroke-width="1" />
      <text x="936.0" y="386" text-anchor="middle" font-size="12" fill="#445166">2026-04-21</text>
    
  <polyline fill="none" stroke="#0b84f3" stroke-width="3" points="88.0,358.7 99.9,360.6 111.9,309.0 123.8,311.9 135.8,315.5 147.7,317.2 159.7,314.7 171.6,304.2 183.5,294.6 195.5,302.2 207.4,300.1 219.4,291.3 231.3,273.7 243.3,259.0 255.2,258.6 267.2,247.8 279.1,240.8 291.0,226.6 303.0,219.7 314.9,213.9 326.9,206.6 338.8,211.7 350.8,184.5 362.7,190.3 374.6,187.2 386.6,177.9 398.5,169.0 410.5,173.1 422.4,154.6 434.4,162.2 446.3,170.5 458.3,180.2 470.2,192.6 482.1,195.0 494.1,205.0 506.0,198.8 518.0,190.1 529.9,181.7 541.9,192.9 553.8,183.7 565.7,172.6 577.7,193.1 589.6,209.6 601.6,193.3 613.5,208.3 625.5,226.9 637.4,230.7 649.4,227.6 661.3,252.0 673.2,248.5 685.2,227.3 697.1,247.9 709.1,264.8 721.0,261.6 733.0,269.8 744.9,268.3 756.8,223.6 768.8,226.8 780.7,202.0 792.7,173.1 804.6,152.8 816.6,81.6 828.5,86.0 840.5,86.1 852.4,56.1 864.3,48.9 876.3,36.0 888.2,47.8 900.2,43.7 912.1,66.0 924.1,87.3 936.0,78.9" />
  <circle cx="936.0" cy="78.9" r="4.5" fill="#0b84f3" />
  <text x="932.0" y="68.9" font-size="12" fill="#18212f">3290.08</text>
</svg>
