<?xml version="1.0" encoding="UTF-8"?>
<svg xmlns="http://www.w3.org/2000/svg" width="960" height="420" viewBox="0 0 960 420">
  <rect width="100%" height="100%" fill="#f7f9fc" />
  <text x="88" y="24" font-size="20" font-family="Arial, sans-serif" font-weight="700" fill="#18212f">Insurance sector cumulative NVDR NET (2026-01-01 to 2026-04-21)</text>
  <text x="88" y="46" font-size="12" font-family="Arial, sans-serif" fill="#445166">Unit: million baht, based on NVDR Turnover (Net) from value view</text>
  
      <line x1="88" y1="36.0" x2="936" y2="36.0" stroke="#d8dde6" stroke-width="1" />
      <text x="78" y="40.0" text-anchor="end" font-size="12" fill="#445166">413.72</text>
    
      <line x1="88" y1="101.6" x2="936" y2="101.6" stroke="#d8dde6" stroke-width="1" />
      <text x="78" y="105.6" text-anchor="end" font-size="12" fill="#445166">279.10</text>
    
      <line x1="88" y1="167.2" x2="936" y2="167.2" stroke="#d8dde6" stroke-width="1" />
      <text x="78" y="171.2" text-anchor="end" font-size="12" fill="#445166">144.49</text>
    
      <line x1="88" y1="232.8" x2="936" y2="232.8" stroke="#d8dde6" stroke-width="1" />
      <text x="78" y="236.8" text-anchor="end" font-size="12" fill="#445166">9.87</text>
    
      <line x1="88" y1="298.4" x2="936" y2="298.4" stroke="#d8dde6" stroke-width="1" />
      <text x="78" y="302.4" text-anchor="end" font-size="12" fill="#445166">-124.74</text>
    
      <line x1="88" y1="364.0" x2="936" y2="364.0" stroke="#d8dde6" stroke-width="1" />
      <text x="78" y="368.0" text-anchor="end" font-size="12" fill="#445166">-259.36</text>
    
  <line x1="88" y1="237.6" x2="936" y2="237.6" stroke="#7a8799" stroke-width="1.4" stroke-dasharray="4 4" />
  <line x1="88" y1="36" x2="88" y2="364" stroke="#445166" stroke-width="1.2" />
  <line x1="88" y1="364" x2="936" y2="364" stroke="#445166" stroke-width="1.2" />
  
      <line x1="88.0" y1="364" x2="88.0" y2="370" stroke="#445166" stroke-width="1" />
      <text x="88.0" y="386" text-anchor="middle" font-size="12" fill="#445166">2026-01-05</text>
    
      <line x1="506.0" y1="364" x2="506.0" y2="370" stroke="#445166" stroke-width="1" />
      <text x="506.0" y="386" text-anchor="middle" font-size="12" fill="#445166">2026-02-23</text>
    
      <line x1="936.0" y1="364" x2="936.0" y2="370" stroke="#445166" stroke-width="1" />
      <text x="936.0" y="386" text-anchor="middle" font-size="12" fill="#445166">2026-04-21</text>
    
  <polyline fill="none" stroke="#0b84f3" stroke-width="3" points="88.0,266.0 99.9,279.2 111.9,282.4 123.8,277.4 135.8,267.4 147.7,297.2 159.7,274.7 171.6,278.7 183.5,280.4 195.5,295.4 207.4,309.8 219.4,325.1 231.3,336.8 243.3,346.9 255.2,336.8 267.2,307.1 279.1,294.2 291.0,289.7 303.0,293.2 314.9,271.7 326.9,288.5 338.8,285.7 350.8,225.9 362.7,222.2 374.6,215.9 386.6,148.8 398.5,114.6 410.5,101.3 422.4,77.7 434.4,69.1 446.3,75.7 458.3,61.5 470.2,59.9 482.1,53.8 494.1,44.6 506.0,49.3 518.0,40.9 529.9,46.6 541.9,36.0 553.8,68.0 565.7,65.4 577.7,78.0 589.6,136.4 601.6,160.1 613.5,187.6 625.5,213.6 637.4,231.2 649.4,249.0 661.3,275.5 673.2,283.7 685.2,303.4 697.1,315.8 709.1,337.1 721.0,338.8 733.0,364.0 744.9,362.4 756.8,357.8 768.8,357.6 780.7,332.9 792.7,337.8 804.6,318.8 816.6,311.3 828.5,314.5 840.5,311.2 852.4,294.3 864.3,276.1 876.3,292.6 888.2,291.1 900.2,291.9 912.1,306.7 924.1,308.4 936.0,297.9" />
  <circle cx="936.0" cy="297.9" r="4.5" fill="#0b84f3" />
  <text x="932.0" y="287.9" font-size="12" fill="#18212f">-123.63</text>
</svg>
