<?xml version="1.0" encoding="UTF-8"?>
<svg xmlns="http://www.w3.org/2000/svg" width="1080" height="520" viewBox="0 0 1080 520">
  <rect width="100%" height="100%" fill="#f7f9fc" />
  <text x="96" y="26" font-size="20" font-family="Arial, sans-serif" font-weight="700" fill="#18212f">Tourism sector stock group chart</text>
  <text x="96" y="48" font-size="12" font-family="Arial, sans-serif" fill="#445166">Cumulative NVDR NET by stock | 2026-01-01 to 2026-04-21</text>
  
      <line x1="96" y1="54.0" x2="890" y2="54.0" stroke="#d8dde6" stroke-width="1" />
      <text x="86" y="58.0" text-anchor="end" font-size="12" fill="#445166">1,822.57</text>
    
      <line x1="96" y1="136.0" x2="890" y2="136.0" stroke="#d8dde6" stroke-width="1" />
      <text x="86" y="140.0" text-anchor="end" font-size="12" fill="#445166">1,250.43</text>
    
      <line x1="96" y1="218.0" x2="890" y2="218.0" stroke="#d8dde6" stroke-width="1" />
      <text x="86" y="222.0" text-anchor="end" font-size="12" fill="#445166">678.29</text>
    
      <line x1="96" y1="300.0" x2="890" y2="300.0" stroke="#d8dde6" stroke-width="1" />
      <text x="86" y="304.0" text-anchor="end" font-size="12" fill="#445166">106.15</text>
    
      <line x1="96" y1="382.0" x2="890" y2="382.0" stroke="#d8dde6" stroke-width="1" />
      <text x="86" y="386.0" text-anchor="end" font-size="12" fill="#445166">-465.99</text>
    
      <line x1="96" y1="464.0" x2="890" y2="464.0" stroke="#d8dde6" stroke-width="1" />
      <text x="86" y="468.0" text-anchor="end" font-size="12" fill="#445166">-1,038.13</text>
    
  <line x1="96" y1="315.2" x2="890" y2="315.2" stroke="#7a8799" stroke-width="1.4" stroke-dasharray="4 4" />
  <line x1="96" y1="54" x2="96" y2="464" stroke="#445166" stroke-width="1.2" />
  <line x1="96" y1="464" x2="890" y2="464" stroke="#445166" stroke-width="1.2" />
  
      <line x1="96.0" y1="464" x2="96.0" y2="470" stroke="#445166" stroke-width="1" />
      <text x="96.0" y="486" text-anchor="middle" font-size="12" fill="#445166">2026-01-05</text>
    
      <line x1="487.4" y1="464" x2="487.4" y2="470" stroke="#445166" stroke-width="1" />
      <text x="487.4" y="486" text-anchor="middle" font-size="12" fill="#445166">2026-02-23</text>
    
      <line x1="890.0" y1="464" x2="890.0" y2="470" stroke="#445166" stroke-width="1" />
      <text x="890.0" y="486" text-anchor="middle" font-size="12" fill="#445166">2026-04-21</text>
    
  <polyline fill="none" stroke="#0b84f3" stroke-width="2.2" points="96.0,317.2 107.2,317.6 118.4,319.9 129.5,320.9 140.7,320.5 151.9,319.2 163.1,317.1 174.3,316.8 185.5,315.0 196.6,316.0 207.8,314.6 219.0,302.4 230.2,302.2 241.4,302.5 252.6,303.6 263.7,301.6 274.9,297.7 286.1,297.1 297.3,298.5 308.5,298.9 319.7,298.8 330.8,297.9 342.0,294.2 353.2,289.0 364.4,289.1 375.6,282.6 386.8,282.0 397.9,282.7 409.1,280.3 420.3,280.4 431.5,280.6 442.7,283.1 453.9,282.4 465.0,283.8 476.2,285.3 487.4,286.1 498.6,287.7 509.8,262.8 521.0,261.2 532.1,260.8 543.3,261.9 554.5,260.9 565.7,267.7 576.9,261.6 588.1,253.8 599.2,258.7 610.4,258.1 621.6,257.7 632.8,259.3 644.0,255.9 655.2,262.9 666.3,264.5 677.5,269.5 688.7,270.6 699.9,263.3 711.1,261.6 722.3,263.4 733.4,268.8 744.6,269.9 755.8,267.6 767.0,266.6 778.2,265.4 789.4,264.5 800.5,266.4 811.7,265.0 822.9,262.8 834.1,268.1 845.3,267.4 856.5,261.7 867.6,260.2 878.8,251.2 890.0,249.9" /><circle cx="890.0" cy="249.9" r="3.5" fill="#0b84f3" /><polyline fill="none" stroke="#f39c12" stroke-width="2.2" points="96.0,316.7 107.2,316.6 118.4,316.2 129.5,316.1 140.7,315.4 151.9,315.9 163.1,316.3 174.3,316.2 185.5,316.0 196.6,316.3 207.8,316.3 219.0,316.3 230.2,315.9 241.4,315.9 252.6,316.1 263.7,315.0 274.9,302.4 286.1,304.1 297.3,304.5 308.5,304.3 319.7,304.3 330.8,303.7 342.0,304.0 353.2,303.4 364.4,304.2 375.6,306.2 386.8,301.2 397.9,300.2 409.1,295.9 420.3,294.4 431.5,296.9 442.7,294.6 453.9,289.2 465.0,288.0 476.2,282.2 487.4,280.5 498.6,277.9 509.8,279.0 521.0,280.8 532.1,280.2 543.3,279.5 554.5,277.8 565.7,276.9 576.9,275.0 588.1,271.7 599.2,275.5 610.4,278.5 621.6,279.1 632.8,280.1 644.0,280.5 655.2,286.4 666.3,288.5 677.5,291.4 688.7,291.4 699.9,289.7 711.1,292.2 722.3,293.2 733.4,295.6 744.6,296.4 755.8,295.4 767.0,297.4 778.2,297.6 789.4,298.5 800.5,300.5 811.7,301.4 822.9,299.5 834.1,302.2 845.3,303.7 856.5,303.0 867.6,303.3 878.8,304.3 890.0,305.2" /><circle cx="890.0" cy="305.2" r="3.5" fill="#f39c12" /><polyline fill="none" stroke="#27ae60" stroke-width="2.2" points="96.0,304.5 107.2,297.9 118.4,277.2 129.5,264.4 140.7,261.9 151.9,254.3 163.1,242.6 174.3,210.2 185.5,154.5 196.6,132.1 207.8,132.4 219.0,139.3 230.2,149.0 241.4,156.3 252.6,155.1 263.7,152.6 274.9,150.4 286.1,150.2 297.3,152.4 308.5,151.9 319.7,133.0 330.8,85.2 342.0,73.5 353.2,57.4 364.4,54.0 375.6,56.6 386.8,59.6 397.9,64.9 409.1,68.5 420.3,76.0 431.5,80.7 442.7,89.2 453.9,89.5 465.0,90.1 476.2,77.4 487.4,70.6 498.6,63.0 509.8,57.8 521.0,57.0 532.1,64.0 543.3,78.6 554.5,82.8 565.7,132.8 576.9,151.4 588.1,152.3 599.2,185.8 610.4,220.9 621.6,265.5 632.8,269.1 644.0,295.3 655.2,336.9 666.3,354.9 677.5,363.6 688.7,390.3 699.9,412.1 711.1,418.2 722.3,428.6 733.4,440.4 744.6,448.3 755.8,452.4 767.0,464.0 778.2,458.1 789.4,453.1 800.5,457.0 811.7,436.2 822.9,415.8 834.1,431.9 845.3,431.3 856.5,415.6 867.6,418.5 878.8,423.7 890.0,441.8" /><circle cx="890.0" cy="441.8" r="3.5" fill="#27ae60" />
  
      <line x1="900" y1="70" x2="920" y2="70" stroke="#0b84f3" stroke-width="3" />
      <text x="928" y="74" font-size="12" fill="#18212f">CENTEL</text>
    
      <line x1="900" y1="92" x2="920" y2="92" stroke="#f39c12" stroke-width="3" />
      <text x="928" y="96" font-size="12" fill="#18212f">ERW</text>
    
      <line x1="900" y1="114" x2="920" y2="114" stroke="#27ae60" stroke-width="3" />
      <text x="928" y="118" font-size="12" fill="#18212f">MINT</text>
    
</svg>
