<?xml version="1.0" encoding="UTF-8"?>
<svg xmlns="http://www.w3.org/2000/svg" width="1080" height="520" viewBox="0 0 1080 520">
  <rect width="100%" height="100%" fill="#f7f9fc" />
  <text x="96" y="26" font-size="20" font-family="Arial, sans-serif" font-weight="700" fill="#18212f">Finance sector stock group chart</text>
  <text x="96" y="48" font-size="12" font-family="Arial, sans-serif" fill="#445166">Cumulative NVDR NET by stock | 2026-01-01 to 2026-04-21</text>
  
      <line x1="96" y1="54.0" x2="890" y2="54.0" stroke="#d8dde6" stroke-width="1" />
      <text x="86" y="58.0" text-anchor="end" font-size="12" fill="#445166">1,734.48</text>
    
      <line x1="96" y1="136.0" x2="890" y2="136.0" stroke="#d8dde6" stroke-width="1" />
      <text x="86" y="140.0" text-anchor="end" font-size="12" fill="#445166">1,157.19</text>
    
      <line x1="96" y1="218.0" x2="890" y2="218.0" stroke="#d8dde6" stroke-width="1" />
      <text x="86" y="222.0" text-anchor="end" font-size="12" fill="#445166">579.90</text>
    
      <line x1="96" y1="300.0" x2="890" y2="300.0" stroke="#d8dde6" stroke-width="1" />
      <text x="86" y="304.0" text-anchor="end" font-size="12" fill="#445166">2.62</text>
    
      <line x1="96" y1="382.0" x2="890" y2="382.0" stroke="#d8dde6" stroke-width="1" />
      <text x="86" y="386.0" text-anchor="end" font-size="12" fill="#445166">-574.67</text>
    
      <line x1="96" y1="464.0" x2="890" y2="464.0" stroke="#d8dde6" stroke-width="1" />
      <text x="86" y="468.0" text-anchor="end" font-size="12" fill="#445166">-1,151.96</text>
    
  <line x1="96" y1="300.4" x2="890" y2="300.4" stroke="#7a8799" stroke-width="1.4" stroke-dasharray="4 4" />
  <line x1="96" y1="54" x2="96" y2="464" stroke="#445166" stroke-width="1.2" />
  <line x1="96" y1="464" x2="890" y2="464" stroke="#445166" stroke-width="1.2" />
  
      <line x1="96.0" y1="464" x2="96.0" y2="470" stroke="#445166" stroke-width="1" />
      <text x="96.0" y="486" text-anchor="middle" font-size="12" fill="#445166">2026-01-05</text>
    
      <line x1="487.4" y1="464" x2="487.4" y2="470" stroke="#445166" stroke-width="1" />
      <text x="487.4" y="486" text-anchor="middle" font-size="12" fill="#445166">2026-02-23</text>
    
      <line x1="890.0" y1="464" x2="890.0" y2="470" stroke="#445166" stroke-width="1" />
      <text x="890.0" y="486" text-anchor="middle" font-size="12" fill="#445166">2026-04-21</text>
    
  <polyline fill="none" stroke="#0b84f3" stroke-width="2.2" points="96.0,301.1 107.2,301.5 118.4,302.2 129.5,303.9 140.7,306.2 151.9,306.8 163.1,307.5 174.3,308.2 185.5,308.7 196.6,309.4 207.8,310.3 219.0,312.6 230.2,312.2 241.4,315.0 252.6,314.1 263.7,314.1 274.9,314.3 286.1,317.3 297.3,318.2 308.5,319.5 319.7,321.2 330.8,323.0 342.0,323.7 353.2,322.6 364.4,327.6 375.6,324.0 386.8,324.1 397.9,325.7 409.1,324.0 420.3,329.0 431.5,330.2 442.7,328.8 453.9,330.8 465.0,337.9 476.2,349.8 487.4,356.7 498.6,358.8 509.8,357.2 521.0,355.4 532.1,358.5 543.3,362.3 554.5,359.8 565.7,359.6 576.9,360.2 588.1,360.2 599.2,359.4 610.4,360.0 621.6,359.3 632.8,359.4 644.0,359.6 655.2,359.6 666.3,359.6 677.5,359.5 688.7,359.1 699.9,356.5 711.1,356.3 722.3,355.4 733.4,356.6 744.6,356.4 755.8,355.5 767.0,354.0 778.2,350.8 789.4,351.5 800.5,351.7 811.7,351.8 822.9,342.8 834.1,344.4 845.3,342.2 856.5,343.4 867.6,344.6 878.8,344.6 890.0,344.8" /><circle cx="890.0" cy="344.8" r="3.5" fill="#0b84f3" /><polyline fill="none" stroke="#f39c12" stroke-width="2.2" points="96.0,301.9 107.2,303.3 118.4,302.4 129.5,302.5 140.7,303.8 151.9,307.6 163.1,307.4 174.3,309.8 185.5,311.6 196.6,311.2 207.8,309.0 219.0,308.2 230.2,307.4 241.4,311.1 252.6,312.5 263.7,311.7 274.9,311.2 286.1,313.0 297.3,313.3 308.5,314.0 319.7,316.0 330.8,316.5 342.0,318.3 353.2,319.0 364.4,319.3 375.6,317.7 386.8,319.6 397.9,317.6 409.1,317.4 420.3,319.5 431.5,320.1 442.7,313.7 453.9,302.0 465.0,293.8 476.2,306.4 487.4,317.7 498.6,317.5 509.8,320.0 521.0,319.9 532.1,317.9 543.3,319.5 554.5,319.3 565.7,318.1 576.9,318.8 588.1,317.7 599.2,317.2 610.4,317.6 621.6,317.4 632.8,318.6 644.0,318.0 655.2,314.9 666.3,315.6 677.5,316.4 688.7,319.1 699.9,319.1 711.1,320.4 722.3,319.2 733.4,319.9 744.6,317.9 755.8,316.6 767.0,314.2 778.2,312.8 789.4,312.9 800.5,310.3 811.7,308.8 822.9,307.0 834.1,308.1 845.3,308.1 856.5,307.1 867.6,308.4 878.8,309.5 890.0,317.6" /><circle cx="890.0" cy="317.6" r="3.5" fill="#f39c12" /><polyline fill="none" stroke="#27ae60" stroke-width="2.2" points="96.0,300.0 107.2,300.3 118.4,298.2 129.5,300.8 140.7,301.3 151.9,301.6 163.1,301.8 174.3,301.0 185.5,298.7 196.6,300.1 207.8,296.7 219.0,293.7 230.2,292.5 241.4,291.4 252.6,291.1 263.7,289.5 274.9,287.5 286.1,289.3 297.3,289.8 308.5,291.5 319.7,289.5 330.8,288.1 342.0,291.2 353.2,288.9 364.4,292.4 375.6,276.5 386.8,282.5 397.9,286.4 409.1,275.0 420.3,278.6 431.5,280.9 442.7,281.3 453.9,282.6 465.0,286.2 476.2,287.7 487.4,287.7 498.6,289.2 509.8,296.7 521.0,301.0 532.1,294.5 543.3,292.3 554.5,292.8 565.7,296.4 576.9,296.5 588.1,290.9 599.2,293.6 610.4,294.9 621.6,293.7 632.8,298.0 644.0,297.9 655.2,297.6 666.3,305.3 677.5,306.2 688.7,307.4 699.9,308.0 711.1,308.4 722.3,308.9 733.4,311.8 744.6,311.9 755.8,309.1 767.0,310.1 778.2,309.9 789.4,311.0 800.5,313.7 811.7,313.8 822.9,312.4 834.1,315.1 845.3,315.4 856.5,313.3 867.6,313.9 878.8,312.4 890.0,309.1" /><circle cx="890.0" cy="309.1" r="3.5" fill="#27ae60" /><polyline fill="none" stroke="#c0392b" stroke-width="2.2" points="96.0,303.5 107.2,306.3 118.4,309.1 129.5,323.1 140.7,325.3 151.9,330.7 163.1,334.5 174.3,332.4 185.5,298.4 196.6,286.3 207.8,273.3 219.0,269.6 230.2,257.5 241.4,240.6 252.6,227.5 263.7,213.1 274.9,193.3 286.1,191.7 297.3,183.7 308.5,151.3 319.7,156.8 330.8,147.6 342.0,155.7 353.2,154.0 364.4,160.8 375.6,134.2 386.8,139.1 397.9,145.9 409.1,125.5 420.3,133.9 431.5,87.0 442.7,54.0 453.9,79.4 465.0,97.5 476.2,90.7 487.4,100.6 498.6,84.3 509.8,95.8 521.0,91.2 532.1,82.8 543.3,68.5 554.5,98.2 565.7,142.9 576.9,157.9 588.1,158.5 599.2,188.0 610.4,195.6 621.6,234.6 632.8,248.9 644.0,264.8 655.2,267.8 666.3,282.2 677.5,297.4 688.7,302.1 699.9,313.6 711.1,319.0 722.3,320.8 733.4,327.1 744.6,321.2 755.8,312.7 767.0,315.9 778.2,310.0 789.4,320.8 800.5,328.1 811.7,325.6 822.9,332.2 834.1,354.0 845.3,359.2 856.5,351.5 867.6,367.3 878.8,344.8 890.0,352.2" /><circle cx="890.0" cy="352.2" r="3.5" fill="#c0392b" /><polyline fill="none" stroke="#8e44ad" stroke-width="2.2" points="96.0,298.6 107.2,293.3 118.4,289.3 129.5,292.1 140.7,292.0 151.9,283.0 163.1,255.1 174.3,245.3 185.5,251.3 196.6,251.9 207.8,260.9 219.0,269.2 230.2,280.8 241.4,288.0 252.6,283.0 263.7,281.6 274.9,276.2 286.1,281.1 297.3,279.5 308.5,274.9 319.7,255.3 330.8,249.0 342.0,256.2 353.2,252.4 364.4,262.4 375.6,252.6 386.8,260.9 397.9,260.1 409.1,263.6 420.3,262.9 431.5,262.4 442.7,257.6 453.9,258.5 465.0,269.7 476.2,270.2 487.4,255.4 498.6,254.8 509.8,257.3 521.0,264.7 532.1,262.5 543.3,256.6 554.5,263.3 565.7,280.6 576.9,270.8 588.1,247.7 599.2,253.5 610.4,255.8 621.6,258.6 632.8,264.0 644.0,264.1 655.2,274.8 666.3,266.9 677.5,264.5 688.7,277.3 699.9,282.3 711.1,285.5 722.3,317.3 733.4,340.6 744.6,352.0 755.8,350.8 767.0,362.3 778.2,363.9 789.4,364.8 800.5,366.4 811.7,358.6 822.9,342.9 834.1,356.0 845.3,357.0 856.5,360.2 867.6,361.2 878.8,355.8 890.0,362.3" /><circle cx="890.0" cy="362.3" r="3.5" fill="#8e44ad" /><polyline fill="none" stroke="#16a085" stroke-width="2.2" points="96.0,299.4 107.2,301.2 118.4,300.6 129.5,314.8 140.7,301.6 151.9,300.9 163.1,280.1 174.3,272.7 185.5,278.9 196.6,293.0 207.8,300.5 219.0,306.1 230.2,312.0 241.4,320.4 252.6,325.9 263.7,319.7 274.9,325.0 286.1,329.8 297.3,328.6 308.5,316.9 319.7,308.0 330.8,302.1 342.0,302.2 353.2,297.4 364.4,306.3 375.6,291.8 386.8,304.4 397.9,314.6 409.1,315.9 420.3,318.7 431.5,323.1 442.7,324.5 453.9,318.3 465.0,332.8 476.2,337.9 487.4,334.8 498.6,327.0 509.8,335.4 521.0,336.4 532.1,337.6 543.3,341.1 554.5,338.0 565.7,339.2 576.9,340.7 588.1,335.8 599.2,340.1 610.4,341.8 621.6,339.0 632.8,348.9 644.0,350.4 655.2,354.9 666.3,351.9 677.5,349.3 688.7,345.9 699.9,338.7 711.1,334.3 722.3,340.7 733.4,344.0 744.6,338.8 755.8,329.8 767.0,338.1 778.2,341.7 789.4,349.1 800.5,348.0 811.7,344.0 822.9,339.0 834.1,350.9 845.3,352.4 856.5,353.5 867.6,353.1 878.8,350.3 890.0,352.0" /><circle cx="890.0" cy="352.0" r="3.5" fill="#16a085" /><polyline fill="none" stroke="#2c3e50" stroke-width="2.2" points="96.0,302.1 107.2,291.4 118.4,289.4 129.5,288.5 140.7,287.6 151.9,284.5 163.1,270.3 174.3,260.3 185.5,253.6 196.6,261.1 207.8,266.5 219.0,274.4 230.2,277.3 241.4,279.6 252.6,275.0 263.7,273.9 274.9,267.2 286.1,268.2 297.3,268.7 308.5,271.6 319.7,271.3 330.8,265.9 342.0,271.0 353.2,268.0 364.4,272.7 375.6,275.1 386.8,275.2 397.9,278.5 409.1,276.9 420.3,273.7 431.5,273.1 442.7,267.0 453.9,258.2 465.0,264.6 476.2,262.0 487.4,272.8 498.6,275.2 509.8,271.0 521.0,277.3 532.1,288.2 543.3,289.3 554.5,302.1 565.7,320.2 576.9,327.7 588.1,340.9 599.2,348.9 610.4,354.7 621.6,362.5 632.8,367.9 644.0,368.1 655.2,378.0 666.3,385.5 677.5,389.8 688.7,404.6 699.9,404.8 711.1,404.7 722.3,423.9 733.4,438.3 744.6,444.0 755.8,441.5 767.0,439.8 778.2,448.3 789.4,456.9 800.5,459.1 811.7,456.3 822.9,441.4 834.1,444.4 845.3,445.1 856.5,455.3 867.6,461.0 878.8,464.0 890.0,460.7" /><circle cx="890.0" cy="460.7" r="3.5" fill="#2c3e50" />
  
      <line x1="900" y1="70" x2="920" y2="70" stroke="#0b84f3" stroke-width="3" />
      <text x="928" y="74" font-size="12" fill="#18212f">AEONTS</text>
    
      <line x1="900" y1="92" x2="920" y2="92" stroke="#f39c12" stroke-width="3" />
      <text x="928" y="96" font-size="12" fill="#18212f">BAM</text>
    
      <line x1="900" y1="114" x2="920" y2="114" stroke="#27ae60" stroke-width="3" />
      <text x="928" y="118" font-size="12" fill="#18212f">JMT</text>
    
      <line x1="900" y1="136" x2="920" y2="136" stroke="#c0392b" stroke-width="3" />
      <text x="928" y="140" font-size="12" fill="#18212f">KTC</text>
    
      <line x1="900" y1="158" x2="920" y2="158" stroke="#8e44ad" stroke-width="3" />
      <text x="928" y="162" font-size="12" fill="#18212f">MTC</text>
    
      <line x1="900" y1="180" x2="920" y2="180" stroke="#16a085" stroke-width="3" />
      <text x="928" y="184" font-size="12" fill="#18212f">SAWAD</text>
    
      <line x1="900" y1="202" x2="920" y2="202" stroke="#2c3e50" stroke-width="3" />
      <text x="928" y="206" font-size="12" fill="#18212f">TIDLOR</text>
    
</svg>
