<?xml version="1.0" encoding="UTF-8"?>
<svg xmlns="http://www.w3.org/2000/svg" width="960" height="420" viewBox="0 0 960 420">
  <rect width="100%" height="100%" fill="#f7f9fc" />
  <text x="88" y="24" font-size="20" font-family="Arial, sans-serif" font-weight="700" fill="#18212f">Finance sector cumulative NVDR NET (2026-01-01 to 2026-04-21)</text>
  <text x="88" y="46" font-size="12" font-family="Arial, sans-serif" fill="#445166">Unit: million baht, based on NVDR Turnover (Net) from value view</text>
  
      <line x1="88" y1="36.0" x2="936" y2="36.0" stroke="#d8dde6" stroke-width="1" />
      <text x="78" y="40.0" text-anchor="end" font-size="12" fill="#445166">1940.13</text>
    
      <line x1="88" y1="101.6" x2="936" y2="101.6" stroke="#d8dde6" stroke-width="1" />
      <text x="78" y="105.6" text-anchor="end" font-size="12" fill="#445166">979.47</text>
    
      <line x1="88" y1="167.2" x2="936" y2="167.2" stroke="#d8dde6" stroke-width="1" />
      <text x="78" y="171.2" text-anchor="end" font-size="12" fill="#445166">18.81</text>
    
      <line x1="88" y1="232.8" x2="936" y2="232.8" stroke="#d8dde6" stroke-width="1" />
      <text x="78" y="236.8" text-anchor="end" font-size="12" fill="#445166">-941.86</text>
    
      <line x1="88" y1="298.4" x2="936" y2="298.4" stroke="#d8dde6" stroke-width="1" />
      <text x="78" y="302.4" text-anchor="end" font-size="12" fill="#445166">-1902.52</text>
    
      <line x1="88" y1="364.0" x2="936" y2="364.0" stroke="#d8dde6" stroke-width="1" />
      <text x="78" y="368.0" text-anchor="end" font-size="12" fill="#445166">-2863.18</text>
    
  <line x1="88" y1="168.5" x2="936" y2="168.5" stroke="#7a8799" stroke-width="1.4" stroke-dasharray="4 4" />
  <line x1="88" y1="36" x2="88" y2="364" stroke="#445166" stroke-width="1.2" />
  <line x1="88" y1="364" x2="936" y2="364" stroke="#445166" stroke-width="1.2" />
  
      <line x1="88.0" y1="364" x2="88.0" y2="370" stroke="#445166" stroke-width="1" />
      <text x="88.0" y="386" text-anchor="middle" font-size="12" fill="#445166">2026-01-05</text>
    
      <line x1="506.0" y1="364" x2="506.0" y2="370" stroke="#445166" stroke-width="1" />
      <text x="506.0" y="386" text-anchor="middle" font-size="12" fill="#445166">2026-02-23</text>
    
      <line x1="936.0" y1="364" x2="936.0" y2="370" stroke="#445166" stroke-width="1" />
      <text x="936.0" y="386" text-anchor="middle" font-size="12" fill="#445166">2026-04-21</text>
    
  <polyline fill="none" stroke="#0b84f3" stroke-width="3" points="88.0,170.5 99.9,165.9 111.9,163.0 123.8,179.7 135.8,175.8 147.7,174.4 159.7,146.4 171.6,133.5 183.5,119.7 195.5,125.4 207.4,127.4 219.4,135.4 231.3,138.2 243.3,141.4 255.2,133.2 267.2,120.8 279.1,107.0 291.0,114.5 303.0,110.4 314.9,90.1 326.9,79.8 338.8,67.3 350.8,79.9 362.7,72.2 374.6,91.0 386.6,57.5 398.5,73.9 410.5,84.9 422.4,70.3 434.4,78.9 446.3,60.0 458.3,36.0 470.2,37.4 482.1,62.7 494.1,73.4 506.0,83.5 518.0,74.4 529.9,87.2 541.9,93.2 553.8,91.3 565.7,85.3 577.7,106.4 589.6,146.6 601.6,154.1 613.5,144.0 625.5,167.6 637.4,176.9 649.4,198.5 661.3,218.0 673.2,226.3 685.2,238.2 697.1,247.6 709.1,255.3 721.0,270.8 733.0,274.4 744.9,277.2 756.8,304.8 768.8,329.9 780.7,331.8 792.7,319.2 804.6,328.0 816.6,329.4 828.5,343.7 840.5,348.7 852.4,339.8 864.3,320.0 876.3,346.5 888.2,349.6 900.2,352.0 912.1,364.0 924.1,350.6 936.0,359.0" />
  <circle cx="936.0" cy="359.0" r="4.5" fill="#0b84f3" />
  <text x="932.0" y="349.0" font-size="12" fill="#18212f">-2789.61</text>
</svg>
