<?xml version="1.0" encoding="UTF-8"?>
<svg xmlns="http://www.w3.org/2000/svg" width="960" height="420" viewBox="0 0 960 420">
  <rect width="100%" height="100%" fill="#f7f9fc" />
  <text x="88" y="24" font-size="20" font-family="Arial, sans-serif" font-weight="700" fill="#18212f">Tourism sector cumulative NVDR NET (2026-01-01 to 2026-04-21)</text>
  <text x="88" y="46" font-size="12" font-family="Arial, sans-serif" fill="#445166">Unit: million baht, based on NVDR Turnover (Net) from value view</text>
  
      <line x1="88" y1="36.0" x2="936" y2="36.0" stroke="#d8dde6" stroke-width="1" />
      <text x="78" y="40.0" text-anchor="end" font-size="12" fill="#445166">2418.97</text>
    
      <line x1="88" y1="101.6" x2="936" y2="101.6" stroke="#d8dde6" stroke-width="1" />
      <text x="78" y="105.6" text-anchor="end" font-size="12" fill="#445166">1820.26</text>
    
      <line x1="88" y1="167.2" x2="936" y2="167.2" stroke="#d8dde6" stroke-width="1" />
      <text x="78" y="171.2" text-anchor="end" font-size="12" fill="#445166">1221.55</text>
    
      <line x1="88" y1="232.8" x2="936" y2="232.8" stroke="#d8dde6" stroke-width="1" />
      <text x="78" y="236.8" text-anchor="end" font-size="12" fill="#445166">622.83</text>
    
      <line x1="88" y1="298.4" x2="936" y2="298.4" stroke="#d8dde6" stroke-width="1" />
      <text x="78" y="302.4" text-anchor="end" font-size="12" fill="#445166">24.12</text>
    
      <line x1="88" y1="364.0" x2="936" y2="364.0" stroke="#d8dde6" stroke-width="1" />
      <text x="78" y="368.0" text-anchor="end" font-size="12" fill="#445166">-574.59</text>
    
  <line x1="88" y1="301.0" x2="936" y2="301.0" stroke="#7a8799" stroke-width="1.4" stroke-dasharray="4 4" />
  <line x1="88" y1="36" x2="88" y2="364" stroke="#445166" stroke-width="1.2" />
  <line x1="88" y1="364" x2="936" y2="364" stroke="#445166" stroke-width="1.2" />
  
      <line x1="88.0" y1="364" x2="88.0" y2="370" stroke="#445166" stroke-width="1" />
      <text x="88.0" y="386" text-anchor="middle" font-size="12" fill="#445166">2026-01-05</text>
    
      <line x1="506.0" y1="364" x2="506.0" y2="370" stroke="#445166" stroke-width="1" />
      <text x="506.0" y="386" text-anchor="middle" font-size="12" fill="#445166">2026-02-23</text>
    
      <line x1="936.0" y1="364" x2="936.0" y2="370" stroke="#445166" stroke-width="1" />
      <text x="936.0" y="386" text-anchor="middle" font-size="12" fill="#445166">2026-04-21</text>
    
  <polyline fill="none" stroke="#0b84f3" stroke-width="3" points="88.0,295.6 99.9,290.7 111.9,276.3 123.8,267.2 135.8,264.4 147.7,258.0 159.7,247.8 171.6,222.7 183.5,178.6 195.5,162.5 207.4,161.7 219.4,157.7 231.3,164.5 243.3,170.4 255.2,170.4 267.2,166.1 279.1,151.8 291.0,152.5 303.0,155.6 314.9,155.5 326.9,140.9 338.8,103.2 350.8,91.6 362.7,74.9 374.6,73.0 386.6,71.6 398.5,69.5 410.5,73.3 422.4,71.0 434.4,75.6 446.3,81.4 458.3,87.9 470.2,83.5 482.1,84.2 494.1,71.1 506.0,65.3 518.0,58.7 529.9,36.5 541.9,36.0 553.8,40.6 565.7,52.0 577.7,53.3 589.6,96.0 601.6,104.1 613.5,96.3 625.5,128.5 637.4,157.2 649.4,191.5 661.3,196.1 673.2,213.9 685.2,255.6 697.1,272.2 709.1,284.8 721.0,306.1 733.0,315.9 744.9,321.2 756.8,331.3 768.8,346.3 780.7,353.7 792.7,354.4 804.6,364.0 816.6,358.7 828.5,354.9 840.5,360.8 852.4,344.6 864.3,325.9 876.3,344.3 888.2,344.4 900.2,327.6 912.1,328.8 924.1,326.7 936.0,340.2" />
  <circle cx="936.0" cy="340.2" r="4.5" fill="#0b84f3" />
  <text x="932.0" y="330.2" font-size="12" fill="#18212f">-357.77</text>
</svg>
