<?xml version="1.0" encoding="UTF-8"?>
<svg xmlns="http://www.w3.org/2000/svg" width="1080" height="520" viewBox="0 0 1080 520">
  <rect width="100%" height="100%" fill="#f7f9fc" />
  <text x="96" y="26" font-size="20" font-family="Arial, sans-serif" font-weight="700" fill="#18212f">Energy sector stock group chart</text>
  <text x="96" y="48" font-size="12" font-family="Arial, sans-serif" fill="#445166">Cumulative NVDR NET by stock | 2026-01-01 to 2026-04-21</text>
  
      <line x1="96" y1="54.0" x2="890" y2="54.0" stroke="#d8dde6" stroke-width="1" />
      <text x="86" y="58.0" text-anchor="end" font-size="12" fill="#445166">23,044.48</text>
    
      <line x1="96" y1="136.0" x2="890" y2="136.0" stroke="#d8dde6" stroke-width="1" />
      <text x="86" y="140.0" text-anchor="end" font-size="12" fill="#445166">18,252.95</text>
    
      <line x1="96" y1="218.0" x2="890" y2="218.0" stroke="#d8dde6" stroke-width="1" />
      <text x="86" y="222.0" text-anchor="end" font-size="12" fill="#445166">13,461.43</text>
    
      <line x1="96" y1="300.0" x2="890" y2="300.0" stroke="#d8dde6" stroke-width="1" />
      <text x="86" y="304.0" text-anchor="end" font-size="12" fill="#445166">8,669.90</text>
    
      <line x1="96" y1="382.0" x2="890" y2="382.0" stroke="#d8dde6" stroke-width="1" />
      <text x="86" y="386.0" text-anchor="end" font-size="12" fill="#445166">3,878.38</text>
    
      <line x1="96" y1="464.0" x2="890" y2="464.0" stroke="#d8dde6" stroke-width="1" />
      <text x="86" y="468.0" text-anchor="end" font-size="12" fill="#445166">-913.15</text>
    
  <line x1="96" y1="448.4" x2="890" y2="448.4" stroke="#7a8799" stroke-width="1.4" stroke-dasharray="4 4" />
  <line x1="96" y1="54" x2="96" y2="464" stroke="#445166" stroke-width="1.2" />
  <line x1="96" y1="464" x2="890" y2="464" stroke="#445166" stroke-width="1.2" />
  
      <line x1="96.0" y1="464" x2="96.0" y2="470" stroke="#445166" stroke-width="1" />
      <text x="96.0" y="486" text-anchor="middle" font-size="12" fill="#445166">2026-01-05</text>
    
      <line x1="487.4" y1="464" x2="487.4" y2="470" stroke="#445166" stroke-width="1" />
      <text x="487.4" y="486" text-anchor="middle" font-size="12" fill="#445166">2026-02-23</text>
    
      <line x1="890.0" y1="464" x2="890.0" y2="470" stroke="#445166" stroke-width="1" />
      <text x="890.0" y="486" text-anchor="middle" font-size="12" fill="#445166">2026-04-21</text>
    
  <polyline fill="none" stroke="#0b84f3" stroke-width="2.2" points="96.0,447.5 107.2,447.7 118.4,445.0 129.5,445.6 140.7,445.1 151.9,444.6 163.1,441.9 174.3,441.3 185.5,441.1 196.6,440.7 207.8,440.8 219.0,440.0 230.2,438.5 241.4,436.8 252.6,436.0 263.7,435.8 274.9,435.8 286.1,435.3 297.3,435.7 308.5,436.6 319.7,436.7 330.8,437.3 342.0,436.6 353.2,437.2 364.4,437.4 375.6,436.7 386.8,435.8 397.9,436.0 409.1,436.3 420.3,437.1 431.5,438.0 442.7,438.5 453.9,438.8 465.0,440.2 476.2,441.1 487.4,440.9 498.6,440.7 509.8,441.2 521.0,442.0 532.1,442.2 543.3,443.1 554.5,443.7 565.7,439.1 576.9,440.4 588.1,442.7 599.2,442.6 610.4,442.7 621.6,442.7 632.8,440.2 644.0,442.6 655.2,442.6 666.3,443.5 677.5,442.6 688.7,443.4 699.9,439.6 711.1,441.8 722.3,441.1 733.4,442.4 744.6,440.3 755.8,438.4 767.0,439.1 778.2,439.2 789.4,439.4 800.5,440.2 811.7,440.1 822.9,440.3 834.1,439.9 845.3,440.5 856.5,438.1 867.6,440.8 878.8,441.1 890.0,441.4" /><circle cx="890.0" cy="441.4" r="3.5" fill="#0b84f3" /><polyline fill="none" stroke="#f39c12" stroke-width="2.2" points="96.0,447.9 107.2,445.0 118.4,444.6 129.5,444.8 140.7,444.3 151.9,443.8 163.1,444.3 174.3,445.4 185.5,444.9 196.6,445.8 207.8,445.6 219.0,445.7 230.2,445.9 241.4,445.8 252.6,445.7 263.7,445.5 274.9,446.0 286.1,444.8 297.3,443.5 308.5,444.1 319.7,442.9 330.8,441.5 342.0,439.2 353.2,437.2 364.4,434.0 375.6,431.8 386.8,428.4 397.9,424.9 409.1,418.6 420.3,413.8 431.5,409.3 442.7,405.9 453.9,404.3 465.0,402.8 476.2,402.4 487.4,402.6 498.6,400.1 509.8,399.0 521.0,399.5 532.1,397.4 543.3,398.5 554.5,399.3 565.7,399.8 576.9,400.6 588.1,401.9 599.2,401.8 610.4,400.8 621.6,398.6 632.8,398.8 644.0,398.7 655.2,397.1 666.3,396.1 677.5,394.8 688.7,393.9 699.9,393.6 711.1,393.0 722.3,392.7 733.4,392.2 744.6,392.2 755.8,392.1 767.0,392.9 778.2,391.9 789.4,390.3 800.5,390.4 811.7,388.4 822.9,389.1 834.1,389.5 845.3,389.4 856.5,388.8 867.6,388.8 878.8,389.0 890.0,388.9" /><circle cx="890.0" cy="388.9" r="3.5" fill="#f39c12" /><polyline fill="none" stroke="#27ae60" stroke-width="2.2" points="96.0,448.4 107.2,448.5 118.4,448.4 129.5,448.5 140.7,448.4 151.9,448.5 163.1,448.5 174.3,448.5 185.5,448.4 196.6,448.4 207.8,448.3 219.0,448.2 230.2,448.1 241.4,448.2 252.6,448.2 263.7,448.2 274.9,448.3 286.1,448.1 297.3,448.2 308.5,448.3 319.7,448.4 330.8,447.7 342.0,447.8 353.2,448.1 364.4,448.2 375.6,448.4 386.8,448.2 397.9,447.8 409.1,447.4 420.3,446.9 431.5,446.7 442.7,446.7 453.9,446.6 465.0,446.5 476.2,446.5 487.4,446.3 498.6,445.9 509.8,446.3 521.0,446.4 532.1,446.3 543.3,445.5 554.5,445.3 565.7,445.6 576.9,445.6 588.1,442.5 599.2,442.2 610.4,442.9 621.6,443.4 632.8,444.2 644.0,444.5 655.2,444.4 666.3,444.6 677.5,445.3 688.7,444.6 699.9,445.0 711.1,445.2 722.3,445.2 733.4,445.3 744.6,445.1 755.8,445.2 767.0,445.5 778.2,445.3 789.4,445.4 800.5,445.5 811.7,445.5 822.9,445.6 834.1,445.7 845.3,445.7 856.5,445.6 867.6,445.6 878.8,445.5 890.0,445.6" /><circle cx="890.0" cy="445.6" r="3.5" fill="#27ae60" /><polyline fill="none" stroke="#c0392b" stroke-width="2.2" points="96.0,448.4 107.2,447.8 118.4,447.2 129.5,447.4 140.7,447.7 151.9,448.0 163.1,448.4 174.3,448.4 185.5,448.2 196.6,448.8 207.8,448.8 219.0,448.4 230.2,449.2 241.4,449.6 252.6,449.8 263.7,449.7 274.9,449.8 286.1,449.9 297.3,450.3 308.5,450.4 319.7,450.4 330.8,448.4 342.0,448.7 353.2,449.0 364.4,449.3 375.6,448.4 386.8,448.5 397.9,448.0 409.1,447.1 420.3,445.2 431.5,445.8 442.7,444.5 453.9,443.6 465.0,443.7 476.2,444.3 487.4,443.3 498.6,441.6 509.8,441.8 521.0,441.6 532.1,441.0 543.3,443.0 554.5,443.8 565.7,445.8 576.9,446.0 588.1,446.4 599.2,447.3 610.4,447.3 621.6,446.8 632.8,447.7 644.0,447.8 655.2,447.0 666.3,447.5 677.5,448.5 688.7,448.0 699.9,447.4 711.1,447.1 722.3,447.3 733.4,447.2 744.6,447.2 755.8,446.8 767.0,446.6 778.2,447.5 789.4,447.6 800.5,447.7 811.7,447.4 822.9,445.8 834.1,447.1 845.3,447.5 856.5,447.0 867.6,446.7 878.8,445.8 890.0,446.1" /><circle cx="890.0" cy="446.1" r="3.5" fill="#c0392b" /><polyline fill="none" stroke="#8e44ad" stroke-width="2.2" points="96.0,448.3 107.2,448.3 118.4,448.0 129.5,448.2 140.7,448.2 151.9,448.1 163.1,447.9 174.3,447.6 185.5,447.5 196.6,446.5 207.8,446.2 219.0,446.0 230.2,445.3 241.4,445.1 252.6,445.2 263.7,445.4 274.9,445.5 286.1,445.5 297.3,445.5 308.5,445.5 319.7,445.5 330.8,445.4 342.0,445.3 353.2,445.3 364.4,445.2 375.6,444.5 386.8,443.0 397.9,442.2 409.1,440.6 420.3,440.3 431.5,440.3 442.7,439.3 453.9,438.3 465.0,437.5 476.2,439.1 487.4,439.0 498.6,439.4 509.8,440.0 521.0,440.4 532.1,440.5 543.3,442.2 554.5,442.6 565.7,442.8 576.9,442.8 588.1,442.6 599.2,442.9 610.4,443.1 621.6,443.2 632.8,443.4 644.0,443.5 655.2,443.5 666.3,443.9 677.5,444.0 688.7,444.0 699.9,444.1 711.1,444.1 722.3,444.0 733.4,444.1 744.6,444.1 755.8,443.8 767.0,443.5 778.2,443.4 789.4,443.6 800.5,443.6 811.7,443.7 822.9,443.6 834.1,443.7 845.3,443.8 856.5,443.6 867.6,443.7 878.8,443.6 890.0,443.7" /><circle cx="890.0" cy="443.7" r="3.5" fill="#8e44ad" /><polyline fill="none" stroke="#16a085" stroke-width="2.2" points="96.0,448.4 107.2,448.5 118.4,447.4 129.5,448.7 140.7,449.5 151.9,450.3 163.1,450.6 174.3,450.8 185.5,450.4 196.6,449.6 207.8,449.4 219.0,449.2 230.2,447.7 241.4,447.9 252.6,448.1 263.7,448.1 274.9,448.2 286.1,448.2 297.3,448.2 308.5,448.3 319.7,448.4 330.8,447.3 342.0,447.5 353.2,447.6 364.4,447.6 375.6,446.4 386.8,446.1 397.9,445.4 409.1,444.8 420.3,445.5 431.5,445.9 442.7,445.9 453.9,445.6 465.0,445.1 476.2,445.5 487.4,446.2 498.6,445.7 509.8,446.1 521.0,446.3 532.1,445.9 543.3,446.0 554.5,447.1 565.7,447.9 576.9,448.1 588.1,448.9 599.2,449.2 610.4,449.8 621.6,449.5 632.8,450.8 644.0,451.2 655.2,451.2 666.3,451.0 677.5,451.5 688.7,451.1 699.9,451.4 711.1,451.3 722.3,451.2 733.4,451.3 744.6,451.7 755.8,451.7 767.0,450.6 778.2,450.6 789.4,450.8 800.5,451.0 811.7,450.7 822.9,450.4 834.1,450.3 845.3,450.2 856.5,450.5 867.6,450.7 878.8,450.4 890.0,450.3" /><circle cx="890.0" cy="450.3" r="3.5" fill="#16a085" /><polyline fill="none" stroke="#2c3e50" stroke-width="2.2" points="96.0,448.1 107.2,447.1 118.4,447.1 129.5,447.0 140.7,447.4 151.9,447.4 163.1,447.8 174.3,447.9 185.5,447.4 196.6,446.8 207.8,447.3 219.0,447.3 230.2,447.2 241.4,447.6 252.6,447.6 263.7,447.3 274.9,447.4 286.1,447.9 297.3,448.4 308.5,448.6 319.7,449.2 330.8,450.1 342.0,451.2 353.2,451.4 364.4,450.6 375.6,448.1 386.8,447.5 397.9,446.6 409.1,444.8 420.3,442.5 431.5,441.3 442.7,440.0 453.9,439.6 465.0,439.2 476.2,438.8 487.4,438.7 498.6,437.5 509.8,438.5 521.0,438.2 532.1,438.1 543.3,438.3 554.5,437.9 565.7,439.5 576.9,442.0 588.1,442.2 599.2,444.7 610.4,446.0 621.6,446.3 632.8,447.2 644.0,447.6 655.2,446.6 666.3,447.1 677.5,448.2 688.7,447.1 699.9,445.4 711.1,445.3 722.3,445.7 733.4,445.9 744.6,445.9 755.8,446.0 767.0,447.0 778.2,448.3 789.4,449.3 800.5,449.4 811.7,449.2 822.9,449.2 834.1,450.7 845.3,451.0 856.5,451.3 867.6,452.0 878.8,451.9 890.0,452.6" /><circle cx="890.0" cy="452.6" r="3.5" fill="#2c3e50" /><polyline fill="none" stroke="#d35400" stroke-width="2.2" points="96.0,447.1 107.2,443.5 118.4,444.2 129.5,444.8 140.7,442.5 151.9,443.7 163.1,443.9 174.3,443.6 185.5,445.3 196.6,440.9 207.8,442.3 219.0,445.1 230.2,445.8 241.4,440.1 252.6,435.3 263.7,428.9 274.9,427.1 286.1,425.3 297.3,422.3 308.5,422.4 319.7,415.6 330.8,415.8 342.0,412.2 353.2,409.0 364.4,405.6 375.6,393.3 386.8,387.7 397.9,388.5 409.1,386.1 420.3,383.5 431.5,389.3 442.7,389.3 453.9,392.7 465.0,389.9 476.2,383.4 487.4,381.5 498.6,369.4 509.8,373.5 521.0,377.0 532.1,383.2 543.3,384.6 554.5,370.1 565.7,374.5 576.9,377.1 588.1,383.0 599.2,389.1 610.4,395.7 621.6,394.7 632.8,400.5 644.0,404.3 655.2,411.6 666.3,418.1 677.5,427.2 688.7,425.8 699.9,435.4 711.1,440.5 722.3,435.6 733.4,436.0 744.6,429.9 755.8,437.4 767.0,443.2 778.2,443.1 789.4,446.1 800.5,447.9 811.7,445.5 822.9,442.4 834.1,444.9 845.3,444.0 856.5,443.3 867.6,442.3 878.8,439.8 890.0,438.5" /><circle cx="890.0" cy="438.5" r="3.5" fill="#d35400" /><polyline fill="none" stroke="#7f8c8d" stroke-width="2.2" points="96.0,448.3 107.2,448.3 118.4,448.2 129.5,448.2 140.7,448.2 151.9,448.3 163.1,448.3 174.3,448.3 185.5,448.2 196.6,448.2 207.8,448.1 219.0,448.1 230.2,448.0 241.4,448.0 252.6,448.1 263.7,448.1 274.9,448.1 286.1,448.1 297.3,448.1 308.5,448.1 319.7,447.9 330.8,447.6 342.0,447.7 353.2,447.7 364.4,447.7 375.6,447.2 386.8,447.1 397.9,446.7 409.1,446.1 420.3,445.9 431.5,446.0 442.7,446.1 453.9,445.8 465.0,445.7 476.2,445.3 487.4,445.3 498.6,445.2 509.8,445.7 521.0,445.6 532.1,445.6 543.3,444.8 554.5,444.4 565.7,444.7 576.9,444.7 588.1,445.1 599.2,445.3 610.4,445.0 621.6,444.7 632.8,444.9 644.0,444.9 655.2,445.0 666.3,444.9 677.5,444.9 688.7,443.9 699.9,444.4 711.1,444.6 722.3,444.5 733.4,444.8 744.6,444.9 755.8,444.7 767.0,445.6 778.2,445.5 789.4,445.7 800.5,446.0 811.7,446.1 822.9,446.3 834.1,446.8 845.3,446.7 856.5,446.8 867.6,447.1 878.8,447.1 890.0,447.2" /><circle cx="890.0" cy="447.2" r="3.5" fill="#7f8c8d" /><polyline fill="none" stroke="#e84393" stroke-width="2.2" points="96.0,448.1 107.2,447.6 118.4,447.3 129.5,447.0 140.7,446.5 151.9,446.4 163.1,446.3 174.3,446.0 185.5,445.5 196.6,445.3 207.8,445.1 219.0,444.9 230.2,444.3 241.4,444.0 252.6,443.7 263.7,443.8 274.9,443.7 286.1,443.9 297.3,444.0 308.5,444.0 319.7,444.1 330.8,444.0 342.0,443.5 353.2,443.6 364.4,443.5 375.6,443.4 386.8,442.5 397.9,442.2 409.1,442.1 420.3,441.6 431.5,441.7 442.7,441.5 453.9,441.7 465.0,440.4 476.2,440.2 487.4,440.1 498.6,439.9 509.8,439.7 521.0,440.3 532.1,439.8 543.3,439.9 554.5,439.8 565.7,439.8 576.9,439.7 588.1,439.8 599.2,439.8 610.4,439.7 621.6,439.2 632.8,439.4 644.0,439.9 655.2,439.1 666.3,438.7 677.5,438.7 688.7,433.4 699.9,434.8 711.1,434.1 722.3,434.0 733.4,434.0 744.6,434.0 755.8,435.1 767.0,432.4 778.2,429.9 789.4,429.6 800.5,429.5 811.7,429.6 822.9,429.2 834.1,430.4 845.3,431.2 856.5,431.0 867.6,431.6 878.8,431.4 890.0,431.5" /><circle cx="890.0" cy="431.5" r="3.5" fill="#e84393" /><polyline fill="none" stroke="#6c5ce7" stroke-width="2.2" points="96.0,447.9 107.2,448.3 118.4,446.5 129.5,446.4 140.7,446.3 151.9,445.6 163.1,445.9 174.3,446.4 185.5,445.7 196.6,442.7 207.8,442.7 219.0,442.2 230.2,436.4 241.4,435.3 252.6,434.9 263.7,432.5 274.9,434.1 286.1,436.1 297.3,438.8 308.5,439.5 319.7,440.3 330.8,441.2 342.0,442.0 353.2,443.3 364.4,443.1 375.6,441.9 386.8,443.6 397.9,443.9 409.1,442.3 420.3,443.2 431.5,443.8 442.7,443.4 453.9,443.0 465.0,445.4 476.2,447.4 487.4,448.1 498.6,448.6 509.8,449.7 521.0,450.3 532.1,453.2 543.3,453.2 554.5,452.0 565.7,455.1 576.9,457.0 588.1,455.8 599.2,457.2 610.4,458.0 621.6,457.9 632.8,458.4 644.0,458.0 655.2,457.3 666.3,459.2 677.5,460.2 688.7,459.8 699.9,460.2 711.1,460.5 722.3,460.7 733.4,462.5 744.6,462.8 755.8,463.1 767.0,462.3 778.2,462.1 789.4,463.0 800.5,462.8 811.7,462.5 822.9,462.0 834.1,462.5 845.3,462.3 856.5,463.8 867.6,464.0 878.8,462.9 890.0,463.7" /><circle cx="890.0" cy="463.7" r="3.5" fill="#6c5ce7" /><polyline fill="none" stroke="#00b894" stroke-width="2.2" points="96.0,448.5 107.2,448.5 118.4,448.8 129.5,449.1 140.7,449.1 151.9,449.0 163.1,449.1 174.3,449.1 185.5,449.1 196.6,449.1 207.8,449.1 219.0,449.2 230.2,448.8 241.4,449.1 252.6,449.2 263.7,449.3 274.9,449.4 286.1,449.5 297.3,449.7 308.5,449.6 319.7,449.5 330.8,449.4 342.0,449.4 353.2,449.2 364.4,449.1 375.6,448.3 386.8,448.3 397.9,448.5 409.1,447.4 420.3,446.7 431.5,446.9 442.7,446.6 453.9,446.4 465.0,446.6 476.2,446.7 487.4,446.3 498.6,446.1 509.8,445.6 521.0,445.1 532.1,444.1 543.3,442.9 554.5,441.8 565.7,442.0 576.9,442.1 588.1,442.0 599.2,442.5 610.4,442.8 621.6,442.9 632.8,443.4 644.0,443.4 655.2,443.3 666.3,443.5 677.5,443.6 688.7,443.5 699.9,443.3 711.1,443.2 722.3,443.3 733.4,443.4 744.6,444.0 755.8,443.6 767.0,443.1 778.2,443.2 789.4,443.1 800.5,443.1 811.7,442.3 822.9,442.1 834.1,442.3 845.3,442.3 856.5,442.4 867.6,442.5 878.8,442.6 890.0,442.5" /><circle cx="890.0" cy="442.5" r="3.5" fill="#00b894" /><polyline fill="none" stroke="#0b84f3" stroke-width="2.2" points="96.0,447.6 107.2,447.1 118.4,444.8 129.5,443.5 140.7,439.9 151.9,436.1 163.1,431.2 174.3,416.5 185.5,412.9 196.6,404.4 207.8,403.3 219.0,399.0 230.2,392.1 241.4,384.5 252.6,377.0 263.7,370.0 274.9,349.3 286.1,341.7 297.3,345.4 308.5,338.2 319.7,331.5 330.8,325.0 342.0,316.0 353.2,288.6 364.4,286.4 375.6,274.4 386.8,269.9 397.9,265.4 409.1,241.3 420.3,239.1 431.5,230.9 442.7,227.5 453.9,224.1 465.0,201.9 476.2,200.5 487.4,208.9 498.6,202.2 509.8,191.4 521.0,205.7 532.1,206.1 543.3,223.6 554.5,224.8 565.7,224.5 576.9,219.6 588.1,220.1 599.2,228.4 610.4,227.8 621.6,229.9 632.8,235.3 644.0,243.8 655.2,236.9 666.3,235.0 677.5,231.3 688.7,236.5 699.9,236.7 711.1,237.4 722.3,236.7 733.4,227.6 744.6,222.1 755.8,222.7 767.0,225.4 778.2,220.8 789.4,209.3 800.5,211.9 811.7,205.2 822.9,203.5 834.1,202.4 845.3,207.7 856.5,213.8 867.6,210.2 878.8,205.4 890.0,208.7" /><circle cx="890.0" cy="208.7" r="3.5" fill="#0b84f3" /><polyline fill="none" stroke="#f39c12" stroke-width="2.2" points="96.0,447.5 107.2,446.2 118.4,451.5 129.5,451.9 140.7,450.5 151.9,447.0 163.1,447.2 174.3,442.4 185.5,433.0 196.6,431.1 207.8,426.4 219.0,425.5 230.2,421.4 241.4,413.4 252.6,409.6 263.7,407.0 274.9,404.7 286.1,398.8 297.3,400.0 308.5,399.9 319.7,392.7 330.8,394.8 342.0,385.8 353.2,384.2 364.4,368.2 375.6,365.7 386.8,358.3 397.9,356.9 409.1,330.3 420.3,326.4 431.5,325.5 442.7,319.5 453.9,325.2 465.0,311.0 476.2,312.2 487.4,310.6 498.6,304.2 509.8,310.6 521.0,311.6 532.1,298.8 543.3,316.7 554.5,318.1 565.7,308.4 576.9,313.0 588.1,325.4 599.2,322.9 610.4,306.2 621.6,297.9 632.8,273.2 644.0,280.3 655.2,262.3 666.3,263.6 677.5,234.8 688.7,231.9 699.9,223.2 711.1,217.4 722.3,210.1 733.4,183.4 744.6,166.2 755.8,164.8 767.0,155.0 778.2,149.5 789.4,141.4 800.5,149.8 811.7,139.8 822.9,131.1 834.1,112.3 845.3,102.8 856.5,87.9 867.6,66.2 878.8,57.7 890.0,54.0" /><circle cx="890.0" cy="54.0" r="3.5" fill="#f39c12" /><polyline fill="none" stroke="#27ae60" stroke-width="2.2" points="96.0,448.2 107.2,448.2 118.4,448.1 129.5,448.0 140.7,448.0 151.9,448.1 163.1,447.9 174.3,448.0 185.5,447.6 196.6,447.1 207.8,446.7 219.0,446.2 230.2,446.0 241.4,445.6 252.6,445.3 263.7,445.0 274.9,444.3 286.1,444.1 297.3,444.1 308.5,443.6 319.7,443.5 330.8,443.4 342.0,443.3 353.2,443.0 364.4,442.6 375.6,441.3 386.8,440.1 397.9,440.2 409.1,439.8 420.3,439.6 431.5,439.5 442.7,439.1 453.9,438.8 465.0,438.6 476.2,438.5 487.4,438.7 498.6,437.6 509.8,437.9 521.0,437.6 532.1,438.2 543.3,437.9 554.5,438.8 565.7,438.9 576.9,439.3 588.1,439.4 599.2,439.7 610.4,439.7 621.6,439.2 632.8,439.7 644.0,439.6 655.2,439.4 666.3,439.6 677.5,440.0 688.7,439.9 699.9,440.4 711.1,440.3 722.3,439.5 733.4,439.2 744.6,439.0 755.8,438.9 767.0,438.7 778.2,438.4 789.4,438.3 800.5,438.4 811.7,438.2 822.9,438.0 834.1,438.2 845.3,438.1 856.5,438.0 867.6,438.1 878.8,438.1 890.0,438.1" /><circle cx="890.0" cy="438.1" r="3.5" fill="#27ae60" /><polyline fill="none" stroke="#c0392b" stroke-width="2.2" points="96.0,448.4 107.2,448.2 118.4,448.6 129.5,448.8 140.7,448.1 151.9,447.6 163.1,447.1 174.3,447.2 185.5,446.9 196.6,446.7 207.8,446.6 219.0,446.6 230.2,445.8 241.4,445.5 252.6,445.4 263.7,445.2 274.9,445.4 286.1,443.6 297.3,443.6 308.5,443.2 319.7,443.4 330.8,443.6 342.0,442.2 353.2,442.3 364.4,442.2 375.6,442.0 386.8,442.5 397.9,441.9 409.1,442.1 420.3,442.0 431.5,442.1 442.7,442.1 453.9,442.0 465.0,441.1 476.2,441.4 487.4,441.3 498.6,441.0 509.8,440.9 521.0,440.9 532.1,440.5 543.3,441.0 554.5,440.0 565.7,439.5 576.9,438.7 588.1,439.6 599.2,439.0 610.4,437.7 621.6,436.8 632.8,437.7 644.0,438.8 655.2,438.7 666.3,438.9 677.5,438.6 688.7,438.6 699.9,438.6 711.1,438.4 722.3,438.2 733.4,437.9 744.6,436.5 755.8,436.3 767.0,437.6 778.2,438.2 789.4,438.7 800.5,438.9 811.7,437.2 822.9,437.2 834.1,437.5 845.3,437.7 856.5,438.2 867.6,438.7 878.8,438.6 890.0,437.6" /><circle cx="890.0" cy="437.6" r="3.5" fill="#c0392b" /><polyline fill="none" stroke="#8e44ad" stroke-width="2.2" points="96.0,445.2 107.2,437.0 118.4,434.6 129.5,434.2 140.7,432.5 151.9,430.9 163.1,430.3 174.3,430.7 185.5,429.6 196.6,432.4 207.8,432.6 219.0,432.7 230.2,426.8 241.4,426.9 252.6,425.8 263.7,426.9 274.9,426.5 286.1,424.8 297.3,425.5 308.5,425.4 319.7,425.2 330.8,424.4 342.0,419.2 353.2,414.4 364.4,409.8 375.6,408.7 386.8,402.6 397.9,399.4 409.1,396.5 420.3,393.6 431.5,392.5 442.7,390.1 453.9,388.3 465.0,380.0 476.2,378.4 487.4,379.3 498.6,373.9 509.8,373.3 521.0,370.8 532.1,367.0 543.3,369.9 554.5,368.8 565.7,371.7 576.9,373.1 588.1,368.4 599.2,369.1 610.4,370.8 621.6,372.0 632.8,376.2 644.0,376.9 655.2,379.6 666.3,381.9 677.5,382.2 688.7,379.1 699.9,379.4 711.1,376.9 722.3,377.5 733.4,379.9 744.6,380.5 755.8,379.8 767.0,383.5 778.2,384.4 789.4,384.4 800.5,383.6 811.7,378.2 822.9,379.2 834.1,377.8 845.3,378.9 856.5,377.4 867.6,376.7 878.8,377.6 890.0,377.2" /><circle cx="890.0" cy="377.2" r="3.5" fill="#8e44ad" />
  
      <line x1="900" y1="70" x2="920" y2="70" stroke="#0b84f3" stroke-width="3" />
      <text x="928" y="74" font-size="12" fill="#18212f">BANPU</text>
    
      <line x1="900" y1="92" x2="920" y2="92" stroke="#f39c12" stroke-width="3" />
      <text x="928" y="96" font-size="12" fill="#18212f">BCP</text>
    
      <line x1="900" y1="114" x2="920" y2="114" stroke="#27ae60" stroke-width="3" />
      <text x="928" y="118" font-size="12" fill="#18212f">BCPG</text>
    
      <line x1="900" y1="136" x2="920" y2="136" stroke="#c0392b" stroke-width="3" />
      <text x="928" y="140" font-size="12" fill="#18212f">BGRIM</text>
    
      <line x1="900" y1="158" x2="920" y2="158" stroke="#8e44ad" stroke-width="3" />
      <text x="928" y="162" font-size="12" fill="#18212f">EA</text>
    
      <line x1="900" y1="180" x2="920" y2="180" stroke="#16a085" stroke-width="3" />
      <text x="928" y="184" font-size="12" fill="#18212f">EGCO</text>
    
      <line x1="900" y1="202" x2="920" y2="202" stroke="#2c3e50" stroke-width="3" />
      <text x="928" y="206" font-size="12" fill="#18212f">GPSC</text>
    
      <line x1="900" y1="224" x2="920" y2="224" stroke="#d35400" stroke-width="3" />
      <text x="928" y="228" font-size="12" fill="#18212f">GULF</text>
    
      <line x1="900" y1="246" x2="920" y2="246" stroke="#7f8c8d" stroke-width="3" />
      <text x="928" y="250" font-size="12" fill="#18212f">GUNKUL</text>
    
      <line x1="900" y1="268" x2="920" y2="268" stroke="#e84393" stroke-width="3" />
      <text x="928" y="272" font-size="12" fill="#18212f">IRPC</text>
    
      <line x1="900" y1="290" x2="920" y2="290" stroke="#6c5ce7" stroke-width="3" />
      <text x="928" y="294" font-size="12" fill="#18212f">OR</text>
    
      <line x1="900" y1="312" x2="920" y2="312" stroke="#00b894" stroke-width="3" />
      <text x="928" y="316" font-size="12" fill="#18212f">PTG</text>
    
      <line x1="900" y1="334" x2="920" y2="334" stroke="#0b84f3" stroke-width="3" />
      <text x="928" y="338" font-size="12" fill="#18212f">PTT</text>
    
      <line x1="900" y1="356" x2="920" y2="356" stroke="#f39c12" stroke-width="3" />
      <text x="928" y="360" font-size="12" fill="#18212f">PTTEP</text>
    
      <line x1="900" y1="378" x2="920" y2="378" stroke="#27ae60" stroke-width="3" />
      <text x="928" y="382" font-size="12" fill="#18212f">RATCH</text>
    
      <line x1="900" y1="400" x2="920" y2="400" stroke="#c0392b" stroke-width="3" />
      <text x="928" y="404" font-size="12" fill="#18212f">SPRC</text>
    
      <line x1="900" y1="422" x2="920" y2="422" stroke="#8e44ad" stroke-width="3" />
      <text x="928" y="426" font-size="12" fill="#18212f">TOP</text>
    
</svg>
