<?xml version="1.0" encoding="UTF-8"?>
<svg xmlns="http://www.w3.org/2000/svg" width="1080" height="520" viewBox="0 0 1080 520">
  <rect width="100%" height="100%" fill="#f7f9fc" />
  <text x="96" y="26" font-size="20" font-family="Arial, sans-serif" font-weight="700" fill="#18212f">ICT sector stock group chart</text>
  <text x="96" y="48" font-size="12" font-family="Arial, sans-serif" fill="#445166">Cumulative NVDR NET by stock | 2026-01-01 to 2026-04-21</text>
  
      <line x1="96" y1="54.0" x2="890" y2="54.0" stroke="#d8dde6" stroke-width="1" />
      <text x="86" y="58.0" text-anchor="end" font-size="12" fill="#445166">4,647.63</text>
    
      <line x1="96" y1="136.0" x2="890" y2="136.0" stroke="#d8dde6" stroke-width="1" />
      <text x="86" y="140.0" text-anchor="end" font-size="12" fill="#445166">2,740.17</text>
    
      <line x1="96" y1="218.0" x2="890" y2="218.0" stroke="#d8dde6" stroke-width="1" />
      <text x="86" y="222.0" text-anchor="end" font-size="12" fill="#445166">832.71</text>
    
      <line x1="96" y1="300.0" x2="890" y2="300.0" stroke="#d8dde6" stroke-width="1" />
      <text x="86" y="304.0" text-anchor="end" font-size="12" fill="#445166">-1,074.76</text>
    
      <line x1="96" y1="382.0" x2="890" y2="382.0" stroke="#d8dde6" stroke-width="1" />
      <text x="86" y="386.0" text-anchor="end" font-size="12" fill="#445166">-2,982.22</text>
    
      <line x1="96" y1="464.0" x2="890" y2="464.0" stroke="#d8dde6" stroke-width="1" />
      <text x="86" y="468.0" text-anchor="end" font-size="12" fill="#445166">-4,889.68</text>
    
  <line x1="96" y1="253.8" x2="890" y2="253.8" stroke="#7a8799" stroke-width="1.4" stroke-dasharray="4 4" />
  <line x1="96" y1="54" x2="96" y2="464" stroke="#445166" stroke-width="1.2" />
  <line x1="96" y1="464" x2="890" y2="464" stroke="#445166" stroke-width="1.2" />
  
      <line x1="96.0" y1="464" x2="96.0" y2="470" stroke="#445166" stroke-width="1" />
      <text x="96.0" y="486" text-anchor="middle" font-size="12" fill="#445166">2026-01-05</text>
    
      <line x1="487.4" y1="464" x2="487.4" y2="470" stroke="#445166" stroke-width="1" />
      <text x="487.4" y="486" text-anchor="middle" font-size="12" fill="#445166">2026-02-23</text>
    
      <line x1="890.0" y1="464" x2="890.0" y2="470" stroke="#445166" stroke-width="1" />
      <text x="890.0" y="486" text-anchor="middle" font-size="12" fill="#445166">2026-04-21</text>
    
  <polyline fill="none" stroke="#0b84f3" stroke-width="2.2" points="96.0,240.9 107.2,261.1 118.4,273.0 129.5,268.0 140.7,275.5 151.9,269.3 163.1,267.6 174.3,276.0 185.5,279.2 196.6,282.3 207.8,284.1 219.0,277.7 230.2,289.1 241.4,295.1 252.6,274.3 263.7,271.9 274.9,251.2 286.1,247.4 297.3,239.2 308.5,231.6 319.7,234.1 330.8,240.9 342.0,188.5 353.2,181.3 364.4,168.0 375.6,142.6 386.8,166.6 397.9,174.5 409.1,175.2 420.3,191.1 431.5,190.4 442.7,191.7 453.9,203.7 465.0,213.0 476.2,225.8 487.4,223.6 498.6,195.8 509.8,187.7 521.0,178.4 532.1,154.5 543.3,122.8 554.5,58.3 565.7,54.0 576.9,73.7 588.1,67.9 599.2,89.0 610.4,103.7 621.6,97.2 632.8,107.6 644.0,102.9 655.2,111.0 666.3,123.9 677.5,139.4 688.7,166.0 699.9,189.6 711.1,217.9 722.3,221.5 733.4,233.3 744.6,233.7 755.8,229.9 767.0,227.6 778.2,272.0 789.4,273.5 800.5,266.0 811.7,265.7 822.9,265.6 834.1,257.5 845.3,261.2 856.5,274.2 867.6,329.1 878.8,319.2 890.0,321.3" /><circle cx="890.0" cy="321.3" r="3.5" fill="#0b84f3" /><polyline fill="none" stroke="#f39c12" stroke-width="2.2" points="96.0,253.8 107.2,253.9 118.4,253.8 129.5,253.9 140.7,254.0 151.9,253.8 163.1,253.8 174.3,253.9 185.5,254.0 196.6,254.0 207.8,253.9 219.0,253.9 230.2,253.8 241.4,253.8 252.6,253.9 263.7,253.8 274.9,253.9 286.1,253.8 297.3,253.8 308.5,253.8 319.7,253.9 330.8,254.0 342.0,254.0 353.2,254.0 364.4,253.9 375.6,254.0 386.8,253.7 397.9,253.7 409.1,253.0 420.3,252.5 431.5,253.4 442.7,252.9 453.9,252.8 465.0,252.4 476.2,252.7 487.4,252.2 498.6,252.0 509.8,252.3 521.0,252.6 532.1,252.8 543.3,252.7 554.5,252.6 565.7,252.6 576.9,252.8 588.1,252.7 599.2,252.6 610.4,252.7 621.6,252.7 632.8,252.9 644.0,252.9 655.2,253.0 666.3,253.0 677.5,252.9 688.7,253.0 699.9,253.1 711.1,253.2 722.3,253.3 733.4,253.3 744.6,253.3 755.8,253.1 767.0,253.0 778.2,253.2 789.4,253.4 800.5,253.4 811.7,253.5 822.9,253.3 834.1,253.4 845.3,253.5 856.5,253.5 867.6,253.4 878.8,253.5 890.0,253.4" /><circle cx="890.0" cy="253.4" r="3.5" fill="#f39c12" /><polyline fill="none" stroke="#27ae60" stroke-width="2.2" points="96.0,253.6 107.2,253.5 118.4,252.7 129.5,253.5 140.7,253.9 151.9,254.2 163.1,254.2 174.3,254.3 185.5,254.5 196.6,253.6 207.8,252.8 219.0,252.0 230.2,251.6 241.4,251.8 252.6,252.0 263.7,251.9 274.9,252.0 286.1,252.5 297.3,252.6 308.5,252.6 319.7,252.5 330.8,252.0 342.0,252.4 353.2,252.6 364.4,252.9 375.6,250.5 386.8,251.6 397.9,251.9 409.1,251.7 420.3,252.3 431.5,253.2 442.7,253.6 453.9,253.9 465.0,254.7 476.2,254.9 487.4,255.5 498.6,255.4 509.8,255.2 521.0,255.5 532.1,256.0 543.3,256.3 554.5,256.3 565.7,256.6 576.9,256.8 588.1,256.4 599.2,256.1 610.4,256.2 621.6,256.3 632.8,256.9 644.0,256.9 655.2,257.0 666.3,257.0 677.5,257.2 688.7,257.1 699.9,257.2 711.1,257.3 722.3,257.2 733.4,257.2 744.6,257.2 755.8,257.1 767.0,257.2 778.2,257.1 789.4,257.2 800.5,257.2 811.7,257.2 822.9,256.9 834.1,257.2 845.3,257.2 856.5,256.5 867.6,256.7 878.8,256.4 890.0,256.2" /><circle cx="890.0" cy="256.2" r="3.5" fill="#27ae60" /><polyline fill="none" stroke="#c0392b" stroke-width="2.2" points="96.0,254.0 107.2,254.4 118.4,254.2 129.5,254.2 140.7,254.3 151.9,254.2 163.1,254.3 174.3,254.6 185.5,253.9 196.6,254.1 207.8,253.7 219.0,254.0 230.2,254.3 241.4,254.7 252.6,254.9 263.7,254.8 274.9,255.0 286.1,255.4 297.3,255.3 308.5,255.3 319.7,255.1 330.8,254.8 342.0,254.4 353.2,254.6 364.4,254.5 375.6,254.2 386.8,253.3 397.9,253.2 409.1,253.5 420.3,253.5 431.5,253.7 442.7,253.8 453.9,253.6 465.0,253.6 476.2,253.6 487.4,253.7 498.6,253.8 509.8,253.1 521.0,250.5 532.1,253.3 543.3,255.8 554.5,256.1 565.7,256.8 576.9,257.9 588.1,258.3 599.2,258.4 610.4,258.5 621.6,258.4 632.8,259.1 644.0,259.2 655.2,259.0 666.3,259.1 677.5,259.2 688.7,259.4 699.9,259.4 711.1,259.1 722.3,259.4 733.4,259.3 744.6,259.5 755.8,259.5 767.0,259.2 778.2,259.1 789.4,259.5 800.5,259.5 811.7,259.2 822.9,258.8 834.1,259.5 845.3,259.6 856.5,259.5 867.6,259.6 878.8,259.6 890.0,259.6" /><circle cx="890.0" cy="259.6" r="3.5" fill="#c0392b" /><polyline fill="none" stroke="#8e44ad" stroke-width="2.2" points="96.0,245.5 107.2,246.6 118.4,243.1 129.5,244.4 140.7,244.5 151.9,252.9 163.1,248.9 174.3,253.5 185.5,251.9 196.6,254.5 207.8,249.6 219.0,248.8 230.2,257.5 241.4,378.5 252.6,424.8 263.7,464.0 274.9,459.9 286.1,449.6 297.3,420.3 308.5,416.1 319.7,397.7 330.8,381.9 342.0,380.5 353.2,358.4 364.4,361.2 375.6,353.5 386.8,342.2 397.9,323.9 409.1,318.9 420.3,308.2 431.5,317.1 442.7,318.6 453.9,298.2 465.0,305.5 476.2,288.8 487.4,235.9 498.6,226.1 509.8,229.0 521.0,210.6 532.1,200.8 543.3,185.3 554.5,180.2 565.7,221.1 576.9,229.4 588.1,227.3 599.2,245.7 610.4,252.0 621.6,249.1 632.8,261.7 644.0,252.9 655.2,257.0 666.3,267.6 677.5,270.1 688.7,347.2 699.9,355.0 711.1,358.7 722.3,365.0 733.4,374.9 744.6,397.1 755.8,381.3 767.0,359.1 778.2,361.5 789.4,354.9 800.5,351.4 811.7,353.5 822.9,352.8 834.1,329.5 845.3,332.0 856.5,334.7 867.6,340.7 878.8,336.4 890.0,340.2" /><circle cx="890.0" cy="340.2" r="3.5" fill="#8e44ad" />
  
      <line x1="900" y1="70" x2="920" y2="70" stroke="#0b84f3" stroke-width="3" />
      <text x="928" y="74" font-size="12" fill="#18212f">ADVANC</text>
    
      <line x1="900" y1="92" x2="920" y2="92" stroke="#f39c12" stroke-width="3" />
      <text x="928" y="96" font-size="12" fill="#18212f">JAS</text>
    
      <line x1="900" y1="114" x2="920" y2="114" stroke="#27ae60" stroke-width="3" />
      <text x="928" y="118" font-size="12" fill="#18212f">JMART</text>
    
      <line x1="900" y1="136" x2="920" y2="136" stroke="#c0392b" stroke-width="3" />
      <text x="928" y="140" font-size="12" fill="#18212f">JTS</text>
    
      <line x1="900" y1="158" x2="920" y2="158" stroke="#8e44ad" stroke-width="3" />
      <text x="928" y="162" font-size="12" fill="#18212f">TRUE</text>
    
</svg>
