<?xml version="1.0" encoding="UTF-8"?>
<svg xmlns="http://www.w3.org/2000/svg" width="1080" height="520" viewBox="0 0 1080 520">
  <rect width="100%" height="100%" fill="#f7f9fc" />
  <text x="96" y="26" font-size="20" font-family="Arial, sans-serif" font-weight="700" fill="#18212f">Conmat sector stock group chart</text>
  <text x="96" y="48" font-size="12" font-family="Arial, sans-serif" fill="#445166">Cumulative NVDR NET by stock | 2026-01-01 to 2026-04-21</text>
  
      <line x1="96" y1="54.0" x2="890" y2="54.0" stroke="#d8dde6" stroke-width="1" />
      <text x="86" y="58.0" text-anchor="end" font-size="12" fill="#445166">2,876.61</text>
    
      <line x1="96" y1="136.0" x2="890" y2="136.0" stroke="#d8dde6" stroke-width="1" />
      <text x="86" y="140.0" text-anchor="end" font-size="12" fill="#445166">2,202.08</text>
    
      <line x1="96" y1="218.0" x2="890" y2="218.0" stroke="#d8dde6" stroke-width="1" />
      <text x="86" y="222.0" text-anchor="end" font-size="12" fill="#445166">1,527.55</text>
    
      <line x1="96" y1="300.0" x2="890" y2="300.0" stroke="#d8dde6" stroke-width="1" />
      <text x="86" y="304.0" text-anchor="end" font-size="12" fill="#445166">853.02</text>
    
      <line x1="96" y1="382.0" x2="890" y2="382.0" stroke="#d8dde6" stroke-width="1" />
      <text x="86" y="386.0" text-anchor="end" font-size="12" fill="#445166">178.49</text>
    
      <line x1="96" y1="464.0" x2="890" y2="464.0" stroke="#d8dde6" stroke-width="1" />
      <text x="86" y="468.0" text-anchor="end" font-size="12" fill="#445166">-496.04</text>
    
  <line x1="96" y1="403.7" x2="890" y2="403.7" stroke="#7a8799" stroke-width="1.4" stroke-dasharray="4 4" />
  <line x1="96" y1="54" x2="96" y2="464" stroke="#445166" stroke-width="1.2" />
  <line x1="96" y1="464" x2="890" y2="464" stroke="#445166" stroke-width="1.2" />
  
      <line x1="96.0" y1="464" x2="96.0" y2="470" stroke="#445166" stroke-width="1" />
      <text x="96.0" y="486" text-anchor="middle" font-size="12" fill="#445166">2026-01-05</text>
    
      <line x1="487.4" y1="464" x2="487.4" y2="470" stroke="#445166" stroke-width="1" />
      <text x="487.4" y="486" text-anchor="middle" font-size="12" fill="#445166">2026-02-23</text>
    
      <line x1="890.0" y1="464" x2="890.0" y2="470" stroke="#445166" stroke-width="1" />
      <text x="890.0" y="486" text-anchor="middle" font-size="12" fill="#445166">2026-04-21</text>
    
  <polyline fill="none" stroke="#0b84f3" stroke-width="2.2" points="96.0,395.1 107.2,392.6 118.4,373.9 129.5,383.2 140.7,389.6 151.9,391.6 163.1,383.9 174.3,374.0 185.5,381.0 196.6,399.2 207.8,411.2 219.0,425.4 230.2,421.1 241.4,411.1 252.6,413.6 263.7,408.4 274.9,414.1 286.1,421.9 297.3,451.9 308.5,458.9 319.7,459.0 330.8,464.0 342.0,456.1 353.2,460.6 364.4,391.0 375.6,392.9 386.8,373.1 397.9,359.4 409.1,346.8 420.3,351.1 431.5,370.7 442.7,374.3 453.9,373.5 465.0,356.3 476.2,364.1 487.4,356.2 498.6,313.6 509.8,242.8 521.0,274.9 532.1,231.2 543.3,257.3 554.5,274.5 565.7,296.9 576.9,298.4 588.1,301.7 599.2,322.6 610.4,334.6 621.6,350.0 632.8,360.5 644.0,362.1 655.2,329.8 666.3,347.5 677.5,360.2 688.7,359.5 699.9,366.0 711.1,374.6 722.3,345.4 733.4,347.1 744.6,345.2 755.8,337.0 767.0,354.5 778.2,333.4 789.4,327.3 800.5,312.8 811.7,300.8 822.9,288.5 834.1,294.8 845.3,291.3 856.5,127.9 867.6,89.6 878.8,54.0 890.0,64.1" /><circle cx="890.0" cy="64.1" r="3.5" fill="#0b84f3" /><polyline fill="none" stroke="#f39c12" stroke-width="2.2" points="96.0,391.4 107.2,389.1 118.4,390.5 129.5,396.7 140.7,398.7 151.9,400.3 163.1,402.3 174.3,401.9 185.5,402.2 196.6,402.4 207.8,401.9 219.0,402.5 230.2,401.9 241.4,402.3 252.6,402.2 263.7,402.4 274.9,403.3 286.1,403.9 297.3,404.1 308.5,404.7 319.7,405.8 330.8,406.3 342.0,406.3 353.2,405.5 364.4,406.6 375.6,405.8 386.8,405.3 397.9,405.3 409.1,403.6 420.3,404.1 431.5,405.0 442.7,403.9 453.9,401.4 465.0,398.9 476.2,403.2 487.4,403.5 498.6,404.0 509.8,403.6 521.0,405.6 532.1,406.8 543.3,409.3 554.5,411.5 565.7,411.6 576.9,411.9 588.1,412.2 599.2,412.9 610.4,413.0 621.6,413.6 632.8,413.6 644.0,413.4 655.2,413.4 666.3,413.8 677.5,414.9 688.7,414.9 699.9,415.5 711.1,415.5 722.3,415.4 733.4,416.7 744.6,415.5 755.8,415.2 767.0,415.3 778.2,415.5 789.4,415.7 800.5,415.3 811.7,416.1 822.9,416.2 834.1,416.1 845.3,416.2 856.5,415.9 867.6,415.5 878.8,415.7 890.0,416.1" /><circle cx="890.0" cy="416.1" r="3.5" fill="#f39c12" /><polyline fill="none" stroke="#27ae60" stroke-width="2.2" points="96.0,401.4 107.2,401.2 118.4,400.8 129.5,399.9 140.7,399.9 151.9,399.7 163.1,400.2 174.3,401.1 185.5,401.3 196.6,401.5 207.8,401.7 219.0,401.3 230.2,400.4 241.4,400.2 252.6,399.9 263.7,399.6 274.9,398.7 286.1,398.6 297.3,397.8 308.5,397.5 319.7,398.7 330.8,398.1 342.0,397.4 353.2,397.5 364.4,397.6 375.6,394.4 386.8,394.3 397.9,394.6 409.1,395.0 420.3,395.6 431.5,396.2 442.7,396.9 453.9,397.3 465.0,396.8 476.2,396.3 487.4,396.1 498.6,394.7 509.8,394.9 521.0,394.9 532.1,394.5 543.3,386.0 554.5,384.8 565.7,385.0 576.9,382.8 588.1,380.4 599.2,382.4 610.4,383.4 621.6,382.7 632.8,383.7 644.0,383.4 655.2,383.4 666.3,381.5 677.5,382.6 688.7,383.2 699.9,383.6 711.1,383.4 722.3,384.4 733.4,383.8 744.6,383.3 755.8,382.4 767.0,382.0 778.2,378.8 789.4,378.1 800.5,378.1 811.7,377.4 822.9,375.2 834.1,372.6 845.3,372.6 856.5,372.7 867.6,372.6 878.8,372.0 890.0,371.0" /><circle cx="890.0" cy="371.0" r="3.5" fill="#27ae60" />
  
      <line x1="900" y1="70" x2="920" y2="70" stroke="#0b84f3" stroke-width="3" />
      <text x="928" y="74" font-size="12" fill="#18212f">SCC</text>
    
      <line x1="900" y1="92" x2="920" y2="92" stroke="#f39c12" stroke-width="3" />
      <text x="928" y="96" font-size="12" fill="#18212f">TASCO</text>
    
      <line x1="900" y1="114" x2="920" y2="114" stroke="#27ae60" stroke-width="3" />
      <text x="928" y="118" font-size="12" fill="#18212f">TOA</text>
    
</svg>
