<?xml version="1.0" encoding="UTF-8"?>
<svg xmlns="http://www.w3.org/2000/svg" width="960" height="420" viewBox="0 0 960 420">
  <rect width="100%" height="100%" fill="#f7f9fc" />
  <text x="88" y="24" font-size="20" font-family="Arial, sans-serif" font-weight="700" fill="#18212f">Media sector cumulative NVDR NET (2026-01-01 to 2026-04-21)</text>
  <text x="88" y="46" font-size="12" font-family="Arial, sans-serif" fill="#445166">Unit: million baht, based on NVDR Turnover (Net) from value view</text>
  
      <line x1="88" y1="36.0" x2="936" y2="36.0" stroke="#d8dde6" stroke-width="1" />
      <text x="78" y="40.0" text-anchor="end" font-size="12" fill="#445166">390.19</text>
    
      <line x1="88" y1="101.6" x2="936" y2="101.6" stroke="#d8dde6" stroke-width="1" />
      <text x="78" y="105.6" text-anchor="end" font-size="12" fill="#445166">303.89</text>
    
      <line x1="88" y1="167.2" x2="936" y2="167.2" stroke="#d8dde6" stroke-width="1" />
      <text x="78" y="171.2" text-anchor="end" font-size="12" fill="#445166">217.60</text>
    
      <line x1="88" y1="232.8" x2="936" y2="232.8" stroke="#d8dde6" stroke-width="1" />
      <text x="78" y="236.8" text-anchor="end" font-size="12" fill="#445166">131.30</text>
    
      <line x1="88" y1="298.4" x2="936" y2="298.4" stroke="#d8dde6" stroke-width="1" />
      <text x="78" y="302.4" text-anchor="end" font-size="12" fill="#445166">45.01</text>
    
      <line x1="88" y1="364.0" x2="936" y2="364.0" stroke="#d8dde6" stroke-width="1" />
      <text x="78" y="368.0" text-anchor="end" font-size="12" fill="#445166">-41.29</text>
    
  <line x1="88" y1="332.6" x2="936" y2="332.6" stroke="#7a8799" stroke-width="1.4" stroke-dasharray="4 4" />
  <line x1="88" y1="36" x2="88" y2="364" stroke="#445166" stroke-width="1.2" />
  <line x1="88" y1="364" x2="936" y2="364" stroke="#445166" stroke-width="1.2" />
  
      <line x1="88.0" y1="364" x2="88.0" y2="370" stroke="#445166" stroke-width="1" />
      <text x="88.0" y="386" text-anchor="middle" font-size="12" fill="#445166">2026-01-05</text>
    
      <line x1="506.0" y1="364" x2="506.0" y2="370" stroke="#445166" stroke-width="1" />
      <text x="506.0" y="386" text-anchor="middle" font-size="12" fill="#445166">2026-02-23</text>
    
      <line x1="936.0" y1="364" x2="936.0" y2="370" stroke="#445166" stroke-width="1" />
      <text x="936.0" y="386" text-anchor="middle" font-size="12" fill="#445166">2026-04-21</text>
    
  <polyline fill="none" stroke="#0b84f3" stroke-width="3" points="88.0,340.6 99.9,341.2 111.9,331.4 123.8,341.6 135.8,354.1 147.7,364.0 159.7,359.7 171.6,332.8 183.5,328.3 195.5,329.2 207.4,324.5 219.4,318.2 231.3,309.7 243.3,303.5 255.2,298.8 267.2,291.9 279.1,284.6 291.0,284.9 303.0,285.9 314.9,280.8 326.9,284.4 338.8,265.1 350.8,272.2 362.7,247.8 374.6,256.3 386.6,221.9 398.5,161.5 410.5,164.3 422.4,189.7 434.4,143.2 446.3,203.8 458.3,204.8 470.2,167.4 482.1,166.7 494.1,143.2 506.0,88.8 518.0,75.0 529.9,126.8 541.9,149.6 553.8,95.4 565.7,71.7 577.7,53.5 589.6,61.3 601.6,64.0 613.5,36.0 625.5,58.5 637.4,62.0 649.4,61.6 661.3,84.6 673.2,75.6 685.2,74.4 697.1,110.2 709.1,109.7 721.0,91.9 733.0,100.3 744.9,106.1 756.8,118.2 768.8,123.1 780.7,123.0 792.7,123.0 804.6,128.5 816.6,140.7 828.5,146.3 840.5,157.2 852.4,159.5 864.3,148.6 876.3,166.9 888.2,168.9 900.2,145.0 912.1,146.8 924.1,146.5 936.0,151.2" />
  <circle cx="936.0" cy="151.2" r="4.5" fill="#0b84f3" />
  <text x="932.0" y="141.2" font-size="12" fill="#18212f">238.62</text>
</svg>
