<?xml version="1.0" encoding="UTF-8"?>
<svg xmlns="http://www.w3.org/2000/svg" width="960" height="420" viewBox="0 0 960 420">
  <rect width="100%" height="100%" fill="#f7f9fc" />
  <text x="88" y="24" font-size="20" font-family="Arial, sans-serif" font-weight="700" fill="#18212f">ICT sector cumulative NVDR NET (2026-01-01 to 2026-04-21)</text>
  <text x="88" y="46" font-size="12" font-family="Arial, sans-serif" fill="#445166">Unit: million baht, based on NVDR Turnover (Net) from value view</text>
  
      <line x1="88" y1="36.0" x2="936" y2="36.0" stroke="#d8dde6" stroke-width="1" />
      <text x="78" y="40.0" text-anchor="end" font-size="12" fill="#445166">6174.85</text>
    
      <line x1="88" y1="101.6" x2="936" y2="101.6" stroke="#d8dde6" stroke-width="1" />
      <text x="78" y="105.6" text-anchor="end" font-size="12" fill="#445166">3881.72</text>
    
      <line x1="88" y1="167.2" x2="936" y2="167.2" stroke="#d8dde6" stroke-width="1" />
      <text x="78" y="171.2" text-anchor="end" font-size="12" fill="#445166">1588.60</text>
    
      <line x1="88" y1="232.8" x2="936" y2="232.8" stroke="#d8dde6" stroke-width="1" />
      <text x="78" y="236.8" text-anchor="end" font-size="12" fill="#445166">-704.53</text>
    
      <line x1="88" y1="298.4" x2="936" y2="298.4" stroke="#d8dde6" stroke-width="1" />
      <text x="78" y="302.4" text-anchor="end" font-size="12" fill="#445166">-2997.65</text>
    
      <line x1="88" y1="364.0" x2="936" y2="364.0" stroke="#d8dde6" stroke-width="1" />
      <text x="78" y="368.0" text-anchor="end" font-size="12" fill="#445166">-5290.78</text>
    
  <line x1="88" y1="212.6" x2="936" y2="212.6" stroke="#7a8799" stroke-width="1.4" stroke-dasharray="4 4" />
  <line x1="88" y1="36" x2="88" y2="364" stroke="#445166" stroke-width="1.2" />
  <line x1="88" y1="364" x2="936" y2="364" stroke="#445166" stroke-width="1.2" />
  
      <line x1="88.0" y1="364" x2="88.0" y2="370" stroke="#445166" stroke-width="1" />
      <text x="88.0" y="386" text-anchor="middle" font-size="12" fill="#445166">2026-01-05</text>
    
      <line x1="506.0" y1="364" x2="506.0" y2="370" stroke="#445166" stroke-width="1" />
      <text x="506.0" y="386" text-anchor="middle" font-size="12" fill="#445166">2026-02-23</text>
    
      <line x1="936.0" y1="364" x2="936.0" y2="370" stroke="#445166" stroke-width="1" />
      <text x="936.0" y="386" text-anchor="middle" font-size="12" fill="#445166">2026-04-21</text>
    
  <polyline fill="none" stroke="#0b84f3" stroke-width="3" points="88.0,198.6 99.9,213.0 111.9,217.9 123.8,216.0 135.8,221.5 147.7,222.9 159.7,219.2 171.6,228.2 183.5,228.9 195.5,232.2 207.4,229.3 219.4,224.3 231.3,237.5 243.3,322.4 255.2,339.7 267.2,364.0 279.1,347.8 291.0,338.9 303.0,314.0 314.9,306.1 326.9,295.4 338.8,288.9 350.8,253.1 362.7,233.9 374.6,227.0 386.6,203.2 398.5,211.5 410.5,204.8 422.4,201.5 434.4,205.1 446.3,211.9 458.3,213.7 470.2,208.1 482.1,219.4 494.1,217.2 506.0,180.7 518.0,155.5 529.9,151.6 541.9,131.9 553.8,111.8 565.7,82.2 577.7,36.0 589.6,61.1 601.6,80.6 613.5,75.3 625.5,101.4 637.4,115.6 649.4,109.3 661.3,125.6 673.2,116.7 685.2,124.7 697.1,140.6 709.1,152.7 721.0,221.7 733.0,242.7 744.9,264.0 756.8,270.8 768.8,285.2 780.7,300.4 792.7,287.1 804.6,270.7 816.6,301.8 828.5,298.8 840.5,291.6 852.4,292.6 864.3,291.4 876.3,271.2 888.2,275.5 900.2,285.4 912.1,326.1 924.1,316.5 936.0,320.3" />
  <circle cx="936.0" cy="320.3" r="4.5" fill="#0b84f3" />
  <text x="932.0" y="310.3" font-size="12" fill="#18212f">-3762.51</text>
</svg>
