<?xml version="1.0" encoding="UTF-8"?>
<svg xmlns="http://www.w3.org/2000/svg" width="960" height="420" viewBox="0 0 960 420">
  <rect width="100%" height="100%" fill="#f7f9fc" />
  <text x="88" y="24" font-size="20" font-family="Arial, sans-serif" font-weight="700" fill="#18212f">Etron sector cumulative NVDR NET (2026-01-01 to 2026-04-21)</text>
  <text x="88" y="46" font-size="12" font-family="Arial, sans-serif" fill="#445166">Unit: million baht, based on NVDR Turnover (Net) from value view</text>
  
      <line x1="88" y1="36.0" x2="936" y2="36.0" stroke="#d8dde6" stroke-width="1" />
      <text x="78" y="40.0" text-anchor="end" font-size="12" fill="#445166">3858.01</text>
    
      <line x1="88" y1="101.6" x2="936" y2="101.6" stroke="#d8dde6" stroke-width="1" />
      <text x="78" y="105.6" text-anchor="end" font-size="12" fill="#445166">2115.69</text>
    
      <line x1="88" y1="167.2" x2="936" y2="167.2" stroke="#d8dde6" stroke-width="1" />
      <text x="78" y="171.2" text-anchor="end" font-size="12" fill="#445166">373.37</text>
    
      <line x1="88" y1="232.8" x2="936" y2="232.8" stroke="#d8dde6" stroke-width="1" />
      <text x="78" y="236.8" text-anchor="end" font-size="12" fill="#445166">-1368.94</text>
    
      <line x1="88" y1="298.4" x2="936" y2="298.4" stroke="#d8dde6" stroke-width="1" />
      <text x="78" y="302.4" text-anchor="end" font-size="12" fill="#445166">-3111.26</text>
    
      <line x1="88" y1="364.0" x2="936" y2="364.0" stroke="#d8dde6" stroke-width="1" />
      <text x="78" y="368.0" text-anchor="end" font-size="12" fill="#445166">-4853.58</text>
    
  <line x1="88" y1="181.3" x2="936" y2="181.3" stroke="#7a8799" stroke-width="1.4" stroke-dasharray="4 4" />
  <line x1="88" y1="36" x2="88" y2="364" stroke="#445166" stroke-width="1.2" />
  <line x1="88" y1="364" x2="936" y2="364" stroke="#445166" stroke-width="1.2" />
  
      <line x1="88.0" y1="364" x2="88.0" y2="370" stroke="#445166" stroke-width="1" />
      <text x="88.0" y="386" text-anchor="middle" font-size="12" fill="#445166">2026-01-05</text>
    
      <line x1="506.0" y1="364" x2="506.0" y2="370" stroke="#445166" stroke-width="1" />
      <text x="506.0" y="386" text-anchor="middle" font-size="12" fill="#445166">2026-02-23</text>
    
      <line x1="936.0" y1="364" x2="936.0" y2="370" stroke="#445166" stroke-width="1" />
      <text x="936.0" y="386" text-anchor="middle" font-size="12" fill="#445166">2026-04-21</text>
    
  <polyline fill="none" stroke="#0b84f3" stroke-width="3" points="88.0,191.0 99.9,248.5 111.9,272.7 123.8,361.9 135.8,364.0 147.7,362.9 159.7,359.7 171.6,358.9 183.5,349.2 195.5,344.9 207.4,339.9 219.4,345.4 231.3,300.2 243.3,312.7 255.2,302.4 267.2,311.4 279.1,258.0 291.0,273.0 303.0,266.0 314.9,251.7 326.9,240.4 338.8,240.6 350.8,240.8 362.7,254.5 374.6,238.0 386.6,181.1 398.5,203.9 410.5,196.8 422.4,185.9 434.4,204.2 446.3,193.0 458.3,188.3 470.2,186.5 482.1,152.8 494.1,168.1 506.0,139.5 518.0,151.2 529.9,110.5 541.9,125.8 553.8,120.1 565.7,86.2 577.7,56.4 589.6,82.5 601.6,115.0 613.5,135.2 625.5,167.4 637.4,182.3 649.4,195.1 661.3,232.4 673.2,222.2 685.2,215.3 697.1,210.1 709.1,218.9 721.0,237.1 733.0,255.6 744.9,255.4 756.8,154.1 768.8,203.0 780.7,221.5 792.7,256.2 804.6,305.0 816.6,265.1 828.5,240.8 840.5,246.9 852.4,222.1 864.3,217.0 876.3,110.6 888.2,36.0 900.2,70.6 912.1,70.9 924.1,65.7 936.0,58.8" />
  <circle cx="936.0" cy="58.8" r="4.5" fill="#0b84f3" />
  <text x="932.0" y="48.8" font-size="12" fill="#18212f">3253.28</text>
</svg>
