<?xml version="1.0" encoding="UTF-8"?>
<svg xmlns="http://www.w3.org/2000/svg" width="1080" height="520" viewBox="0 0 1080 520">
  <rect width="100%" height="100%" fill="#f7f9fc" />
  <text x="96" y="26" font-size="20" font-family="Arial, sans-serif" font-weight="700" fill="#18212f">Cons sector stock group chart</text>
  <text x="96" y="48" font-size="12" font-family="Arial, sans-serif" fill="#445166">Cumulative NVDR NET by stock | 2026-01-01 to 2026-04-21</text>
  
      <line x1="96" y1="54.0" x2="890" y2="54.0" stroke="#d8dde6" stroke-width="1" />
      <text x="86" y="58.0" text-anchor="end" font-size="12" fill="#445166">725.91</text>
    
      <line x1="96" y1="136.0" x2="890" y2="136.0" stroke="#d8dde6" stroke-width="1" />
      <text x="86" y="140.0" text-anchor="end" font-size="12" fill="#445166">570.81</text>
    
      <line x1="96" y1="218.0" x2="890" y2="218.0" stroke="#d8dde6" stroke-width="1" />
      <text x="86" y="222.0" text-anchor="end" font-size="12" fill="#445166">415.71</text>
    
      <line x1="96" y1="300.0" x2="890" y2="300.0" stroke="#d8dde6" stroke-width="1" />
      <text x="86" y="304.0" text-anchor="end" font-size="12" fill="#445166">260.62</text>
    
      <line x1="96" y1="382.0" x2="890" y2="382.0" stroke="#d8dde6" stroke-width="1" />
      <text x="86" y="386.0" text-anchor="end" font-size="12" fill="#445166">105.52</text>
    
      <line x1="96" y1="464.0" x2="890" y2="464.0" stroke="#d8dde6" stroke-width="1" />
      <text x="86" y="468.0" text-anchor="end" font-size="12" fill="#445166">-49.58</text>
    
  <line x1="96" y1="437.8" x2="890" y2="437.8" stroke="#7a8799" stroke-width="1.4" stroke-dasharray="4 4" />
  <line x1="96" y1="54" x2="96" y2="464" stroke="#445166" stroke-width="1.2" />
  <line x1="96" y1="464" x2="890" y2="464" stroke="#445166" stroke-width="1.2" />
  
      <line x1="96.0" y1="464" x2="96.0" y2="470" stroke="#445166" stroke-width="1" />
      <text x="96.0" y="486" text-anchor="middle" font-size="12" fill="#445166">2026-01-05</text>
    
      <line x1="487.4" y1="464" x2="487.4" y2="470" stroke="#445166" stroke-width="1" />
      <text x="487.4" y="486" text-anchor="middle" font-size="12" fill="#445166">2026-02-23</text>
    
      <line x1="890.0" y1="464" x2="890.0" y2="470" stroke="#445166" stroke-width="1" />
      <text x="890.0" y="486" text-anchor="middle" font-size="12" fill="#445166">2026-04-21</text>
    
  <polyline fill="none" stroke="#0b84f3" stroke-width="2.2" points="96.0,431.1 107.2,423.0 118.4,411.2 129.5,416.5 140.7,411.3 151.9,414.1 163.1,412.4 174.3,407.1 185.5,398.6 196.6,355.7 207.8,363.1 219.0,346.8 230.2,336.7 241.4,347.1 252.6,344.6 263.7,338.8 274.9,339.3 286.1,342.5 297.3,348.1 308.5,346.2 319.7,345.8 330.8,344.0 342.0,323.7 353.2,328.5 364.4,329.4 375.6,305.2 386.8,309.5 397.9,311.3 409.1,325.8 420.3,337.0 431.5,342.7 442.7,342.2 453.9,352.6 465.0,338.2 476.2,322.3 487.4,324.2 498.6,303.3 509.8,300.3 521.0,300.3 532.1,293.1 543.3,261.1 554.5,259.1 565.7,261.2 576.9,264.2 588.1,252.5 599.2,261.3 610.4,270.1 621.6,265.9 632.8,279.5 644.0,285.1 655.2,296.0 666.3,307.2 677.5,323.0 688.7,328.6 699.9,338.4 711.1,343.0 722.3,350.1 733.4,357.6 744.6,350.3 755.8,353.2 767.0,353.4 778.2,338.7 789.4,351.4 800.5,357.8 811.7,381.0 822.9,391.6 834.1,399.5 845.3,412.9 856.5,417.5 867.6,432.8 878.8,435.3 890.0,464.0" /><circle cx="890.0" cy="464.0" r="3.5" fill="#0b84f3" /><polyline fill="none" stroke="#f39c12" stroke-width="2.2" points="96.0,442.6 107.2,444.9 118.4,442.7 129.5,444.4 140.7,446.3 151.9,447.2 163.1,447.5 174.3,446.1 185.5,444.4 196.6,446.8 207.8,450.4 219.0,448.4 230.2,438.6 241.4,442.6 252.6,443.3 263.7,437.7 274.9,433.9 286.1,430.8 297.3,434.3 308.5,434.4 319.7,432.4 330.8,414.9 342.0,423.6 353.2,424.8 364.4,434.5 375.6,376.8 386.8,346.2 397.9,348.1 409.1,317.3 420.3,307.1 431.5,296.9 442.7,278.6 453.9,280.6 465.0,283.0 476.2,266.6 487.4,239.8 498.6,87.3 509.8,112.4 521.0,97.9 532.1,115.6 543.3,54.0 554.5,58.5 565.7,129.7 576.9,149.5 588.1,106.7 599.2,101.9 610.4,147.9 621.6,132.2 632.8,173.1 644.0,224.1 655.2,203.9 666.3,179.5 677.5,284.2 688.7,290.5 699.9,295.9 711.1,302.4 722.3,287.2 733.4,295.0 744.6,305.8 755.8,296.2 767.0,289.0 778.2,111.3 789.4,132.6 800.5,197.4 811.7,208.6 822.9,180.3 834.1,251.5 845.3,272.2 856.5,243.8 867.6,251.3 878.8,270.8 890.0,222.0" /><circle cx="890.0" cy="222.0" r="3.5" fill="#f39c12" />
  
      <line x1="900" y1="70" x2="920" y2="70" stroke="#0b84f3" stroke-width="3" />
      <text x="928" y="74" font-size="12" fill="#18212f">CK</text>
    
      <line x1="900" y1="92" x2="920" y2="92" stroke="#f39c12" stroke-width="3" />
      <text x="928" y="96" font-size="12" fill="#18212f">STECON</text>
    
</svg>
