<?xml version="1.0" encoding="UTF-8"?>
<svg xmlns="http://www.w3.org/2000/svg" width="1080" height="520" viewBox="0 0 1080 520">
  <rect width="100%" height="100%" fill="#f7f9fc" />
  <text x="96" y="26" font-size="20" font-family="Arial, sans-serif" font-weight="700" fill="#18212f">Banking sector stock group chart</text>
  <text x="96" y="48" font-size="12" font-family="Arial, sans-serif" fill="#445166">Cumulative NVDR NET by stock | 2026-01-01 to 2026-04-21</text>
  
      <line x1="96" y1="54.0" x2="890" y2="54.0" stroke="#d8dde6" stroke-width="1" />
      <text x="86" y="58.0" text-anchor="end" font-size="12" fill="#445166">5,480.28</text>
    
      <line x1="96" y1="136.0" x2="890" y2="136.0" stroke="#d8dde6" stroke-width="1" />
      <text x="86" y="140.0" text-anchor="end" font-size="12" fill="#445166">2,817.74</text>
    
      <line x1="96" y1="218.0" x2="890" y2="218.0" stroke="#d8dde6" stroke-width="1" />
      <text x="86" y="222.0" text-anchor="end" font-size="12" fill="#445166">155.21</text>
    
      <line x1="96" y1="300.0" x2="890" y2="300.0" stroke="#d8dde6" stroke-width="1" />
      <text x="86" y="304.0" text-anchor="end" font-size="12" fill="#445166">-2,507.33</text>
    
      <line x1="96" y1="382.0" x2="890" y2="382.0" stroke="#d8dde6" stroke-width="1" />
      <text x="86" y="386.0" text-anchor="end" font-size="12" fill="#445166">-5,169.86</text>
    
      <line x1="96" y1="464.0" x2="890" y2="464.0" stroke="#d8dde6" stroke-width="1" />
      <text x="86" y="468.0" text-anchor="end" font-size="12" fill="#445166">-7,832.40</text>
    
  <line x1="96" y1="222.8" x2="890" y2="222.8" stroke="#7a8799" stroke-width="1.4" stroke-dasharray="4 4" />
  <line x1="96" y1="54" x2="96" y2="464" stroke="#445166" stroke-width="1.2" />
  <line x1="96" y1="464" x2="890" y2="464" stroke="#445166" stroke-width="1.2" />
  
      <line x1="96.0" y1="464" x2="96.0" y2="470" stroke="#445166" stroke-width="1" />
      <text x="96.0" y="486" text-anchor="middle" font-size="12" fill="#445166">2026-01-05</text>
    
      <line x1="487.4" y1="464" x2="487.4" y2="470" stroke="#445166" stroke-width="1" />
      <text x="487.4" y="486" text-anchor="middle" font-size="12" fill="#445166">2026-02-23</text>
    
      <line x1="890.0" y1="464" x2="890.0" y2="470" stroke="#445166" stroke-width="1" />
      <text x="890.0" y="486" text-anchor="middle" font-size="12" fill="#445166">2026-04-21</text>
    
  <polyline fill="none" stroke="#0b84f3" stroke-width="2.2" points="96.0,223.1 107.2,226.3 118.4,233.1 129.5,222.5 140.7,222.5 151.9,215.9 163.1,215.9 174.3,215.4 185.5,210.0 196.6,201.5 207.8,201.4 219.0,193.5 230.2,228.8 241.4,232.4 252.6,236.9 263.7,239.2 274.9,248.0 286.1,262.7 297.3,265.2 308.5,281.7 319.7,280.0 330.8,280.9 342.0,282.0 353.2,283.6 364.4,288.5 375.6,258.2 386.8,263.8 397.9,264.0 409.1,246.2 420.3,255.7 431.5,249.1 442.7,234.7 453.9,239.7 465.0,244.1 476.2,185.6 487.4,166.9 498.6,171.3 509.8,183.5 521.0,177.9 532.1,155.6 543.3,144.6 554.5,136.1 565.7,96.6 576.9,100.1 588.1,101.2 599.2,104.0 610.4,96.8 621.6,101.0 632.8,101.0 644.0,108.8 655.2,103.4 666.3,98.8 677.5,90.0 688.7,89.2 699.9,97.7 711.1,81.0 722.3,74.7 733.4,63.3 744.6,67.9 755.8,69.4 767.0,66.9 778.2,62.2 789.4,54.0 800.5,62.9 811.7,64.8 822.9,64.3 834.1,68.7 845.3,67.6 856.5,72.2 867.6,80.4 878.8,78.1 890.0,78.3" /><circle cx="890.0" cy="78.3" r="3.5" fill="#0b84f3" /><polyline fill="none" stroke="#f39c12" stroke-width="2.2" points="96.0,222.5 107.2,227.5 118.4,234.1 129.5,223.3 140.7,237.8 151.9,243.0 163.1,253.1 174.3,252.9 185.5,248.8 196.6,238.1 207.8,250.7 219.0,242.2 230.2,273.7 241.4,295.3 252.6,309.9 263.7,317.4 274.9,316.7 286.1,326.8 297.3,356.8 308.5,367.6 319.7,375.3 330.8,377.3 342.0,375.0 353.2,382.2 364.4,412.5 375.6,395.3 386.8,391.7 397.9,400.9 409.1,376.6 420.3,391.1 431.5,365.2 442.7,358.7 453.9,325.4 465.0,328.4 476.2,294.1 487.4,287.4 498.6,289.3 509.8,325.5 521.0,317.8 532.1,285.4 543.3,274.4 554.5,272.8 565.7,276.2 576.9,293.0 588.1,297.2 599.2,305.8 610.4,315.9 621.6,326.8 632.8,330.0 644.0,342.9 655.2,342.4 666.3,340.1 677.5,338.6 688.7,335.6 699.9,352.9 711.1,341.8 722.3,337.7 733.4,325.1 744.6,328.1 755.8,330.4 767.0,331.6 778.2,327.5 789.4,319.6 800.5,324.7 811.7,327.8 822.9,317.3 834.1,327.2 845.3,329.4 856.5,329.9 867.6,337.5 878.8,351.5 890.0,256.6" /><circle cx="890.0" cy="256.6" r="3.5" fill="#f39c12" /><polyline fill="none" stroke="#27ae60" stroke-width="2.2" points="96.0,222.2 107.2,225.8 118.4,226.8 129.5,225.5 140.7,226.9 151.9,227.2 163.1,228.3 174.3,228.3 185.5,228.2 196.6,227.1 207.8,227.6 219.0,217.5 230.2,215.6 241.4,209.4 252.6,208.8 263.7,204.2 274.9,198.8 286.1,198.2 297.3,190.7 308.5,182.4 319.7,181.7 330.8,180.9 342.0,176.8 353.2,173.3 364.4,171.6 375.6,163.7 386.8,162.5 397.9,162.6 409.1,161.6 420.3,161.8 431.5,163.0 442.7,163.0 453.9,160.4 465.0,161.8 476.2,155.6 487.4,155.1 498.6,151.0 509.8,154.8 521.0,152.2 532.1,152.0 543.3,152.2 554.5,154.5 565.7,155.6 576.9,158.0 588.1,158.6 599.2,159.8 610.4,159.0 621.6,158.3 632.8,157.9 644.0,158.5 655.2,158.7 666.3,158.6 677.5,160.3 688.7,161.5 699.9,161.6 711.1,156.7 722.3,156.7 733.4,155.6 744.6,155.1 755.8,154.6 767.0,154.0 778.2,140.6 789.4,140.1 800.5,137.9 811.7,137.9 822.9,134.5 834.1,134.3 845.3,133.6 856.5,136.2 867.6,139.3 878.8,132.0 890.0,129.6" /><circle cx="890.0" cy="129.6" r="3.5" fill="#27ae60" /><polyline fill="none" stroke="#c0392b" stroke-width="2.2" points="96.0,219.2 107.2,221.9 118.4,226.2 129.5,221.6 140.7,222.5 151.9,221.5 163.1,219.8 174.3,220.5 185.5,220.2 196.6,216.4 207.8,219.1 219.0,215.7 230.2,223.3 241.4,196.9 252.6,193.0 263.7,193.3 274.9,186.6 286.1,183.1 297.3,187.0 308.5,187.1 319.7,187.9 330.8,187.5 342.0,186.2 353.2,182.6 364.4,182.7 375.6,155.5 386.8,154.8 397.9,155.1 409.1,156.4 420.3,160.3 431.5,147.8 442.7,147.4 453.9,147.1 465.0,151.4 476.2,165.5 487.4,172.6 498.6,178.0 509.8,194.0 521.0,187.2 532.1,167.7 543.3,171.2 554.5,193.4 565.7,209.5 576.9,227.1 588.1,238.5 599.2,242.4 610.4,252.3 621.6,262.7 632.8,272.1 644.0,287.5 655.2,291.2 666.3,298.5 677.5,305.4 688.7,307.5 699.9,318.9 711.1,303.6 722.3,309.0 733.4,307.2 744.6,309.7 755.8,314.5 767.0,309.9 778.2,299.3 789.4,294.3 800.5,297.0 811.7,298.2 822.9,302.7 834.1,315.8 845.3,310.3 856.5,308.5 867.6,282.1 878.8,271.0 890.0,270.1" /><circle cx="890.0" cy="270.1" r="3.5" fill="#c0392b" /><polyline fill="none" stroke="#8e44ad" stroke-width="2.2" points="96.0,227.0 107.2,240.3 118.4,241.2 129.5,236.8 140.7,238.9 151.9,236.9 163.1,239.8 174.3,243.5 185.5,237.4 196.6,227.5 207.8,233.8 219.0,230.6 230.2,243.9 241.4,249.1 252.6,256.4 263.7,264.5 274.9,247.7 286.1,253.0 297.3,258.7 308.5,262.2 319.7,268.8 330.8,278.1 342.0,262.3 353.2,256.1 364.4,258.4 375.6,247.1 386.8,249.4 397.9,251.8 409.1,248.6 420.3,248.4 431.5,250.2 442.7,220.5 453.9,230.1 465.0,236.7 476.2,244.7 487.4,252.8 498.6,258.7 509.8,264.5 521.0,258.0 532.1,263.2 543.3,276.5 554.5,297.9 565.7,304.0 576.9,324.6 588.1,341.3 599.2,339.9 610.4,341.9 621.6,343.5 632.8,341.6 644.0,353.9 655.2,356.7 666.3,350.1 677.5,356.1 688.7,353.7 699.9,364.9 711.1,352.5 722.3,351.7 733.4,336.9 744.6,328.8 755.8,334.2 767.0,346.6 778.2,344.6 789.4,343.8 800.5,349.3 811.7,364.0 822.9,362.3 834.1,377.7 845.3,389.0 856.5,406.3 867.6,424.2 878.8,435.5 890.0,464.0" /><circle cx="890.0" cy="464.0" r="3.5" fill="#8e44ad" /><polyline fill="none" stroke="#16a085" stroke-width="2.2" points="96.0,221.3 107.2,221.6 118.4,221.7 129.5,221.3 140.7,221.4 151.9,221.2 163.1,221.4 174.3,222.1 185.5,222.5 196.6,221.9 207.8,222.0 219.0,222.2 230.2,222.2 241.4,222.7 252.6,221.6 263.7,221.1 274.9,217.7 286.1,217.2 297.3,216.4 308.5,216.1 319.7,219.0 330.8,219.8 342.0,220.1 353.2,218.6 364.4,218.7 375.6,218.7 386.8,219.9 397.9,219.9 409.1,219.8 420.3,220.2 431.5,219.3 442.7,218.8 453.9,218.5 465.0,219.3 476.2,217.7 487.4,218.4 498.6,219.1 509.8,219.0 521.0,217.9 532.1,217.2 543.3,218.0 554.5,217.5 565.7,216.9 576.9,217.2 588.1,219.2 599.2,219.7 610.4,221.0 621.6,221.9 632.8,222.3 644.0,223.5 655.2,224.1 666.3,224.7 677.5,225.3 688.7,226.8 699.9,226.5 711.1,226.0 722.3,226.4 733.4,226.2 744.6,226.2 755.8,226.9 767.0,227.0 778.2,227.0 789.4,227.2 800.5,227.6 811.7,227.6 822.9,227.5 834.1,228.5 845.3,229.6 856.5,230.6 867.6,231.6 878.8,231.2 890.0,230.1" /><circle cx="890.0" cy="230.1" r="3.5" fill="#16a085" /><polyline fill="none" stroke="#2c3e50" stroke-width="2.2" points="96.0,220.9 107.2,223.4 118.4,228.1 129.5,228.6 140.7,232.8 151.9,234.8 163.1,237.8 174.3,241.9 185.5,237.8 196.6,235.8 207.8,238.5 219.0,240.6 230.2,240.1 241.4,242.3 252.6,242.9 263.7,242.2 274.9,239.6 286.1,239.6 297.3,239.1 308.5,236.5 319.7,236.5 330.8,234.9 342.0,236.8 353.2,235.9 364.4,236.4 375.6,234.4 386.8,232.5 397.9,233.8 409.1,238.4 420.3,234.6 431.5,234.5 442.7,229.9 453.9,229.8 465.0,230.0 476.2,230.4 487.4,228.8 498.6,231.1 509.8,230.9 521.0,230.0 532.1,234.7 543.3,235.2 554.5,235.2 565.7,238.3 576.9,243.2 588.1,251.0 599.2,255.2 610.4,258.1 621.6,260.9 632.8,261.0 644.0,263.7 655.2,263.1 666.3,261.4 677.5,257.8 688.7,261.3 699.9,267.6 711.1,264.8 722.3,265.8 733.4,267.6 744.6,268.1 755.8,269.8 767.0,269.4 778.2,268.1 789.4,267.1 800.5,266.2 811.7,261.7 822.9,261.6 834.1,261.2 845.3,261.7 856.5,266.7 867.6,270.4 878.8,275.4 890.0,274.8" /><circle cx="890.0" cy="274.8" r="3.5" fill="#2c3e50" /><polyline fill="none" stroke="#d35400" stroke-width="2.2" points="96.0,213.1 107.2,208.8 118.4,216.2 129.5,217.0 140.7,215.1 151.9,210.7 163.1,210.3 174.3,212.3 185.5,210.8 196.6,209.1 207.8,206.4 219.0,201.7 230.2,197.7 241.4,198.6 252.6,205.3 263.7,196.8 274.9,193.2 286.1,195.0 297.3,196.9 308.5,193.3 319.7,193.7 330.8,193.5 342.0,195.9 353.2,192.8 364.4,192.9 375.6,183.6 386.8,182.1 397.9,180.2 409.1,184.0 420.3,182.4 431.5,180.0 442.7,178.1 453.9,169.1 465.0,162.8 476.2,149.7 487.4,146.3 498.6,142.4 509.8,142.2 521.0,136.7 532.1,131.3 543.3,127.9 554.5,126.1 565.7,129.2 576.9,129.0 588.1,132.4 599.2,135.4 610.4,136.4 621.6,139.7 632.8,132.6 644.0,137.1 655.2,137.4 666.3,137.5 677.5,137.5 688.7,137.4 699.9,142.7 711.1,144.3 722.3,139.3 733.4,130.2 744.6,131.5 755.8,133.4 767.0,134.8 778.2,135.0 789.4,133.4 800.5,135.5 811.7,135.3 822.9,134.7 834.1,136.8 845.3,142.0 856.5,146.4 867.6,154.8 878.8,153.9 890.0,154.2" /><circle cx="890.0" cy="154.2" r="3.5" fill="#d35400" />
  
      <line x1="900" y1="70" x2="920" y2="70" stroke="#0b84f3" stroke-width="3" />
      <text x="928" y="74" font-size="12" fill="#18212f">BBL</text>
    
      <line x1="900" y1="92" x2="920" y2="92" stroke="#f39c12" stroke-width="3" />
      <text x="928" y="96" font-size="12" fill="#18212f">KBANK</text>
    
      <line x1="900" y1="114" x2="920" y2="114" stroke="#27ae60" stroke-width="3" />
      <text x="928" y="118" font-size="12" fill="#18212f">KKP</text>
    
      <line x1="900" y1="136" x2="920" y2="136" stroke="#c0392b" stroke-width="3" />
      <text x="928" y="140" font-size="12" fill="#18212f">KTB</text>
    
      <line x1="900" y1="158" x2="920" y2="158" stroke="#8e44ad" stroke-width="3" />
      <text x="928" y="162" font-size="12" fill="#18212f">SCB</text>
    
      <line x1="900" y1="180" x2="920" y2="180" stroke="#16a085" stroke-width="3" />
      <text x="928" y="184" font-size="12" fill="#18212f">TCAP</text>
    
      <line x1="900" y1="202" x2="920" y2="202" stroke="#2c3e50" stroke-width="3" />
      <text x="928" y="206" font-size="12" fill="#18212f">TISCO</text>
    
      <line x1="900" y1="224" x2="920" y2="224" stroke="#d35400" stroke-width="3" />
      <text x="928" y="228" font-size="12" fill="#18212f">TTB</text>
    
</svg>
