<?xml version="1.0" encoding="UTF-8"?>
<svg xmlns="http://www.w3.org/2000/svg" width="1080" height="520" viewBox="0 0 1080 520">
  <rect width="100%" height="100%" fill="#f7f9fc" />
  <text x="96" y="26" font-size="20" font-family="Arial, sans-serif" font-weight="700" fill="#18212f">Commerce sector stock group chart</text>
  <text x="96" y="48" font-size="12" font-family="Arial, sans-serif" fill="#445166">Cumulative NVDR NET by stock | 2026-01-01 to 2026-04-21</text>
  
      <line x1="96" y1="54.0" x2="890" y2="54.0" stroke="#d8dde6" stroke-width="1" />
      <text x="86" y="58.0" text-anchor="end" font-size="12" fill="#445166">6,699.03</text>
    
      <line x1="96" y1="136.0" x2="890" y2="136.0" stroke="#d8dde6" stroke-width="1" />
      <text x="86" y="140.0" text-anchor="end" font-size="12" fill="#445166">5,179.83</text>
    
      <line x1="96" y1="218.0" x2="890" y2="218.0" stroke="#d8dde6" stroke-width="1" />
      <text x="86" y="222.0" text-anchor="end" font-size="12" fill="#445166">3,660.62</text>
    
      <line x1="96" y1="300.0" x2="890" y2="300.0" stroke="#d8dde6" stroke-width="1" />
      <text x="86" y="304.0" text-anchor="end" font-size="12" fill="#445166">2,141.42</text>
    
      <line x1="96" y1="382.0" x2="890" y2="382.0" stroke="#d8dde6" stroke-width="1" />
      <text x="86" y="386.0" text-anchor="end" font-size="12" fill="#445166">622.21</text>
    
      <line x1="96" y1="464.0" x2="890" y2="464.0" stroke="#d8dde6" stroke-width="1" />
      <text x="86" y="468.0" text-anchor="end" font-size="12" fill="#445166">-896.99</text>
    
  <line x1="96" y1="415.6" x2="890" y2="415.6" stroke="#7a8799" stroke-width="1.4" stroke-dasharray="4 4" />
  <line x1="96" y1="54" x2="96" y2="464" stroke="#445166" stroke-width="1.2" />
  <line x1="96" y1="464" x2="890" y2="464" stroke="#445166" stroke-width="1.2" />
  
      <line x1="96.0" y1="464" x2="96.0" y2="470" stroke="#445166" stroke-width="1" />
      <text x="96.0" y="486" text-anchor="middle" font-size="12" fill="#445166">2026-01-05</text>
    
      <line x1="487.4" y1="464" x2="487.4" y2="470" stroke="#445166" stroke-width="1" />
      <text x="487.4" y="486" text-anchor="middle" font-size="12" fill="#445166">2026-02-23</text>
    
      <line x1="890.0" y1="464" x2="890.0" y2="470" stroke="#445166" stroke-width="1" />
      <text x="890.0" y="486" text-anchor="middle" font-size="12" fill="#445166">2026-04-21</text>
    
  <polyline fill="none" stroke="#0b84f3" stroke-width="2.2" points="96.0,416.8 107.2,417.2 118.4,415.7 129.5,417.2 140.7,417.4 151.9,418.0 163.1,418.1 174.3,417.9 185.5,415.2 196.6,415.3 207.8,414.4 219.0,414.7 230.2,414.5 241.4,414.1 252.6,413.9 263.7,412.8 274.9,410.0 286.1,411.3 297.3,411.4 308.5,411.5 319.7,411.5 330.8,409.6 342.0,409.9 353.2,406.5 364.4,408.3 375.6,404.5 386.8,402.4 397.9,403.5 409.1,403.7 420.3,403.6 431.5,401.7 442.7,400.2 453.9,401.4 465.0,401.6 476.2,402.8 487.4,401.5 498.6,401.0 509.8,401.5 521.0,401.2 532.1,402.4 543.3,403.0 554.5,405.5 565.7,407.2 576.9,407.8 588.1,408.6 599.2,410.2 610.4,411.2 621.6,409.7 632.8,410.2 644.0,410.1 655.2,409.8 666.3,411.2 677.5,413.1 688.7,413.2 699.9,414.2 711.1,414.5 722.3,414.1 733.4,414.6 744.6,413.1 755.8,411.4 767.0,412.9 778.2,412.7 789.4,412.7 800.5,412.8 811.7,412.5 822.9,411.5 834.1,411.4 845.3,411.5 856.5,411.2 867.6,411.8 878.8,412.0 890.0,412.1" /><circle cx="890.0" cy="412.1" r="3.5" fill="#0b84f3" /><polyline fill="none" stroke="#f39c12" stroke-width="2.2" points="96.0,410.8 107.2,412.2 118.4,412.8 129.5,417.3 140.7,419.1 151.9,416.7 163.1,417.6 174.3,416.3 185.5,416.5 196.6,420.5 207.8,421.3 219.0,420.3 230.2,420.6 241.4,421.4 252.6,419.9 263.7,419.7 274.9,420.0 286.1,421.7 297.3,419.6 308.5,420.0 319.7,415.5 330.8,408.7 342.0,410.3 353.2,404.7 364.4,404.3 375.6,407.4 386.8,409.4 397.9,406.7 409.1,406.3 420.3,405.1 431.5,403.1 442.7,400.0 453.9,399.5 465.0,401.0 476.2,399.7 487.4,400.3 498.6,399.7 509.8,400.1 521.0,395.7 532.1,397.4 543.3,396.5 554.5,394.9 565.7,400.4 576.9,402.0 588.1,401.9 599.2,404.7 610.4,408.1 621.6,410.3 632.8,412.8 644.0,414.5 655.2,420.6 666.3,423.3 677.5,426.8 688.7,434.2 699.9,435.7 711.1,436.0 722.3,438.5 733.4,443.0 744.6,441.5 755.8,441.4 767.0,441.4 778.2,440.6 789.4,443.6 800.5,444.3 811.7,444.2 822.9,443.3 834.1,446.2 845.3,445.4 856.5,447.8 867.6,456.0 878.8,460.8 890.0,464.0" /><circle cx="890.0" cy="464.0" r="3.5" fill="#f39c12" /><polyline fill="none" stroke="#27ae60" stroke-width="2.2" points="96.0,409.0 107.2,400.8 118.4,398.3 129.5,400.7 140.7,395.3 151.9,395.4 163.1,382.8 174.3,380.1 185.5,375.7 196.6,369.9 207.8,333.8 219.0,318.2 230.2,314.3 241.4,300.8 252.6,291.2 263.7,282.2 274.9,268.9 286.1,261.9 297.3,247.8 308.5,229.6 319.7,218.1 330.8,184.4 342.0,180.6 353.2,161.4 364.4,146.1 375.6,144.2 386.8,123.7 397.9,122.0 409.1,128.1 420.3,135.8 431.5,133.9 442.7,128.1 453.9,117.8 465.0,148.0 476.2,158.8 487.4,173.9 498.6,115.7 509.8,109.9 521.0,72.4 532.1,62.7 543.3,54.0 554.5,61.1 565.7,96.2 576.9,112.4 588.1,119.5 599.2,132.2 610.4,148.7 621.6,153.3 632.8,159.8 644.0,171.6 655.2,167.5 666.3,164.4 677.5,183.6 688.7,182.3 699.9,205.6 711.1,198.9 722.3,206.1 733.4,197.7 744.6,163.7 755.8,155.3 767.0,158.4 778.2,166.4 789.4,171.0 800.5,167.1 811.7,162.0 822.9,157.5 834.1,153.5 845.3,164.0 856.5,181.8 867.6,184.9 878.8,177.4 890.0,187.1" /><circle cx="890.0" cy="187.1" r="3.5" fill="#27ae60" /><polyline fill="none" stroke="#c0392b" stroke-width="2.2" points="96.0,415.7 107.2,415.7 118.4,412.8 129.5,415.6 140.7,416.3 151.9,416.0 163.1,415.7 174.3,414.1 185.5,408.2 196.6,408.1 207.8,405.6 219.0,394.8 230.2,392.5 241.4,390.2 252.6,387.3 263.7,385.1 274.9,383.1 286.1,384.7 297.3,384.2 308.5,384.4 319.7,381.6 330.8,381.3 342.0,383.3 353.2,381.5 364.4,380.5 375.6,372.7 386.8,375.4 397.9,377.2 409.1,370.1 420.3,371.3 431.5,372.9 442.7,372.6 453.9,370.3 465.0,372.5 476.2,377.9 487.4,379.2 498.6,376.0 509.8,374.5 521.0,372.3 532.1,370.6 543.3,373.4 554.5,378.6 565.7,381.8 576.9,383.1 588.1,381.5 599.2,386.6 610.4,387.5 621.6,386.5 632.8,385.3 644.0,386.1 655.2,387.2 666.3,390.5 677.5,395.7 688.7,396.5 699.9,395.2 711.1,394.7 722.3,396.5 733.4,395.8 744.6,392.4 755.8,386.7 767.0,383.3 778.2,386.9 789.4,386.4 800.5,386.2 811.7,383.9 822.9,381.9 834.1,383.3 845.3,382.9 856.5,382.0 867.6,383.5 878.8,384.4 890.0,381.9" /><circle cx="890.0" cy="381.9" r="3.5" fill="#c0392b" /><polyline fill="none" stroke="#8e44ad" stroke-width="2.2" points="96.0,415.7 107.2,415.5 118.4,413.6 129.5,414.2 140.7,414.4 151.9,414.9 163.1,415.1 174.3,415.3 185.5,415.3 196.6,415.6 207.8,415.0 219.0,413.1 230.2,412.3 241.4,413.1 252.6,414.0 263.7,414.2 274.9,413.0 286.1,413.2 297.3,413.5 308.5,413.9 319.7,414.5 330.8,411.9 342.0,412.0 353.2,411.8 364.4,412.3 375.6,410.7 386.8,410.8 397.9,411.0 409.1,410.4 420.3,410.6 431.5,411.2 442.7,410.0 453.9,409.1 465.0,408.1 476.2,409.1 487.4,411.5 498.6,412.1 509.8,412.2 521.0,412.4 532.1,413.1 543.3,414.0 554.5,414.1 565.7,415.1 576.9,415.5 588.1,415.5 599.2,415.9 610.4,416.1 621.6,416.1 632.8,416.5 644.0,416.4 655.2,416.3 666.3,416.5 677.5,416.7 688.7,416.7 699.9,416.7 711.1,416.7 722.3,416.7 733.4,416.8 744.6,416.5 755.8,416.3 767.0,416.3 778.2,416.1 789.4,416.3 800.5,416.3 811.7,415.9 822.9,415.7 834.1,415.9 845.3,415.9 856.5,415.9 867.6,415.7 878.8,415.8 890.0,415.8" /><circle cx="890.0" cy="415.8" r="3.5" fill="#8e44ad" /><polyline fill="none" stroke="#16a085" stroke-width="2.2" points="96.0,416.0 107.2,416.0 118.4,415.4 129.5,416.5 140.7,417.3 151.9,417.0 163.1,417.5 174.3,417.6 185.5,417.8 196.6,417.9 207.8,417.9 219.0,416.9 230.2,415.8 241.4,416.3 252.6,416.4 263.7,416.3 274.9,416.5 286.1,416.6 297.3,416.7 308.5,417.0 319.7,417.2 330.8,416.8 342.0,417.2 353.2,417.3 364.4,417.3 375.6,417.3 386.8,419.0 397.9,419.8 409.1,419.4 420.3,418.9 431.5,418.6 442.7,418.9 453.9,418.0 465.0,418.5 476.2,419.2 487.4,419.7 498.6,419.8 509.8,420.0 521.0,420.7 532.1,420.9 543.3,420.6 554.5,421.1 565.7,421.4 576.9,421.7 588.1,421.5 599.2,421.7 610.4,421.7 621.6,421.7 632.8,422.2 644.0,422.3 655.2,422.1 666.3,422.0 677.5,422.2 688.7,422.2 699.9,421.1 711.1,420.7 722.3,420.2 733.4,420.1 744.6,419.5 755.8,418.1 767.0,417.9 778.2,418.3 789.4,418.7 800.5,419.5 811.7,419.6 822.9,419.2 834.1,419.6 845.3,419.4 856.5,419.0 867.6,418.9 878.8,419.1 890.0,418.8" /><circle cx="890.0" cy="418.8" r="3.5" fill="#16a085" /><polyline fill="none" stroke="#2c3e50" stroke-width="2.2" points="96.0,417.0 107.2,418.0 118.4,416.9 129.5,417.6 140.7,416.9 151.9,415.8 163.1,415.2 174.3,415.7 185.5,413.8 196.6,415.0 207.8,412.6 219.0,410.3 230.2,409.7 241.4,409.4 252.6,407.6 263.7,405.6 274.9,404.1 286.1,404.9 297.3,404.9 308.5,395.8 319.7,399.4 330.8,400.5 342.0,399.6 353.2,396.8 364.4,397.1 375.6,387.4 386.8,383.4 397.9,385.8 409.1,373.4 420.3,376.0 431.5,378.9 442.7,377.9 453.9,375.0 465.0,377.3 476.2,379.6 487.4,383.3 498.6,385.0 509.8,383.9 521.0,381.8 532.1,382.2 543.3,387.5 554.5,390.1 565.7,395.9 576.9,400.6 588.1,401.3 599.2,406.7 610.4,406.6 621.6,408.3 632.8,409.8 644.0,410.2 655.2,410.3 666.3,409.3 677.5,412.7 688.7,412.8 699.9,413.5 711.1,412.6 722.3,412.6 733.4,413.7 744.6,410.8 755.8,407.8 767.0,405.4 778.2,404.8 789.4,404.6 800.5,404.7 811.7,403.3 822.9,399.6 834.1,401.3 845.3,401.7 856.5,399.7 867.6,400.8 878.8,399.6 890.0,398.4" /><circle cx="890.0" cy="398.4" r="3.5" fill="#2c3e50" /><polyline fill="none" stroke="#d35400" stroke-width="2.2" points="96.0,416.3 107.2,416.8 118.4,416.1 129.5,415.6 140.7,415.2 151.9,415.1 163.1,414.5 174.3,413.1 185.5,412.8 196.6,412.2 207.8,412.1 219.0,411.8 230.2,410.2 241.4,409.9 252.6,408.9 263.7,408.5 274.9,408.3 286.1,408.9 297.3,408.1 308.5,408.0 319.7,407.8 330.8,407.2 342.0,405.8 353.2,405.5 364.4,405.4 375.6,402.6 386.8,401.9 397.9,401.3 409.1,401.7 420.3,401.1 431.5,401.2 442.7,400.8 453.9,401.2 465.0,400.2 476.2,400.3 487.4,400.1 498.6,400.0 509.8,400.0 521.0,399.6 532.1,399.9 543.3,400.0 554.5,399.2 565.7,399.3 576.9,400.2 588.1,400.5 599.2,400.3 610.4,399.7 621.6,399.6 632.8,398.9 644.0,398.4 655.2,398.7 666.3,398.3 677.5,398.2 688.7,398.1 699.9,398.0 711.1,397.5 722.3,397.4 733.4,397.1 744.6,397.4 755.8,397.4 767.0,397.2 778.2,397.2 789.4,397.5 800.5,397.3 811.7,396.7 822.9,396.6 834.1,396.6 845.3,396.5 856.5,396.8 867.6,396.9 878.8,397.0 890.0,396.9" /><circle cx="890.0" cy="396.9" r="3.5" fill="#d35400" /><polyline fill="none" stroke="#7f8c8d" stroke-width="2.2" points="96.0,415.6 107.2,416.4 118.4,416.3 129.5,416.3 140.7,416.3 151.9,416.8 163.1,416.8 174.3,416.9 185.5,416.9 196.6,416.8 207.8,417.3 219.0,418.0 230.2,417.8 241.4,418.4 252.6,419.0 263.7,419.3 274.9,419.1 286.1,418.2 297.3,417.9 308.5,418.5 319.7,418.6 330.8,418.6 342.0,418.9 353.2,418.8 364.4,418.9 375.6,418.7 386.8,418.0 397.9,418.1 409.1,418.3 420.3,418.4 431.5,418.9 442.7,419.2 453.9,419.2 465.0,419.5 476.2,420.1 487.4,420.4 498.6,420.2 509.8,420.5 521.0,420.5 532.1,420.9 543.3,421.0 554.5,422.1 565.7,421.8 576.9,421.9 588.1,422.5 599.2,423.4 610.4,423.6 621.6,423.6 632.8,423.8 644.0,424.3 655.2,424.5 666.3,425.1 677.5,425.2 688.7,425.0 699.9,425.2 711.1,425.3 722.3,424.9 733.4,425.1 744.6,424.9 755.8,425.1 767.0,425.4 778.2,425.1 789.4,425.1 800.5,425.1 811.7,424.9 822.9,424.1 834.1,424.4 845.3,424.4 856.5,424.1 867.6,424.3 878.8,424.6 890.0,424.6" /><circle cx="890.0" cy="424.6" r="3.5" fill="#7f8c8d" />
  
      <line x1="900" y1="70" x2="920" y2="70" stroke="#0b84f3" stroke-width="3" />
      <text x="928" y="74" font-size="12" fill="#18212f">BJC</text>
    
      <line x1="900" y1="92" x2="920" y2="92" stroke="#f39c12" stroke-width="3" />
      <text x="928" y="96" font-size="12" fill="#18212f">COM7</text>
    
      <line x1="900" y1="114" x2="920" y2="114" stroke="#27ae60" stroke-width="3" />
      <text x="928" y="118" font-size="12" fill="#18212f">CPALL</text>
    
      <line x1="900" y1="136" x2="920" y2="136" stroke="#c0392b" stroke-width="3" />
      <text x="928" y="140" font-size="12" fill="#18212f">CRC</text>
    
      <line x1="900" y1="158" x2="920" y2="158" stroke="#8e44ad" stroke-width="3" />
      <text x="928" y="162" font-size="12" fill="#18212f">DOHOME</text>
    
      <line x1="900" y1="180" x2="920" y2="180" stroke="#16a085" stroke-width="3" />
      <text x="928" y="184" font-size="12" fill="#18212f">GLOBAL</text>
    
      <line x1="900" y1="202" x2="920" y2="202" stroke="#2c3e50" stroke-width="3" />
      <text x="928" y="206" font-size="12" fill="#18212f">HMPRO</text>
    
      <line x1="900" y1="224" x2="920" y2="224" stroke="#d35400" stroke-width="3" />
      <text x="928" y="228" font-size="12" fill="#18212f">MEGA</text>
    
      <line x1="900" y1="246" x2="920" y2="246" stroke="#7f8c8d" stroke-width="3" />
      <text x="928" y="250" font-size="12" fill="#18212f">MOSHI</text>
    
</svg>
