<?xml version="1.0" encoding="UTF-8"?>
<svg xmlns="http://www.w3.org/2000/svg" width="960" height="420" viewBox="0 0 960 420">
  <rect width="100%" height="100%" fill="#f7f9fc" />
  <text x="88" y="24" font-size="20" font-family="Arial, sans-serif" font-weight="700" fill="#18212f">Agri sector cumulative NVDR NET (2026-01-01 to 2026-04-21)</text>
  <text x="88" y="46" font-size="12" font-family="Arial, sans-serif" fill="#445166">Unit: million baht, based on NVDR Turnover (Net) from value view</text>
  
      <line x1="88" y1="36.0" x2="936" y2="36.0" stroke="#d8dde6" stroke-width="1" />
      <text x="78" y="40.0" text-anchor="end" font-size="12" fill="#445166">132.05</text>
    
      <line x1="88" y1="101.6" x2="936" y2="101.6" stroke="#d8dde6" stroke-width="1" />
      <text x="78" y="105.6" text-anchor="end" font-size="12" fill="#445166">83.18</text>
    
      <line x1="88" y1="167.2" x2="936" y2="167.2" stroke="#d8dde6" stroke-width="1" />
      <text x="78" y="171.2" text-anchor="end" font-size="12" fill="#445166">34.30</text>
    
      <line x1="88" y1="232.8" x2="936" y2="232.8" stroke="#d8dde6" stroke-width="1" />
      <text x="78" y="236.8" text-anchor="end" font-size="12" fill="#445166">-14.57</text>
    
      <line x1="88" y1="298.4" x2="936" y2="298.4" stroke="#d8dde6" stroke-width="1" />
      <text x="78" y="302.4" text-anchor="end" font-size="12" fill="#445166">-63.45</text>
    
      <line x1="88" y1="364.0" x2="936" y2="364.0" stroke="#d8dde6" stroke-width="1" />
      <text x="78" y="368.0" text-anchor="end" font-size="12" fill="#445166">-112.32</text>
    
  <line x1="88" y1="213.2" x2="936" y2="213.2" stroke="#7a8799" stroke-width="1.4" stroke-dasharray="4 4" />
  <line x1="88" y1="36" x2="88" y2="364" stroke="#445166" stroke-width="1.2" />
  <line x1="88" y1="364" x2="936" y2="364" stroke="#445166" stroke-width="1.2" />
  
      <line x1="88.0" y1="364" x2="88.0" y2="370" stroke="#445166" stroke-width="1" />
      <text x="88.0" y="386" text-anchor="middle" font-size="12" fill="#445166">2026-01-05</text>
    
      <line x1="506.0" y1="364" x2="506.0" y2="370" stroke="#445166" stroke-width="1" />
      <text x="506.0" y="386" text-anchor="middle" font-size="12" fill="#445166">2026-02-23</text>
    
      <line x1="936.0" y1="364" x2="936.0" y2="370" stroke="#445166" stroke-width="1" />
      <text x="936.0" y="386" text-anchor="middle" font-size="12" fill="#445166">2026-04-21</text>
    
  <polyline fill="none" stroke="#0b84f3" stroke-width="3" points="88.0,186.2 99.9,137.3 111.9,118.9 123.8,117.3 135.8,106.4 147.7,118.4 159.7,121.4 171.6,118.6 183.5,118.4 195.5,116.8 207.4,109.3 219.4,77.0 231.3,59.8 243.3,36.0 255.2,86.4 267.2,121.4 279.1,133.8 291.0,170.8 303.0,187.8 314.9,218.0 326.9,230.5 338.8,236.7 350.8,226.1 362.7,210.8 374.6,221.4 386.6,189.2 398.5,204.2 410.5,202.1 422.4,208.7 434.4,250.7 446.3,165.2 458.3,213.4 470.2,198.4 482.1,250.5 494.1,306.2 506.0,312.2 518.0,283.6 529.9,306.8 541.9,331.6 553.8,364.0 565.7,350.8 577.7,322.5 589.6,323.3 601.6,136.5 613.5,333.2 625.5,273.4 637.4,300.1 649.4,226.7 661.3,219.1 673.2,237.4 685.2,278.9 697.1,243.9 709.1,259.7 721.0,320.0 733.0,335.0 744.9,313.5 756.8,307.4 768.8,320.7 780.7,256.7 792.7,282.8 804.6,257.1 816.6,124.2 828.5,155.0 840.5,158.0 852.4,199.0 864.3,203.7 876.3,213.2 888.2,225.4 900.2,266.8 912.1,284.4 924.1,274.9 936.0,282.2" />
  <circle cx="936.0" cy="282.2" r="4.5" fill="#0b84f3" />
  <text x="932.0" y="272.2" font-size="12" fill="#18212f">-51.35</text>
</svg>
