<?xml version="1.0" encoding="UTF-8"?>
<svg xmlns="http://www.w3.org/2000/svg" width="1080" height="520" viewBox="0 0 1080 520">
  <rect width="100%" height="100%" fill="#f7f9fc" />
  <text x="96" y="26" font-size="20" font-family="Arial, sans-serif" font-weight="700" fill="#18212f">Trans sector stock group chart</text>
  <text x="96" y="48" font-size="12" font-family="Arial, sans-serif" fill="#445166">Cumulative NVDR NET by stock | 2026-01-01 to 2026-04-21</text>
  
      <line x1="96" y1="54.0" x2="890" y2="54.0" stroke="#d8dde6" stroke-width="1" />
      <text x="86" y="58.0" text-anchor="end" font-size="12" fill="#445166">1,709.30</text>
    
      <line x1="96" y1="136.0" x2="890" y2="136.0" stroke="#d8dde6" stroke-width="1" />
      <text x="86" y="140.0" text-anchor="end" font-size="12" fill="#445166">846.66</text>
    
      <line x1="96" y1="218.0" x2="890" y2="218.0" stroke="#d8dde6" stroke-width="1" />
      <text x="86" y="222.0" text-anchor="end" font-size="12" fill="#445166">-15.98</text>
    
      <line x1="96" y1="300.0" x2="890" y2="300.0" stroke="#d8dde6" stroke-width="1" />
      <text x="86" y="304.0" text-anchor="end" font-size="12" fill="#445166">-878.63</text>
    
      <line x1="96" y1="382.0" x2="890" y2="382.0" stroke="#d8dde6" stroke-width="1" />
      <text x="86" y="386.0" text-anchor="end" font-size="12" fill="#445166">-1,741.27</text>
    
      <line x1="96" y1="464.0" x2="890" y2="464.0" stroke="#d8dde6" stroke-width="1" />
      <text x="86" y="468.0" text-anchor="end" font-size="12" fill="#445166">-2,603.91</text>
    
  <line x1="96" y1="216.5" x2="890" y2="216.5" stroke="#7a8799" stroke-width="1.4" stroke-dasharray="4 4" />
  <line x1="96" y1="54" x2="96" y2="464" stroke="#445166" stroke-width="1.2" />
  <line x1="96" y1="464" x2="890" y2="464" stroke="#445166" stroke-width="1.2" />
  
      <line x1="96.0" y1="464" x2="96.0" y2="470" stroke="#445166" stroke-width="1" />
      <text x="96.0" y="486" text-anchor="middle" font-size="12" fill="#445166">2026-01-05</text>
    
      <line x1="487.4" y1="464" x2="487.4" y2="470" stroke="#445166" stroke-width="1" />
      <text x="487.4" y="486" text-anchor="middle" font-size="12" fill="#445166">2026-02-23</text>
    
      <line x1="890.0" y1="464" x2="890.0" y2="470" stroke="#445166" stroke-width="1" />
      <text x="890.0" y="486" text-anchor="middle" font-size="12" fill="#445166">2026-04-21</text>
    
  <polyline fill="none" stroke="#0b84f3" stroke-width="2.2" points="96.0,215.8 107.2,217.1 118.4,214.2 129.5,214.0 140.7,213.0 151.9,214.6 163.1,215.1 174.3,216.0 185.5,211.4 196.6,211.6 207.8,216.3 219.0,217.5 230.2,214.7 241.4,219.8 252.6,221.2 263.7,221.9 274.9,220.3 286.1,220.9 297.3,221.0 308.5,221.1 319.7,221.2 330.8,218.2 342.0,220.0 353.2,210.1 364.4,212.9 375.6,205.1 386.8,199.2 397.9,198.2 409.1,197.4 420.3,198.3 431.5,199.9 442.7,200.0 453.9,200.6 465.0,200.5 476.2,201.6 487.4,198.9 498.6,200.7 509.8,201.3 521.0,200.5 532.1,203.0 543.3,206.2 554.5,208.1 565.7,210.4 576.9,209.7 588.1,209.1 599.2,211.7 610.4,213.2 621.6,212.1 632.8,212.8 644.0,214.0 655.2,211.9 666.3,212.7 677.5,213.8 688.7,211.9 699.9,213.2 711.1,212.0 722.3,208.5 733.4,208.7 744.6,208.5 755.8,208.1 767.0,201.9 778.2,201.8 789.4,204.7 800.5,208.5 811.7,210.8 822.9,207.3 834.1,208.6 845.3,206.7 856.5,203.0 867.6,203.4 878.8,203.4 890.0,203.3" /><circle cx="890.0" cy="203.3" r="3.5" fill="#0b84f3" /><polyline fill="none" stroke="#f39c12" stroke-width="2.2" points="96.0,202.0 107.2,256.6 118.4,242.5 129.5,232.5 140.7,226.4 151.9,235.4 163.1,227.2 174.3,213.7 185.5,224.7 196.6,245.6 207.8,258.8 219.0,250.8 230.2,270.1 241.4,273.5 252.6,264.4 263.7,245.4 274.9,213.0 286.1,201.4 297.3,204.7 308.5,228.9 319.7,209.8 330.8,188.3 342.0,190.5 353.2,208.2 364.4,165.9 375.6,59.2 386.8,66.8 397.9,60.9 409.1,65.2 420.3,69.0 431.5,73.2 442.7,83.5 453.9,74.8 465.0,98.1 476.2,103.9 487.4,102.7 498.6,54.0 509.8,62.3 521.0,62.7 532.1,84.9 543.3,90.6 554.5,80.5 565.7,152.9 576.9,230.1 588.1,230.2 599.2,275.4 610.4,318.1 621.6,356.8 632.8,394.4 644.0,390.2 655.2,401.9 666.3,402.1 677.5,427.8 688.7,429.2 699.9,462.4 711.1,452.5 722.3,430.1 733.4,448.4 744.6,446.9 755.8,464.0 767.0,448.5 778.2,432.9 789.4,430.5 800.5,436.4 811.7,430.0 822.9,421.3 834.1,418.8 845.3,423.6 856.5,391.1 867.6,384.9 878.8,377.8 890.0,382.9" /><circle cx="890.0" cy="382.9" r="3.5" fill="#f39c12" /><polyline fill="none" stroke="#27ae60" stroke-width="2.2" points="96.0,215.0 107.2,216.5 118.4,214.5 129.5,213.0 140.7,213.2 151.9,215.3 163.1,215.6 174.3,218.8 185.5,216.8 196.6,218.2 207.8,217.8 219.0,217.4 230.2,215.6 241.4,217.2 252.6,217.2 263.7,217.2 274.9,217.8 286.1,218.9 297.3,219.3 308.5,219.6 319.7,220.0 330.8,215.8 342.0,217.9 353.2,216.7 364.4,218.6 375.6,214.2 386.8,212.7 397.9,213.5 409.1,213.7 420.3,213.7 431.5,215.1 442.7,215.0 453.9,216.4 465.0,218.5 476.2,216.6 487.4,213.0 498.6,212.1 509.8,213.5 521.0,213.1 532.1,212.4 543.3,210.0 554.5,208.0 565.7,209.9 576.9,212.3 588.1,211.3 599.2,217.1 610.4,223.9 621.6,228.4 632.8,229.8 644.0,230.4 655.2,229.5 666.3,231.2 677.5,232.2 688.7,232.0 699.9,233.3 711.1,233.1 722.3,232.6 733.4,232.9 744.6,233.1 755.8,232.3 767.0,233.0 778.2,234.0 789.4,233.9 800.5,234.1 811.7,236.1 822.9,234.0 834.1,235.9 845.3,236.1 856.5,235.7 867.6,236.3 878.8,236.5 890.0,235.9" /><circle cx="890.0" cy="235.9" r="3.5" fill="#27ae60" /><polyline fill="none" stroke="#c0392b" stroke-width="2.2" points="96.0,216.3 107.2,216.2 118.4,216.1 129.5,216.5 140.7,217.4 151.9,217.5 163.1,216.5 174.3,216.6 185.5,215.3 196.6,212.9 207.8,211.6 219.0,209.5 230.2,208.3 241.4,206.6 252.6,206.8 263.7,206.4 274.9,204.9 286.1,205.4 297.3,204.7 308.5,206.1 319.7,204.8 330.8,203.0 342.0,203.8 353.2,203.0 364.4,202.4 375.6,182.1 386.8,181.5 397.9,174.8 409.1,171.9 420.3,169.2 431.5,166.1 442.7,173.0 453.9,181.6 465.0,190.8 476.2,191.7 487.4,190.1 498.6,185.4 509.8,184.9 521.0,178.2 532.1,174.6 543.3,179.6 554.5,180.4 565.7,185.7 576.9,189.0 588.1,190.9 599.2,195.5 610.4,198.5 621.6,200.7 632.8,204.6 644.0,206.2 655.2,203.7 666.3,206.4 677.5,209.1 688.7,206.6 699.9,211.8 711.1,211.1 722.3,209.5 733.4,210.3 744.6,209.4 755.8,208.5 767.0,207.1 778.2,207.1 789.4,206.4 800.5,207.7 811.7,207.0 822.9,202.0 834.1,203.7 845.3,204.5 856.5,205.0 867.6,206.8 878.8,207.7 890.0,207.1" /><circle cx="890.0" cy="207.1" r="3.5" fill="#c0392b" /><polyline fill="none" stroke="#8e44ad" stroke-width="2.2" points="96.0,216.5 107.2,216.7 118.4,216.5 129.5,216.8 140.7,220.0 151.9,220.4 163.1,220.4 174.3,219.7 185.5,218.4 196.6,217.7 207.8,216.1 219.0,215.0 230.2,212.7 241.4,211.6 252.6,211.0 263.7,212.4 274.9,212.0 286.1,213.2 297.3,213.9 308.5,216.1 319.7,216.5 330.8,216.6 342.0,218.0 353.2,216.6 364.4,218.1 375.6,211.9 386.8,209.8 397.9,212.4 409.1,210.4 420.3,218.1 431.5,226.4 442.7,226.9 453.9,224.0 465.0,223.3 476.2,229.2 487.4,230.6 498.6,231.3 509.8,231.6 521.0,233.1 532.1,234.0 543.3,237.1 554.5,240.8 565.7,244.0 576.9,246.4 588.1,247.7 599.2,248.3 610.4,250.3 621.6,250.9 632.8,252.3 644.0,254.6 655.2,252.0 666.3,253.9 677.5,256.1 688.7,254.0 699.9,255.9 711.1,254.9 722.3,255.7 733.4,256.8 744.6,254.8 755.8,255.6 767.0,253.7 778.2,253.1 789.4,249.2 800.5,250.7 811.7,250.3 822.9,247.6 834.1,248.6 845.3,247.7 856.5,247.3 867.6,248.8 878.8,249.7 890.0,250.0" /><circle cx="890.0" cy="250.0" r="3.5" fill="#8e44ad" /><polyline fill="none" stroke="#16a085" stroke-width="2.2" points="96.0,214.7 107.2,213.8 118.4,213.7 129.5,211.9 140.7,210.8 151.9,210.3 163.1,210.0 174.3,209.3 185.5,208.7 196.6,208.2 207.8,207.0 219.0,206.7 230.2,207.1 241.4,209.0 252.6,208.2 263.7,208.4 274.9,208.6 286.1,208.6 297.3,208.4 308.5,208.7 319.7,208.4 330.8,209.4 342.0,210.7 353.2,211.8 364.4,212.7 375.6,211.3 386.8,210.6 397.9,210.8 409.1,210.3 420.3,209.5 431.5,209.6 442.7,208.9 453.9,208.7 465.0,206.4 476.2,205.3 487.4,204.4 498.6,203.5 509.8,203.6 521.0,203.2 532.1,201.3 543.3,201.5 554.5,198.2 565.7,197.7 576.9,199.1 588.1,197.9 599.2,197.1 610.4,195.5 621.6,194.7 632.8,194.6 644.0,195.1 655.2,193.6 666.3,194.2 677.5,195.0 688.7,192.8 699.9,192.3 711.1,192.4 722.3,191.0 733.4,190.3 744.6,188.8 755.8,187.8 767.0,188.1 778.2,187.0 789.4,186.9 800.5,186.3 811.7,185.7 822.9,184.7 834.1,184.6 845.3,165.7 856.5,165.7 867.6,164.5 878.8,164.8 890.0,164.9" /><circle cx="890.0" cy="164.9" r="3.5" fill="#16a085" /><polyline fill="none" stroke="#2c3e50" stroke-width="2.2" points="96.0,213.9 107.2,214.2 118.4,214.4 129.5,215.4 140.7,213.3 151.9,214.2 163.1,216.3 174.3,216.5 185.5,216.5 196.6,215.3 207.8,215.6 219.0,214.1 230.2,212.2 241.4,211.5 252.6,212.0 263.7,212.2 274.9,212.6 286.1,213.7 297.3,214.5 308.5,215.4 319.7,215.5 330.8,216.1 342.0,216.7 353.2,218.0 364.4,218.8 375.6,215.5 386.8,215.0 397.9,213.6 409.1,211.4 420.3,211.5 431.5,211.1 442.7,209.2 453.9,207.9 465.0,206.1 476.2,204.5 487.4,199.8 498.6,197.5 509.8,197.0 521.0,197.6 532.1,197.4 543.3,198.1 554.5,199.3 565.7,194.5 576.9,196.5 588.1,194.9 599.2,198.0 610.4,194.1 621.6,194.6 632.8,196.1 644.0,195.5 655.2,186.4 666.3,170.3 677.5,180.3 688.7,182.1 699.9,183.9 711.1,183.9 722.3,181.4 733.4,180.1 744.6,178.3 755.8,180.0 767.0,180.3 778.2,179.5 789.4,179.2 800.5,180.2 811.7,180.4 822.9,181.2 834.1,176.8 845.3,180.5 856.5,179.3 867.6,180.0 878.8,182.4 890.0,182.9" /><circle cx="890.0" cy="182.9" r="3.5" fill="#2c3e50" /><polyline fill="none" stroke="#d35400" stroke-width="2.2" points="96.0,216.4 107.2,217.1 118.4,216.6 129.5,216.7 140.7,217.0 151.9,217.2 163.1,217.3 174.3,217.4 185.5,217.3 196.6,217.0 207.8,216.8 219.0,216.5 230.2,216.2 241.4,216.1 252.6,216.0 263.7,216.0 274.9,216.1 286.1,216.1 297.3,216.1 308.5,216.0 319.7,216.0 330.8,215.7 342.0,215.6 353.2,215.6 364.4,215.4 375.6,215.1 386.8,214.3 397.9,214.8 409.1,214.5 420.3,215.7 431.5,216.1 442.7,215.9 453.9,215.6 465.0,215.7 476.2,215.4 487.4,214.7 498.6,214.0 509.8,214.5 521.0,215.3 532.1,214.8 543.3,214.0 554.5,214.6 565.7,214.8 576.9,215.3 588.1,215.4 599.2,215.8 610.4,216.2 621.6,216.2 632.8,216.6 644.0,216.6 655.2,216.3 666.3,216.5 677.5,216.8 688.7,216.5 699.9,217.1 711.1,217.3 722.3,217.2 733.4,217.3 744.6,217.2 755.8,216.9 767.0,216.8 778.2,216.3 789.4,215.9 800.5,216.0 811.7,216.0 822.9,215.7 834.1,216.3 845.3,216.0 856.5,215.6 867.6,215.6 878.8,215.5 890.0,215.8" /><circle cx="890.0" cy="215.8" r="3.5" fill="#d35400" />
  
      <line x1="900" y1="70" x2="920" y2="70" stroke="#0b84f3" stroke-width="3" />
      <text x="928" y="74" font-size="12" fill="#18212f">AAV</text>
    
      <line x1="900" y1="92" x2="920" y2="92" stroke="#f39c12" stroke-width="3" />
      <text x="928" y="96" font-size="12" fill="#18212f">AOT</text>
    
      <line x1="900" y1="114" x2="920" y2="114" stroke="#27ae60" stroke-width="3" />
      <text x="928" y="118" font-size="12" fill="#18212f">BA</text>
    
      <line x1="900" y1="136" x2="920" y2="136" stroke="#c0392b" stroke-width="3" />
      <text x="928" y="140" font-size="12" fill="#18212f">BEM</text>
    
      <line x1="900" y1="158" x2="920" y2="158" stroke="#8e44ad" stroke-width="3" />
      <text x="928" y="162" font-size="12" fill="#18212f">BTS</text>
    
      <line x1="900" y1="180" x2="920" y2="180" stroke="#16a085" stroke-width="3" />
      <text x="928" y="184" font-size="12" fill="#18212f">PRM</text>
    
      <line x1="900" y1="202" x2="920" y2="202" stroke="#2c3e50" stroke-width="3" />
      <text x="928" y="206" font-size="12" fill="#18212f">RCL</text>
    
      <line x1="900" y1="224" x2="920" y2="224" stroke="#d35400" stroke-width="3" />
      <text x="928" y="228" font-size="12" fill="#18212f">SJWD</text>
    
</svg>
