<?xml version="1.0" encoding="UTF-8"?>
<svg xmlns="http://www.w3.org/2000/svg" width="1080" height="520" viewBox="0 0 1080 520">
  <rect width="100%" height="100%" fill="#f7f9fc" />
  <text x="96" y="26" font-size="20" font-family="Arial, sans-serif" font-weight="700" fill="#18212f">Media sector stock group chart</text>
  <text x="96" y="48" font-size="12" font-family="Arial, sans-serif" fill="#445166">Cumulative NVDR NET by stock | 2026-01-01 to 2026-04-21</text>
  
      <line x1="96" y1="54.0" x2="890" y2="54.0" stroke="#d8dde6" stroke-width="1" />
      <text x="86" y="58.0" text-anchor="end" font-size="12" fill="#445166">385.30</text>
    
      <line x1="96" y1="136.0" x2="890" y2="136.0" stroke="#d8dde6" stroke-width="1" />
      <text x="86" y="140.0" text-anchor="end" font-size="12" fill="#445166">295.04</text>
    
      <line x1="96" y1="218.0" x2="890" y2="218.0" stroke="#d8dde6" stroke-width="1" />
      <text x="86" y="222.0" text-anchor="end" font-size="12" fill="#445166">204.79</text>
    
      <line x1="96" y1="300.0" x2="890" y2="300.0" stroke="#d8dde6" stroke-width="1" />
      <text x="86" y="304.0" text-anchor="end" font-size="12" fill="#445166">114.53</text>
    
      <line x1="96" y1="382.0" x2="890" y2="382.0" stroke="#d8dde6" stroke-width="1" />
      <text x="86" y="386.0" text-anchor="end" font-size="12" fill="#445166">24.28</text>
    
      <line x1="96" y1="464.0" x2="890" y2="464.0" stroke="#d8dde6" stroke-width="1" />
      <text x="86" y="468.0" text-anchor="end" font-size="12" fill="#445166">-65.98</text>
    
  <line x1="96" y1="404.1" x2="890" y2="404.1" stroke="#7a8799" stroke-width="1.4" stroke-dasharray="4 4" />
  <line x1="96" y1="54" x2="96" y2="464" stroke="#445166" stroke-width="1.2" />
  <line x1="96" y1="464" x2="890" y2="464" stroke="#445166" stroke-width="1.2" />
  
      <line x1="96.0" y1="464" x2="96.0" y2="470" stroke="#445166" stroke-width="1" />
      <text x="96.0" y="486" text-anchor="middle" font-size="12" fill="#445166">2026-01-05</text>
    
      <line x1="487.4" y1="464" x2="487.4" y2="470" stroke="#445166" stroke-width="1" />
      <text x="487.4" y="486" text-anchor="middle" font-size="12" fill="#445166">2026-02-23</text>
    
      <line x1="890.0" y1="464" x2="890.0" y2="470" stroke="#445166" stroke-width="1" />
      <text x="890.0" y="486" text-anchor="middle" font-size="12" fill="#445166">2026-04-21</text>
    
  <polyline fill="none" stroke="#0b84f3" stroke-width="2.2" points="96.0,404.1 107.2,406.9 118.4,409.1 129.5,413.2 140.7,412.1 151.9,409.2 163.1,399.2 174.3,366.9 185.5,363.4 196.6,367.1 207.8,371.9 219.0,363.7 230.2,357.9 241.4,355.9 252.6,356.9 263.7,356.7 274.9,347.6 286.1,352.6 297.3,362.0 308.5,358.5 319.7,360.6 330.8,339.5 342.0,351.7 353.2,324.0 364.4,332.7 375.6,303.9 386.8,264.2 397.9,262.4 409.1,270.0 420.3,231.3 431.5,228.5 442.7,224.0 453.9,172.1 465.0,174.9 476.2,140.2 487.4,103.9 498.6,82.3 509.8,126.7 521.0,150.2 532.1,95.8 543.3,82.9 554.5,68.8 565.7,64.0 576.9,67.7 588.1,54.0 599.2,65.8 610.4,66.0 621.6,68.6 632.8,86.0 644.0,80.5 655.2,73.6 666.3,115.7 677.5,111.1 688.7,94.4 699.9,97.7 711.1,101.8 722.3,115.9 733.4,114.7 744.6,113.7 755.8,111.3 767.0,114.1 778.2,125.3 789.4,128.1 800.5,136.0 811.7,137.2 822.9,140.6 834.1,154.1 845.3,155.2 856.5,148.7 867.6,153.2 878.8,156.3 890.0,156.3" /><circle cx="890.0" cy="156.3" r="3.5" fill="#0b84f3" /><polyline fill="none" stroke="#f39c12" stroke-width="2.2" points="96.0,413.6 107.2,411.4 118.4,397.6 129.5,405.7 140.7,421.7 151.9,436.4 163.1,441.2 174.3,441.4 185.5,439.5 196.6,437.0 207.8,426.5 219.0,427.2 230.2,422.9 241.4,417.5 252.6,410.8 263.7,402.7 274.9,403.1 286.1,398.5 297.3,390.2 308.5,387.7 319.7,389.9 330.8,387.9 342.0,384.1 353.2,382.7 364.4,384.2 375.6,371.9 386.8,339.4 397.9,344.5 409.1,367.4 420.3,350.5 431.5,425.7 442.7,431.3 453.9,438.6 465.0,434.9 476.2,441.6 487.4,412.8 498.6,418.0 509.8,435.4 521.0,439.2 532.1,428.8 543.3,413.3 554.5,405.8 565.7,419.8 576.9,419.3 588.1,399.6 599.2,414.7 610.4,418.7 621.6,415.6 632.8,425.7 644.0,420.5 655.2,425.8 666.3,426.6 677.5,430.7 688.7,426.1 699.9,432.7 711.1,435.6 722.3,435.9 733.4,443.0 744.6,443.9 755.8,446.2 767.0,450.1 778.2,453.4 789.4,457.4 800.5,462.4 811.7,464.0 822.9,447.6 834.1,456.0 845.3,457.3 856.5,435.2 867.6,432.8 878.8,429.4 890.0,435.1" /><circle cx="890.0" cy="435.1" r="3.5" fill="#f39c12" />
  
      <line x1="900" y1="70" x2="920" y2="70" stroke="#0b84f3" stroke-width="3" />
      <text x="928" y="74" font-size="12" fill="#18212f">PLANB</text>
    
      <line x1="900" y1="92" x2="920" y2="92" stroke="#f39c12" stroke-width="3" />
      <text x="928" y="96" font-size="12" fill="#18212f">VGI</text>
    
</svg>
