<?xml version="1.0" encoding="UTF-8"?>
<svg xmlns="http://www.w3.org/2000/svg" width="1080" height="520" viewBox="0 0 1080 520">
  <rect width="100%" height="100%" fill="#f7f9fc" />
  <text x="96" y="26" font-size="20" font-family="Arial, sans-serif" font-weight="700" fill="#18212f">Helth sector stock group chart</text>
  <text x="96" y="48" font-size="12" font-family="Arial, sans-serif" fill="#445166">Cumulative NVDR NET by stock | 2026-01-01 to 2026-04-21</text>
  
      <line x1="96" y1="54.0" x2="890" y2="54.0" stroke="#d8dde6" stroke-width="1" />
      <text x="86" y="58.0" text-anchor="end" font-size="12" fill="#445166">2,880.06</text>
    
      <line x1="96" y1="136.0" x2="890" y2="136.0" stroke="#d8dde6" stroke-width="1" />
      <text x="86" y="140.0" text-anchor="end" font-size="12" fill="#445166">2,206.94</text>
    
      <line x1="96" y1="218.0" x2="890" y2="218.0" stroke="#d8dde6" stroke-width="1" />
      <text x="86" y="222.0" text-anchor="end" font-size="12" fill="#445166">1,533.82</text>
    
      <line x1="96" y1="300.0" x2="890" y2="300.0" stroke="#d8dde6" stroke-width="1" />
      <text x="86" y="304.0" text-anchor="end" font-size="12" fill="#445166">860.71</text>
    
      <line x1="96" y1="382.0" x2="890" y2="382.0" stroke="#d8dde6" stroke-width="1" />
      <text x="86" y="386.0" text-anchor="end" font-size="12" fill="#445166">187.59</text>
    
      <line x1="96" y1="464.0" x2="890" y2="464.0" stroke="#d8dde6" stroke-width="1" />
      <text x="86" y="468.0" text-anchor="end" font-size="12" fill="#445166">-485.53</text>
    
  <line x1="96" y1="404.9" x2="890" y2="404.9" stroke="#7a8799" stroke-width="1.4" stroke-dasharray="4 4" />
  <line x1="96" y1="54" x2="96" y2="464" stroke="#445166" stroke-width="1.2" />
  <line x1="96" y1="464" x2="890" y2="464" stroke="#445166" stroke-width="1.2" />
  
      <line x1="96.0" y1="464" x2="96.0" y2="470" stroke="#445166" stroke-width="1" />
      <text x="96.0" y="486" text-anchor="middle" font-size="12" fill="#445166">2026-01-05</text>
    
      <line x1="487.4" y1="464" x2="487.4" y2="470" stroke="#445166" stroke-width="1" />
      <text x="487.4" y="486" text-anchor="middle" font-size="12" fill="#445166">2026-02-23</text>
    
      <line x1="890.0" y1="464" x2="890.0" y2="470" stroke="#445166" stroke-width="1" />
      <text x="890.0" y="486" text-anchor="middle" font-size="12" fill="#445166">2026-04-21</text>
    
  <polyline fill="none" stroke="#0b84f3" stroke-width="2.2" points="96.0,405.4 107.2,405.6 118.4,404.5 129.5,410.5 140.7,413.7 151.9,417.0 163.1,418.0 174.3,419.3 185.5,418.4 196.6,419.0 207.8,414.4 219.0,409.4 230.2,409.2 241.4,407.4 252.6,400.9 263.7,398.6 274.9,399.4 286.1,399.2 297.3,399.5 308.5,400.8 319.7,403.6 330.8,403.8 342.0,406.9 353.2,406.0 364.4,403.6 375.6,400.6 386.8,401.2 397.9,402.3 409.1,401.3 420.3,398.6 431.5,398.1 442.7,394.9 453.9,399.7 465.0,402.1 476.2,407.9 487.4,405.1 498.6,406.9 509.8,406.5 521.0,407.3 532.1,411.0 543.3,412.7 554.5,414.5 565.7,415.7 576.9,415.6 588.1,413.2 599.2,413.3 610.4,416.1 621.6,414.2 632.8,414.1 644.0,413.9 655.2,414.4 666.3,414.5 677.5,414.4 688.7,414.0 699.9,416.1 711.1,414.6 722.3,412.5 733.4,413.8 744.6,410.7 755.8,406.6 767.0,403.0 778.2,402.7 789.4,394.3 800.5,397.4 811.7,399.5 822.9,395.1 834.1,398.2 845.3,399.1 856.5,399.5 867.6,401.8 878.8,404.0 890.0,405.5" /><circle cx="890.0" cy="405.5" r="3.5" fill="#0b84f3" /><polyline fill="none" stroke="#f39c12" stroke-width="2.2" points="96.0,389.6 107.2,395.9 118.4,396.2 129.5,430.1 140.7,452.8 151.9,456.5 163.1,444.3 174.3,455.2 185.5,458.0 196.6,464.0 207.8,441.1 219.0,364.8 230.2,331.2 241.4,102.8 252.6,62.9 263.7,78.2 274.9,100.0 286.1,115.5 297.3,160.3 308.5,163.8 319.7,164.9 330.8,159.7 342.0,149.0 353.2,151.2 364.4,156.0 375.6,185.8 386.8,186.3 397.9,189.2 409.1,192.4 420.3,236.0 431.5,204.0 442.7,221.9 453.9,230.1 465.0,232.0 476.2,236.9 487.4,216.8 498.6,167.8 509.8,186.8 521.0,145.6 532.1,114.6 543.3,103.4 554.5,64.4 565.7,101.0 576.9,102.2 588.1,108.0 599.2,144.7 610.4,173.7 621.6,229.7 632.8,265.8 644.0,263.5 655.2,283.2 666.3,285.9 677.5,305.0 688.7,291.6 699.9,321.1 711.1,334.8 722.3,339.0 733.4,368.0 744.6,355.1 755.8,332.1 767.0,331.6 778.2,328.6 789.4,316.5 800.5,312.5 811.7,314.8 822.9,291.2 834.1,331.4 845.3,345.3 856.5,331.5 867.6,334.3 878.8,336.1 890.0,343.7" /><circle cx="890.0" cy="343.7" r="3.5" fill="#f39c12" /><polyline fill="none" stroke="#27ae60" stroke-width="2.2" points="96.0,396.6 107.2,394.6 118.4,372.5 129.5,364.7 140.7,358.2 151.9,356.7 163.1,360.5 174.3,365.8 185.5,378.2 196.6,381.4 207.8,370.8 219.0,371.2 230.2,346.5 241.4,318.6 252.6,309.2 263.7,311.9 274.9,312.0 286.1,306.5 297.3,297.7 308.5,275.5 319.7,260.4 330.8,260.7 342.0,256.4 353.2,245.4 364.4,232.8 375.6,250.0 386.8,235.8 397.9,237.2 409.1,240.3 420.3,232.1 431.5,224.4 442.7,224.9 453.9,216.1 465.0,182.0 476.2,168.1 487.4,165.6 498.6,142.6 509.8,116.6 521.0,63.3 532.1,54.0 543.3,88.2 554.5,61.3 565.7,107.4 576.9,110.7 588.1,96.5 599.2,134.8 610.4,160.4 621.6,173.3 632.8,202.3 644.0,217.5 655.2,257.0 666.3,278.6 677.5,303.0 688.7,331.3 699.9,342.4 711.1,348.1 722.3,362.1 733.4,377.8 744.6,363.7 755.8,343.3 767.0,371.9 778.2,348.3 789.4,342.9 800.5,365.1 811.7,365.3 822.9,341.9 834.1,365.1 845.3,364.1 856.5,362.3 867.6,354.4 878.8,360.9 890.0,365.9" /><circle cx="890.0" cy="365.9" r="3.5" fill="#27ae60" /><polyline fill="none" stroke="#c0392b" stroke-width="2.2" points="96.0,404.7 107.2,404.9 118.4,402.0 129.5,402.5 140.7,403.2 151.9,405.0 163.1,405.1 174.3,405.3 185.5,403.5 196.6,403.4 207.8,403.0 219.0,401.1 230.2,399.5 241.4,399.0 252.6,398.8 263.7,398.4 274.9,398.3 286.1,398.4 297.3,397.1 308.5,397.1 319.7,397.5 330.8,396.5 342.0,396.4 353.2,395.5 364.4,394.2 375.6,395.0 386.8,395.4 397.9,396.6 409.1,396.6 420.3,396.6 431.5,396.7 442.7,396.8 453.9,397.1 465.0,396.5 476.2,396.4 487.4,396.5 498.6,396.7 509.8,396.3 521.0,396.1 532.1,397.2 543.3,397.5 554.5,397.4 565.7,397.7 576.9,397.6 588.1,398.5 599.2,398.8 610.4,399.0 621.6,399.0 632.8,398.9 644.0,398.9 655.2,398.9 666.3,398.9 677.5,399.0 688.7,399.0 699.9,399.8 711.1,400.4 722.3,401.4 733.4,401.2 744.6,401.4 755.8,401.4 767.0,401.5 778.2,400.3 789.4,400.3 800.5,400.4 811.7,400.5 822.9,400.1 834.1,400.4 845.3,400.9 856.5,400.2 867.6,400.5 878.8,400.9 890.0,400.9" /><circle cx="890.0" cy="400.9" r="3.5" fill="#c0392b" /><polyline fill="none" stroke="#8e44ad" stroke-width="2.2" points="96.0,404.9 107.2,405.4 118.4,403.6 129.5,405.6 140.7,406.2 151.9,409.0 163.1,406.7 174.3,407.2 185.5,407.9 196.6,408.0 207.8,408.4 219.0,410.4 230.2,410.0 241.4,409.0 252.6,408.8 263.7,409.7 274.9,411.1 286.1,411.7 297.3,411.7 308.5,411.4 319.7,411.9 330.8,410.2 342.0,410.2 353.2,409.8 364.4,408.1 375.6,410.3 386.8,408.4 397.9,409.0 409.1,405.7 420.3,404.5 431.5,404.8 442.7,407.6 453.9,410.7 465.0,411.1 476.2,411.8 487.4,410.9 498.6,409.1 509.8,413.3 521.0,411.5 532.1,414.3 543.3,414.2 554.5,410.0 565.7,414.0 576.9,413.8 588.1,411.3 599.2,410.8 610.4,415.5 621.6,415.9 632.8,417.1 644.0,416.8 655.2,418.5 666.3,420.1 677.5,421.1 688.7,420.4 699.9,420.8 711.1,421.0 722.3,419.4 733.4,420.5 744.6,420.3 755.8,420.8 767.0,419.6 778.2,417.0 789.4,418.3 800.5,419.0 811.7,419.4 822.9,416.3 834.1,418.9 845.3,418.8 856.5,417.2 867.6,418.2 878.8,421.1 890.0,420.4" /><circle cx="890.0" cy="420.4" r="3.5" fill="#8e44ad" />
  
      <line x1="900" y1="70" x2="920" y2="70" stroke="#0b84f3" stroke-width="3" />
      <text x="928" y="74" font-size="12" fill="#18212f">BCH</text>
    
      <line x1="900" y1="92" x2="920" y2="92" stroke="#f39c12" stroke-width="3" />
      <text x="928" y="96" font-size="12" fill="#18212f">BDMS</text>
    
      <line x1="900" y1="114" x2="920" y2="114" stroke="#27ae60" stroke-width="3" />
      <text x="928" y="118" font-size="12" fill="#18212f">BH</text>
    
      <line x1="900" y1="136" x2="920" y2="136" stroke="#c0392b" stroke-width="3" />
      <text x="928" y="140" font-size="12" fill="#18212f">CHG</text>
    
      <line x1="900" y1="158" x2="920" y2="158" stroke="#8e44ad" stroke-width="3" />
      <text x="928" y="162" font-size="12" fill="#18212f">PR9</text>
    
</svg>
