<?xml version="1.0" encoding="UTF-8"?>
<svg xmlns="http://www.w3.org/2000/svg" width="960" height="420" viewBox="0 0 960 420">
  <rect width="100%" height="100%" fill="#f7f9fc" />
  <text x="88" y="24" font-size="20" font-family="Arial, sans-serif" font-weight="700" fill="#18212f">Property sector cumulative NVDR NET (2026-01-01 to 2026-04-21)</text>
  <text x="88" y="46" font-size="12" font-family="Arial, sans-serif" fill="#445166">Unit: million baht, based on NVDR Turnover (Net) from value view</text>
  
      <line x1="88" y1="36.0" x2="936" y2="36.0" stroke="#d8dde6" stroke-width="1" />
      <text x="78" y="40.0" text-anchor="end" font-size="12" fill="#445166">5652.32</text>
    
      <line x1="88" y1="101.6" x2="936" y2="101.6" stroke="#d8dde6" stroke-width="1" />
      <text x="78" y="105.6" text-anchor="end" font-size="12" fill="#445166">4497.04</text>
    
      <line x1="88" y1="167.2" x2="936" y2="167.2" stroke="#d8dde6" stroke-width="1" />
      <text x="78" y="171.2" text-anchor="end" font-size="12" fill="#445166">3341.75</text>
    
      <line x1="88" y1="232.8" x2="936" y2="232.8" stroke="#d8dde6" stroke-width="1" />
      <text x="78" y="236.8" text-anchor="end" font-size="12" fill="#445166">2186.47</text>
    
      <line x1="88" y1="298.4" x2="936" y2="298.4" stroke="#d8dde6" stroke-width="1" />
      <text x="78" y="302.4" text-anchor="end" font-size="12" fill="#445166">1031.18</text>
    
      <line x1="88" y1="364.0" x2="936" y2="364.0" stroke="#d8dde6" stroke-width="1" />
      <text x="78" y="368.0" text-anchor="end" font-size="12" fill="#445166">-124.10</text>
    
  <line x1="88" y1="357.0" x2="936" y2="357.0" stroke="#7a8799" stroke-width="1.4" stroke-dasharray="4 4" />
  <line x1="88" y1="36" x2="88" y2="364" stroke="#445166" stroke-width="1.2" />
  <line x1="88" y1="364" x2="936" y2="364" stroke="#445166" stroke-width="1.2" />
  
      <line x1="88.0" y1="364" x2="88.0" y2="370" stroke="#445166" stroke-width="1" />
      <text x="88.0" y="386" text-anchor="middle" font-size="12" fill="#445166">2026-01-05</text>
    
      <line x1="506.0" y1="364" x2="506.0" y2="370" stroke="#445166" stroke-width="1" />
      <text x="506.0" y="386" text-anchor="middle" font-size="12" fill="#445166">2026-02-23</text>
    
      <line x1="936.0" y1="364" x2="936.0" y2="370" stroke="#445166" stroke-width="1" />
      <text x="936.0" y="386" text-anchor="middle" font-size="12" fill="#445166">2026-04-21</text>
    
  <polyline fill="none" stroke="#0b84f3" stroke-width="3" points="88.0,349.6 99.9,349.9 111.9,350.2 123.8,351.6 135.8,349.1 147.7,356.2 159.7,360.2 171.6,364.0 183.5,362.3 195.5,358.7 207.4,354.1 219.4,334.3 231.3,315.3 243.3,303.2 255.2,303.5 267.2,303.0 279.1,288.0 291.0,278.1 303.0,275.7 314.9,266.8 326.9,272.3 338.8,270.8 350.8,267.7 362.7,257.1 374.6,254.5 386.6,198.5 398.5,187.3 410.5,175.8 422.4,156.7 434.4,137.8 446.3,145.3 458.3,143.5 470.2,116.2 482.1,104.7 494.1,98.3 506.0,97.6 518.0,92.0 529.9,82.5 541.9,80.5 553.8,63.4 565.7,38.0 577.7,36.0 589.6,42.6 601.6,59.5 613.5,61.1 625.5,83.9 637.4,102.8 649.4,120.5 661.3,137.7 673.2,136.6 685.2,141.8 697.1,143.9 709.1,155.8 721.0,150.5 733.0,155.0 744.9,160.5 756.8,155.2 768.8,147.1 780.7,142.8 792.7,138.0 804.6,134.3 816.6,127.4 828.5,127.5 840.5,124.6 852.4,121.3 864.3,106.4 876.3,122.7 888.2,122.5 900.2,108.8 912.1,112.3 924.1,109.1 936.0,102.6" />
  <circle cx="936.0" cy="102.6" r="4.5" fill="#0b84f3" />
  <text x="932.0" y="92.6" font-size="12" fill="#18212f">4478.97</text>
</svg>
