<?xml version="1.0" encoding="UTF-8"?>
<svg xmlns="http://www.w3.org/2000/svg" width="960" height="420" viewBox="0 0 960 420">
  <rect width="100%" height="100%" fill="#f7f9fc" />
  <text x="88" y="24" font-size="20" font-family="Arial, sans-serif" font-weight="700" fill="#18212f">Packaging sector cumulative NVDR NET (2026-01-01 to 2026-04-21)</text>
  <text x="88" y="46" font-size="12" font-family="Arial, sans-serif" fill="#445166">Unit: million baht, based on NVDR Turnover (Net) from value view</text>
  
      <line x1="88" y1="36.0" x2="936" y2="36.0" stroke="#d8dde6" stroke-width="1" />
      <text x="78" y="40.0" text-anchor="end" font-size="12" fill="#445166">845.18</text>
    
      <line x1="88" y1="101.6" x2="936" y2="101.6" stroke="#d8dde6" stroke-width="1" />
      <text x="78" y="105.6" text-anchor="end" font-size="12" fill="#445166">675.76</text>
    
      <line x1="88" y1="167.2" x2="936" y2="167.2" stroke="#d8dde6" stroke-width="1" />
      <text x="78" y="171.2" text-anchor="end" font-size="12" fill="#445166">506.34</text>
    
      <line x1="88" y1="232.8" x2="936" y2="232.8" stroke="#d8dde6" stroke-width="1" />
      <text x="78" y="236.8" text-anchor="end" font-size="12" fill="#445166">336.93</text>
    
      <line x1="88" y1="298.4" x2="936" y2="298.4" stroke="#d8dde6" stroke-width="1" />
      <text x="78" y="302.4" text-anchor="end" font-size="12" fill="#445166">167.51</text>
    
      <line x1="88" y1="364.0" x2="936" y2="364.0" stroke="#d8dde6" stroke-width="1" />
      <text x="78" y="368.0" text-anchor="end" font-size="12" fill="#445166">-1.91</text>
    
  <line x1="88" y1="363.3" x2="936" y2="363.3" stroke="#7a8799" stroke-width="1.4" stroke-dasharray="4 4" />
  <line x1="88" y1="36" x2="88" y2="364" stroke="#445166" stroke-width="1.2" />
  <line x1="88" y1="364" x2="936" y2="364" stroke="#445166" stroke-width="1.2" />
  
      <line x1="88.0" y1="364" x2="88.0" y2="370" stroke="#445166" stroke-width="1" />
      <text x="88.0" y="386" text-anchor="middle" font-size="12" fill="#445166">2026-01-05</text>
    
      <line x1="506.0" y1="364" x2="506.0" y2="370" stroke="#445166" stroke-width="1" />
      <text x="506.0" y="386" text-anchor="middle" font-size="12" fill="#445166">2026-02-23</text>
    
      <line x1="936.0" y1="364" x2="936.0" y2="370" stroke="#445166" stroke-width="1" />
      <text x="936.0" y="386" text-anchor="middle" font-size="12" fill="#445166">2026-04-21</text>
    
  <polyline fill="none" stroke="#0b84f3" stroke-width="3" points="88.0,364.0 99.9,359.2 111.9,343.8 123.8,347.7 135.8,344.4 147.7,344.9 159.7,332.7 171.6,317.8 183.5,237.1 195.5,226.8 207.4,181.6 219.4,157.0 231.3,122.9 243.3,97.9 255.2,92.6 267.2,79.1 279.1,76.4 291.0,65.7 303.0,83.0 314.9,84.3 326.9,78.9 338.8,77.8 350.8,61.5 362.7,72.9 374.6,66.1 386.6,70.5 398.5,70.7 410.5,74.8 422.4,68.9 434.4,69.5 446.3,73.8 458.3,74.5 470.2,58.4 482.1,36.0 494.1,65.7 506.0,51.6 518.0,54.0 529.9,57.9 541.9,66.2 553.8,73.0 565.7,84.5 577.7,96.1 589.6,128.7 601.6,134.3 613.5,136.3 625.5,149.5 637.4,169.3 649.4,167.5 661.3,188.5 673.2,196.8 685.2,171.8 697.1,206.8 709.1,223.9 721.0,213.1 733.0,222.6 744.9,231.3 756.8,231.0 768.8,246.0 780.7,243.0 792.7,222.8 804.6,223.1 816.6,201.2 828.5,193.1 840.5,192.8 852.4,189.0 864.3,183.6 876.3,200.4 888.2,162.4 900.2,158.4 912.1,143.3 924.1,153.3 936.0,146.7" />
  <circle cx="936.0" cy="146.7" r="4.5" fill="#0b84f3" />
  <text x="932.0" y="136.7" font-size="12" fill="#18212f">559.20</text>
</svg>
