<?xml version="1.0" encoding="UTF-8"?>
<svg xmlns="http://www.w3.org/2000/svg" width="1080" height="520" viewBox="0 0 1080 520">
  <rect width="100%" height="100%" fill="#f7f9fc" />
  <text x="96" y="26" font-size="20" font-family="Arial, sans-serif" font-weight="700" fill="#18212f">Petro sector stock group chart</text>
  <text x="96" y="48" font-size="12" font-family="Arial, sans-serif" fill="#445166">Cumulative NVDR NET by stock | 2026-01-01 to 2026-04-21</text>
  
      <line x1="96" y1="54.0" x2="890" y2="54.0" stroke="#d8dde6" stroke-width="1" />
      <text x="86" y="58.0" text-anchor="end" font-size="12" fill="#445166">2,365.49</text>
    
      <line x1="96" y1="136.0" x2="890" y2="136.0" stroke="#d8dde6" stroke-width="1" />
      <text x="86" y="140.0" text-anchor="end" font-size="12" fill="#445166">1,889.19</text>
    
      <line x1="96" y1="218.0" x2="890" y2="218.0" stroke="#d8dde6" stroke-width="1" />
      <text x="86" y="222.0" text-anchor="end" font-size="12" fill="#445166">1,412.89</text>
    
      <line x1="96" y1="300.0" x2="890" y2="300.0" stroke="#d8dde6" stroke-width="1" />
      <text x="86" y="304.0" text-anchor="end" font-size="12" fill="#445166">936.59</text>
    
      <line x1="96" y1="382.0" x2="890" y2="382.0" stroke="#d8dde6" stroke-width="1" />
      <text x="86" y="386.0" text-anchor="end" font-size="12" fill="#445166">460.29</text>
    
      <line x1="96" y1="464.0" x2="890" y2="464.0" stroke="#d8dde6" stroke-width="1" />
      <text x="86" y="468.0" text-anchor="end" font-size="12" fill="#445166">-16.01</text>
    
  <line x1="96" y1="461.2" x2="890" y2="461.2" stroke="#7a8799" stroke-width="1.4" stroke-dasharray="4 4" />
  <line x1="96" y1="54" x2="96" y2="464" stroke="#445166" stroke-width="1.2" />
  <line x1="96" y1="464" x2="890" y2="464" stroke="#445166" stroke-width="1.2" />
  
      <line x1="96.0" y1="464" x2="96.0" y2="470" stroke="#445166" stroke-width="1" />
      <text x="96.0" y="486" text-anchor="middle" font-size="12" fill="#445166">2026-01-05</text>
    
      <line x1="487.4" y1="464" x2="487.4" y2="470" stroke="#445166" stroke-width="1" />
      <text x="487.4" y="486" text-anchor="middle" font-size="12" fill="#445166">2026-02-23</text>
    
      <line x1="890.0" y1="464" x2="890.0" y2="470" stroke="#445166" stroke-width="1" />
      <text x="890.0" y="486" text-anchor="middle" font-size="12" fill="#445166">2026-04-21</text>
    
  <polyline fill="none" stroke="#0b84f3" stroke-width="2.2" points="96.0,454.6 107.2,451.8 118.4,415.7 129.5,420.1 140.7,425.2 151.9,425.7 163.1,418.7 174.3,413.6 185.5,400.2 196.6,414.1 207.8,398.6 219.0,378.5 230.2,359.9 241.4,348.0 252.6,340.7 263.7,332.2 274.9,325.5 286.1,305.2 297.3,306.3 308.5,298.5 319.7,291.3 330.8,299.4 342.0,284.7 353.2,291.9 364.4,286.3 375.6,275.9 386.8,264.5 397.9,279.3 409.1,269.3 420.3,269.3 431.5,266.6 442.7,269.8 453.9,277.1 465.0,278.5 476.2,279.5 487.4,272.4 498.6,263.8 509.8,257.2 521.0,260.5 532.1,234.6 543.3,227.5 554.5,238.6 565.7,251.8 576.9,252.0 588.1,250.2 599.2,266.3 610.4,268.1 621.6,272.3 632.8,292.0 644.0,293.4 655.2,278.2 666.3,321.9 677.5,346.9 688.7,360.7 699.9,367.6 711.1,367.7 722.3,351.8 733.4,364.8 744.6,341.7 755.8,278.4 767.0,275.8 778.2,221.2 789.4,222.3 800.5,220.7 811.7,203.9 822.9,205.9 834.1,216.9 845.3,211.2 856.5,216.3 867.6,225.9 878.8,254.3 890.0,269.1" /><circle cx="890.0" cy="269.1" r="3.5" fill="#0b84f3" /><polyline fill="none" stroke="#f39c12" stroke-width="2.2" points="96.0,457.3 107.2,464.0 118.4,397.6 129.5,398.9 140.7,400.9 151.9,403.8 163.1,405.8 174.3,390.1 185.5,384.4 196.6,385.6 207.8,396.9 219.0,399.5 230.2,383.1 241.4,365.8 252.6,372.4 263.7,359.5 274.9,352.2 286.1,344.5 297.3,329.7 308.5,325.9 319.7,318.6 330.8,320.5 342.0,281.3 353.2,285.5 364.4,285.0 375.6,276.9 386.8,270.6 397.9,264.0 409.1,237.4 420.3,252.3 431.5,271.6 442.7,287.5 453.9,305.0 465.0,308.2 476.2,327.1 487.4,321.8 498.6,313.2 509.8,303.2 521.0,322.1 532.1,329.8 543.3,314.9 554.5,344.5 565.7,364.0 576.9,331.3 588.1,363.0 599.2,383.9 610.4,389.7 621.6,379.2 632.8,408.0 644.0,399.6 655.2,372.8 666.3,369.9 677.5,378.4 688.7,358.4 699.9,367.7 711.1,364.7 722.3,291.7 733.4,285.1 744.6,258.9 755.8,264.8 767.0,227.1 778.2,140.2 789.4,147.9 800.5,149.8 811.7,107.0 822.9,90.6 834.1,54.0 845.3,83.2 856.5,69.8 867.6,104.6 878.8,118.7 890.0,86.9" /><circle cx="890.0" cy="86.9" r="3.5" fill="#f39c12" />
  
      <line x1="900" y1="70" x2="920" y2="70" stroke="#0b84f3" stroke-width="3" />
      <text x="928" y="74" font-size="12" fill="#18212f">IVL</text>
    
      <line x1="900" y1="92" x2="920" y2="92" stroke="#f39c12" stroke-width="3" />
      <text x="928" y="96" font-size="12" fill="#18212f">PTTGC</text>
    
</svg>
