<?xml version="1.0" encoding="UTF-8"?>
<svg xmlns="http://www.w3.org/2000/svg" width="1080" height="520" viewBox="0 0 1080 520">
  <rect width="100%" height="100%" fill="#f7f9fc" />
  <text x="96" y="26" font-size="20" font-family="Arial, sans-serif" font-weight="700" fill="#18212f">Property sector stock group chart</text>
  <text x="96" y="48" font-size="12" font-family="Arial, sans-serif" fill="#445166">Cumulative NVDR NET by stock | 2026-01-01 to 2026-04-21</text>
  
      <line x1="96" y1="54.0" x2="890" y2="54.0" stroke="#d8dde6" stroke-width="1" />
      <text x="86" y="58.0" text-anchor="end" font-size="12" fill="#445166">2,614.43</text>
    
      <line x1="96" y1="136.0" x2="890" y2="136.0" stroke="#d8dde6" stroke-width="1" />
      <text x="86" y="140.0" text-anchor="end" font-size="12" fill="#445166">2,029.53</text>
    
      <line x1="96" y1="218.0" x2="890" y2="218.0" stroke="#d8dde6" stroke-width="1" />
      <text x="86" y="222.0" text-anchor="end" font-size="12" fill="#445166">1,444.64</text>
    
      <line x1="96" y1="300.0" x2="890" y2="300.0" stroke="#d8dde6" stroke-width="1" />
      <text x="86" y="304.0" text-anchor="end" font-size="12" fill="#445166">859.74</text>
    
      <line x1="96" y1="382.0" x2="890" y2="382.0" stroke="#d8dde6" stroke-width="1" />
      <text x="86" y="386.0" text-anchor="end" font-size="12" fill="#445166">274.85</text>
    
      <line x1="96" y1="464.0" x2="890" y2="464.0" stroke="#d8dde6" stroke-width="1" />
      <text x="86" y="468.0" text-anchor="end" font-size="12" fill="#445166">-310.05</text>
    
  <line x1="96" y1="420.5" x2="890" y2="420.5" stroke="#7a8799" stroke-width="1.4" stroke-dasharray="4 4" />
  <line x1="96" y1="54" x2="96" y2="464" stroke="#445166" stroke-width="1.2" />
  <line x1="96" y1="464" x2="890" y2="464" stroke="#445166" stroke-width="1.2" />
  
      <line x1="96.0" y1="464" x2="96.0" y2="470" stroke="#445166" stroke-width="1" />
      <text x="96.0" y="486" text-anchor="middle" font-size="12" fill="#445166">2026-01-05</text>
    
      <line x1="487.4" y1="464" x2="487.4" y2="470" stroke="#445166" stroke-width="1" />
      <text x="487.4" y="486" text-anchor="middle" font-size="12" fill="#445166">2026-02-23</text>
    
      <line x1="890.0" y1="464" x2="890.0" y2="470" stroke="#445166" stroke-width="1" />
      <text x="890.0" y="486" text-anchor="middle" font-size="12" fill="#445166">2026-04-21</text>
    
  <polyline fill="none" stroke="#0b84f3" stroke-width="2.2" points="96.0,428.8 107.2,430.0 118.4,433.1 129.5,437.9 140.7,437.8 151.9,444.6 163.1,446.0 174.3,451.2 185.5,452.1 196.6,452.2 207.8,453.0 219.0,450.8 230.2,447.7 241.4,449.6 252.6,452.8 263.7,451.4 274.9,451.3 286.1,451.8 297.3,453.6 308.5,454.0 319.7,457.8 330.8,460.8 342.0,460.8 353.2,459.6 364.4,464.0 375.6,431.0 386.8,420.2 397.9,410.3 409.1,414.7 420.3,418.5 431.5,427.6 442.7,427.7 453.9,425.2 465.0,422.2 476.2,435.1 487.4,451.8 498.6,459.6 509.8,463.8 521.0,455.1 532.1,445.8 543.3,427.6 554.5,421.1 565.7,408.1 576.9,410.7 588.1,409.9 599.2,411.3 610.4,407.5 621.6,411.7 632.8,416.6 644.0,414.8 655.2,406.9 666.3,407.8 677.5,416.1 688.7,419.3 699.9,423.9 711.1,426.9 722.3,428.1 733.4,426.2 744.6,423.9 755.8,425.6 767.0,425.2 778.2,418.2 789.4,418.2 800.5,417.5 811.7,411.6 822.9,395.0 834.1,400.2 845.3,399.6 856.5,394.5 867.6,397.6 878.8,396.5 890.0,390.0" /><circle cx="890.0" cy="390.0" r="3.5" fill="#0b84f3" /><polyline fill="none" stroke="#f39c12" stroke-width="2.2" points="96.0,414.0 107.2,411.2 118.4,411.9 129.5,410.6 140.7,413.7 151.9,416.2 163.1,417.6 174.3,419.6 185.5,419.1 196.6,419.3 207.8,417.3 219.0,416.1 230.2,413.2 241.4,409.3 252.6,410.3 263.7,410.5 274.9,410.9 286.1,408.4 297.3,408.0 308.5,408.3 319.7,409.4 330.8,410.0 342.0,410.2 353.2,408.1 364.4,407.6 375.6,396.2 386.8,396.0 397.9,394.5 409.1,394.6 420.3,393.6 431.5,391.9 442.7,391.2 453.9,387.3 465.0,383.2 476.2,384.7 487.4,382.2 498.6,381.1 509.8,373.9 521.0,373.1 532.1,375.1 543.3,373.5 554.5,369.9 565.7,375.7 576.9,377.7 588.1,374.7 599.2,377.2 610.4,381.1 621.6,382.8 632.8,384.3 644.0,382.0 655.2,381.8 666.3,382.0 677.5,383.0 688.7,385.1 699.9,387.3 711.1,387.5 722.3,387.4 733.4,387.5 744.6,386.8 755.8,386.4 767.0,386.8 778.2,388.2 789.4,388.2 800.5,387.2 811.7,386.2 822.9,384.5 834.1,384.1 845.3,385.0 856.5,385.1 867.6,385.5 878.8,385.4 890.0,385.9" /><circle cx="890.0" cy="385.9" r="3.5" fill="#f39c12" /><polyline fill="none" stroke="#27ae60" stroke-width="2.2" points="96.0,422.0 107.2,423.3 118.4,423.2 129.5,425.0 140.7,426.0 151.9,427.0 163.1,427.4 174.3,428.1 185.5,426.5 196.6,425.2 207.8,424.2 219.0,420.3 230.2,419.3 241.4,418.1 252.6,418.2 263.7,419.5 274.9,411.5 286.1,411.3 297.3,410.7 308.5,409.2 319.7,407.7 330.8,405.2 342.0,405.1 353.2,402.7 364.4,401.4 375.6,394.1 386.8,391.5 397.9,392.3 409.1,384.3 420.3,379.5 431.5,385.0 442.7,386.0 453.9,385.9 465.0,387.2 476.2,386.0 487.4,380.5 498.6,383.7 509.8,383.3 521.0,384.0 532.1,383.4 543.3,375.0 554.5,376.5 565.7,381.6 576.9,383.1 588.1,380.8 599.2,383.6 610.4,387.1 621.6,390.4 632.8,394.0 644.0,391.6 655.2,392.7 666.3,395.6 677.5,402.6 688.7,402.9 699.9,408.6 711.1,408.8 722.3,407.6 733.4,410.4 744.6,408.3 755.8,408.2 767.0,407.0 778.2,408.2 789.4,406.3 800.5,408.4 811.7,405.8 822.9,404.6 834.1,406.9 845.3,406.8 856.5,406.4 867.6,402.5 878.8,403.5 890.0,404.6" /><circle cx="890.0" cy="404.6" r="3.5" fill="#27ae60" /><polyline fill="none" stroke="#c0392b" stroke-width="2.2" points="96.0,417.1 107.2,416.7 118.4,414.6 129.5,409.0 140.7,396.6 151.9,393.1 163.1,394.3 174.3,396.3 185.5,395.8 196.6,393.0 207.8,390.7 219.0,374.3 230.2,353.2 241.4,334.6 252.6,327.7 263.7,320.0 274.9,304.3 286.1,299.6 297.3,293.7 308.5,289.4 319.7,286.4 330.8,279.6 342.0,278.4 353.2,267.4 364.4,257.8 375.6,250.1 386.8,241.7 397.9,238.2 409.1,227.2 420.3,210.9 431.5,200.8 442.7,193.2 453.9,173.8 465.0,177.7 476.2,162.8 487.4,153.3 498.6,139.4 509.8,139.3 521.0,130.7 532.1,104.5 543.3,85.0 554.5,57.1 565.7,54.0 576.9,72.6 588.1,74.5 599.2,101.6 610.4,123.2 621.6,142.0 632.8,157.1 644.0,152.3 655.2,161.4 666.3,152.0 677.5,147.2 688.7,131.4 699.9,116.4 711.1,121.5 722.3,124.9 733.4,133.9 744.6,124.4 755.8,121.6 767.0,122.4 778.2,120.5 789.4,123.8 800.5,124.0 811.7,125.9 822.9,120.1 834.1,142.8 845.3,143.6 856.5,132.8 867.6,137.3 878.8,129.2 890.0,130.2" /><circle cx="890.0" cy="130.2" r="3.5" fill="#c0392b" /><polyline fill="none" stroke="#8e44ad" stroke-width="2.2" points="96.0,417.0 107.2,419.0 118.4,418.7 129.5,421.1 140.7,423.1 151.9,423.8 163.1,424.3 174.3,423.8 185.5,424.9 196.6,425.7 207.8,425.1 219.0,424.8 230.2,423.2 241.4,420.4 252.6,422.2 263.7,419.6 274.9,417.9 286.1,417.3 297.3,417.2 308.5,415.7 319.7,417.0 330.8,415.6 342.0,413.2 353.2,410.2 364.4,409.8 375.6,394.9 386.8,393.7 397.9,394.6 409.1,388.5 420.3,378.2 431.5,380.7 442.7,385.2 453.9,382.5 465.0,377.2 476.2,381.2 487.4,386.4 498.6,382.7 509.8,376.9 521.0,377.6 532.1,378.8 543.3,392.6 554.5,399.2 565.7,405.4 576.9,411.7 588.1,410.2 599.2,412.9 610.4,414.0 621.6,415.5 632.8,416.1 644.0,416.5 655.2,416.4 666.3,419.1 677.5,424.1 688.7,424.3 699.9,429.9 711.1,431.7 722.3,430.4 733.4,431.4 744.6,430.4 755.8,429.2 767.0,425.9 778.2,424.4 789.4,422.3 800.5,421.8 811.7,421.5 822.9,416.3 834.1,417.3 845.3,417.2 856.5,417.3 867.6,416.6 878.8,416.1 890.0,413.5" /><circle cx="890.0" cy="413.5" r="3.5" fill="#8e44ad" /><polyline fill="none" stroke="#16a085" stroke-width="2.2" points="96.0,419.0 107.2,418.7 118.4,418.8 129.5,418.8 140.7,419.3 151.9,420.7 163.1,422.3 174.3,423.0 185.5,423.3 196.6,423.4 207.8,423.2 219.0,422.9 230.2,422.9 241.4,423.2 252.6,423.6 263.7,424.2 274.9,424.1 286.1,424.2 297.3,424.5 308.5,424.6 319.7,425.7 330.8,425.7 342.0,426.0 353.2,425.9 364.4,426.2 375.6,424.5 386.8,424.1 397.9,424.6 409.1,425.4 420.3,422.5 431.5,422.2 442.7,422.0 453.9,421.6 465.0,420.1 476.2,420.9 487.4,421.4 498.6,420.8 509.8,418.1 521.0,417.4 532.1,417.0 543.3,415.8 554.5,416.1 565.7,416.8 576.9,417.4 588.1,417.1 599.2,417.7 610.4,417.6 621.6,418.1 632.8,418.5 644.0,418.7 655.2,419.2 666.3,419.5 677.5,420.3 688.7,420.2 699.9,420.9 711.1,422.1 722.3,422.2 733.4,422.5 744.6,422.5 755.8,422.5 767.0,422.8 778.2,422.3 789.4,422.4 800.5,422.5 811.7,422.9 822.9,422.6 834.1,423.2 845.3,423.5 856.5,423.4 867.6,424.6 878.8,425.3 890.0,425.0" /><circle cx="890.0" cy="425.0" r="3.5" fill="#16a085" /><polyline fill="none" stroke="#2c3e50" stroke-width="2.2" points="96.0,415.5 107.2,415.6 118.4,414.6 129.5,414.4 140.7,414.5 151.9,417.4 163.1,421.1 174.3,421.2 185.5,419.7 196.6,416.1 207.8,414.8 219.0,407.0 230.2,400.3 241.4,398.8 252.6,397.3 263.7,398.1 274.9,396.1 286.1,389.5 297.3,388.4 308.5,388.4 319.7,389.4 330.8,388.3 342.0,387.0 353.2,385.0 364.4,385.0 375.6,374.9 386.8,374.2 397.9,371.3 409.1,369.9 420.3,371.8 431.5,373.8 442.7,374.6 453.9,362.4 465.0,355.7 476.2,352.0 487.4,354.8 498.6,351.5 509.8,341.6 521.0,341.1 532.1,341.3 543.3,342.4 554.5,348.0 565.7,351.2 576.9,354.5 588.1,362.3 599.2,364.6 610.4,368.5 621.6,369.3 632.8,375.3 644.0,377.1 655.2,379.5 666.3,380.7 677.5,381.8 688.7,374.5 699.9,379.3 711.1,378.9 722.3,379.5 733.4,377.8 744.6,377.9 755.8,376.3 767.0,374.3 778.2,373.3 789.4,371.9 800.5,371.0 811.7,371.3 822.9,371.4 834.1,371.5 845.3,372.3 856.5,368.7 867.6,369.9 878.8,369.8 890.0,368.8" /><circle cx="890.0" cy="368.8" r="3.5" fill="#2c3e50" /><polyline fill="none" stroke="#d35400" stroke-width="2.2" points="96.0,417.2 107.2,417.5 118.4,418.7 129.5,419.1 140.7,417.9 151.9,418.4 163.1,417.9 174.3,416.8 185.5,416.1 196.6,416.5 207.8,415.3 219.0,410.5 230.2,408.9 241.4,404.0 252.6,404.7 263.7,405.3 274.9,406.2 286.1,406.6 297.3,406.2 308.5,404.5 319.7,407.0 330.8,410.7 342.0,411.0 353.2,410.7 364.4,410.2 375.6,409.5 386.8,407.7 397.9,405.7 409.1,405.5 420.3,403.0 431.5,402.3 442.7,399.1 453.9,395.7 465.0,394.6 476.2,393.9 487.4,392.4 498.6,392.5 509.8,384.7 521.0,381.3 532.1,375.1 543.3,373.4 554.5,377.7 565.7,381.9 576.9,384.8 588.1,385.1 599.2,385.0 610.4,386.3 621.6,386.6 632.8,387.7 644.0,388.3 655.2,388.7 666.3,388.6 677.5,389.7 688.7,390.1 699.9,392.1 711.1,391.5 722.3,390.2 733.4,390.7 744.6,390.7 755.8,386.5 767.0,384.2 778.2,382.3 789.4,378.1 800.5,377.2 811.7,376.7 822.9,375.0 834.1,377.8 845.3,373.9 856.5,373.8 867.6,372.6 878.8,372.5 890.0,371.5" /><circle cx="890.0" cy="371.5" r="3.5" fill="#d35400" /><polyline fill="none" stroke="#7f8c8d" stroke-width="2.2" points="96.0,415.9 107.2,415.4 118.4,414.6 129.5,415.6 140.7,416.4 151.9,421.6 163.1,421.8 174.3,422.2 185.5,420.7 196.6,417.6 207.8,414.3 219.0,402.1 230.2,393.3 241.4,394.2 252.6,396.0 263.7,403.0 274.9,392.1 286.1,381.4 297.3,381.9 308.5,368.1 319.7,375.5 330.8,376.2 342.0,372.7 353.2,368.6 364.4,369.8 375.6,318.3 386.8,316.7 397.9,306.1 409.1,280.4 420.3,265.8 431.5,278.0 442.7,278.7 453.9,255.9 465.0,244.1 476.2,229.5 487.4,221.6 498.6,219.2 509.8,225.6 521.0,241.9 532.1,239.1 543.3,211.8 554.5,226.7 565.7,234.0 576.9,237.7 588.1,239.6 599.2,256.7 610.4,272.0 621.6,284.6 632.8,293.9 644.0,299.4 655.2,306.9 666.3,313.5 677.5,323.4 688.7,327.3 699.9,328.0 711.1,330.8 722.3,316.2 733.4,286.2 744.6,291.1 755.8,287.8 767.0,286.5 778.2,280.6 789.4,287.1 800.5,281.7 811.7,281.0 822.9,276.6 834.1,282.6 845.3,284.1 856.5,270.2 867.6,274.1 878.8,274.7 890.0,267.4" /><circle cx="890.0" cy="267.4" r="3.5" fill="#7f8c8d" />
  
      <line x1="900" y1="70" x2="920" y2="70" stroke="#0b84f3" stroke-width="3" />
      <text x="928" y="74" font-size="12" fill="#18212f">AMATA</text>
    
      <line x1="900" y1="92" x2="920" y2="92" stroke="#f39c12" stroke-width="3" />
      <text x="928" y="96" font-size="12" fill="#18212f">AP</text>
    
      <line x1="900" y1="114" x2="920" y2="114" stroke="#27ae60" stroke-width="3" />
      <text x="928" y="118" font-size="12" fill="#18212f">AWC</text>
    
      <line x1="900" y1="136" x2="920" y2="136" stroke="#c0392b" stroke-width="3" />
      <text x="928" y="140" font-size="12" fill="#18212f">CPN</text>
    
      <line x1="900" y1="158" x2="920" y2="158" stroke="#8e44ad" stroke-width="3" />
      <text x="928" y="162" font-size="12" fill="#18212f">LH</text>
    
      <line x1="900" y1="180" x2="920" y2="180" stroke="#16a085" stroke-width="3" />
      <text x="928" y="184" font-size="12" fill="#18212f">QH</text>
    
      <line x1="900" y1="202" x2="920" y2="202" stroke="#2c3e50" stroke-width="3" />
      <text x="928" y="206" font-size="12" fill="#18212f">SIRI</text>
    
      <line x1="900" y1="224" x2="920" y2="224" stroke="#d35400" stroke-width="3" />
      <text x="928" y="228" font-size="12" fill="#18212f">SPALI</text>
    
      <line x1="900" y1="246" x2="920" y2="246" stroke="#7f8c8d" stroke-width="3" />
      <text x="928" y="250" font-size="12" fill="#18212f">WHA</text>
    
</svg>
