<?xml version="1.0" encoding="UTF-8"?>
<svg xmlns="http://www.w3.org/2000/svg" width="1080" height="520" viewBox="0 0 1080 520">
  <rect width="100%" height="100%" fill="#f7f9fc" />
  <text x="96" y="26" font-size="20" font-family="Arial, sans-serif" font-weight="700" fill="#18212f">Insurance sector stock group chart</text>
  <text x="96" y="48" font-size="12" font-family="Arial, sans-serif" fill="#445166">Cumulative NVDR NET by stock | 2026-01-01 to 2026-04-21</text>
  
      <line x1="96" y1="54.0" x2="890" y2="54.0" stroke="#d8dde6" stroke-width="1" />
      <text x="86" y="58.0" text-anchor="end" font-size="12" fill="#445166">398.19</text>
    
      <line x1="96" y1="136.0" x2="890" y2="136.0" stroke="#d8dde6" stroke-width="1" />
      <text x="86" y="140.0" text-anchor="end" font-size="12" fill="#445166">261.73</text>
    
      <line x1="96" y1="218.0" x2="890" y2="218.0" stroke="#d8dde6" stroke-width="1" />
      <text x="86" y="222.0" text-anchor="end" font-size="12" fill="#445166">125.26</text>
    
      <line x1="96" y1="300.0" x2="890" y2="300.0" stroke="#d8dde6" stroke-width="1" />
      <text x="86" y="304.0" text-anchor="end" font-size="12" fill="#445166">-11.20</text>
    
      <line x1="96" y1="382.0" x2="890" y2="382.0" stroke="#d8dde6" stroke-width="1" />
      <text x="86" y="386.0" text-anchor="end" font-size="12" fill="#445166">-147.67</text>
    
      <line x1="96" y1="464.0" x2="890" y2="464.0" stroke="#d8dde6" stroke-width="1" />
      <text x="86" y="468.0" text-anchor="end" font-size="12" fill="#445166">-284.13</text>
    
  <line x1="96" y1="293.3" x2="890" y2="293.3" stroke="#7a8799" stroke-width="1.4" stroke-dasharray="4 4" />
  <line x1="96" y1="54" x2="96" y2="464" stroke="#445166" stroke-width="1.2" />
  <line x1="96" y1="464" x2="890" y2="464" stroke="#445166" stroke-width="1.2" />
  
      <line x1="96.0" y1="464" x2="96.0" y2="470" stroke="#445166" stroke-width="1" />
      <text x="96.0" y="486" text-anchor="middle" font-size="12" fill="#445166">2026-01-05</text>
    
      <line x1="487.4" y1="464" x2="487.4" y2="470" stroke="#445166" stroke-width="1" />
      <text x="487.4" y="486" text-anchor="middle" font-size="12" fill="#445166">2026-02-23</text>
    
      <line x1="890.0" y1="464" x2="890.0" y2="470" stroke="#445166" stroke-width="1" />
      <text x="890.0" y="486" text-anchor="middle" font-size="12" fill="#445166">2026-04-21</text>
    
  <polyline fill="none" stroke="#0b84f3" stroke-width="2.2" points="96.0,283.8 107.2,283.8 118.4,279.2 129.5,272.8 140.7,272.0 151.9,278.1 163.1,277.4 174.3,271.3 185.5,263.4 196.6,261.4 207.8,259.5 219.0,259.1 230.2,254.3 241.4,257.4 252.6,256.2 263.7,259.1 274.9,261.4 286.1,264.6 297.3,272.1 308.5,263.2 319.7,275.5 330.8,270.5 342.0,273.8 353.2,276.2 364.4,280.5 375.6,273.2 386.8,271.4 397.9,274.7 409.1,274.7 420.3,273.9 431.5,278.8 442.7,280.9 453.9,284.1 465.0,289.5 476.2,289.9 487.4,286.9 498.6,290.0 509.8,286.9 521.0,280.1 532.1,286.8 543.3,278.5 554.5,274.7 565.7,277.7 576.9,279.1 588.1,276.5 599.2,277.9 610.4,277.5 621.6,278.7 632.8,282.0 644.0,283.7 655.2,284.2 666.3,288.5 677.5,293.7 688.7,290.4 699.9,289.5 711.1,289.0 722.3,286.4 733.4,285.9 744.6,279.2 755.8,279.5 767.0,261.3 778.2,253.9 789.4,253.1 800.5,249.5 811.7,249.8 822.9,244.9 834.1,250.3 845.3,252.3 856.5,256.0 867.6,258.0 878.8,258.9 890.0,254.9" /><circle cx="890.0" cy="254.9" r="3.5" fill="#0b84f3" /><polyline fill="none" stroke="#f39c12" stroke-width="2.2" points="96.0,337.7 107.2,354.1 118.4,362.6 129.5,362.9 140.7,351.3 151.9,381.9 163.1,354.8 174.3,365.9 185.5,375.9 196.6,396.4 207.8,416.1 219.0,435.3 230.2,454.6 241.4,464.0 252.6,452.6 263.7,413.1 274.9,395.0 286.1,386.2 297.3,383.0 308.5,365.3 319.7,373.7 330.8,375.3 342.0,298.3 353.2,291.4 364.4,279.3 375.6,203.7 386.8,163.4 397.9,143.8 409.1,114.7 420.3,104.8 431.5,108.1 442.7,88.5 453.9,83.3 465.0,70.4 476.2,58.6 487.4,67.5 498.6,54.0 509.8,64.0 521.0,57.8 532.1,90.6 543.3,95.6 554.5,115.0 565.7,184.0 576.9,211.8 588.1,248.4 599.2,279.0 610.4,301.1 621.6,321.9 632.8,351.3 644.0,359.7 655.2,383.4 666.3,394.4 677.5,415.5 688.7,420.9 699.9,452.9 711.1,451.4 722.3,448.3 733.4,448.7 744.6,424.9 755.8,430.5 767.0,425.4 778.2,423.5 789.4,428.3 800.5,427.7 811.7,406.6 822.9,389.2 834.1,404.0 845.3,400.2 856.5,397.5 867.6,413.8 878.8,414.9 890.0,405.9" /><circle cx="890.0" cy="405.9" r="3.5" fill="#f39c12" />
  
      <line x1="900" y1="70" x2="920" y2="70" stroke="#0b84f3" stroke-width="3" />
      <text x="928" y="74" font-size="12" fill="#18212f">BLA</text>
    
      <line x1="900" y1="92" x2="920" y2="92" stroke="#f39c12" stroke-width="3" />
      <text x="928" y="96" font-size="12" fill="#18212f">TLI</text>
    
</svg>
