<?xml version="1.0" encoding="UTF-8"?>
<svg xmlns="http://www.w3.org/2000/svg" width="1080" height="520" viewBox="0 0 1080 520">
  <rect width="100%" height="100%" fill="#f7f9fc" />
  <text x="96" y="26" font-size="20" font-family="Arial, sans-serif" font-weight="700" fill="#18212f">Agri sector stock group chart</text>
  <text x="96" y="48" font-size="12" font-family="Arial, sans-serif" fill="#445166">Cumulative NVDR NET by stock | 2026-01-01 to 2026-04-21</text>
  
      <line x1="96" y1="54.0" x2="890" y2="54.0" stroke="#d8dde6" stroke-width="1" />
      <text x="86" y="58.0" text-anchor="end" font-size="12" fill="#445166">270.10</text>
    
      <line x1="96" y1="136.0" x2="890" y2="136.0" stroke="#d8dde6" stroke-width="1" />
      <text x="86" y="140.0" text-anchor="end" font-size="12" fill="#445166">174.30</text>
    
      <line x1="96" y1="218.0" x2="890" y2="218.0" stroke="#d8dde6" stroke-width="1" />
      <text x="86" y="222.0" text-anchor="end" font-size="12" fill="#445166">78.50</text>
    
      <line x1="96" y1="300.0" x2="890" y2="300.0" stroke="#d8dde6" stroke-width="1" />
      <text x="86" y="304.0" text-anchor="end" font-size="12" fill="#445166">-17.31</text>
    
      <line x1="96" y1="382.0" x2="890" y2="382.0" stroke="#d8dde6" stroke-width="1" />
      <text x="86" y="386.0" text-anchor="end" font-size="12" fill="#445166">-113.11</text>
    
      <line x1="96" y1="464.0" x2="890" y2="464.0" stroke="#d8dde6" stroke-width="1" />
      <text x="86" y="468.0" text-anchor="end" font-size="12" fill="#445166">-208.91</text>
    
  <line x1="96" y1="285.2" x2="890" y2="285.2" stroke="#7a8799" stroke-width="1.4" stroke-dasharray="4 4" />
  <line x1="96" y1="54" x2="96" y2="464" stroke="#445166" stroke-width="1.2" />
  <line x1="96" y1="464" x2="890" y2="464" stroke="#445166" stroke-width="1.2" />
  
      <line x1="96.0" y1="464" x2="96.0" y2="470" stroke="#445166" stroke-width="1" />
      <text x="96.0" y="486" text-anchor="middle" font-size="12" fill="#445166">2026-01-05</text>
    
      <line x1="487.4" y1="464" x2="487.4" y2="470" stroke="#445166" stroke-width="1" />
      <text x="487.4" y="486" text-anchor="middle" font-size="12" fill="#445166">2026-02-23</text>
    
      <line x1="890.0" y1="464" x2="890.0" y2="470" stroke="#445166" stroke-width="1" />
      <text x="890.0" y="486" text-anchor="middle" font-size="12" fill="#445166">2026-04-21</text>
    
  <polyline fill="none" stroke="#0b84f3" stroke-width="2.2" points="96.0,276.8 107.2,266.1 118.4,252.8 129.5,247.3 140.7,237.2 151.9,238.2 163.1,242.1 174.3,241.7 185.5,244.2 196.6,246.8 207.8,246.1 219.0,246.8 230.2,246.5 241.4,256.8 252.6,274.4 263.7,281.6 274.9,290.2 286.1,302.0 297.3,312.9 308.5,316.4 319.7,319.6 330.8,329.5 342.0,328.9 353.2,330.0 364.4,329.8 375.6,331.1 386.8,337.3 397.9,332.7 409.1,333.3 420.3,333.4 431.5,332.3 442.7,330.7 453.9,330.1 465.0,340.8 476.2,348.2 487.4,363.5 498.6,365.2 509.8,374.7 521.0,377.8 532.1,383.9 543.3,389.3 554.5,396.4 565.7,404.0 576.9,436.9 588.1,439.1 599.2,440.7 610.4,442.3 621.6,442.6 632.8,444.1 644.0,456.9 655.2,454.6 666.3,454.4 677.5,457.8 688.7,458.7 699.9,463.1 711.1,461.8 722.3,460.4 733.4,459.9 744.6,458.9 755.8,463.1 767.0,461.0 778.2,459.6 789.4,456.4 800.5,459.0 811.7,459.1 822.9,460.0 834.1,464.0 845.3,463.6 856.5,463.6 867.6,463.1 878.8,463.1 890.0,463.0" /><circle cx="890.0" cy="463.0" r="3.5" fill="#0b84f3" /><polyline fill="none" stroke="#f39c12" stroke-width="2.2" points="96.0,276.3 107.2,255.9 118.4,257.4 129.5,261.9 140.7,265.1 151.9,271.7 163.1,269.8 174.3,268.4 185.5,265.7 196.6,262.1 207.8,257.9 219.0,236.7 230.2,226.1 241.4,200.6 252.6,215.1 263.7,230.2 274.9,229.6 286.1,241.3 297.3,241.3 308.5,257.0 319.7,261.8 330.8,255.8 342.0,249.7 353.2,238.8 364.4,245.8 375.6,224.0 386.8,227.3 397.9,230.6 409.1,234.2 420.3,260.9 431.5,207.5 442.7,239.7 453.9,230.8 465.0,253.3 476.2,281.5 487.4,270.0 498.6,250.0 509.8,255.3 521.0,268.1 532.1,282.6 543.3,268.8 554.5,243.7 565.7,236.6 576.9,84.6 588.1,207.8 599.2,168.0 610.4,183.4 621.6,136.4 632.8,130.1 644.0,128.9 655.2,157.7 666.3,135.5 677.5,142.2 688.7,179.8 699.9,185.0 711.1,172.6 722.3,170.0 733.4,179.0 744.6,139.1 755.8,151.6 767.0,137.3 778.2,54.0 789.4,76.9 800.5,76.2 811.7,102.2 822.9,104.3 834.1,106.4 845.3,114.6 856.5,140.9 867.6,152.6 878.8,146.6 890.0,151.3" /><circle cx="890.0" cy="151.3" r="3.5" fill="#f39c12" />
  
      <line x1="900" y1="70" x2="920" y2="70" stroke="#0b84f3" stroke-width="3" />
      <text x="928" y="74" font-size="12" fill="#18212f">GFPT</text>
    
      <line x1="900" y1="92" x2="920" y2="92" stroke="#f39c12" stroke-width="3" />
      <text x="928" y="96" font-size="12" fill="#18212f">STA</text>
    
</svg>
