<?xml version="1.0" encoding="UTF-8"?>
<svg xmlns="http://www.w3.org/2000/svg" width="960" height="420" viewBox="0 0 960 420">
  <rect width="100%" height="100%" fill="#f7f9fc" />
  <text x="88" y="24" font-size="20" font-family="Arial, sans-serif" font-weight="700" fill="#18212f">Food sector cumulative NVDR NET (2026-01-01 to 2026-04-21)</text>
  <text x="88" y="46" font-size="12" font-family="Arial, sans-serif" fill="#445166">Unit: million baht, based on NVDR Turnover (Net) from value view</text>
  
      <line x1="88" y1="36.0" x2="936" y2="36.0" stroke="#d8dde6" stroke-width="1" />
      <text x="78" y="40.0" text-anchor="end" font-size="12" fill="#445166">3830.67</text>
    
      <line x1="88" y1="101.6" x2="936" y2="101.6" stroke="#d8dde6" stroke-width="1" />
      <text x="78" y="105.6" text-anchor="end" font-size="12" fill="#445166">3048.12</text>
    
      <line x1="88" y1="167.2" x2="936" y2="167.2" stroke="#d8dde6" stroke-width="1" />
      <text x="78" y="171.2" text-anchor="end" font-size="12" fill="#445166">2265.57</text>
    
      <line x1="88" y1="232.8" x2="936" y2="232.8" stroke="#d8dde6" stroke-width="1" />
      <text x="78" y="236.8" text-anchor="end" font-size="12" fill="#445166">1483.03</text>
    
      <line x1="88" y1="298.4" x2="936" y2="298.4" stroke="#d8dde6" stroke-width="1" />
      <text x="78" y="302.4" text-anchor="end" font-size="12" fill="#445166">700.48</text>
    
      <line x1="88" y1="364.0" x2="936" y2="364.0" stroke="#d8dde6" stroke-width="1" />
      <text x="78" y="368.0" text-anchor="end" font-size="12" fill="#445166">-82.07</text>
    
  <line x1="88" y1="357.1" x2="936" y2="357.1" stroke="#7a8799" stroke-width="1.4" stroke-dasharray="4 4" />
  <line x1="88" y1="36" x2="88" y2="364" stroke="#445166" stroke-width="1.2" />
  <line x1="88" y1="364" x2="936" y2="364" stroke="#445166" stroke-width="1.2" />
  
      <line x1="88.0" y1="364" x2="88.0" y2="370" stroke="#445166" stroke-width="1" />
      <text x="88.0" y="386" text-anchor="middle" font-size="12" fill="#445166">2026-01-05</text>
    
      <line x1="506.0" y1="364" x2="506.0" y2="370" stroke="#445166" stroke-width="1" />
      <text x="506.0" y="386" text-anchor="middle" font-size="12" fill="#445166">2026-02-23</text>
    
      <line x1="936.0" y1="364" x2="936.0" y2="370" stroke="#445166" stroke-width="1" />
      <text x="936.0" y="386" text-anchor="middle" font-size="12" fill="#445166">2026-04-21</text>
    
  <polyline fill="none" stroke="#0b84f3" stroke-width="3" points="88.0,364.0 99.9,360.6 111.9,350.8 123.8,354.1 135.8,347.1 147.7,356.6 159.7,353.7 171.6,343.2 183.5,330.3 195.5,320.4 207.4,307.0 219.4,303.7 231.3,296.2 243.3,307.5 255.2,315.9 267.2,318.3 279.1,317.0 291.0,326.6 303.0,331.1 314.9,334.1 326.9,339.1 338.8,330.2 350.8,339.0 362.7,332.1 374.6,324.4 386.6,294.6 398.5,294.3 410.5,280.8 422.4,260.4 434.4,250.2 446.3,252.7 458.3,231.5 470.2,223.0 482.1,218.6 494.1,230.2 506.0,221.2 518.0,208.1 529.9,183.8 541.9,152.6 553.8,155.4 565.7,142.2 577.7,155.9 589.6,195.1 601.6,201.9 613.5,190.2 625.5,198.9 637.4,219.4 649.4,214.9 661.3,223.2 673.2,220.3 685.2,203.6 697.1,184.3 709.1,214.2 721.0,197.6 733.0,229.5 744.9,244.4 756.8,222.0 768.8,201.4 780.7,147.0 792.7,135.5 804.6,114.4 816.6,104.4 828.5,74.1 840.5,77.2 852.4,59.7 864.3,54.5 876.3,51.0 888.2,36.0 900.2,42.3 912.1,53.5 924.1,44.0 936.0,41.7" />
  <circle cx="936.0" cy="41.7" r="4.5" fill="#0b84f3" />
  <text x="932.0" y="48.0" font-size="12" fill="#18212f">3763.01</text>
</svg>
