<?xml version="1.0" encoding="UTF-8"?>
<svg xmlns="http://www.w3.org/2000/svg" width="1080" height="520" viewBox="0 0 1080 520">
  <rect width="100%" height="100%" fill="#f7f9fc" />
  <text x="96" y="26" font-size="20" font-family="Arial, sans-serif" font-weight="700" fill="#18212f">Food sector stock group chart</text>
  <text x="96" y="48" font-size="12" font-family="Arial, sans-serif" fill="#445166">Cumulative NVDR NET by stock | 2026-01-01 to 2026-04-21</text>
  
      <line x1="96" y1="54.0" x2="890" y2="54.0" stroke="#d8dde6" stroke-width="1" />
      <text x="86" y="58.0" text-anchor="end" font-size="12" fill="#445166">2,086.60</text>
    
      <line x1="96" y1="136.0" x2="890" y2="136.0" stroke="#d8dde6" stroke-width="1" />
      <text x="86" y="140.0" text-anchor="end" font-size="12" fill="#445166">1,536.34</text>
    
      <line x1="96" y1="218.0" x2="890" y2="218.0" stroke="#d8dde6" stroke-width="1" />
      <text x="86" y="222.0" text-anchor="end" font-size="12" fill="#445166">986.08</text>
    
      <line x1="96" y1="300.0" x2="890" y2="300.0" stroke="#d8dde6" stroke-width="1" />
      <text x="86" y="304.0" text-anchor="end" font-size="12" fill="#445166">435.82</text>
    
      <line x1="96" y1="382.0" x2="890" y2="382.0" stroke="#d8dde6" stroke-width="1" />
      <text x="86" y="386.0" text-anchor="end" font-size="12" fill="#445166">-114.44</text>
    
      <line x1="96" y1="464.0" x2="890" y2="464.0" stroke="#d8dde6" stroke-width="1" />
      <text x="86" y="468.0" text-anchor="end" font-size="12" fill="#445166">-664.70</text>
    
  <line x1="96" y1="364.9" x2="890" y2="364.9" stroke="#7a8799" stroke-width="1.4" stroke-dasharray="4 4" />
  <line x1="96" y1="54" x2="96" y2="464" stroke="#445166" stroke-width="1.2" />
  <line x1="96" y1="464" x2="890" y2="464" stroke="#445166" stroke-width="1.2" />
  
      <line x1="96.0" y1="464" x2="96.0" y2="470" stroke="#445166" stroke-width="1" />
      <text x="96.0" y="486" text-anchor="middle" font-size="12" fill="#445166">2026-01-05</text>
    
      <line x1="487.4" y1="464" x2="487.4" y2="470" stroke="#445166" stroke-width="1" />
      <text x="487.4" y="486" text-anchor="middle" font-size="12" fill="#445166">2026-02-23</text>
    
      <line x1="890.0" y1="464" x2="890.0" y2="470" stroke="#445166" stroke-width="1" />
      <text x="890.0" y="486" text-anchor="middle" font-size="12" fill="#445166">2026-04-21</text>
    
  <polyline fill="none" stroke="#0b84f3" stroke-width="2.2" points="96.0,364.6 107.2,365.4 118.4,364.0 129.5,366.8 140.7,363.1 151.9,366.5 163.1,368.0 174.3,364.5 185.5,360.7 196.6,359.7 207.8,358.3 219.0,358.2 230.2,357.1 241.4,359.3 252.6,364.5 263.7,366.0 274.9,367.0 286.1,369.4 297.3,368.9 308.5,369.3 319.7,369.9 330.8,371.1 342.0,371.9 353.2,372.0 364.4,372.2 375.6,370.5 386.8,368.3 397.9,368.2 409.1,366.0 420.3,364.8 431.5,364.8 442.7,361.3 453.9,355.3 465.0,354.5 476.2,353.3 487.4,350.1 498.6,337.0 509.8,303.8 521.0,288.7 532.1,282.4 543.3,275.2 554.5,273.9 565.7,275.4 576.9,274.2 588.1,273.1 599.2,270.2 610.4,275.1 621.6,274.2 632.8,277.8 644.0,277.9 655.2,273.2 666.3,270.3 677.5,280.7 688.7,282.8 699.9,282.9 711.1,279.3 722.3,270.5 733.4,268.2 744.6,232.9 755.8,227.1 767.0,214.5 778.2,208.6 789.4,200.4 800.5,202.1 811.7,199.9 822.9,203.7 834.1,202.2 845.3,197.2 856.5,186.6 867.6,189.0 878.8,188.8 890.0,191.5" /><circle cx="890.0" cy="191.5" r="3.5" fill="#0b84f3" /><polyline fill="none" stroke="#f39c12" stroke-width="2.2" points="96.0,364.9 107.2,365.8 118.4,357.7 129.5,364.2 140.7,362.0 151.9,365.2 163.1,363.1 174.3,359.7 185.5,357.7 196.6,346.5 207.8,342.9 219.0,333.4 230.2,332.5 241.4,333.4 252.6,335.5 263.7,335.5 274.9,335.5 286.1,336.8 297.3,336.4 308.5,336.5 319.7,339.3 330.8,335.8 342.0,343.4 353.2,340.4 364.4,343.5 375.6,315.9 386.8,320.9 397.9,329.6 409.1,325.4 420.3,333.9 431.5,334.9 442.7,336.1 453.9,334.7 465.0,338.0 476.2,341.8 487.4,347.3 498.6,345.3 509.8,345.1 521.0,341.5 532.1,343.7 543.3,346.5 554.5,353.9 565.7,361.1 576.9,362.6 588.1,361.8 599.2,368.0 610.4,370.4 621.6,372.9 632.8,380.0 644.0,381.3 655.2,381.2 666.3,381.7 677.5,385.9 688.7,383.8 699.9,386.4 711.1,384.9 722.3,381.5 733.4,382.2 744.6,382.5 755.8,377.2 767.0,374.4 778.2,375.4 789.4,375.1 800.5,372.0 811.7,370.9 822.9,368.2 834.1,371.2 845.3,371.0 856.5,367.5 867.6,370.3 878.8,370.6 890.0,370.9" /><circle cx="890.0" cy="370.9" r="3.5" fill="#f39c12" /><polyline fill="none" stroke="#27ae60" stroke-width="2.2" points="96.0,368.7 107.2,369.2 118.4,373.2 129.5,365.4 140.7,367.0 151.9,372.0 163.1,370.1 174.3,371.4 185.5,361.3 196.6,364.7 207.8,346.8 219.0,353.0 230.2,353.3 241.4,368.5 252.6,382.7 263.7,388.6 274.9,385.7 286.1,391.7 297.3,399.2 308.5,409.8 319.7,418.7 330.8,417.7 342.0,414.2 353.2,404.2 364.4,381.8 375.6,377.0 386.8,376.9 397.9,354.6 409.1,344.4 420.3,328.1 431.5,331.2 442.7,314.9 453.9,311.6 465.0,307.1 476.2,313.0 487.4,308.2 498.6,310.5 509.8,296.3 521.0,278.6 532.1,297.8 543.3,317.2 554.5,348.0 565.7,399.8 576.9,408.4 588.1,411.7 599.2,414.5 610.4,434.3 621.6,425.8 632.8,422.2 644.0,412.4 655.2,396.8 666.3,386.0 677.5,405.3 688.7,376.2 699.9,423.3 711.1,454.4 722.3,464.0 733.4,443.9 744.6,417.6 755.8,419.6 767.0,416.1 778.2,411.2 789.4,396.7 800.5,397.8 811.7,383.4 822.9,380.2 834.1,377.7 845.3,370.1 856.5,408.9 867.6,417.2 878.8,405.4 890.0,408.9" /><circle cx="890.0" cy="408.9" r="3.5" fill="#27ae60" /><polyline fill="none" stroke="#c0392b" stroke-width="2.2" points="96.0,367.0 107.2,365.6 118.4,366.3 129.5,368.0 140.7,368.6 151.9,369.0 163.1,368.0 174.3,366.4 185.5,365.5 196.6,365.7 207.8,365.7 219.0,364.1 230.2,365.8 241.4,369.1 252.6,370.2 263.7,370.7 274.9,371.5 286.1,372.1 297.3,373.6 308.5,374.2 319.7,374.5 330.8,372.1 342.0,374.1 353.2,374.9 364.4,375.3 375.6,373.2 386.8,368.8 397.9,369.7 409.1,366.4 420.3,367.9 431.5,367.6 442.7,365.7 453.9,366.2 465.0,366.1 476.2,369.0 487.4,372.5 498.6,374.2 509.8,379.1 521.0,381.7 532.1,381.6 543.3,381.8 554.5,381.1 565.7,384.7 576.9,383.2 588.1,381.7 599.2,383.8 610.4,384.0 621.6,384.1 632.8,385.6 644.0,387.7 655.2,388.6 666.3,389.4 677.5,389.6 688.7,386.2 699.9,387.5 711.1,388.3 722.3,386.8 733.4,385.6 744.6,384.3 755.8,384.7 767.0,385.3 778.2,389.7 789.4,389.4 800.5,387.4 811.7,388.5 822.9,389.4 834.1,390.8 845.3,390.2 856.5,389.1 867.6,388.8 878.8,387.5 890.0,387.0" /><circle cx="890.0" cy="387.0" r="3.5" fill="#c0392b" /><polyline fill="none" stroke="#8e44ad" stroke-width="2.2" points="96.0,365.4 107.2,367.3 118.4,364.7 129.5,369.7 140.7,372.3 151.9,373.9 163.1,374.7 174.3,373.4 185.5,370.4 196.6,371.4 207.8,372.5 219.0,376.2 230.2,374.1 241.4,376.3 252.6,376.7 263.7,376.6 274.9,376.8 286.1,378.9 297.3,379.1 308.5,379.6 319.7,380.8 330.8,375.0 342.0,380.5 353.2,385.3 364.4,388.1 375.6,391.1 386.8,392.9 397.9,393.6 409.1,390.8 420.3,395.1 431.5,395.8 442.7,392.8 453.9,393.6 465.0,400.1 476.2,402.4 487.4,402.3 498.6,405.0 509.8,403.8 521.0,403.7 532.1,396.6 543.3,394.1 554.5,395.8 565.7,396.1 576.9,396.0 588.1,395.4 599.2,396.1 610.4,396.2 621.6,397.5 632.8,399.8 644.0,400.9 655.2,400.6 666.3,400.1 677.5,401.3 688.7,401.2 699.9,401.4 711.1,401.5 722.3,401.9 733.4,403.6 744.6,403.7 755.8,403.5 767.0,403.7 778.2,403.6 789.4,404.2 800.5,407.6 811.7,407.6 822.9,402.3 834.1,405.4 845.3,406.2 856.5,402.7 867.6,405.3 878.8,406.5 890.0,406.6" /><circle cx="890.0" cy="406.6" r="3.5" fill="#8e44ad" /><polyline fill="none" stroke="#16a085" stroke-width="2.2" points="96.0,364.5 107.2,365.1 118.4,357.0 129.5,356.6 140.7,349.6 151.9,347.8 163.1,343.3 174.3,336.8 185.5,333.2 196.6,323.5 207.8,320.0 219.0,315.1 230.2,312.4 241.4,309.4 252.6,299.8 263.7,298.2 274.9,298.8 286.1,301.7 297.3,304.0 308.5,301.2 319.7,307.7 330.8,308.6 342.0,311.0 353.2,310.7 364.4,309.1 375.6,296.9 386.8,298.5 397.9,294.2 409.1,297.4 420.3,297.0 431.5,297.0 442.7,295.6 453.9,294.2 465.0,293.6 476.2,295.0 487.4,295.7 498.6,293.2 509.8,291.4 521.0,290.7 532.1,305.6 543.3,277.9 554.5,274.7 565.7,274.2 576.9,272.7 588.1,269.3 599.2,286.2 610.4,297.7 621.6,295.5 632.8,301.9 644.0,301.9 655.2,299.7 666.3,299.7 677.5,308.1 688.7,307.8 699.9,310.2 711.1,309.4 722.3,307.4 733.4,308.2 744.6,298.1 755.8,292.1 767.0,290.3 778.2,288.5 789.4,288.2 800.5,287.5 811.7,281.0 822.9,280.3 834.1,283.4 845.3,282.6 856.5,280.7 867.6,280.7 878.8,280.9 890.0,279.2" /><circle cx="890.0" cy="279.2" r="3.5" fill="#16a085" /><polyline fill="none" stroke="#2c3e50" stroke-width="2.2" points="96.0,370.4 107.2,379.6 118.4,383.2 129.5,386.7 140.7,383.5 151.9,387.8 163.1,391.5 174.3,393.6 185.5,394.1 196.6,394.4 207.8,394.9 219.0,395.0 230.2,397.5 241.4,400.9 252.6,403.3 263.7,404.0 274.9,404.8 286.1,408.0 297.3,406.1 308.5,404.9 319.7,403.7 330.8,399.9 342.0,399.8 353.2,398.5 364.4,399.2 375.6,395.8 386.8,396.7 397.9,397.8 409.1,394.8 420.3,393.4 431.5,391.9 442.7,386.1 453.9,379.2 465.0,370.5 476.2,369.1 487.4,364.0 498.6,341.6 509.8,342.7 521.0,329.9 532.1,308.0 543.3,283.4 554.5,269.9 565.7,265.8 576.9,261.3 588.1,248.7 599.2,235.4 610.4,227.8 621.6,219.6 632.8,213.1 644.0,211.8 655.2,209.6 666.3,186.8 677.5,190.2 688.7,192.1 699.9,191.6 711.1,190.4 722.3,160.7 733.4,145.3 744.6,126.5 755.8,125.7 767.0,109.6 778.2,99.6 789.4,71.2 800.5,76.2 811.7,79.5 822.9,79.5 834.1,73.3 845.3,63.3 856.5,58.2 867.6,65.1 878.8,63.7 890.0,54.0" /><circle cx="890.0" cy="54.0" r="3.5" fill="#2c3e50" /><polyline fill="none" stroke="#d35400" stroke-width="2.2" points="96.0,366.3 107.2,347.6 118.4,342.1 129.5,336.8 140.7,335.4 151.9,336.4 163.1,334.8 174.3,329.0 185.5,329.0 196.6,328.6 207.8,329.4 219.0,329.7 230.2,318.5 241.4,314.5 252.6,313.5 263.7,311.0 274.9,308.3 286.1,306.8 297.3,306.0 308.5,303.0 319.7,292.9 330.8,291.5 342.0,292.3 353.2,289.2 364.4,292.2 375.6,287.8 386.8,284.7 397.9,276.1 409.1,262.4 420.3,249.3 431.5,250.8 442.7,243.7 453.9,246.4 465.0,243.4 476.2,250.5 487.4,237.8 498.6,247.8 509.8,249.3 521.0,241.3 532.1,245.3 543.3,261.4 554.5,264.5 565.7,274.4 576.9,285.3 588.1,281.3 599.2,283.9 610.4,289.3 621.6,297.1 632.8,301.1 644.0,302.2 655.2,297.1 666.3,298.5 677.5,304.5 688.7,305.9 699.9,309.5 711.1,310.9 722.3,306.8 733.4,305.7 744.6,300.4 755.8,295.7 767.0,294.2 778.2,293.8 789.4,291.1 800.5,291.2 811.7,280.1 822.9,278.0 834.1,271.3 845.3,268.1 856.5,266.5 867.6,263.5 878.8,259.6 890.0,260.7" /><circle cx="890.0" cy="260.7" r="3.5" fill="#d35400" />
  
      <line x1="900" y1="70" x2="920" y2="70" stroke="#0b84f3" stroke-width="3" />
      <text x="928" y="74" font-size="12" fill="#18212f">BTG</text>
    
      <line x1="900" y1="92" x2="920" y2="92" stroke="#f39c12" stroke-width="3" />
      <text x="928" y="96" font-size="12" fill="#18212f">CBG</text>
    
      <line x1="900" y1="114" x2="920" y2="114" stroke="#27ae60" stroke-width="3" />
      <text x="928" y="118" font-size="12" fill="#18212f">CPF</text>
    
      <line x1="900" y1="136" x2="920" y2="136" stroke="#c0392b" stroke-width="3" />
      <text x="928" y="140" font-size="12" fill="#18212f">ICHI</text>
    
      <line x1="900" y1="158" x2="920" y2="158" stroke="#8e44ad" stroke-width="3" />
      <text x="928" y="162" font-size="12" fill="#18212f">M</text>
    
      <line x1="900" y1="180" x2="920" y2="180" stroke="#16a085" stroke-width="3" />
      <text x="928" y="184" font-size="12" fill="#18212f">OSP</text>
    
      <line x1="900" y1="202" x2="920" y2="202" stroke="#2c3e50" stroke-width="3" />
      <text x="928" y="206" font-size="12" fill="#18212f">TFG</text>
    
      <line x1="900" y1="224" x2="920" y2="224" stroke="#d35400" stroke-width="3" />
      <text x="928" y="228" font-size="12" fill="#18212f">TU</text>
    
</svg>
