<?xml version="1.0" encoding="UTF-8"?>
<svg xmlns="http://www.w3.org/2000/svg" width="960" height="420" viewBox="0 0 960 420">
  <rect width="100%" height="100%" fill="#f7f9fc" />
  <text x="88" y="24" font-size="20" font-family="Arial, sans-serif" font-weight="700" fill="#18212f">Fashion sector cumulative NVDR NET (2026-01-01 to 2026-04-21)</text>
  <text x="88" y="46" font-size="12" font-family="Arial, sans-serif" fill="#445166">Unit: million baht, based on NVDR Turnover (Net) from value view</text>
  
      <line x1="88" y1="36.0" x2="936" y2="36.0" stroke="#d8dde6" stroke-width="1" />
      <text x="78" y="40.0" text-anchor="end" font-size="12" fill="#445166">87.59</text>
    
      <line x1="88" y1="101.6" x2="936" y2="101.6" stroke="#d8dde6" stroke-width="1" />
      <text x="78" y="105.6" text-anchor="end" font-size="12" fill="#445166">68.53</text>
    
      <line x1="88" y1="167.2" x2="936" y2="167.2" stroke="#d8dde6" stroke-width="1" />
      <text x="78" y="171.2" text-anchor="end" font-size="12" fill="#445166">49.47</text>
    
      <line x1="88" y1="232.8" x2="936" y2="232.8" stroke="#d8dde6" stroke-width="1" />
      <text x="78" y="236.8" text-anchor="end" font-size="12" fill="#445166">30.40</text>
    
      <line x1="88" y1="298.4" x2="936" y2="298.4" stroke="#d8dde6" stroke-width="1" />
      <text x="78" y="302.4" text-anchor="end" font-size="12" fill="#445166">11.34</text>
    
      <line x1="88" y1="364.0" x2="936" y2="364.0" stroke="#d8dde6" stroke-width="1" />
      <text x="78" y="368.0" text-anchor="end" font-size="12" fill="#445166">-7.72</text>
    
  <line x1="88" y1="337.4" x2="936" y2="337.4" stroke="#7a8799" stroke-width="1.4" stroke-dasharray="4 4" />
  <line x1="88" y1="36" x2="88" y2="364" stroke="#445166" stroke-width="1.2" />
  <line x1="88" y1="364" x2="936" y2="364" stroke="#445166" stroke-width="1.2" />
  
      <line x1="88.0" y1="364" x2="88.0" y2="370" stroke="#445166" stroke-width="1" />
      <text x="88.0" y="386" text-anchor="middle" font-size="12" fill="#445166">2026-01-05</text>
    
      <line x1="506.0" y1="364" x2="506.0" y2="370" stroke="#445166" stroke-width="1" />
      <text x="506.0" y="386" text-anchor="middle" font-size="12" fill="#445166">2026-02-23</text>
    
      <line x1="936.0" y1="364" x2="936.0" y2="370" stroke="#445166" stroke-width="1" />
      <text x="936.0" y="386" text-anchor="middle" font-size="12" fill="#445166">2026-04-21</text>
    
  <polyline fill="none" stroke="#0b84f3" stroke-width="3" points="88.0,338.2 99.9,339.2 111.9,337.6 123.8,336.2 135.8,335.7 147.7,338.3 159.7,341.1 171.6,342.6 183.5,343.6 195.5,340.7 207.4,334.2 219.4,341.5 231.3,340.5 243.3,347.3 255.2,349.4 267.2,350.7 279.1,345.9 291.0,344.7 303.0,344.0 314.9,347.0 326.9,353.5 338.8,338.8 350.8,341.2 362.7,338.2 374.6,342.3 386.6,307.4 398.5,258.6 410.5,238.0 422.4,259.8 434.4,263.7 446.3,253.3 458.3,224.3 470.2,190.3 482.1,120.2 494.1,168.3 506.0,146.0 518.0,111.0 529.9,36.0 541.9,87.0 553.8,77.7 565.7,99.4 577.7,132.4 589.6,128.5 601.6,133.9 613.5,150.5 625.5,169.3 637.4,154.5 649.4,158.9 661.3,140.9 673.2,165.9 685.2,190.0 697.1,224.2 709.1,240.7 721.0,253.8 733.0,297.2 744.9,304.4 756.8,317.9 768.8,319.5 780.7,326.7 792.7,338.0 804.6,351.2 816.6,352.3 828.5,345.6 840.5,349.5 852.4,347.8 864.3,346.0 876.3,364.0 888.2,355.4 900.2,344.5 912.1,331.2 924.1,329.7 936.0,324.0" />
  <circle cx="936.0" cy="324.0" r="4.5" fill="#0b84f3" />
  <text x="932.0" y="314.0" font-size="12" fill="#18212f">3.91</text>
</svg>
