<?xml version="1.0" encoding="UTF-8"?>
<svg xmlns="http://www.w3.org/2000/svg" width="1080" height="520" viewBox="0 0 1080 520">
  <rect width="100%" height="100%" fill="#f7f9fc" />
  <text x="96" y="26" font-size="20" font-family="Arial, sans-serif" font-weight="700" fill="#18212f">Etron sector stock group chart</text>
  <text x="96" y="48" font-size="12" font-family="Arial, sans-serif" fill="#445166">Cumulative NVDR NET by stock | 2026-01-01 to 2026-04-21</text>
  
      <line x1="96" y1="54.0" x2="890" y2="54.0" stroke="#d8dde6" stroke-width="1" />
      <text x="86" y="58.0" text-anchor="end" font-size="12" fill="#445166">3,494.72</text>
    
      <line x1="96" y1="136.0" x2="890" y2="136.0" stroke="#d8dde6" stroke-width="1" />
      <text x="86" y="140.0" text-anchor="end" font-size="12" fill="#445166">1,826.54</text>
    
      <line x1="96" y1="218.0" x2="890" y2="218.0" stroke="#d8dde6" stroke-width="1" />
      <text x="86" y="222.0" text-anchor="end" font-size="12" fill="#445166">158.35</text>
    
      <line x1="96" y1="300.0" x2="890" y2="300.0" stroke="#d8dde6" stroke-width="1" />
      <text x="86" y="304.0" text-anchor="end" font-size="12" fill="#445166">-1,509.83</text>
    
      <line x1="96" y1="382.0" x2="890" y2="382.0" stroke="#d8dde6" stroke-width="1" />
      <text x="86" y="386.0" text-anchor="end" font-size="12" fill="#445166">-3,178.02</text>
    
      <line x1="96" y1="464.0" x2="890" y2="464.0" stroke="#d8dde6" stroke-width="1" />
      <text x="86" y="468.0" text-anchor="end" font-size="12" fill="#445166">-4,846.20</text>
    
  <line x1="96" y1="225.8" x2="890" y2="225.8" stroke="#7a8799" stroke-width="1.4" stroke-dasharray="4 4" />
  <line x1="96" y1="54" x2="96" y2="464" stroke="#445166" stroke-width="1.2" />
  <line x1="96" y1="464" x2="890" y2="464" stroke="#445166" stroke-width="1.2" />
  
      <line x1="96.0" y1="464" x2="96.0" y2="470" stroke="#445166" stroke-width="1" />
      <text x="96.0" y="486" text-anchor="middle" font-size="12" fill="#445166">2026-01-05</text>
    
      <line x1="487.4" y1="464" x2="487.4" y2="470" stroke="#445166" stroke-width="1" />
      <text x="487.4" y="486" text-anchor="middle" font-size="12" fill="#445166">2026-02-23</text>
    
      <line x1="890.0" y1="464" x2="890.0" y2="470" stroke="#445166" stroke-width="1" />
      <text x="890.0" y="486" text-anchor="middle" font-size="12" fill="#445166">2026-04-21</text>
    
  <polyline fill="none" stroke="#0b84f3" stroke-width="2.2" points="96.0,225.3 107.2,226.0 118.4,225.7 129.5,226.2 140.7,226.4 151.9,226.4 163.1,225.9 174.3,224.4 185.5,223.2 196.6,223.8 207.8,222.2 219.0,222.1 230.2,220.4 241.4,220.1 252.6,218.2 263.7,218.6 274.9,218.4 286.1,220.2 297.3,220.6 308.5,222.3 319.7,222.4 330.8,222.5 342.0,222.3 353.2,221.4 364.4,221.8 375.6,219.1 386.8,219.2 397.9,219.1 409.1,217.7 420.3,217.7 431.5,218.0 442.7,218.0 453.9,217.0 465.0,216.0 476.2,218.1 487.4,218.1 498.6,218.1 509.8,211.6 521.0,215.0 532.1,217.2 543.3,217.8 554.5,220.3 565.7,221.3 576.9,221.2 588.1,223.0 599.2,221.0 610.4,223.4 621.6,223.9 632.8,226.2 644.0,226.5 655.2,225.6 666.3,225.8 677.5,227.5 688.7,228.2 699.9,228.9 711.1,229.3 722.3,226.8 733.4,227.5 744.6,227.9 755.8,227.8 767.0,227.8 778.2,226.3 789.4,227.3 800.5,228.0 811.7,228.2 822.9,227.1 834.1,227.3 845.3,227.0 856.5,226.7 867.6,226.5 878.8,226.6 890.0,225.1" /><circle cx="890.0" cy="225.1" r="3.5" fill="#0b84f3" /><polyline fill="none" stroke="#f39c12" stroke-width="2.2" points="96.0,240.2 107.2,314.6 118.4,350.8 129.5,462.7 140.7,464.0 151.9,462.5 163.1,459.0 174.3,460.2 185.5,449.3 196.6,442.6 207.8,441.5 219.0,447.7 230.2,392.4 241.4,404.1 252.6,394.1 263.7,404.5 274.9,336.4 286.1,351.6 297.3,338.8 308.5,317.1 319.7,298.7 330.8,302.4 342.0,301.1 353.2,317.4 364.4,295.5 375.6,229.1 386.8,257.9 397.9,241.8 409.1,230.0 420.3,252.1 431.5,237.3 442.7,237.7 453.9,233.5 465.0,195.4 476.2,196.4 487.4,155.8 498.6,170.8 509.8,122.0 521.0,135.5 532.1,132.3 543.3,103.9 554.5,54.0 565.7,98.6 576.9,130.8 588.1,147.8 599.2,193.7 610.4,220.4 621.6,242.7 632.8,288.2 644.0,280.8 655.2,272.6 666.3,272.5 677.5,303.5 688.7,327.2 699.9,348.0 711.1,347.3 722.3,236.4 733.4,291.5 744.6,310.8 755.8,346.5 767.0,397.2 778.2,358.1 789.4,333.1 800.5,333.9 811.7,301.8 822.9,293.1 834.1,159.7 845.3,86.9 856.5,126.3 867.6,122.1 878.8,111.8 890.0,104.1" /><circle cx="890.0" cy="104.1" r="3.5" fill="#f39c12" /><polyline fill="none" stroke="#27ae60" stroke-width="2.2" points="96.0,225.2 107.2,226.2 118.4,226.5 129.5,227.9 140.7,228.9 151.9,229.5 163.1,229.9 174.3,229.6 185.5,228.7 196.6,227.6 207.8,225.0 219.0,224.4 230.2,224.3 241.4,226.2 252.6,225.5 263.7,226.6 274.9,226.7 286.1,228.6 297.3,230.9 308.5,231.8 319.7,233.7 330.8,234.3 342.0,235.0 353.2,237.6 364.4,237.6 375.6,235.6 386.8,235.0 397.9,237.3 409.1,235.9 420.3,237.2 431.5,235.5 442.7,232.7 453.9,234.9 465.0,230.8 476.2,242.2 487.4,244.4 498.6,244.1 509.8,246.1 521.0,248.6 532.1,241.1 543.3,225.3 554.5,231.8 565.7,221.2 576.9,228.8 588.1,236.3 599.2,233.0 610.4,225.3 621.6,220.8 632.8,219.2 644.0,218.5 655.2,216.3 666.3,216.5 677.5,198.3 688.7,198.7 699.9,200.4 711.1,200.9 722.3,185.9 733.4,190.6 744.6,196.1 755.8,204.6 767.0,213.5 778.2,203.2 789.4,192.5 800.5,198.0 811.7,198.3 822.9,200.8 834.1,205.3 845.3,211.0 856.5,209.9 867.6,213.6 878.8,216.0 890.0,219.9" /><circle cx="890.0" cy="219.9" r="3.5" fill="#27ae60" /><polyline fill="none" stroke="#c0392b" stroke-width="2.2" points="96.0,225.0 107.2,224.2 118.4,219.5 129.5,222.2 140.7,222.4 151.9,221.9 163.1,221.4 174.3,220.9 185.5,221.1 196.6,222.7 207.8,221.5 219.0,223.2 230.2,221.4 241.4,224.3 252.6,223.6 263.7,223.3 274.9,221.8 286.1,222.5 297.3,223.5 308.5,223.8 319.7,225.5 330.8,221.4 342.0,222.4 353.2,222.4 364.4,222.4 375.6,219.1 386.8,220.6 397.9,225.3 409.1,225.6 420.3,226.1 431.5,227.7 442.7,224.0 453.9,224.5 465.0,223.8 476.2,229.2 487.4,230.4 498.6,230.9 509.8,231.0 521.0,231.7 532.1,232.6 543.3,232.0 554.5,234.1 565.7,233.0 576.9,235.8 588.1,235.8 599.2,237.3 610.4,235.5 621.6,233.9 632.8,236.4 644.0,230.7 655.2,233.1 666.3,226.1 677.5,222.9 688.7,221.9 699.9,222.9 711.1,222.4 722.3,218.5 733.4,221.9 744.6,220.9 755.8,222.1 767.0,226.1 778.2,224.9 789.4,227.9 800.5,229.0 811.7,228.1 822.9,228.7 834.1,218.6 845.3,188.6 856.5,195.7 867.6,197.0 878.8,197.8 890.0,194.1" /><circle cx="890.0" cy="194.1" r="3.5" fill="#c0392b" />
  
      <line x1="900" y1="70" x2="920" y2="70" stroke="#0b84f3" stroke-width="3" />
      <text x="928" y="74" font-size="12" fill="#18212f">CCET</text>
    
      <line x1="900" y1="92" x2="920" y2="92" stroke="#f39c12" stroke-width="3" />
      <text x="928" y="96" font-size="12" fill="#18212f">DELTA</text>
    
      <line x1="900" y1="114" x2="920" y2="114" stroke="#27ae60" stroke-width="3" />
      <text x="928" y="118" font-size="12" fill="#18212f">HANA</text>
    
      <line x1="900" y1="136" x2="920" y2="136" stroke="#c0392b" stroke-width="3" />
      <text x="928" y="140" font-size="12" fill="#18212f">KCE</text>
    
</svg>
