<?xml version="1.0" encoding="UTF-8"?>
<svg xmlns="http://www.w3.org/2000/svg" width="960" height="420" viewBox="0 0 960 420">
  <rect width="100%" height="100%" fill="#f7f9fc" />
  <text x="88" y="24" font-size="20" font-family="Arial, sans-serif" font-weight="700" fill="#18212f">SIRI cumulative NVDR NET (2026-01-01 to 2026-04-21)</text>
  <text x="88" y="46" font-size="12" font-family="Arial, sans-serif" fill="#445166">Unit: million baht, based on NVDR Turnover (Net) from value view</text>
  
      <line x1="88" y1="36.0" x2="936" y2="36.0" stroke="#d8dde6" stroke-width="1" />
      <text x="78" y="40.0" text-anchor="end" font-size="12" fill="#445166">566.65</text>
    
      <line x1="88" y1="101.6" x2="936" y2="101.6" stroke="#d8dde6" stroke-width="1" />
      <text x="78" y="105.6" text-anchor="end" font-size="12" fill="#445166">452.32</text>
    
      <line x1="88" y1="167.2" x2="936" y2="167.2" stroke="#d8dde6" stroke-width="1" />
      <text x="78" y="171.2" text-anchor="end" font-size="12" fill="#445166">337.99</text>
    
      <line x1="88" y1="232.8" x2="936" y2="232.8" stroke="#d8dde6" stroke-width="1" />
      <text x="78" y="236.8" text-anchor="end" font-size="12" fill="#445166">223.67</text>
    
      <line x1="88" y1="298.4" x2="936" y2="298.4" stroke="#d8dde6" stroke-width="1" />
      <text x="78" y="302.4" text-anchor="end" font-size="12" fill="#445166">109.34</text>
    
      <line x1="88" y1="364.0" x2="936" y2="364.0" stroke="#d8dde6" stroke-width="1" />
      <text x="78" y="368.0" text-anchor="end" font-size="12" fill="#445166">-4.99</text>
    
  <line x1="88" y1="361.1" x2="936" y2="361.1" stroke="#7a8799" stroke-width="1.4" stroke-dasharray="4 4" />
  <line x1="88" y1="36" x2="88" y2="364" stroke="#445166" stroke-width="1.2" />
  <line x1="88" y1="364" x2="936" y2="364" stroke="#445166" stroke-width="1.2" />
  
      <line x1="88.0" y1="364" x2="88.0" y2="370" stroke="#445166" stroke-width="1" />
      <text x="88.0" y="386" text-anchor="middle" font-size="12" fill="#445166">2026-01-05</text>
    
      <line x1="506.0" y1="364" x2="506.0" y2="370" stroke="#445166" stroke-width="1" />
      <text x="506.0" y="386" text-anchor="middle" font-size="12" fill="#445166">2026-02-23</text>
    
      <line x1="936.0" y1="364" x2="936.0" y2="370" stroke="#445166" stroke-width="1" />
      <text x="936.0" y="386" text-anchor="middle" font-size="12" fill="#445166">2026-04-21</text>
    
  <polyline fill="none" stroke="#0b84f3" stroke-width="3" points="88.0,340.5 99.9,341.0 111.9,336.8 123.8,336.1 135.8,336.3 147.7,348.5 159.7,363.4 171.6,364.0 183.5,357.6 195.5,343.0 207.4,337.6 219.4,305.9 231.3,278.5 243.3,272.0 255.2,266.2 267.2,269.4 279.1,261.3 291.0,234.1 303.0,229.6 314.9,229.5 326.9,233.8 338.8,229.0 350.8,223.9 362.7,215.6 374.6,215.7 386.6,174.6 398.5,171.7 410.5,159.6 422.4,153.9 434.4,161.8 446.3,169.9 458.3,173.0 470.2,123.2 482.1,95.8 494.1,80.7 506.0,92.1 518.0,78.8 529.9,38.1 541.9,36.0 553.8,36.8 565.7,41.4 577.7,64.2 589.6,77.2 601.6,91.0 613.5,123.0 625.5,132.2 637.4,148.1 649.4,151.5 661.3,176.0 673.2,183.5 685.2,193.3 697.1,198.1 709.1,202.5 721.0,172.8 733.0,192.4 744.9,190.8 756.8,193.1 768.8,186.3 780.7,186.9 792.7,179.9 804.6,172.1 816.6,167.9 828.5,161.9 840.5,158.5 852.4,159.4 864.3,160.2 876.3,160.5 888.2,163.8 900.2,149.2 912.1,154.0 924.1,153.4 936.0,149.2" />
  <circle cx="936.0" cy="149.2" r="4.5" fill="#0b84f3" />
  <text x="932.0" y="139.2" font-size="12" fill="#18212f">369.34</text>
</svg>
