<?xml version="1.0" encoding="UTF-8"?>
<svg xmlns="http://www.w3.org/2000/svg" width="960" height="420" viewBox="0 0 960 420">
  <rect width="100%" height="100%" fill="#f7f9fc" />
  <text x="88" y="24" font-size="20" font-family="Arial, sans-serif" font-weight="700" fill="#18212f">SISB cumulative NVDR NET (2026-01-01 to 2026-04-21)</text>
  <text x="88" y="46" font-size="12" font-family="Arial, sans-serif" fill="#445166">Unit: million baht, based on NVDR Turnover (Net) from value view</text>
  
      <line x1="88" y1="36.0" x2="936" y2="36.0" stroke="#d8dde6" stroke-width="1" />
      <text x="78" y="40.0" text-anchor="end" font-size="12" fill="#445166">48.82</text>
    
      <line x1="88" y1="101.6" x2="936" y2="101.6" stroke="#d8dde6" stroke-width="1" />
      <text x="78" y="105.6" text-anchor="end" font-size="12" fill="#445166">19.54</text>
    
      <line x1="88" y1="167.2" x2="936" y2="167.2" stroke="#d8dde6" stroke-width="1" />
      <text x="78" y="171.2" text-anchor="end" font-size="12" fill="#445166">-9.74</text>
    
      <line x1="88" y1="232.8" x2="936" y2="232.8" stroke="#d8dde6" stroke-width="1" />
      <text x="78" y="236.8" text-anchor="end" font-size="12" fill="#445166">-39.02</text>
    
      <line x1="88" y1="298.4" x2="936" y2="298.4" stroke="#d8dde6" stroke-width="1" />
      <text x="78" y="302.4" text-anchor="end" font-size="12" fill="#445166">-68.30</text>
    
      <line x1="88" y1="364.0" x2="936" y2="364.0" stroke="#d8dde6" stroke-width="1" />
      <text x="78" y="368.0" text-anchor="end" font-size="12" fill="#445166">-97.58</text>
    
  <line x1="88" y1="145.4" x2="936" y2="145.4" stroke="#7a8799" stroke-width="1.4" stroke-dasharray="4 4" />
  <line x1="88" y1="36" x2="88" y2="364" stroke="#445166" stroke-width="1.2" />
  <line x1="88" y1="364" x2="936" y2="364" stroke="#445166" stroke-width="1.2" />
  
      <line x1="88.0" y1="364" x2="88.0" y2="370" stroke="#445166" stroke-width="1" />
      <text x="88.0" y="386" text-anchor="middle" font-size="12" fill="#445166">2026-01-05</text>
    
      <line x1="506.0" y1="364" x2="506.0" y2="370" stroke="#445166" stroke-width="1" />
      <text x="506.0" y="386" text-anchor="middle" font-size="12" fill="#445166">2026-02-23</text>
    
      <line x1="936.0" y1="364" x2="936.0" y2="370" stroke="#445166" stroke-width="1" />
      <text x="936.0" y="386" text-anchor="middle" font-size="12" fill="#445166">2026-04-21</text>
    
  <polyline fill="none" stroke="#0b84f3" stroke-width="3" points="88.0,138.0 99.9,134.0 111.9,121.9 123.8,149.0 135.8,150.4 147.7,161.6 159.7,156.4 171.6,144.5 183.5,122.6 195.5,116.1 207.4,104.0 219.4,92.5 231.3,78.3 243.3,80.5 255.2,87.7 267.2,84.8 279.1,72.2 291.0,77.1 303.0,73.5 314.9,67.8 326.9,60.8 338.8,36.0 350.8,56.8 362.7,57.5 374.6,70.9 386.6,44.7 398.5,68.8 410.5,91.5 422.4,94.3 434.4,105.9 446.3,109.2 458.3,101.4 470.2,98.6 482.1,81.0 494.1,158.1 506.0,155.1 518.0,173.1 529.9,221.1 541.9,261.9 553.8,274.8 565.7,283.8 577.7,305.4 589.6,318.5 601.6,321.5 613.5,320.8 625.5,339.3 637.4,353.4 649.4,356.6 661.3,360.4 673.2,364.0 685.2,361.7 697.1,362.8 709.1,348.8 721.0,352.6 733.0,349.2 744.9,349.9 756.8,349.9 768.8,350.2 780.7,347.7 792.7,342.4 804.6,341.3 816.6,345.9 828.5,347.3 840.5,346.8 852.4,338.1 864.3,336.4 876.3,343.8 888.2,342.2 900.2,346.3 912.1,346.1 924.1,342.6 936.0,339.6" />
  <circle cx="936.0" cy="339.6" r="4.5" fill="#0b84f3" />
  <text x="932.0" y="329.6" font-size="12" fill="#18212f">-86.71</text>
</svg>
