<?xml version="1.0" encoding="UTF-8"?>
<svg xmlns="http://www.w3.org/2000/svg" width="960" height="420" viewBox="0 0 960 420">
  <rect width="100%" height="100%" fill="#f7f9fc" />
  <text x="88" y="24" font-size="20" font-family="Arial, sans-serif" font-weight="700" fill="#18212f">SPALI cumulative NVDR NET (2026-01-01 to 2026-04-21)</text>
  <text x="88" y="46" font-size="12" font-family="Arial, sans-serif" fill="#445166">Unit: million baht, based on NVDR Turnover (Net) from value view</text>
  
      <line x1="88" y1="36.0" x2="936" y2="36.0" stroke="#d8dde6" stroke-width="1" />
      <text x="78" y="40.0" text-anchor="end" font-size="12" fill="#445166">349.68</text>
    
      <line x1="88" y1="101.6" x2="936" y2="101.6" stroke="#d8dde6" stroke-width="1" />
      <text x="78" y="105.6" text-anchor="end" font-size="12" fill="#445166">279.74</text>
    
      <line x1="88" y1="167.2" x2="936" y2="167.2" stroke="#d8dde6" stroke-width="1" />
      <text x="78" y="171.2" text-anchor="end" font-size="12" fill="#445166">209.81</text>
    
      <line x1="88" y1="232.8" x2="936" y2="232.8" stroke="#d8dde6" stroke-width="1" />
      <text x="78" y="236.8" text-anchor="end" font-size="12" fill="#445166">139.87</text>
    
      <line x1="88" y1="298.4" x2="936" y2="298.4" stroke="#d8dde6" stroke-width="1" />
      <text x="78" y="302.4" text-anchor="end" font-size="12" fill="#445166">69.94</text>
    
      <line x1="88" y1="364.0" x2="936" y2="364.0" stroke="#d8dde6" stroke-width="1" />
      <text x="78" y="368.0" text-anchor="end" font-size="12" fill="#445166">0.00</text>
    
  <line x1="88" y1="364.0" x2="936" y2="364.0" stroke="#7a8799" stroke-width="1.4" stroke-dasharray="4 4" />
  <line x1="88" y1="36" x2="88" y2="364" stroke="#445166" stroke-width="1.2" />
  <line x1="88" y1="364" x2="936" y2="364" stroke="#445166" stroke-width="1.2" />
  
      <line x1="88.0" y1="364" x2="88.0" y2="370" stroke="#445166" stroke-width="1" />
      <text x="88.0" y="386" text-anchor="middle" font-size="12" fill="#445166">2026-01-05</text>
    
      <line x1="506.0" y1="364" x2="506.0" y2="370" stroke="#445166" stroke-width="1" />
      <text x="506.0" y="386" text-anchor="middle" font-size="12" fill="#445166">2026-02-23</text>
    
      <line x1="936.0" y1="364" x2="936.0" y2="370" stroke="#445166" stroke-width="1" />
      <text x="936.0" y="386" text-anchor="middle" font-size="12" fill="#445166">2026-04-21</text>
    
  <polyline fill="none" stroke="#0b84f3" stroke-width="3" points="88.0,341.8 99.9,343.4 111.9,351.6 123.8,354.3 135.8,346.3 147.7,349.6 159.7,346.5 171.6,338.9 183.5,334.2 195.5,337.2 207.4,328.8 219.4,296.8 231.3,286.1 243.3,253.3 255.2,258.3 267.2,262.2 279.1,267.9 291.0,271.0 303.0,268.1 314.9,256.6 326.9,273.2 338.8,298.0 350.8,300.1 362.7,298.2 374.6,295.1 386.6,290.2 398.5,278.4 410.5,264.7 422.4,263.5 434.4,246.9 446.3,242.3 458.3,220.9 470.2,197.9 482.1,190.5 494.1,185.8 506.0,175.7 518.0,176.5 529.9,124.4 541.9,101.2 553.8,59.7 565.7,48.8 577.7,77.7 589.6,105.7 601.6,124.9 613.5,126.9 625.5,126.3 637.4,135.3 649.4,136.9 661.3,144.4 673.2,148.7 685.2,151.3 697.1,150.1 709.1,157.9 721.0,160.5 733.0,173.9 744.9,170.0 756.8,161.2 768.8,164.5 780.7,164.5 792.7,136.5 804.6,121.1 816.6,108.5 828.5,80.0 840.5,73.8 852.4,71.0 864.3,59.0 876.3,78.2 888.2,51.7 900.2,51.2 912.1,43.5 924.1,42.4 936.0,36.0" />
  <circle cx="936.0" cy="36.0" r="4.5" fill="#0b84f3" />
  <text x="932.0" y="48.0" font-size="12" fill="#18212f">349.68</text>
</svg>
