<?xml version="1.0" encoding="UTF-8"?>
<svg xmlns="http://www.w3.org/2000/svg" width="960" height="420" viewBox="0 0 960 420">
  <rect width="100%" height="100%" fill="#f7f9fc" />
  <text x="88" y="24" font-size="20" font-family="Arial, sans-serif" font-weight="700" fill="#18212f">SPRC cumulative NVDR NET (2026-01-01 to 2026-04-21)</text>
  <text x="88" y="46" font-size="12" font-family="Arial, sans-serif" fill="#445166">Unit: million baht, based on NVDR Turnover (Net) from value view</text>
  
      <line x1="88" y1="36.0" x2="936" y2="36.0" stroke="#d8dde6" stroke-width="1" />
      <text x="78" y="40.0" text-anchor="end" font-size="12" fill="#445166">706.03</text>
    
      <line x1="88" y1="101.6" x2="936" y2="101.6" stroke="#d8dde6" stroke-width="1" />
      <text x="78" y="105.6" text-anchor="end" font-size="12" fill="#445166">560.40</text>
    
      <line x1="88" y1="167.2" x2="936" y2="167.2" stroke="#d8dde6" stroke-width="1" />
      <text x="78" y="171.2" text-anchor="end" font-size="12" fill="#445166">414.77</text>
    
      <line x1="88" y1="232.8" x2="936" y2="232.8" stroke="#d8dde6" stroke-width="1" />
      <text x="78" y="236.8" text-anchor="end" font-size="12" fill="#445166">269.14</text>
    
      <line x1="88" y1="298.4" x2="936" y2="298.4" stroke="#d8dde6" stroke-width="1" />
      <text x="78" y="302.4" text-anchor="end" font-size="12" fill="#445166">123.51</text>
    
      <line x1="88" y1="364.0" x2="936" y2="364.0" stroke="#d8dde6" stroke-width="1" />
      <text x="78" y="368.0" text-anchor="end" font-size="12" fill="#445166">-22.12</text>
    
  <line x1="88" y1="354.0" x2="936" y2="354.0" stroke="#7a8799" stroke-width="1.4" stroke-dasharray="4 4" />
  <line x1="88" y1="36" x2="88" y2="364" stroke="#445166" stroke-width="1.2" />
  <line x1="88" y1="364" x2="936" y2="364" stroke="#445166" stroke-width="1.2" />
  
      <line x1="88.0" y1="364" x2="88.0" y2="370" stroke="#445166" stroke-width="1" />
      <text x="88.0" y="386" text-anchor="middle" font-size="12" fill="#445166">2026-01-05</text>
    
      <line x1="506.0" y1="364" x2="506.0" y2="370" stroke="#445166" stroke-width="1" />
      <text x="506.0" y="386" text-anchor="middle" font-size="12" fill="#445166">2026-02-23</text>
    
      <line x1="936.0" y1="364" x2="936.0" y2="370" stroke="#445166" stroke-width="1" />
      <text x="936.0" y="386" text-anchor="middle" font-size="12" fill="#445166">2026-04-21</text>
    
  <polyline fill="none" stroke="#0b84f3" stroke-width="3" points="88.0,354.1 99.9,349.9 111.9,360.2 123.8,364.0 135.8,345.7 147.7,334.5 159.7,321.1 171.6,323.8 183.5,315.4 195.5,309.4 207.4,306.3 219.4,307.3 231.3,285.6 243.3,279.4 255.2,274.6 267.2,271.1 279.1,276.8 291.0,229.5 303.0,227.9 314.9,218.7 326.9,222.2 338.8,227.7 350.8,192.2 362.7,195.4 374.6,191.1 386.6,185.2 398.5,200.2 410.5,183.8 422.4,189.4 434.4,186.0 446.3,187.7 458.3,189.6 470.2,186.2 482.1,162.8 494.1,169.3 506.0,167.2 518.0,160.8 529.9,157.6 541.9,156.1 553.8,145.7 565.7,158.8 577.7,133.0 589.6,121.5 601.6,99.1 613.5,123.2 625.5,106.1 637.4,74.2 649.4,49.4 661.3,72.3 673.2,103.1 685.2,100.5 697.1,104.4 709.1,97.1 721.0,96.6 733.0,95.5 744.9,90.9 756.8,86.7 768.8,78.4 780.7,40.4 792.7,36.0 804.6,71.1 816.6,86.6 828.5,98.5 840.5,105.6 852.4,60.1 864.3,60.0 876.3,67.3 888.2,74.4 900.2,86.5 912.1,100.7 924.1,97.0 936.0,70.2" />
  <circle cx="936.0" cy="70.2" r="4.5" fill="#0b84f3" />
  <text x="932.0" y="60.2" font-size="12" fill="#18212f">630.08</text>
</svg>
