<?xml version="1.0" encoding="UTF-8"?>
<svg xmlns="http://www.w3.org/2000/svg" width="960" height="420" viewBox="0 0 960 420">
  <rect width="100%" height="100%" fill="#f7f9fc" />
  <text x="88" y="24" font-size="20" font-family="Arial, sans-serif" font-weight="700" fill="#18212f">STECON cumulative NVDR NET (2026-01-01 to 2026-04-21)</text>
  <text x="88" y="46" font-size="12" font-family="Arial, sans-serif" fill="#445166">Unit: million baht, based on NVDR Turnover (Net) from value view</text>
  
      <line x1="88" y1="36.0" x2="936" y2="36.0" stroke="#d8dde6" stroke-width="1" />
      <text x="78" y="40.0" text-anchor="end" font-size="12" fill="#445166">725.91</text>
    
      <line x1="88" y1="101.6" x2="936" y2="101.6" stroke="#d8dde6" stroke-width="1" />
      <text x="78" y="105.6" text-anchor="end" font-size="12" fill="#445166">575.95</text>
    
      <line x1="88" y1="167.2" x2="936" y2="167.2" stroke="#d8dde6" stroke-width="1" />
      <text x="78" y="171.2" text-anchor="end" font-size="12" fill="#445166">425.98</text>
    
      <line x1="88" y1="232.8" x2="936" y2="232.8" stroke="#d8dde6" stroke-width="1" />
      <text x="78" y="236.8" text-anchor="end" font-size="12" fill="#445166">276.02</text>
    
      <line x1="88" y1="298.4" x2="936" y2="298.4" stroke="#d8dde6" stroke-width="1" />
      <text x="78" y="302.4" text-anchor="end" font-size="12" fill="#445166">126.05</text>
    
      <line x1="88" y1="364.0" x2="936" y2="364.0" stroke="#d8dde6" stroke-width="1" />
      <text x="78" y="368.0" text-anchor="end" font-size="12" fill="#445166">-23.91</text>
    
  <line x1="88" y1="353.5" x2="936" y2="353.5" stroke="#7a8799" stroke-width="1.4" stroke-dasharray="4 4" />
  <line x1="88" y1="36" x2="88" y2="364" stroke="#445166" stroke-width="1.2" />
  <line x1="88" y1="364" x2="936" y2="364" stroke="#445166" stroke-width="1.2" />
  
      <line x1="88.0" y1="364" x2="88.0" y2="370" stroke="#445166" stroke-width="1" />
      <text x="88.0" y="386" text-anchor="middle" font-size="12" fill="#445166">2026-01-05</text>
    
      <line x1="506.0" y1="364" x2="506.0" y2="370" stroke="#445166" stroke-width="1" />
      <text x="506.0" y="386" text-anchor="middle" font-size="12" fill="#445166">2026-02-23</text>
    
      <line x1="936.0" y1="364" x2="936.0" y2="370" stroke="#445166" stroke-width="1" />
      <text x="936.0" y="386" text-anchor="middle" font-size="12" fill="#445166">2026-04-21</text>
    
  <polyline fill="none" stroke="#0b84f3" stroke-width="3" points="88.0,357.5 99.9,359.5 111.9,357.6 123.8,359.0 135.8,360.5 147.7,361.3 159.7,361.6 171.6,360.4 183.5,359.0 195.5,361.0 207.4,364.0 219.4,362.3 231.3,354.2 243.3,357.5 255.2,358.1 267.2,353.5 279.1,350.4 291.0,347.7 303.0,350.6 314.9,350.7 326.9,349.1 338.8,334.6 350.8,341.8 362.7,342.8 374.6,350.8 386.6,303.1 398.5,277.8 410.5,279.4 422.4,253.9 434.4,245.4 446.3,237.0 458.3,221.9 470.2,223.5 482.1,225.4 494.1,211.9 506.0,189.8 518.0,63.5 529.9,84.3 541.9,72.3 553.8,86.9 565.7,36.0 577.7,39.8 589.6,98.6 601.6,115.0 613.5,79.6 625.5,75.6 637.4,113.7 649.4,100.7 661.3,134.5 673.2,176.8 685.2,160.0 697.1,139.9 709.1,226.5 721.0,231.7 733.0,236.1 744.9,241.5 756.8,228.9 768.8,235.4 780.7,244.3 792.7,236.4 804.6,230.4 816.6,83.4 828.5,101.0 840.5,154.7 852.4,163.9 864.3,140.5 876.3,199.4 888.2,216.5 900.2,193.1 912.1,199.2 924.1,215.4 936.0,175.0" />
  <circle cx="936.0" cy="175.0" r="4.5" fill="#0b84f3" />
  <text x="932.0" y="165.0" font-size="12" fill="#18212f">408.07</text>
</svg>
