<?xml version="1.0" encoding="UTF-8"?>
<svg xmlns="http://www.w3.org/2000/svg" width="960" height="420" viewBox="0 0 960 420">
  <rect width="100%" height="100%" fill="#f7f9fc" />
  <text x="88" y="24" font-size="20" font-family="Arial, sans-serif" font-weight="700" fill="#18212f">TASCO cumulative NVDR NET (2026-01-01 to 2026-04-21)</text>
  <text x="88" y="46" font-size="12" font-family="Arial, sans-serif" fill="#445166">Unit: million baht, based on NVDR Turnover (Net) from value view</text>
  
      <line x1="88" y1="36.0" x2="936" y2="36.0" stroke="#d8dde6" stroke-width="1" />
      <text x="78" y="40.0" text-anchor="end" font-size="12" fill="#445166">120.42</text>
    
      <line x1="88" y1="101.6" x2="936" y2="101.6" stroke="#d8dde6" stroke-width="1" />
      <text x="78" y="105.6" text-anchor="end" font-size="12" fill="#445166">74.93</text>
    
      <line x1="88" y1="167.2" x2="936" y2="167.2" stroke="#d8dde6" stroke-width="1" />
      <text x="78" y="171.2" text-anchor="end" font-size="12" fill="#445166">29.44</text>
    
      <line x1="88" y1="232.8" x2="936" y2="232.8" stroke="#d8dde6" stroke-width="1" />
      <text x="78" y="236.8" text-anchor="end" font-size="12" fill="#445166">-16.05</text>
    
      <line x1="88" y1="298.4" x2="936" y2="298.4" stroke="#d8dde6" stroke-width="1" />
      <text x="78" y="302.4" text-anchor="end" font-size="12" fill="#445166">-61.54</text>
    
      <line x1="88" y1="364.0" x2="936" y2="364.0" stroke="#d8dde6" stroke-width="1" />
      <text x="78" y="368.0" text-anchor="end" font-size="12" fill="#445166">-107.03</text>
    
  <line x1="88" y1="209.7" x2="936" y2="209.7" stroke="#7a8799" stroke-width="1.4" stroke-dasharray="4 4" />
  <line x1="88" y1="36" x2="88" y2="364" stroke="#445166" stroke-width="1.2" />
  <line x1="88" y1="364" x2="936" y2="364" stroke="#445166" stroke-width="1.2" />
  
      <line x1="88.0" y1="364" x2="88.0" y2="370" stroke="#445166" stroke-width="1" />
      <text x="88.0" y="386" text-anchor="middle" font-size="12" fill="#445166">2026-01-05</text>
    
      <line x1="506.0" y1="364" x2="506.0" y2="370" stroke="#445166" stroke-width="1" />
      <text x="506.0" y="386" text-anchor="middle" font-size="12" fill="#445166">2026-02-23</text>
    
      <line x1="936.0" y1="364" x2="936.0" y2="370" stroke="#445166" stroke-width="1" />
      <text x="936.0" y="386" text-anchor="middle" font-size="12" fill="#445166">2026-04-21</text>
    
  <polyline fill="none" stroke="#0b84f3" stroke-width="3" points="88.0,63.6 99.9,36.0 111.9,53.0 123.8,126.2 135.8,150.9 147.7,169.7 159.7,193.2 171.6,188.1 183.5,192.5 195.5,194.4 207.4,187.9 219.4,195.5 231.3,188.8 243.3,192.5 255.2,192.4 267.2,194.4 279.1,204.5 291.0,211.5 303.0,214.2 314.9,221.8 326.9,234.6 338.8,240.6 350.8,241.0 362.7,230.6 374.6,244.4 386.6,234.4 398.5,229.0 410.5,228.7 422.4,208.9 434.4,213.9 446.3,225.5 458.3,212.2 470.2,182.1 482.1,152.3 494.1,203.5 506.0,206.9 518.0,212.8 529.9,208.6 541.9,232.5 553.8,246.1 565.7,276.0 577.7,301.8 589.6,303.2 601.6,306.9 613.5,310.9 625.5,319.2 637.4,320.3 649.4,327.3 661.3,327.6 673.2,325.3 685.2,325.3 697.1,329.4 709.1,342.5 721.0,342.0 733.0,349.5 744.9,350.1 756.8,349.0 768.8,364.0 780.7,350.2 792.7,346.3 804.6,346.7 816.6,349.5 828.5,351.8 840.5,347.2 852.4,356.5 864.3,357.6 876.3,356.4 888.2,357.4 900.2,354.0 912.1,349.8 924.1,351.7 936.0,357.1" />
  <circle cx="936.0" cy="357.1" r="4.5" fill="#0b84f3" />
  <text x="932.0" y="347.1" font-size="12" fill="#18212f">-102.27</text>
</svg>
