<?xml version="1.0" encoding="UTF-8"?>
<svg xmlns="http://www.w3.org/2000/svg" width="960" height="420" viewBox="0 0 960 420">
  <rect width="100%" height="100%" fill="#f7f9fc" />
  <text x="88" y="24" font-size="20" font-family="Arial, sans-serif" font-weight="700" fill="#18212f">TFG cumulative NVDR NET (2026-01-01 to 2026-04-21)</text>
  <text x="88" y="46" font-size="12" font-family="Arial, sans-serif" fill="#445166">Unit: million baht, based on NVDR Turnover (Net) from value view</text>
  
      <line x1="88" y1="36.0" x2="936" y2="36.0" stroke="#d8dde6" stroke-width="1" />
      <text x="78" y="40.0" text-anchor="end" font-size="12" fill="#445166">2086.60</text>
    
      <line x1="88" y1="101.6" x2="936" y2="101.6" stroke="#d8dde6" stroke-width="1" />
      <text x="78" y="105.6" text-anchor="end" font-size="12" fill="#445166">1611.56</text>
    
      <line x1="88" y1="167.2" x2="936" y2="167.2" stroke="#d8dde6" stroke-width="1" />
      <text x="78" y="171.2" text-anchor="end" font-size="12" fill="#445166">1136.52</text>
    
      <line x1="88" y1="232.8" x2="936" y2="232.8" stroke="#d8dde6" stroke-width="1" />
      <text x="78" y="236.8" text-anchor="end" font-size="12" fill="#445166">661.47</text>
    
      <line x1="88" y1="298.4" x2="936" y2="298.4" stroke="#d8dde6" stroke-width="1" />
      <text x="78" y="302.4" text-anchor="end" font-size="12" fill="#445166">186.43</text>
    
      <line x1="88" y1="364.0" x2="936" y2="364.0" stroke="#d8dde6" stroke-width="1" />
      <text x="78" y="368.0" text-anchor="end" font-size="12" fill="#445166">-288.61</text>
    
  <line x1="88" y1="324.1" x2="936" y2="324.1" stroke="#7a8799" stroke-width="1.4" stroke-dasharray="4 4" />
  <line x1="88" y1="36" x2="88" y2="364" stroke="#445166" stroke-width="1.2" />
  <line x1="88" y1="364" x2="936" y2="364" stroke="#445166" stroke-width="1.2" />
  
      <line x1="88.0" y1="364" x2="88.0" y2="370" stroke="#445166" stroke-width="1" />
      <text x="88.0" y="386" text-anchor="middle" font-size="12" fill="#445166">2026-01-05</text>
    
      <line x1="506.0" y1="364" x2="506.0" y2="370" stroke="#445166" stroke-width="1" />
      <text x="506.0" y="386" text-anchor="middle" font-size="12" fill="#445166">2026-02-23</text>
    
      <line x1="936.0" y1="364" x2="936.0" y2="370" stroke="#445166" stroke-width="1" />
      <text x="936.0" y="386" text-anchor="middle" font-size="12" fill="#445166">2026-04-21</text>
    
  <polyline fill="none" stroke="#0b84f3" stroke-width="3" points="88.0,329.2 99.9,337.7 111.9,341.1 123.8,344.3 135.8,341.4 147.7,345.3 159.7,348.8 171.6,350.7 183.5,351.1 195.5,351.4 207.4,351.9 219.4,352.0 231.3,354.4 243.3,357.5 255.2,359.7 267.2,360.3 279.1,361.0 291.0,364.0 303.0,362.3 314.9,361.2 326.9,360.1 338.8,356.5 350.8,356.4 362.7,355.2 374.6,355.9 386.6,352.8 398.5,353.6 410.5,354.6 422.4,351.8 434.4,350.5 446.3,349.1 458.3,343.8 470.2,337.3 482.1,329.3 494.1,327.9 506.0,323.3 518.0,302.5 529.9,303.6 541.9,291.6 553.8,271.4 565.7,248.6 577.7,236.1 589.6,232.3 601.6,228.1 613.5,216.4 625.5,204.1 637.4,197.0 649.4,189.4 661.3,183.4 673.2,182.3 685.2,180.2 697.1,159.0 709.1,162.3 721.0,164.0 733.0,163.5 744.9,162.4 756.8,134.9 768.8,120.6 780.7,103.2 792.7,102.4 804.6,87.5 816.6,78.3 828.5,52.0 840.5,56.6 852.4,59.6 864.3,59.7 876.3,53.9 888.2,44.6 900.2,39.8 912.1,46.3 924.1,45.0 936.0,36.0" />
  <circle cx="936.0" cy="36.0" r="4.5" fill="#0b84f3" />
  <text x="932.0" y="48.0" font-size="12" fill="#18212f">2086.60</text>
</svg>
