<?xml version="1.0" encoding="UTF-8"?>
<svg xmlns="http://www.w3.org/2000/svg" width="960" height="420" viewBox="0 0 960 420">
  <rect width="100%" height="100%" fill="#f7f9fc" />
  <text x="88" y="24" font-size="20" font-family="Arial, sans-serif" font-weight="700" fill="#18212f">TIDLOR cumulative NVDR NET (2026-01-01 to 2026-04-21)</text>
  <text x="88" y="46" font-size="12" font-family="Arial, sans-serif" fill="#445166">Unit: million baht, based on NVDR Turnover (Net) from value view</text>
  
      <line x1="88" y1="36.0" x2="936" y2="36.0" stroke="#d8dde6" stroke-width="1" />
      <text x="78" y="40.0" text-anchor="end" font-size="12" fill="#445166">329.18</text>
    
      <line x1="88" y1="101.6" x2="936" y2="101.6" stroke="#d8dde6" stroke-width="1" />
      <text x="78" y="105.6" text-anchor="end" font-size="12" fill="#445166">32.95</text>
    
      <line x1="88" y1="167.2" x2="936" y2="167.2" stroke="#d8dde6" stroke-width="1" />
      <text x="78" y="171.2" text-anchor="end" font-size="12" fill="#445166">-263.28</text>
    
      <line x1="88" y1="232.8" x2="936" y2="232.8" stroke="#d8dde6" stroke-width="1" />
      <text x="78" y="236.8" text-anchor="end" font-size="12" fill="#445166">-559.50</text>
    
      <line x1="88" y1="298.4" x2="936" y2="298.4" stroke="#d8dde6" stroke-width="1" />
      <text x="78" y="302.4" text-anchor="end" font-size="12" fill="#445166">-855.73</text>
    
      <line x1="88" y1="364.0" x2="936" y2="364.0" stroke="#d8dde6" stroke-width="1" />
      <text x="78" y="368.0" text-anchor="end" font-size="12" fill="#445166">-1151.96</text>
    
  <line x1="88" y1="108.9" x2="936" y2="108.9" stroke="#7a8799" stroke-width="1.4" stroke-dasharray="4 4" />
  <line x1="88" y1="36" x2="88" y2="364" stroke="#445166" stroke-width="1.2" />
  <line x1="88" y1="364" x2="936" y2="364" stroke="#445166" stroke-width="1.2" />
  
      <line x1="88.0" y1="364" x2="88.0" y2="370" stroke="#445166" stroke-width="1" />
      <text x="88.0" y="386" text-anchor="middle" font-size="12" fill="#445166">2026-01-05</text>
    
      <line x1="506.0" y1="364" x2="506.0" y2="370" stroke="#445166" stroke-width="1" />
      <text x="506.0" y="386" text-anchor="middle" font-size="12" fill="#445166">2026-02-23</text>
    
      <line x1="936.0" y1="364" x2="936.0" y2="370" stroke="#445166" stroke-width="1" />
      <text x="936.0" y="386" text-anchor="middle" font-size="12" fill="#445166">2026-04-21</text>
    
  <polyline fill="none" stroke="#0b84f3" stroke-width="3" points="88.0,111.6 99.9,94.8 111.9,91.8 123.8,90.4 135.8,88.9 147.7,84.1 159.7,62.0 171.6,46.4 183.5,36.0 195.5,47.7 207.4,56.2 219.4,68.3 231.3,72.9 243.3,76.6 255.2,69.3 267.2,67.6 279.1,57.2 291.0,58.7 303.0,59.5 314.9,64.0 326.9,63.6 338.8,55.2 350.8,63.1 362.7,58.5 374.6,65.7 386.6,69.4 398.5,69.7 410.5,74.9 422.4,72.4 434.4,67.3 446.3,66.3 458.3,56.9 470.2,43.1 482.1,53.1 494.1,49.1 506.0,65.9 518.0,69.7 529.9,63.2 541.9,73.0 553.8,89.9 565.7,91.6 577.7,111.6 589.6,139.9 601.6,151.5 613.5,172.0 625.5,184.5 637.4,193.5 649.4,205.7 661.3,214.1 673.2,214.5 685.2,229.9 697.1,241.6 709.1,248.4 721.0,271.3 733.0,271.7 744.9,271.6 756.8,301.4 768.8,324.0 780.7,332.8 792.7,329.0 804.6,326.3 816.6,339.6 828.5,353.0 840.5,356.4 852.4,352.1 864.3,328.8 876.3,333.4 888.2,334.5 900.2,350.5 912.1,359.3 924.1,364.0 936.0,358.9" />
  <circle cx="936.0" cy="358.9" r="4.5" fill="#0b84f3" />
  <text x="932.0" y="348.9" font-size="12" fill="#18212f">-1128.95</text>
</svg>
