<?xml version="1.0" encoding="UTF-8"?>
<svg xmlns="http://www.w3.org/2000/svg" width="960" height="420" viewBox="0 0 960 420">
  <rect width="100%" height="100%" fill="#f7f9fc" />
  <text x="88" y="24" font-size="20" font-family="Arial, sans-serif" font-weight="700" fill="#18212f">TISCO cumulative NVDR NET (2026-01-01 to 2026-04-21)</text>
  <text x="88" y="46" font-size="12" font-family="Arial, sans-serif" fill="#445166">Unit: million baht, based on NVDR Turnover (Net) from value view</text>
  
      <line x1="88" y1="36.0" x2="936" y2="36.0" stroke="#d8dde6" stroke-width="1" />
      <text x="78" y="40.0" text-anchor="end" font-size="12" fill="#445166">60.26</text>
    
      <line x1="88" y1="101.6" x2="936" y2="101.6" stroke="#d8dde6" stroke-width="1" />
      <text x="78" y="105.6" text-anchor="end" font-size="12" fill="#445166">-293.75</text>
    
      <line x1="88" y1="167.2" x2="936" y2="167.2" stroke="#d8dde6" stroke-width="1" />
      <text x="78" y="171.2" text-anchor="end" font-size="12" fill="#445166">-647.76</text>
    
      <line x1="88" y1="232.8" x2="936" y2="232.8" stroke="#d8dde6" stroke-width="1" />
      <text x="78" y="236.8" text-anchor="end" font-size="12" fill="#445166">-1001.78</text>
    
      <line x1="88" y1="298.4" x2="936" y2="298.4" stroke="#d8dde6" stroke-width="1" />
      <text x="78" y="302.4" text-anchor="end" font-size="12" fill="#445166">-1355.79</text>
    
      <line x1="88" y1="364.0" x2="936" y2="364.0" stroke="#d8dde6" stroke-width="1" />
      <text x="78" y="368.0" text-anchor="end" font-size="12" fill="#445166">-1709.80</text>
    
  <line x1="88" y1="47.2" x2="936" y2="47.2" stroke="#7a8799" stroke-width="1.4" stroke-dasharray="4 4" />
  <line x1="88" y1="36" x2="88" y2="364" stroke="#445166" stroke-width="1.2" />
  <line x1="88" y1="364" x2="936" y2="364" stroke="#445166" stroke-width="1.2" />
  
      <line x1="88.0" y1="364" x2="88.0" y2="370" stroke="#445166" stroke-width="1" />
      <text x="88.0" y="386" text-anchor="middle" font-size="12" fill="#445166">2026-01-05</text>
    
      <line x1="506.0" y1="364" x2="506.0" y2="370" stroke="#445166" stroke-width="1" />
      <text x="506.0" y="386" text-anchor="middle" font-size="12" fill="#445166">2026-02-23</text>
    
      <line x1="936.0" y1="364" x2="936.0" y2="370" stroke="#445166" stroke-width="1" />
      <text x="936.0" y="386" text-anchor="middle" font-size="12" fill="#445166">2026-04-21</text>
    
  <polyline fill="none" stroke="#0b84f3" stroke-width="3" points="88.0,36.0 99.9,51.2 111.9,79.4 123.8,82.1 135.8,107.6 147.7,119.5 159.7,137.5 171.6,162.5 183.5,137.8 195.5,125.3 207.4,141.9 219.4,154.5 231.3,151.5 243.3,164.4 255.2,168.3 267.2,163.9 279.1,148.6 291.0,148.6 303.0,145.5 314.9,129.9 326.9,129.8 338.8,120.2 350.8,131.2 362.7,126.1 374.6,129.2 386.6,117.3 398.5,105.7 410.5,113.6 422.4,141.3 434.4,118.6 446.3,117.8 458.3,89.8 470.2,89.4 482.1,90.6 494.1,92.7 506.0,83.5 518.0,97.1 529.9,96.1 541.9,90.5 553.8,119.0 565.7,122.0 577.7,121.6 589.6,140.4 601.6,170.2 613.5,216.8 625.5,242.2 637.4,259.7 649.4,276.7 661.3,277.1 673.2,293.6 685.2,289.7 697.1,279.8 709.1,257.7 721.0,279.2 733.0,316.9 744.9,300.2 756.8,306.1 768.8,316.6 780.7,319.9 792.7,330.0 804.6,327.7 816.6,319.9 828.5,313.7 840.5,308.4 852.4,281.4 864.3,280.9 876.3,278.3 888.2,281.2 900.2,311.2 912.1,333.8 924.1,364.0 936.0,360.2" />
  <circle cx="936.0" cy="360.2" r="4.5" fill="#0b84f3" />
  <text x="932.0" y="350.2" font-size="12" fill="#18212f">-1689.11</text>
</svg>
