<?xml version="1.0" encoding="UTF-8"?>
<svg xmlns="http://www.w3.org/2000/svg" width="960" height="420" viewBox="0 0 960 420">
  <rect width="100%" height="100%" fill="#f7f9fc" />
  <text x="88" y="24" font-size="20" font-family="Arial, sans-serif" font-weight="700" fill="#18212f">TLI cumulative NVDR NET (2026-01-01 to 2026-04-21)</text>
  <text x="88" y="46" font-size="12" font-family="Arial, sans-serif" fill="#445166">Unit: million baht, based on NVDR Turnover (Net) from value view</text>
  
      <line x1="88" y1="36.0" x2="936" y2="36.0" stroke="#d8dde6" stroke-width="1" />
      <text x="78" y="40.0" text-anchor="end" font-size="12" fill="#445166">398.19</text>
    
      <line x1="88" y1="101.6" x2="936" y2="101.6" stroke="#d8dde6" stroke-width="1" />
      <text x="78" y="105.6" text-anchor="end" font-size="12" fill="#445166">261.73</text>
    
      <line x1="88" y1="167.2" x2="936" y2="167.2" stroke="#d8dde6" stroke-width="1" />
      <text x="78" y="171.2" text-anchor="end" font-size="12" fill="#445166">125.26</text>
    
      <line x1="88" y1="232.8" x2="936" y2="232.8" stroke="#d8dde6" stroke-width="1" />
      <text x="78" y="236.8" text-anchor="end" font-size="12" fill="#445166">-11.20</text>
    
      <line x1="88" y1="298.4" x2="936" y2="298.4" stroke="#d8dde6" stroke-width="1" />
      <text x="78" y="302.4" text-anchor="end" font-size="12" fill="#445166">-147.67</text>
    
      <line x1="88" y1="364.0" x2="936" y2="364.0" stroke="#d8dde6" stroke-width="1" />
      <text x="78" y="368.0" text-anchor="end" font-size="12" fill="#445166">-284.13</text>
    
  <line x1="88" y1="227.4" x2="936" y2="227.4" stroke="#7a8799" stroke-width="1.4" stroke-dasharray="4 4" />
  <line x1="88" y1="36" x2="88" y2="364" stroke="#445166" stroke-width="1.2" />
  <line x1="88" y1="364" x2="936" y2="364" stroke="#445166" stroke-width="1.2" />
  
      <line x1="88.0" y1="364" x2="88.0" y2="370" stroke="#445166" stroke-width="1" />
      <text x="88.0" y="386" text-anchor="middle" font-size="12" fill="#445166">2026-01-05</text>
    
      <line x1="506.0" y1="364" x2="506.0" y2="370" stroke="#445166" stroke-width="1" />
      <text x="506.0" y="386" text-anchor="middle" font-size="12" fill="#445166">2026-02-23</text>
    
      <line x1="936.0" y1="364" x2="936.0" y2="370" stroke="#445166" stroke-width="1" />
      <text x="936.0" y="386" text-anchor="middle" font-size="12" fill="#445166">2026-04-21</text>
    
  <polyline fill="none" stroke="#0b84f3" stroke-width="3" points="88.0,262.9 99.9,276.1 111.9,282.9 123.8,283.1 135.8,273.8 147.7,298.3 159.7,276.7 171.6,285.5 183.5,293.5 195.5,309.9 207.4,325.7 219.4,341.1 231.3,356.5 243.3,364.0 255.2,354.9 267.2,323.3 279.1,308.8 291.0,301.8 303.0,299.2 314.9,285.1 326.9,291.8 338.8,293.0 350.8,231.4 362.7,225.9 374.6,216.3 386.6,155.8 398.5,123.5 410.5,107.8 422.4,84.5 434.4,76.6 446.3,79.3 458.3,63.6 470.2,59.5 482.1,49.2 494.1,39.7 506.0,46.8 518.0,36.0 529.9,44.0 541.9,39.1 553.8,65.3 565.7,69.3 577.7,84.8 589.6,140.0 601.6,162.3 613.5,191.5 625.5,216.0 637.4,233.7 649.4,250.3 661.3,273.8 673.2,280.5 685.2,299.5 697.1,308.3 709.1,325.2 721.0,329.5 733.0,355.1 744.9,353.9 756.8,351.5 768.8,351.7 780.7,332.7 792.7,337.2 804.6,333.1 816.6,331.6 828.5,335.5 840.5,335.0 852.4,318.1 864.3,304.1 876.3,316.0 888.2,313.0 900.2,310.8 912.1,323.8 924.1,324.8 936.0,317.5" />
  <circle cx="936.0" cy="317.5" r="4.5" fill="#0b84f3" />
  <text x="932.0" y="307.5" font-size="12" fill="#18212f">-187.43</text>
</svg>
