<?xml version="1.0" encoding="UTF-8"?>
<svg xmlns="http://www.w3.org/2000/svg" width="960" height="420" viewBox="0 0 960 420">
  <rect width="100%" height="100%" fill="#f7f9fc" />
  <text x="88" y="24" font-size="20" font-family="Arial, sans-serif" font-weight="700" fill="#18212f">TOA cumulative NVDR NET (2026-01-01 to 2026-04-21)</text>
  <text x="88" y="46" font-size="12" font-family="Arial, sans-serif" fill="#445166">Unit: million baht, based on NVDR Turnover (Net) from value view</text>
  
      <line x1="88" y1="36.0" x2="936" y2="36.0" stroke="#d8dde6" stroke-width="1" />
      <text x="78" y="40.0" text-anchor="end" font-size="12" fill="#445166">269.10</text>
    
      <line x1="88" y1="101.6" x2="936" y2="101.6" stroke="#d8dde6" stroke-width="1" />
      <text x="78" y="105.6" text-anchor="end" font-size="12" fill="#445166">215.28</text>
    
      <line x1="88" y1="167.2" x2="936" y2="167.2" stroke="#d8dde6" stroke-width="1" />
      <text x="78" y="171.2" text-anchor="end" font-size="12" fill="#445166">161.46</text>
    
      <line x1="88" y1="232.8" x2="936" y2="232.8" stroke="#d8dde6" stroke-width="1" />
      <text x="78" y="236.8" text-anchor="end" font-size="12" fill="#445166">107.64</text>
    
      <line x1="88" y1="298.4" x2="936" y2="298.4" stroke="#d8dde6" stroke-width="1" />
      <text x="78" y="302.4" text-anchor="end" font-size="12" fill="#445166">53.82</text>
    
      <line x1="88" y1="364.0" x2="936" y2="364.0" stroke="#d8dde6" stroke-width="1" />
      <text x="78" y="368.0" text-anchor="end" font-size="12" fill="#445166">0.00</text>
    
  <line x1="88" y1="364.0" x2="936" y2="364.0" stroke="#7a8799" stroke-width="1.4" stroke-dasharray="4 4" />
  <line x1="88" y1="36" x2="88" y2="364" stroke="#445166" stroke-width="1.2" />
  <line x1="88" y1="364" x2="936" y2="364" stroke="#445166" stroke-width="1.2" />
  
      <line x1="88.0" y1="364" x2="88.0" y2="370" stroke="#445166" stroke-width="1" />
      <text x="88.0" y="386" text-anchor="middle" font-size="12" fill="#445166">2026-01-05</text>
    
      <line x1="506.0" y1="364" x2="506.0" y2="370" stroke="#445166" stroke-width="1" />
      <text x="506.0" y="386" text-anchor="middle" font-size="12" fill="#445166">2026-02-23</text>
    
      <line x1="936.0" y1="364" x2="936.0" y2="370" stroke="#445166" stroke-width="1" />
      <text x="936.0" y="386" text-anchor="middle" font-size="12" fill="#445166">2026-04-21</text>
    
  <polyline fill="none" stroke="#0b84f3" stroke-width="3" points="88.0,341.0 99.9,338.8 111.9,334.8 123.8,325.5 135.8,326.2 147.7,323.9 159.7,328.7 171.6,337.7 183.5,340.0 195.5,342.5 207.4,344.2 219.4,339.9 231.3,331.1 243.3,329.1 255.2,326.0 267.2,323.2 279.1,313.7 291.0,312.8 303.0,305.3 314.9,301.9 326.9,313.4 338.8,307.8 350.8,300.7 362.7,302.3 374.6,303.1 386.6,270.4 398.5,269.8 410.5,272.4 422.4,276.4 434.4,283.1 446.3,288.3 458.3,295.4 470.2,299.9 482.1,295.3 494.1,290.1 506.0,288.0 518.0,273.9 529.9,276.0 541.9,276.1 553.8,271.5 565.7,186.8 577.7,174.7 589.6,176.6 601.6,154.0 613.5,130.0 625.5,150.8 637.4,160.7 649.4,153.4 661.3,163.7 673.2,160.0 685.2,160.0 697.1,141.2 709.1,152.7 721.0,158.1 733.0,162.5 744.9,160.6 756.8,170.1 768.8,164.0 780.7,159.8 792.7,150.7 804.6,146.3 816.6,114.6 828.5,107.5 840.5,107.5 852.4,100.0 864.3,78.1 876.3,52.6 888.2,52.4 900.2,53.5 912.1,51.8 924.1,46.2 936.0,36.0" />
  <circle cx="936.0" cy="36.0" r="4.5" fill="#0b84f3" />
  <text x="932.0" y="48.0" font-size="12" fill="#18212f">269.10</text>
</svg>
