<?xml version="1.0" encoding="UTF-8"?>
<svg xmlns="http://www.w3.org/2000/svg" width="960" height="420" viewBox="0 0 960 420">
  <rect width="100%" height="100%" fill="#f7f9fc" />
  <text x="88" y="24" font-size="20" font-family="Arial, sans-serif" font-weight="700" fill="#18212f">TOP cumulative NVDR NET (2026-01-01 to 2026-04-21)</text>
  <text x="88" y="46" font-size="12" font-family="Arial, sans-serif" fill="#445166">Unit: million baht, based on NVDR Turnover (Net) from value view</text>
  
      <line x1="88" y1="36.0" x2="936" y2="36.0" stroke="#d8dde6" stroke-width="1" />
      <text x="78" y="40.0" text-anchor="end" font-size="12" fill="#445166">4755.03</text>
    
      <line x1="88" y1="101.6" x2="936" y2="101.6" stroke="#d8dde6" stroke-width="1" />
      <text x="78" y="105.6" text-anchor="end" font-size="12" fill="#445166">3804.02</text>
    
      <line x1="88" y1="167.2" x2="936" y2="167.2" stroke="#d8dde6" stroke-width="1" />
      <text x="78" y="171.2" text-anchor="end" font-size="12" fill="#445166">2853.02</text>
    
      <line x1="88" y1="232.8" x2="936" y2="232.8" stroke="#d8dde6" stroke-width="1" />
      <text x="78" y="236.8" text-anchor="end" font-size="12" fill="#445166">1902.01</text>
    
      <line x1="88" y1="298.4" x2="936" y2="298.4" stroke="#d8dde6" stroke-width="1" />
      <text x="78" y="302.4" text-anchor="end" font-size="12" fill="#445166">951.01</text>
    
      <line x1="88" y1="364.0" x2="936" y2="364.0" stroke="#d8dde6" stroke-width="1" />
      <text x="78" y="368.0" text-anchor="end" font-size="12" fill="#445166">0.00</text>
    
  <line x1="88" y1="364.0" x2="936" y2="364.0" stroke="#7a8799" stroke-width="1.4" stroke-dasharray="4 4" />
  <line x1="88" y1="36" x2="88" y2="364" stroke="#445166" stroke-width="1.2" />
  <line x1="88" y1="364" x2="936" y2="364" stroke="#445166" stroke-width="1.2" />
  
      <line x1="88.0" y1="364" x2="88.0" y2="370" stroke="#445166" stroke-width="1" />
      <text x="88.0" y="386" text-anchor="middle" font-size="12" fill="#445166">2026-01-05</text>
    
      <line x1="506.0" y1="364" x2="506.0" y2="370" stroke="#445166" stroke-width="1" />
      <text x="506.0" y="386" text-anchor="middle" font-size="12" fill="#445166">2026-02-23</text>
    
      <line x1="936.0" y1="364" x2="936.0" y2="370" stroke="#445166" stroke-width="1" />
      <text x="936.0" y="386" text-anchor="middle" font-size="12" fill="#445166">2026-04-21</text>
    
  <polyline fill="none" stroke="#0b84f3" stroke-width="3" points="88.0,351.4 99.9,318.1 111.9,308.5 123.8,306.7 135.8,300.2 147.7,293.7 159.7,291.0 171.6,292.8 183.5,288.4 195.5,299.4 207.4,300.2 219.4,300.8 231.3,277.1 243.3,277.5 255.2,273.0 267.2,277.4 279.1,275.8 291.0,268.9 303.0,271.9 314.9,271.4 326.9,270.5 338.8,267.4 350.8,246.5 362.7,227.2 374.6,208.6 386.6,204.3 398.5,179.6 410.5,166.8 422.4,154.9 434.4,143.3 446.3,138.9 458.3,129.0 470.2,121.7 482.1,88.6 494.1,81.9 506.0,85.7 518.0,63.9 529.9,61.5 541.9,51.2 553.8,36.0 565.7,47.9 577.7,43.2 589.6,55.1 601.6,60.7 613.5,41.8 625.5,44.3 637.4,51.2 649.4,56.2 661.3,73.1 673.2,76.1 685.2,86.8 697.1,96.3 709.1,97.2 721.0,84.7 733.0,85.9 744.9,76.1 756.8,78.2 768.8,88.0 780.7,90.4 792.7,87.4 804.6,102.5 816.6,106.1 828.5,106.0 840.5,102.8 852.4,81.3 864.3,85.2 876.3,79.7 888.2,83.9 900.2,78.0 912.1,75.2 924.1,78.6 936.0,77.2" />
  <circle cx="936.0" cy="77.2" r="4.5" fill="#0b84f3" />
  <text x="932.0" y="67.2" font-size="12" fill="#18212f">4157.20</text>
</svg>
