<?xml version="1.0" encoding="UTF-8"?>
<svg xmlns="http://www.w3.org/2000/svg" width="960" height="420" viewBox="0 0 960 420">
  <rect width="100%" height="100%" fill="#f7f9fc" />
  <text x="88" y="24" font-size="20" font-family="Arial, sans-serif" font-weight="700" fill="#18212f">TRUE cumulative NVDR NET (2026-01-01 to 2026-04-21)</text>
  <text x="88" y="46" font-size="12" font-family="Arial, sans-serif" fill="#445166">Unit: million baht, based on NVDR Turnover (Net) from value view</text>
  
      <line x1="88" y1="36.0" x2="936" y2="36.0" stroke="#d8dde6" stroke-width="1" />
      <text x="78" y="40.0" text-anchor="end" font-size="12" fill="#445166">1712.77</text>
    
      <line x1="88" y1="101.6" x2="936" y2="101.6" stroke="#d8dde6" stroke-width="1" />
      <text x="78" y="105.6" text-anchor="end" font-size="12" fill="#445166">392.28</text>
    
      <line x1="88" y1="167.2" x2="936" y2="167.2" stroke="#d8dde6" stroke-width="1" />
      <text x="78" y="171.2" text-anchor="end" font-size="12" fill="#445166">-928.21</text>
    
      <line x1="88" y1="232.8" x2="936" y2="232.8" stroke="#d8dde6" stroke-width="1" />
      <text x="78" y="236.8" text-anchor="end" font-size="12" fill="#445166">-2248.70</text>
    
      <line x1="88" y1="298.4" x2="936" y2="298.4" stroke="#d8dde6" stroke-width="1" />
      <text x="78" y="302.4" text-anchor="end" font-size="12" fill="#445166">-3569.19</text>
    
      <line x1="88" y1="364.0" x2="936" y2="364.0" stroke="#d8dde6" stroke-width="1" />
      <text x="78" y="368.0" text-anchor="end" font-size="12" fill="#445166">-4889.68</text>
    
  <line x1="88" y1="121.1" x2="936" y2="121.1" stroke="#7a8799" stroke-width="1.4" stroke-dasharray="4 4" />
  <line x1="88" y1="36" x2="88" y2="364" stroke="#445166" stroke-width="1.2" />
  <line x1="88" y1="364" x2="936" y2="364" stroke="#445166" stroke-width="1.2" />
  
      <line x1="88.0" y1="364" x2="88.0" y2="370" stroke="#445166" stroke-width="1" />
      <text x="88.0" y="386" text-anchor="middle" font-size="12" fill="#445166">2026-01-05</text>
    
      <line x1="506.0" y1="364" x2="506.0" y2="370" stroke="#445166" stroke-width="1" />
      <text x="506.0" y="386" text-anchor="middle" font-size="12" fill="#445166">2026-02-23</text>
    
      <line x1="936.0" y1="364" x2="936.0" y2="370" stroke="#445166" stroke-width="1" />
      <text x="936.0" y="386" text-anchor="middle" font-size="12" fill="#445166">2026-04-21</text>
    
  <polyline fill="none" stroke="#0b84f3" stroke-width="3" points="88.0,111.5 99.9,112.7 111.9,108.7 123.8,110.2 135.8,110.4 147.7,120.1 159.7,115.4 171.6,120.8 183.5,118.9 195.5,121.9 207.4,116.2 219.4,115.4 231.3,125.3 243.3,265.2 255.2,318.7 267.2,364.0 279.1,359.3 291.0,347.4 303.0,313.6 314.9,308.7 326.9,287.4 338.8,269.2 350.8,267.5 362.7,241.9 374.6,245.2 386.6,236.3 398.5,223.2 410.5,202.2 422.4,196.3 434.4,184.0 446.3,194.2 458.3,195.9 470.2,172.4 482.1,180.8 494.1,161.5 506.0,100.4 518.0,89.0 529.9,92.4 541.9,71.1 553.8,59.9 565.7,41.9 577.7,36.0 589.6,83.4 601.6,92.8 613.5,90.5 625.5,111.8 637.4,119.0 649.4,115.6 661.3,130.2 673.2,120.0 685.2,124.8 697.1,137.1 709.1,139.9 721.0,229.0 733.0,238.0 744.9,242.3 756.8,249.6 768.8,261.0 780.7,286.7 792.7,268.4 804.6,242.8 816.6,245.6 828.5,237.9 840.5,233.9 852.4,236.3 864.3,235.5 876.3,208.5 888.2,211.4 900.2,214.6 912.1,221.5 924.1,216.5 936.0,221.0" />
  <circle cx="936.0" cy="221.0" r="4.5" fill="#0b84f3" />
  <text x="932.0" y="211.0" font-size="12" fill="#18212f">-2010.60</text>
</svg>
