<?xml version="1.0" encoding="UTF-8"?>
<svg xmlns="http://www.w3.org/2000/svg" width="960" height="420" viewBox="0 0 960 420">
  <rect width="100%" height="100%" fill="#f7f9fc" />
  <text x="88" y="24" font-size="20" font-family="Arial, sans-serif" font-weight="700" fill="#18212f">TTB cumulative NVDR NET (2026-01-01 to 2026-04-21)</text>
  <text x="88" y="46" font-size="12" font-family="Arial, sans-serif" fill="#445166">Unit: million baht, based on NVDR Turnover (Net) from value view</text>
  
      <line x1="88" y1="36.0" x2="936" y2="36.0" stroke="#d8dde6" stroke-width="1" />
      <text x="78" y="40.0" text-anchor="end" font-size="12" fill="#445166">3137.99</text>
    
      <line x1="88" y1="101.6" x2="936" y2="101.6" stroke="#d8dde6" stroke-width="1" />
      <text x="78" y="105.6" text-anchor="end" font-size="12" fill="#445166">2510.39</text>
    
      <line x1="88" y1="167.2" x2="936" y2="167.2" stroke="#d8dde6" stroke-width="1" />
      <text x="78" y="171.2" text-anchor="end" font-size="12" fill="#445166">1882.79</text>
    
      <line x1="88" y1="232.8" x2="936" y2="232.8" stroke="#d8dde6" stroke-width="1" />
      <text x="78" y="236.8" text-anchor="end" font-size="12" fill="#445166">1255.20</text>
    
      <line x1="88" y1="298.4" x2="936" y2="298.4" stroke="#d8dde6" stroke-width="1" />
      <text x="78" y="302.4" text-anchor="end" font-size="12" fill="#445166">627.60</text>
    
      <line x1="88" y1="364.0" x2="936" y2="364.0" stroke="#d8dde6" stroke-width="1" />
      <text x="78" y="368.0" text-anchor="end" font-size="12" fill="#445166">0.00</text>
    
  <line x1="88" y1="364.0" x2="936" y2="364.0" stroke="#7a8799" stroke-width="1.4" stroke-dasharray="4 4" />
  <line x1="88" y1="36" x2="88" y2="364" stroke="#445166" stroke-width="1.2" />
  <line x1="88" y1="364" x2="936" y2="364" stroke="#445166" stroke-width="1.2" />
  
      <line x1="88.0" y1="364" x2="88.0" y2="370" stroke="#445166" stroke-width="1" />
      <text x="88.0" y="386" text-anchor="middle" font-size="12" fill="#445166">2026-01-05</text>
    
      <line x1="506.0" y1="364" x2="506.0" y2="370" stroke="#445166" stroke-width="1" />
      <text x="506.0" y="386" text-anchor="middle" font-size="12" fill="#445166">2026-02-23</text>
    
      <line x1="936.0" y1="364" x2="936.0" y2="370" stroke="#445166" stroke-width="1" />
      <text x="936.0" y="386" text-anchor="middle" font-size="12" fill="#445166">2026-04-21</text>
    
  <polyline fill="none" stroke="#0b84f3" stroke-width="3" points="88.0,331.3 99.9,316.5 111.9,341.8 123.8,344.5 135.8,337.8 147.7,323.1 159.7,321.7 171.6,328.5 183.5,323.2 195.5,317.6 207.4,308.3 219.4,292.6 231.3,278.7 243.3,282.0 255.2,304.8 267.2,275.7 279.1,263.6 291.0,269.6 303.0,276.1 314.9,263.9 326.9,265.3 338.8,264.5 350.8,272.8 362.7,262.3 374.6,262.5 386.6,230.9 398.5,225.9 410.5,219.5 422.4,232.3 434.4,227.0 446.3,218.8 458.3,212.3 470.2,182.0 482.1,160.3 494.1,116.1 506.0,104.5 518.0,91.3 529.9,90.7 541.9,71.8 553.8,53.5 565.7,42.1 577.7,36.0 589.6,46.5 601.6,45.6 613.5,57.2 625.5,67.3 637.4,70.8 649.4,82.1 661.3,58.0 673.2,73.0 685.2,74.4 697.1,74.5 709.1,74.5 721.0,74.3 733.0,92.1 744.9,97.8 756.8,80.8 768.8,49.7 780.7,54.4 792.7,60.7 804.6,65.3 816.6,66.0 828.5,60.8 840.5,67.8 852.4,66.9 864.3,65.2 876.3,72.2 888.2,90.0 900.2,104.9 912.1,133.2 924.1,130.1 936.0,131.2" />
  <circle cx="936.0" cy="131.2" r="4.5" fill="#0b84f3" />
  <text x="932.0" y="121.2" font-size="12" fill="#18212f">2226.73</text>
</svg>
