<?xml version="1.0" encoding="UTF-8"?>
<svg xmlns="http://www.w3.org/2000/svg" width="960" height="420" viewBox="0 0 960 420">
  <rect width="100%" height="100%" fill="#f7f9fc" />
  <text x="88" y="24" font-size="20" font-family="Arial, sans-serif" font-weight="700" fill="#18212f">TU cumulative NVDR NET (2026-01-01 to 2026-04-21)</text>
  <text x="88" y="46" font-size="12" font-family="Arial, sans-serif" fill="#445166">Unit: million baht, based on NVDR Turnover (Net) from value view</text>
  
      <line x1="88" y1="36.0" x2="936" y2="36.0" stroke="#d8dde6" stroke-width="1" />
      <text x="78" y="40.0" text-anchor="end" font-size="12" fill="#445166">852.99</text>
    
      <line x1="88" y1="101.6" x2="936" y2="101.6" stroke="#d8dde6" stroke-width="1" />
      <text x="78" y="105.6" text-anchor="end" font-size="12" fill="#445166">680.61</text>
    
      <line x1="88" y1="167.2" x2="936" y2="167.2" stroke="#d8dde6" stroke-width="1" />
      <text x="78" y="171.2" text-anchor="end" font-size="12" fill="#445166">508.22</text>
    
      <line x1="88" y1="232.8" x2="936" y2="232.8" stroke="#d8dde6" stroke-width="1" />
      <text x="78" y="236.8" text-anchor="end" font-size="12" fill="#445166">335.84</text>
    
      <line x1="88" y1="298.4" x2="936" y2="298.4" stroke="#d8dde6" stroke-width="1" />
      <text x="78" y="302.4" text-anchor="end" font-size="12" fill="#445166">163.45</text>
    
      <line x1="88" y1="364.0" x2="936" y2="364.0" stroke="#d8dde6" stroke-width="1" />
      <text x="78" y="368.0" text-anchor="end" font-size="12" fill="#445166">-8.93</text>
    
  <line x1="88" y1="360.6" x2="936" y2="360.6" stroke="#7a8799" stroke-width="1.4" stroke-dasharray="4 4" />
  <line x1="88" y1="36" x2="88" y2="364" stroke="#445166" stroke-width="1.2" />
  <line x1="88" y1="364" x2="936" y2="364" stroke="#445166" stroke-width="1.2" />
  
      <line x1="88.0" y1="364" x2="88.0" y2="370" stroke="#445166" stroke-width="1" />
      <text x="88.0" y="386" text-anchor="middle" font-size="12" fill="#445166">2026-01-05</text>
    
      <line x1="506.0" y1="364" x2="506.0" y2="370" stroke="#445166" stroke-width="1" />
      <text x="506.0" y="386" text-anchor="middle" font-size="12" fill="#445166">2026-02-23</text>
    
      <line x1="936.0" y1="364" x2="936.0" y2="370" stroke="#445166" stroke-width="1" />
      <text x="936.0" y="386" text-anchor="middle" font-size="12" fill="#445166">2026-04-21</text>
    
  <polyline fill="none" stroke="#0b84f3" stroke-width="3" points="88.0,364.0 99.9,316.4 111.9,302.3 123.8,288.7 135.8,285.3 147.7,287.8 159.7,283.7 171.6,268.8 183.5,268.7 195.5,267.7 207.4,269.8 219.4,270.5 231.3,242.1 243.3,231.8 255.2,229.3 267.2,222.9 279.1,215.9 291.0,212.1 303.0,210.0 314.9,202.5 326.9,176.7 338.8,173.1 350.8,175.1 362.7,167.0 374.6,175.0 386.6,163.7 398.5,155.6 410.5,133.8 422.4,98.8 434.4,65.3 446.3,69.1 458.3,51.0 470.2,58.0 482.1,50.2 494.1,68.4 506.0,36.0 518.0,61.4 529.9,65.2 541.9,44.9 553.8,55.1 565.7,96.2 577.7,104.1 589.6,129.4 601.6,157.1 613.5,147.0 625.5,153.7 637.4,167.4 649.4,187.5 661.3,197.6 673.2,200.4 685.2,187.4 697.1,190.8 709.1,206.3 721.0,209.8 733.0,219.1 744.9,222.6 756.8,212.1 768.8,209.4 780.7,195.8 792.7,183.9 804.6,179.9 816.6,178.8 828.5,172.1 840.5,172.2 852.4,143.9 864.3,138.5 876.3,121.5 888.2,113.3 900.2,109.1 912.1,101.6 924.1,91.7 936.0,94.5" />
  <circle cx="936.0" cy="94.5" r="4.5" fill="#0b84f3" />
  <text x="932.0" y="84.5" font-size="12" fill="#18212f">699.26</text>
</svg>
